<svg viewBox="0 0.0015 45.6129 48.0085" width="45.6129" height="48.0085" xmlns="http://www.w3.org/2000/svg">
  <path d="M40.478,48.009h-0.655c-0.59-9.331-0.971-18.77-3.497-27.83c-1.229,0.148-1.511-1.374-0.606-2.016  c-0.148-0.46-0.303-0.917-0.465-1.372c-2.111-0.21-3.832-2.77-2.223-4.553c-4.459-6.187-16.298-6.357-21.402-0.943  c0.607,1.078-0.373,2.908-1.697,2.453c-2.846,5.958-3.91,12.621-4.714,19.123c1.918,0.782,1.836,3.669-0.381,3.833  c-0.361,3.761-0.491,7.541-0.768,11.306H3.42c0.02-3.828,0.24-7.666,0.517-11.487c-2.205-0.724-1.791-3.422,0.367-3.808  c0.512-4.592,1.286-9.162,2.564-13.608c0.592-2.04,1.248-4.08,2.261-5.956c-0.851-1.146,0.277-3.208,1.763-2.525  c5.36-5.824,18.282-5.615,22.933,1.013c0.859-0.608,2.241-0.569,3.035,0.141c1.329,1.421,1.267,3.934-0.603,4.851  c0.137,0.399,0.268,0.8,0.393,1.203c0.984,0.098,1.186,1.203,0.537,1.848c0.459,1.653,0.853,3.322,1.187,5.004  C39.876,32.36,40.361,40.206,40.478,48.009z M36.425,30.111c-0.065-0.001-0.132,0.005-0.2,0.016  c-0.823-4.858-1.859-10.647-4.678-14.757c-3.776-4.602-10.85-5.41-15.961-2.663c-1.245,0.66-2.371,1.547-3.234,2.663  c-4.353,6.725-5.178,17.28-5.587,25.168c-1.246,0.972-1.246,2.898-0.122,3.961c-0.016,1.168-0.092,2.346,0.011,3.509h0.708  c0.126-0.954,0.131-1.931,0.142-2.896c0.674,0.337,1.457,0.456,2.194,0.309c0.042,0.861,0.061,1.731,0.148,2.588h0.621  c0.001-0.95-0.014-1.905,0.011-2.856c1.042-0.502,1.505-1.714,1.25-2.812c-0.086-0.744-0.403-1.531-1.076-1.905  c0.492-6.586,1.586-13.193,3.948-19.384c2.594,1.4,4.388-0.792,3.231-3.3c0.447-0.182,0.915-0.316,1.391-0.413  c0.484,1.135,2.166,0.827,2.577-0.216c5.216-0.025,7.153,1.757,8.48,6.691c2.37,7.828,3.287,16.031,3.154,24.196h0.62  c0.63-8.636-0.539-17.418-3.154-25.663c-1.211-4.352-4.409-6.375-9.018-6.317c-0.196-0.821-1.202-1.354-1.949-0.874  c-0.35,0.303-0.644,0.721-0.764,1.177c-0.693,0.154-1.338,0.341-1.943,0.602c-0.673-0.655-1.726-0.422-2.426,0.064  c-1.069,0.655-1.58,2.154-0.947,3.255c-2.613,6.232-3.599,13.084-4.083,19.788c-0.672-0.244-1.431-0.376-2.088-0.016  c0.436-7.787,1.259-15.87,4.694-22.971c3.233-5.514,11.292-6.428,16.372-2.995c2.492,1.572,3.616,4.419,4.458,7.116  c0.977,3.001,1.658,6.097,2.124,9.217c-0.891,0.31-1.198,1.3-0.871,2.134c0.174,0.649,0.571,1.321,1.313,1.371  c0.551,4.689,0.47,9.414,0.766,14.112h0.711c0.121-4.72-0.153-9.458-0.567-14.162C38.608,33.413,38.446,30.217,36.425,30.111z   M29.231,32.59c-0.112-0.652-0.237-1.302-0.375-1.95c0.709-0.316,1.036-1.242,0.836-1.966c-0.171-0.686-0.904-0.88-1.526-0.825  c-0.564-1.97-1.127-4.124-2.879-5.38c-1.77-1.266-4.228-1.445-6.143-0.343c-2.111,1.216-2.785,3.528-3.414,5.727  c-2.216-0.176-2.817,2.84-0.884,3.746c-0.939,5.394-1.391,10.942-1.062,16.409h0.622c0.474-5.386,0.285-10.849,1.381-16.174  c0.562,0.02,1.114-0.176,1.435-0.678c0.488-0.917,0.302-2.355-0.576-2.977c0.493-1.533,0.816-3.243,1.963-4.445  c1.847-1.84,4.818-1.855,6.679,0c1.172,1.236,1.495,2.995,1.996,4.568c-0.702,0.737-0.489,2.243,0.607,2.456  c0.151,0.696,0.283,1.396,0.402,2.098c-0.665,0.248-1.235,0.797-1.576,1.412c-0.836,1.582,0.565,3.681,2.214,3.988  c0.305,3.242,0.206,6.518,0.558,9.752h0.621c0.285-3.239,0.021-6.517-0.187-9.757c1.414-0.215,2.127-1.789,2.065-3.109  C32.009,33.7,30.683,32.423,29.231,32.59z M45.394,41.695c-0.43-0.582-1.124-1.069-1.853-1.122  c-0.043-0.796-0.753-14.161-0.774-14.46c1.455-0.497,1.703-2.952-0.192-2.815c-0.506-8.3-3.545-16.914-12.108-19.751  c-0.035-1.905-2.425-2.243-3.51-0.919c-1.442-0.25-2.877-0.352-4.355-0.363c-0.181-0.89-0.947-1.715-1.718-2.064  c-1.501-0.776-3.16,0.854-3.252,2.44C8.808,3.894,4.193,8.571,2.229,17.162C1.348,17.309,1,18.79,1.831,19.261  c-0.45,2.825-0.595,5.686-0.767,8.535C0.69,34.534,0.237,41.265,0,48.009h0.713c0.937-9.547,0.995-19.166,2.2-28.686  c0.625-0.309,0.771-1.177,0.321-1.7C4.927,9.565,9.499,4.791,17.752,3.618c0.488,1.208,1.868,1.999,3.151,1.615  c0.976-0.148,1.586-0.984,1.701-1.924c1.305,0.039,2.605,0.177,3.886,0.407c-0.193,1.887,2.738,2.375,3.61,0.91  c8.163,2.302,10.996,11.346,11.432,18.978c-1.004,0.616-0.964,2.067,0.167,2.506c0.246,4.912,0.539,9.819,0.926,14.721  c-1.328,0.809-1.299,3.243,0.302,3.718c0.099,1.153,0.196,2.307,0.303,3.46h0.709c0.002,0.038-0.175-3.272-0.179-3.357  C45.083,44.564,46.07,42.869,45.394,41.695z"/>
</svg>