<?xml version="1.0" encoding="utf-8"?>
<svg viewBox="-0.016 0.012 72.391 72.392" width="72.391" height="72.392" xmlns="http://www.w3.org/2000/svg">
  <path d="M 71.986 30.871 C 71.986 30.867 71.986 30.867 71.986 30.867 C 71.96 30.698 71.934 30.533 71.904 30.364 C 71.748 29.371 71.544 28.391 71.301 27.429 C 71.253 27.23 71.206 27.034 71.145 26.835 L 71.145 26.831 C 70.889 25.851 70.586 24.889 70.248 23.948 C 70.192 23.788 70.131 23.627 70.07 23.471 C 69.949 23.142 69.823 22.816 69.688 22.496 C 69.597 22.275 69.506 22.054 69.411 21.837 C 68.852 20.541 68.214 19.283 67.508 18.07 C 67.417 17.91 67.326 17.749 67.226 17.589 C 67.222 17.58 67.217 17.567 67.209 17.559 C 67.109 17.39 67.005 17.221 66.901 17.056 C 66.433 16.306 65.939 15.578 65.418 14.867 C 65.323 14.733 65.223 14.598 65.123 14.468 C 64.963 14.256 64.802 14.043 64.637 13.835 C 64.468 13.623 64.294 13.406 64.121 13.198 C 63.514 12.461 62.881 11.75 62.218 11.065 C 61.945 10.788 61.672 10.51 61.394 10.241 C 59.127 8.039 56.569 6.131 53.785 4.579 C 53.594 4.471 53.403 4.367 53.208 4.267 C 52.315 3.786 51.404 3.348 50.468 2.945 C 50.208 2.832 49.952 2.724 49.688 2.62 C 48.08 1.974 46.415 1.436 44.702 1.029 C 44.459 0.964 44.216 0.908 43.969 0.86 C 42.777 0.596 41.563 0.392 40.332 0.253 C 40.011 0.214 39.69 0.184 39.37 0.153 C 38.668 0.092 37.961 0.049 37.246 0.032 C 36.895 0.016 36.536 0.012 36.18 0.012 C 36.08 0.012 35.976 0.012 35.877 0.016 C 33.987 0.029 32.127 0.189 30.319 0.484 C 30.042 0.527 29.764 0.579 29.487 0.631 C 28.876 0.744 28.273 0.874 27.675 1.017 C 27.424 1.078 27.176 1.143 26.929 1.208 C 24.961 1.724 23.058 2.405 21.237 3.233 C 19.793 3.888 18.397 4.633 17.062 5.47 C 6.808 11.856 -0.016 23.237 -0.016 36.208 C -0.016 50.771 8.585 63.326 20.985 69.066 C 22.372 69.712 23.807 70.267 25.281 70.735 C 26.417 71.09 27.57 71.394 28.749 71.637 C 29.529 71.802 30.323 71.94 31.125 72.053 C 32.04 72.179 32.963 72.274 33.895 72.33 C 34.563 72.373 35.235 72.399 35.915 72.404 L 36.179 72.404 C 36.786 72.404 37.389 72.391 37.987 72.356 C 38.525 72.334 39.062 72.295 39.595 72.243 C 41.346 72.078 43.063 71.792 44.737 71.38 C 45.27 71.254 45.795 71.116 46.315 70.964 C 48.396 70.357 50.39 69.572 52.298 68.619 L 52.302 68.619 C 52.736 68.407 53.16 68.185 53.581 67.951 C 53.941 67.756 54.296 67.552 54.647 67.34 C 55.024 67.119 55.397 66.889 55.766 66.651 C 56.663 66.074 57.535 65.454 58.376 64.8 L 58.38 64.8 C 58.748 64.51 59.108 64.223 59.464 63.92 C 60.175 63.326 60.86 62.702 61.519 62.056 C 61.818 61.761 62.113 61.462 62.403 61.159 C 62.585 60.968 62.763 60.777 62.941 60.582 C 63.218 60.279 63.492 59.971 63.752 59.654 C 64.502 58.783 65.204 57.872 65.863 56.927 C 66.101 56.589 66.331 56.246 66.552 55.9 C 66.777 55.562 66.99 55.219 67.198 54.873 C 67.393 54.557 67.58 54.236 67.757 53.911 C 67.809 53.824 67.861 53.733 67.909 53.642 C 68.082 53.334 68.247 53.018 68.408 52.701 C 68.503 52.519 68.594 52.337 68.685 52.15 C 68.841 51.833 68.993 51.513 69.14 51.188 C 69.435 50.546 69.708 49.887 69.964 49.224 C 70.085 48.912 70.202 48.595 70.315 48.275 C 70.445 47.906 70.571 47.538 70.688 47.161 C 70.792 46.836 70.892 46.506 70.983 46.177 C 71.182 45.488 71.36 44.785 71.512 44.079 C 71.586 43.78 71.646 43.476 71.703 43.173 C 72.145 40.919 72.375 38.59 72.375 36.21 C 72.376 34.396 72.242 32.614 71.986 30.871 Z M 1.068 36.208 C 1.068 26.063 5.395 16.907 12.297 10.495 C 8.829 14.835 6.258 19.872 4.849 25.253 C 3.028 32.19 3.076 39.612 4.949 46.531 C 6.709 53.03 10.164 58.965 14.829 63.807 C 15.145 64.136 15.466 64.457 15.796 64.778 C 6.886 58.405 1.068 47.97 1.068 36.208 Z M 20.295 67.514 C 19.194 66.695 18.136 65.819 17.126 64.882 C 12.361 60.486 8.724 54.976 6.617 48.841 C 4.328 42.182 3.816 34.92 5.16 28.006 C 6.409 21.581 9.283 15.563 13.458 10.517 C 14.486 9.277 15.582 8.094 16.744 6.979 C 18.626 5.722 20.637 4.642 22.753 3.766 C 21.747 4.512 20.789 5.318 19.896 6.181 C 14.485 11.396 11.165 18.576 9.777 25.894 C 8.342 33.468 8.914 41.397 11.333 48.711 C 13.652 55.734 17.736 62.094 23.138 67.149 C 24.183 68.124 25.271 69.057 26.407 69.932 C 24.284 69.317 22.237 68.507 20.295 67.514 Z M 28.801 70.536 C 27.769 69.825 26.772 69.066 25.805 68.264 C 20.299 63.694 15.925 57.833 13.219 51.204 C 10.379 44.246 9.278 36.633 10.111 29.159 C 10.93 21.832 13.649 14.527 18.444 8.856 C 20.473 6.463 22.862 4.412 25.511 2.804 C 23.434 4.651 21.548 6.732 19.897 8.904 C 16.043 13.968 13.32 19.92 12.085 26.241 C 10.741 33.134 11.088 40.374 13.078 47.103 C 14.947 53.411 18.28 59.151 22.755 63.859 C 25.322 66.564 28.283 69.053 31.517 71.012 C 30.6 70.887 29.694 70.731 28.801 70.536 Z M 36.18 71.32 C 35.322 71.32 34.472 71.29 33.635 71.225 C 30.488 69.504 27.531 67.453 24.869 64.921 C 20.365 60.638 16.827 55.236 14.668 49.322 C 12.305 42.849 11.534 35.757 12.448 28.911 C 13.298 22.547 15.63 16.499 19.176 11.227 C 21.491 7.789 24.3 4.776 27.457 2.196 C 29.651 1.628 31.931 1.273 34.268 1.151 C 30.787 3.744 27.735 6.934 25.203 10.446 C 21.227 15.952 18.566 22.386 17.594 29.114 C 16.562 36.28 17.33 43.694 19.831 50.487 C 22.215 56.955 26.165 62.756 31.289 67.36 C 32.871 68.782 34.571 70.113 36.366 71.314 C 36.306 71.32 36.241 71.32 36.18 71.32 Z M 37.962 71.273 C 36.458 70.337 35.01 69.305 33.631 68.186 C 28.481 64.002 24.336 58.657 21.661 52.579 C 18.795 46.08 17.625 38.84 18.21 31.769 C 18.769 25.049 21.015 18.563 24.631 12.884 C 27.575 8.258 31.368 4.335 35.743 1.1 C 35.89 1.096 36.033 1.096 36.181 1.096 C 36.788 1.096 37.386 1.113 37.985 1.144 C 36.884 1.955 35.83 2.83 34.816 3.741 C 32.432 5.874 30.286 8.258 28.395 10.842 C 24.537 16.118 21.836 22.257 20.734 28.712 C 19.572 35.527 20.118 42.633 22.451 49.149 C 24.653 55.305 28.464 60.794 33.493 64.973 C 36.298 67.301 39.471 69.269 42.87 70.674 C 41.27 70.991 39.635 71.19 37.962 71.273 Z M 44.456 70.332 C 44.257 70.258 44.057 70.185 43.858 70.107 C 41.014 68.997 38.313 67.497 35.846 65.698 C 30.748 61.983 26.698 56.936 24.175 51.161 C 21.452 44.94 20.499 37.977 21.201 31.24 C 21.873 24.78 24.175 18.589 27.717 13.157 C 30.739 8.522 34.619 4.542 39.015 1.213 C 40.311 1.313 41.586 1.486 42.839 1.733 C 39.353 4.508 36.158 7.633 33.379 11.123 C 29.282 16.265 26.156 22.235 24.721 28.677 C 23.329 34.907 23.654 41.406 25.861 47.406 C 27.99 53.202 31.705 58.348 36.613 62.107 C 40.576 65.142 45.383 67.392 50.356 68.324 C 48.471 69.166 46.498 69.838 44.456 70.332 Z M 51.727 67.683 C 47.162 66.924 42.787 65.316 38.881 62.745 C 33.809 59.407 29.829 54.612 27.375 49.067 C 24.865 43.383 24.08 37.054 25.082 30.928 C 26.118 24.559 28.871 18.563 32.643 13.357 C 35.782 9.026 39.584 5.319 43.655 1.899 C 45.272 2.25 46.846 2.71 48.368 3.278 C 47.258 3.863 46.174 4.505 45.125 5.177 C 42.355 6.959 39.797 9.062 37.534 11.455 C 32.895 16.35 29.561 22.428 28.274 29.07 C 26.965 35.816 27.645 42.969 30.606 49.204 C 33.407 55.1 38.236 59.761 43.855 62.986 C 46.66 64.599 49.669 65.865 52.76 66.801 C 52.899 66.844 53.037 66.883 53.176 66.927 C 52.698 67.189 52.217 67.444 51.727 67.683 Z M 54.293 66.278 C 51.618 65.55 49.004 64.605 46.502 63.408 C 40.857 60.698 35.854 56.64 32.594 51.243 C 29.078 45.416 27.825 38.389 28.614 31.664 C 29.39 25.031 32.225 18.797 36.509 13.694 C 40.016 9.51 44.382 6.15 49.19 3.597 C 50.209 4 51.206 4.455 52.173 4.954 C 50.682 5.964 49.238 7.048 47.833 8.184 C 45.349 10.191 42.999 12.372 40.914 14.795 C 36.891 19.456 33.743 25.018 32.534 31.096 C 31.407 36.771 32.118 42.684 34.42 47.987 C 36.713 53.267 40.607 57.742 45.54 60.716 C 48.935 62.767 52.797 64.141 56.751 64.644 C 55.958 65.22 55.134 65.767 54.293 66.278 Z M 57.861 63.807 C 54.341 63.473 50.885 62.506 47.703 60.898 C 42.713 58.37 38.651 54.343 36.062 49.383 C 33.474 44.419 32.377 38.657 33.105 33.095 C 33.881 27.16 36.638 21.593 40.31 16.92 C 42.443 14.202 44.906 11.731 47.52 9.476 C 49.228 8.006 51.019 6.641 52.822 5.297 C 55.328 6.65 57.647 8.297 59.741 10.205 C 58.701 10.235 57.664 10.383 56.689 10.591 C 53.836 11.198 51.105 12.421 48.673 14.016 C 43.887 17.159 40.132 21.841 38.177 27.226 C 36.135 32.84 36.261 39.131 38.251 44.737 C 40.28 50.442 44.195 55.32 49.428 58.385 C 52.658 60.284 56.313 61.515 60.05 61.931 C 59.348 62.589 58.616 63.213 57.861 63.807 Z M 60.939 61.08 C 57.792 60.829 54.7 60.053 51.778 58.652 C 46.545 56.15 42.392 51.902 39.968 46.639 C 37.558 41.406 36.894 35.328 38.329 29.735 C 39.69 24.411 42.885 19.638 47.151 16.196 C 49.288 14.471 51.725 13.083 54.309 12.142 C 56.264 11.431 58.415 10.932 60.535 10.941 C 61.285 11.665 62.005 12.419 62.69 13.208 C 58.632 13.407 54.57 14.929 51.236 17.075 C 46.623 20.049 43.099 24.519 41.516 29.791 C 39.908 35.15 40.241 41.08 42.392 46.239 C 44.516 51.329 48.436 55.495 53.373 57.962 C 55.896 59.224 58.697 60.095 61.554 60.451 C 61.356 60.664 61.148 60.872 60.939 61.08 Z M 62.366 59.571 C 60.051 59.354 57.766 58.812 55.611 57.963 C 50.673 56.021 46.515 52.453 44.04 47.74 C 41.525 42.962 40.745 37.266 41.825 31.981 C 42.9 26.744 45.853 22.118 50.084 18.862 C 52.408 17.076 55.061 15.715 57.866 14.873 C 59.648 14.335 61.456 14.041 63.281 13.902 C 63.48 14.149 63.684 14.401 63.879 14.652 C 55.295 16.213 47.634 22.72 45.41 31.265 C 44.157 36.086 44.569 41.34 46.65 45.871 C 48.662 50.245 52.26 53.649 56.695 55.496 C 59.114 56.502 61.798 57.048 64.451 57.005 C 63.796 57.894 63.103 58.752 62.366 59.571 Z M 65.153 56.016 C 62.955 56.116 60.74 55.847 58.607 55.179 C 54.198 53.8 50.413 50.913 48.128 46.877 C 45.783 42.732 45.05 37.747 45.865 33.077 C 46.684 28.36 49.125 24.133 52.676 20.942 C 55.915 18.024 59.968 16.06 64.225 15.107 C 64.724 15.762 65.196 16.438 65.643 17.132 C 64.312 17.262 63.007 17.548 61.711 18.012 C 59.699 18.727 57.835 19.772 56.162 21.094 C 52.759 23.773 50.301 27.571 49.434 31.828 C 48.567 36.064 49.174 40.546 51.051 44.44 C 52.967 48.42 56.279 51.537 60.329 53.28 C 62.12 54.052 64.027 54.555 65.969 54.771 C 65.708 55.193 65.435 55.609 65.153 56.016 Z M 52.615 45.486 C 50.426 41.94 49.524 37.665 49.996 33.533 C 50.473 29.371 52.489 25.552 55.545 22.712 C 58.398 20.063 62.13 18.277 66.002 17.696 C 66.015 17.718 66.028 17.735 66.041 17.757 C 65.261 17.904 64.498 18.113 63.774 18.347 C 61.862 18.963 60.059 19.903 58.446 21.1 C 55.199 23.519 52.775 26.935 51.774 30.876 C 50.764 34.869 51.141 39.174 52.771 42.95 C 54.397 46.713 57.327 49.804 60.987 51.655 C 62.795 52.57 64.737 53.19 66.731 53.498 C 66.67 53.611 66.605 53.719 66.54 53.832 C 60.952 53.298 55.629 50.372 52.615 45.486 Z M 67.23 52.583 C 65.721 52.392 64.234 51.998 62.821 51.434 C 59.214 49.995 56.132 47.389 54.25 43.981 C 52.36 40.565 51.644 36.476 52.247 32.618 C 52.85 28.777 54.757 25.283 57.636 22.668 C 59.257 21.194 61.152 20.032 63.181 19.208 C 64.174 18.809 65.201 18.501 66.246 18.28 C 66.281 18.271 66.315 18.267 66.35 18.258 C 67.061 19.45 67.703 20.686 68.275 21.965 C 63.038 22.776 58.291 26.691 56.487 31.668 C 55.273 35.011 55.269 38.804 56.431 42.164 C 57.563 45.433 59.8 48.177 62.748 49.981 C 64.226 50.887 65.865 51.563 67.565 51.941 C 67.456 52.158 67.347 52.37 67.23 52.583 Z M 68.028 50.983 C 63.645 50.029 59.739 47.294 57.788 43.032 C 56.405 40.002 56.119 36.473 56.93 33.251 C 57.736 30.051 59.666 27.251 62.341 25.33 C 64.218 23.982 66.347 23.106 68.58 22.672 C 68.745 23.058 68.897 23.444 69.044 23.838 C 64.977 25.542 62.008 29.734 61.197 33.978 C 60.196 39.215 62.567 44.366 66.807 47.478 C 67.483 47.977 68.203 48.414 68.962 48.783 C 68.674 49.531 68.366 50.263 68.028 50.983 Z M 69.32 47.814 C 66.779 46.535 64.625 44.571 63.25 41.957 C 60.97 37.626 61.711 32.432 64.542 28.543 C 65.786 26.831 67.421 25.456 69.263 24.446 C 69.623 25.439 69.931 26.458 70.199 27.489 C 69.475 28.044 68.825 28.699 68.235 29.462 C 67.086 30.953 66.254 32.727 65.864 34.569 C 65.079 38.293 66.146 42.134 68.539 45.061 C 68.912 45.516 69.328 45.971 69.783 46.396 C 69.641 46.873 69.484 47.346 69.32 47.814 Z M 69.71 45.009 C 68.531 43.73 67.612 42.195 67.074 40.539 C 65.973 37.153 66.588 33.459 68.544 30.507 C 69.069 29.718 69.689 28.955 70.387 28.266 C 70.617 29.246 70.799 30.239 70.942 31.249 C 69.338 32.953 68.449 35.264 68.536 37.661 C 68.592 39.209 69.056 40.73 69.85 42.061 C 70.08 42.447 70.331 42.811 70.604 43.141 C 70.452 43.895 70.279 44.641 70.075 45.378 C 69.953 45.26 69.827 45.135 69.71 45.009 Z M 69.38 37.578 C 69.306 35.631 69.939 33.672 71.045 32.05 C 71.21 33.411 71.292 34.803 71.292 36.208 C 71.292 38.172 71.132 40.101 70.815 41.978 C 69.97 40.656 69.437 39.143 69.38 37.578 Z" transform="matrix(1, 0, 0, 1, 0, 4.440892098500626e-16)"/>
</svg>