<?xml version="1.0" encoding="utf-8"?>
<svg viewBox="0 0 500 500" xmlns="http://www.w3.org/2000/svg">
  <defs/>
  <g transform="matrix(0.008534, 0, 0, 0.008534, -6.007224, -6.007166)">
    <path class="fil0" d="M41589.2 12584.1c-83.7,203.65 -316.66,300.89 -520.31,217.19 -203.65,-83.7 -300.89,-316.66 -217.19,-520.31 4,-9.73 9.15,-21.48 15.43,-35.24 103.1,-226.14 280.97,-393.88 488.81,-483.73 215.99,-93.39 462.52,-102.79 693.07,-8 32.5,13.37 20.83,7.4 31.46,12.23 13.99,6.37 27.43,13.46 40.31,21.18 213.25,110.28 367.35,297.57 445.78,515.96 80.16,223.2 80.79,480.39 -17.16,718.59 -6.91,16.81 -15.1,35.6 -24.59,56.39 -164.03,359.69 -445.21,625.76 -772.96,767.47 -335.88,145.22 -718.94,160.01 -1076.8,12.87 -14.1,-5.79 -30.38,-12.9 -48.84,-21.32 -366.75,-167.25 -631.41,-477.19 -762.79,-843.04 -128.26,-357.15 -129.03,-769.13 28.08,-1151.24 9.83,-23.92 21.13,-49.82 33.77,-77.56 166.12,-364.28 419.27,-658.25 720.62,-865.05 -71.57,-147.63 -144.79,-311.69 -221.25,-483.04 -343.65,-770.05 -766.21,-1716.89 -1322.21,-1681.67l-0.18 0.01 -4.09 0.27 -0.14 0.01c-126.2,8.35 -243.61,30.01 -353.55,63.83 -111.27,34.25 -217.62,81.77 -320.09,141.33 -11.03,6.41 -12.91,65.34 -37.85,140.09 -50.54,151.43 -102.69,307.62 -228.52,455.86l0.15 0.12c-83.54,110.28 -179.07,181.79 -277.63,238.93 -106.38,84.07 -211.15,163.42 -314.66,238.06 -28.26,86.22 -50.04,174.42 -64.83,265.01 -21.34,130.83 -28.26,268.73 -19.26,415.16 17.14,278.53 219.91,492.58 498.64,667.23 237.25,148.67 535.05,271.91 836.13,381.68 30.77,-113.68 68.91,-226.62 114.76,-338.12 83.7,-203.65 316.66,-300.89 520.31,-217.19 203.65,83.7 300.89,316.66 217.19,520.31 -197.93,481.37 -197.74,998.21 -37.41,1444.64 157.2,437.71 468.8,806.21 897.48,1001.7 16.14,7.36 34.71,15.36 55.49,23.9 405.87,166.89 841.89,149.45 1225.43,-16.37 391.69,-169.35 730.43,-493.25 931.85,-934.92 9.54,-20.93 19.7,-44.47 30.44,-70.6 138.76,-337.46 138.72,-699.51 26.49,-1012 -25.02,-69.67 -55.66,-136.79 -91.56,-200.5 -7.01,-10.79 -13.47,-21.84 -19.34,-33.14 -120.24,-199.07 -293.55,-361.97 -509.87,-460.61 -10.4,-4.74 -23.1,-10.2 -38.1,-16.36 -278.58,-114.56 -578.1,-102.48 -841.74,11.5 -271.78,117.51 -507.2,343.08 -647.7,651.19 -6.38,14.01 -13.48,30.46 -21.27,49.42 -79.58,193.54 -79.71,400.79 -15.58,579.36 60.99,169.85 180.52,312.23 344.05,386.8 4.62,2.1 11.57,5.07 20.7,8.82 151.3,62.21 314.33,55.51 458.06,-6.63 151.87,-65.66 283.98,-192.91 363.58,-367.47 3.2,-7.01 7.26,-16.49 12.09,-28.25 20.4,-49.62 20.69,-102.08 4.66,-146.71 -10.97,-30.54 -29.59,-56.3 -53.96,-72.01l-13.39 -5.77c-13.31,-6.05 -4.33,-2.78 0.48,-1.04l0.08 -0.2 -3.88 -1.61c-24,-9.87 -50.52,-8.53 -74.33,1.76 -31.96,13.81 -60.75,42.74 -79.43,83.73l-2.93 7.1zm-9801.03 12279.46l625.81 1873.65c43.68,130.52 -26.71,271.75 -157.23,315.43 -130.52,43.68 -271.75,-26.71 -315.43,-157.23l-634.96 -1901.05c-408.98,92.47 -822.52,138.08 -1236.82,127.84 -222.91,-5.51 -445.04,-28.03 -665.82,-65.79l-614.23 1839c-43.68,130.52 -184.91,200.91 -315.43,157.23 -130.52,-43.68 -200.91,-184.91 -157.23,-315.43l597.7 -1789.49c-540.87,-147.48 -1070.92,-381.28 -1581.55,-676.28l-1194.83 1931.42c-72.27,117.03 -225.74,153.32 -342.77,81.05 -117.03,-72.27 -153.32,-225.74 -81.05,-342.77l1194.69 -1931.19c-450.32,-295.28 -883.9,-635.17 -1293.74,-1000.52l-2281.48 1955.56c-104.63,89.53 -262.03,77.29 -351.56,-27.34 -89.53,-104.63 -77.29,-262.03 27.34,-351.56l2237.33 -1917.71c-301.72,-289.79 -588.35,-591.01 -856.7,-895.12 -54.86,34.73 -114.08,71.06 -177.19,108.3 -183.25,108.11 -406.66,228.07 -662.91,345.18 -200.2,91.47 -436.66,3.33 -528.13,-196.87 -91.47,-200.2 -3.33,-436.66 196.87,-528.13 218.59,-99.9 418.66,-207.83 587.91,-307.68 246.16,-145.24 410.47,-263.89 470.22,-313.85 1673.94,-1400.02 3854.53,-2096.52 6030.1,-2089.5 2175.44,7.02 4350.12,716.46 6013.22,2128.28 50.71,43.04 189.72,143.57 398.27,261.3 141,79.61 313.36,166.46 512.16,248.61 203.65,83.7 300.89,316.66 217.19,520.31 -83.7,203.65 -316.66,300.89 -520.31,217.19 -226.55,-93.62 -429.73,-196.41 -599.66,-292.35 -60.57,-34.19 -116.93,-67.58 -168.73,-99.46 -244.42,275.18 -504.03,546.02 -776.39,807.16l2338.4 2004.34c104.63,89.53 116.87,246.93 27.34,351.56 -89.53,104.63 -246.93,116.87 -351.56,27.34l-2383.12 -2042.68c-399.23,354.48 -821.8,684.9 -1261.09,976.12l1263.68 2042.71c72.27,117.03 35.98,270.5 -81.05,342.77 -117.03,72.27 -270.5,35.98 -342.77,-81.05l-1262.03 -2040.05c-44.78,26.41 -89.7,52.42 -134.77,77.94 -456.51,258.49 -927.85,471.05 -1407.69,622.81zm81.59 -5137.91c4.89,49.62 7.39,99.69 7.39,150.06 0,425.98 -172.7,811.67 -451.9,1090.87 -279.2,279.2 -664.89,451.9 -1090.87,451.9 -425.98,0 -811.67,-172.7 -1090.87,-451.9 -279.2,-279.2 -451.9,-664.89 -451.9,-1090.87 0,-57.2 3.2,-113.9 9.44,-169.9 -278.15,45.01 -553.92,102.86 -825.99,173.55 0.99,650.1 264.85,1238.55 690.98,1664.69 426.94,426.93 1016.79,691 1668.34,691 651.55,0 1241.41,-264.07 1668.34,-691 419.37,-419.38 681.57,-995.94 690.73,-1633.77 -271.12,-74.41 -546.13,-135.95 -823.69,-184.63zm-2229.85 -116.24c-12.75,33.53 -23.23,68.6 -31.2,105.02 -11.2,51.11 -17.1,105.06 -17.1,161.28 0,205.15 83.13,390.86 217.52,525.25 134.39,134.39 320.1,217.52 525.25,217.52 205.15,0 390.86,-83.13 525.25,-217.52 134.39,-134.39 217.52,-320.1 217.52,-525.25 0,-55.5 -5.67,-108.38 -16.42,-158.14 -7.63,-35.33 -17.02,-68.44 -28.03,-99.21 -241.25,-19.73 -483.4,-29.99 -725.62,-30.77 -222.61,-0.72 -445.22,6.55 -667.17,21.82zm3840.53 557.54c-69.13,756.17 -404.72,1435.33 -912.1,1942.72 -571.74,571.74 -1361.59,925.38 -2233.96,925.38 -872.37,0 -1662.21,-353.65 -2233.96,-925.38 -516.75,-516.77 -855.32,-1211.72 -915.66,-1984.72 -771,280.72 -1499.08,671.41 -2150.92,1172.06 739.98,830.96 1620.89,1632.94 2568.05,2205.23 802.98,485.18 1648.86,802.38 2486.41,823.08 912,22.55 1837.64,-282.22 2713.8,-778.33 1002.67,-567.74 1936.63,-1383.04 2715.07,-2250.75 -619.72,-475.82 -1308.16,-852.22 -2036.73,-1129.29zm117.72 -1960.6c129.44,46.92 196.34,189.9 149.42,319.34 -46.92,129.44 -189.9,196.34 -319.34,149.42 -945.4,-345.25 -1953.2,-527.94 -2964.32,-548.06 -1014.59,-20.18 -2032.46,122.89 -2994.02,429.22 -131.05,41.53 -270.97,-31.05 -312.5,-162.1 -41.53,-131.05 31.05,-270.97 162.1,-312.5 1013.93,-323.02 2086.24,-473.91 3154.18,-452.66 1066.38,21.21 2128.64,213.67 3124.48,577.34zm-12423.83 19947.16c0,-137.52 111.5,-249.02 249.02,-249.02 137.52,0 249.02,111.5 249.02,249.02l-8.4 2402.55c0,137.52 -111.5,249.02 -249.02,249.02 -137.52,0 -249.02,-111.5 -249.02,-249.02l8.4 -2402.55zm-14.98 4280.97c0,-137.52 111.5,-249.02 249.02,-249.02 137.52,0 249.02,111.5 249.02,249.02l-8.52 2434.14c0,137.52 -111.5,249.02 -249.02,249.02 -137.52,0 -249.02,-111.5 -249.02,-249.02l8.52 -2434.14zm-14.45 4127.54c0,-137.52 111.5,-249.02 249.02,-249.02 137.52,0 249.02,111.5 249.02,249.02l-13.55 3875.18c54.09,46.26 108.47,92.24 163.16,137.9 518.67,433.04 1063.44,838.42 1619.45,1212.73l14.08 -3289.59c0.54,-137.52 112.48,-248.58 250,-248.04 137.52,0.54 248.58,112.48 248.04,250l-15.46 3611.99c777.21,492.32 1567.55,923.12 2331.65,1283.29 1659.12,782.04 2796.74,1171.24 3909.86,1168.74 1111.95,-2.49 2249.55,-397.01 3908.97,-1182.31 759.96,-359.64 1545.42,-788.99 2317.73,-1279.09l-15.42 -3602.62c-0.54,-137.52 110.52,-249.46 248.04,-250 137.52,-0.54 249.46,110.52 250,248.04l14.04 3279.63c554.93,-374.27 1098.55,-779.52 1616.1,-1212.34 55.82,-46.68 111.33,-93.68 166.51,-140.99l-13.51 -3862.52c0,-137.52 111.5,-249.02 249.02,-249.02 137.52,0 249.02,111.5 249.02,249.02l11.96 3419.86c581.26,-539.3 1115.99,-1114.39 1579.32,-1719.34l-21.6 -4564.33c-0.54,-137.52 110.52,-249.46 248.04,-250 137.52,-0.54 249.46,110.52 250,248.04l18.29 3865.87c71.73,-110.82 140.94,-222.5 207.47,-335.02 1341.84,-2269.48 2662.51,-4879.14 3679.09,-8313.34 1019.87,-3445.3 1736.64,-7723.66 1867.98,-13325.53 5.18,-220.05 187.77,-394.24 407.82,-389.06 220.05,5.18 394.24,187.77 389.06,407.82 -133.23,5682.23 -862.04,10027.95 -1899.24,13531.77 -1040.47,3514.91 -2388.43,6179.54 -3757.21,8494.6 -774.08,1309.22 -1875.97,2504.72 -3119.52,3544.67 -1438.4,1202.92 -3070.37,2200.75 -4602.37,2925.76 -1764.4,834.98 -2994.07,1254.49 -4249.59,1257.31 -1254.37,2.81 -2484.61,-411.38 -4250.48,-1243.74 -1536,-724.03 -3174.76,-1723.43 -4619.64,-2929.76 -1248.2,-1042.12 -2354.46,-2240.91 -3130.97,-3554.24 -1368.78,-2315.06 -2716.74,-4979.68 -3757.22,-8494.6 -1037.2,-3503.82 -1766,-7849.54 -1899.23,-13531.77 -5.18,-220.05 169.01,-402.64 389.06,-407.82 220.05,-5.18 402.64,169.01 407.82,389.06 131.34,5601.87 848.1,9880.24 1867.97,13325.53 1016.59,3434.21 2337.26,6043.86 3679.1,8313.34 71.06,120.19 145.21,239.42 222.2,357.68l18.4 -3888.53c0.54,-137.52 112.48,-248.58 250,-248.04 137.52,0.54 248.58,112.48 248.04,250l-21.69 4583.56c463.85,603.01 998.54,1176.25 1579.36,1713.82l12.01 -3433.57zm-2039.1 -8919.5c0.54,-137.52 112.48,-248.58 250,-248.04 137.52,0.54 248.58,112.48 248.04,250l-22.37 4730.62c-0.54,137.52 -112.48,248.58 -250,248.04 -137.52,-0.54 -248.58,-112.48 -248.04,-250l22.37 -4730.62zm4825 9296.66c-0.54,137.52 -112.48,248.58 -250,248.04 -137.52,-0.54 -248.58,-112.48 -248.04,-250l25.38 -5926.63c0.54,-137.52 112.48,-248.58 250,-248.04 137.52,0.54 248.58,112.48 248.04,250l-25.38 5926.63zm30.7 -7169.95c-0.54,137.52 -112.48,248.58 -250,248.04 -137.52,-0.54 -248.58,-112.48 -248.04,-250l9.11 -2124.75c0.54,-137.52 112.48,-248.58 250,-248.04 137.52,0.54 248.58,112.48 248.04,250l-9.11 2124.75zm14651.7 -1615.72c0,-137.52 111.5,-249.02 249.02,-249.02 137.52,0 249.02,111.5 249.02,249.02l8.4 2402.55c0,137.52 -111.5,249.02 -249.02,249.02 -137.52,0 -249.02,-111.5 -249.02,-249.02l-8.4 -2402.55zm14.98 4280.97c0,-137.52 111.5,-249.02 249.02,-249.02 137.52,0 249.02,111.5 249.02,249.02l8.52 2434.14c0,137.52 -111.5,249.02 -249.02,249.02 -137.52,0 -249.02,-111.5 -249.02,-249.02l-8.52 -2434.14zm2053.55 -4790c-0.54,-137.52 110.52,-249.46 248.04,-250 137.52,-0.54 249.46,110.52 250,248.04l22.37 4730.62c0.54,137.52 -110.52,249.46 -248.04,250 -137.52,0.54 -249.46,-110.52 -250,-248.04l-22.37 -4730.62zm-3828.92 9292.74c0.54,137.52 -110.52,249.46 -248.04,250 -137.52,0.54 -249.46,-110.52 -250,-248.04l-25.38 -5926.63c-0.54,-137.52 110.52,-249.46 248.04,-250 137.52,-0.54 249.46,110.52 250,248.04l25.38 5926.63zm-30.7 -7169.95c0.54,137.52 -110.52,249.46 -248.04,250 -137.52,0.54 -249.46,-110.52 -250,-248.04l-9.11 -2124.75c-0.54,-137.52 110.52,-249.46 248.04,-250 137.52,-0.54 249.46,110.52 250,248.04l9.11 2124.75zm13147.62 -26442.8c-11.24,49.1 -31.11,93.97 -57.61,133.43 52.09,36.79 105.05,72.97 158.98,108.62 1176.14,777.46 1769.47,1625.46 1961.81,2558.18 183.07,887.75 -8.61,1822.22 -410.81,2828.99 518.51,557.87 804.25,1149.33 912.04,1778.79 151.17,882.78 -58.42,1812.03 -468.99,2812.9 4044.47,4257.48 3982.11,5895.38 2020.43,8596.06 1036.3,1113.1 1994.66,2252 2469.46,3453.42 464.33,1174.86 496.99,2569.84 184.72,3936.03 -274.58,1201.32 -817,2384.87 -1567.06,3377.26 -346.74,458.77 -738.21,877.45 -1168.61,1239.44 1064.8,2313.62 723.96,5155.6 -494.98,7781.06 -1018.72,2194.22 -2654.63,4245.41 -4592.88,5707.37 -4.12,3.23 -8.3,6.37 -12.52,9.41 -383.59,288.65 -778.93,554.36 -1183.7,793.36 -277.1,163.62 -565.31,317.79 -864.08,461.48 -758.42,364.75 -1382.15,459.23 -1876.88,357.34 -465.59,-95.89 -811.39,-355.49 -1046.09,-726.76 -215.55,-341 -329.39,-773.63 -349.42,-1252.62 -36.59,-874.63 244.58,-1933.17 791.3,-2854.95 -1665.7,-2481.66 -3350.14,-5762.84 -394.47,-8758.58 1547.11,-1568.08 3914.12,-1320.63 4905.79,-1136.04 -48.13,-147.83 -96.72,-294.98 -145.64,-441.34 -3125.28,-9350.14 -1825.23,-10550.58 -63.72,-12177.08 643.34,-594.03 1355.45,-1251.87 1888.23,-2525.91 -101.55,-142.14 -197.71,-284.54 -287.56,-427.31 -344.6,-547.57 -586.67,-1090.06 -814.44,-1602.9 -8.26,-15.63 -15.51,-31.93 -21.68,-48.81 -536.87,-1208.5 -1002.75,-2225.68 -2781.79,-2581.96 -633.51,-126.87 -1123.43,-220.83 -1584.34,-309.22 -5374.06,-1030.63 -7182.95,-1377.69 -9011.16,-7401.96 -552.06,421.51 -1220.9,722.15 -1950.05,827.22l-0.05 -0.36c-173.22,24.74 -348.52,-67.39 -421.83,-235.57 -303.78,-694.73 -420.5,-1378.29 -389.99,-2040.36 14.31,-310.48 61.03,-615.32 135.97,-913.58 -78.96,85.62 -177.23,156.57 -312.63,201.42 -200.03,66.24 -405.8,109.32 -619.28,126.37 -210.96,16.84 -428.82,7.51 -655.5,-30.81 -1037.65,-175.46 -1429.46,-1280.36 -1683.63,-2362.15 -254.34,1073.88 -648.02,2163.4 -1677.8,2337.53 -215.21,36.39 -423.24,46.46 -625.69,32.67 -202.7,-13.81 -400.06,-51.8 -593.62,-111.43 -260.12,-80.15 -390.15,-250.77 -505.89,-439.51 115.21,376 186.25,763.16 204.52,1159.49 30.51,662.07 -86.21,1345.63 -390,2040.36 -73.31,168.18 -248.61,260.31 -421.83,235.57l-0.05 0.36c-409.04,-58.94 -799.1,-179.45 -1160.22,-348.3 -2875.75,5533.21 -4999.18,5943.08 -10186.1,6944.19 -422.8,81.6 -868.43,167.61 -1469.93,288.07 -1610.96,322.62 -2050.21,1297.41 -2480.86,2434 -3.11,21.22 -6.46,42.16 -9.39,63.57 -10.64,79.14 -43.81,149.72 -92.17,206.15 -215.27,571.84 -448.45,1171.6 -823.84,1768.08 -59.8,95.01 -122.69,189.45 -188.37,283.36 528.07,1212.65 1220.78,1852.5 1848.09,2431.73 1761.51,1626.51 3061.56,2826.94 -63.72,12177.08 -43.61,130.48 -86.95,261.63 -129.94,393.29 1108.24,-165.74 3206.03,-248.42 4619.38,1184.09 2700.99,2737.61 1526.98,5713.55 33.46,8099.91 766.51,736.43 1158.04,1966.71 1086.89,3055.27 -29.74,454.84 -139.34,890.92 -335.02,1264.16 -206.36,393.63 -506.02,715.68 -906.07,918.36 -733.68,371.71 -1781.02,326.62 -3166.35,-458.86 -74.54,-42.26 -135.24,-77.23 -181.84,-104.75 -404.07,-238.59 -798.75,-503.81 -1181.75,-791.96 -6.09,-4.34 -12.08,-8.89 -17.98,-13.6 -1999.75,-1509.75 -3677.64,-3647.78 -4687.28,-5923.05 -1111.15,-2504.03 -1417.61,-5183.23 -468.91,-7401.59 -509.28,-396.67 -968.04,-871.97 -1367.47,-1400.44 -750.06,-992.39 -1292.49,-2175.94 -1567.07,-3377.27 -312.26,-1366.19 -279.6,-2761.16 184.72,-3936.02 498.18,-1260.52 1571.6,-2389.71 2712.88,-3490.81 -1935.32,-2678.69 -1978.2,-4320.72 2047.73,-8558.67 -410.57,-1000.87 -620.16,-1930.12 -468.99,-2812.9 107.79,-629.46 393.51,-1220.93 912.03,-1778.78 -402.19,-1006.76 -593.88,-1941.26 -410.81,-2829 192.34,-932.72 785.69,-1780.72 1961.81,-2558.18 219.84,-145.31 423.76,-299.3 616.54,-468.54 -235.27,-1079.09 -386.64,-2290.39 -120.68,-3434.55 293.65,-1263.29 1079.57,-2420.17 2778.66,-3192.92 951.55,-432.76 1826.14,-842 2686.5,-1330.56 857.25,-486.79 1712.1,-1058.63 2636.07,-1822.59 210.19,-173.79 427.54,-345.42 650.38,-511.9 1307.96,-977.15 2871.76,-1832.31 4454.18,-2048.22 1614.24,-220.27 3227.89,214.55 4590.1,1827.33 48.21,-36.99 97.19,-72 146.91,-105.1 170.89,-113.76 350.66,-204.69 539.2,-275.74 300.01,-113.06 526.77,-16.35 763.05,84.42 92.15,39.29 187.4,79.92 239.11,77.23 14.1,-0.72 28.07,-0.69 41.86,0.04 41.13,1.24 129.57,-39.37 215.48,-78.82 228.88,-105.12 449.79,-206.57 742.55,-103.16 197.55,69.77 387.38,162.06 569.62,280.41 147.15,95.57 287.44,207.19 420.78,336.63 41.9,-53.63 84.52,-106.64 127.84,-159.04 1372.16,-1659.57 3004.69,-2107.04 4637.82,-1884.2 1582.42,215.92 3146.21,1071.09 4454.19,2048.24 222.83,166.47 440.17,338.09 650.36,511.88 923.97,763.96 1778.82,1335.8 2636.06,1822.59 860.37,488.57 1734.97,897.8 2686.5,1330.56 1699.1,772.75 2485.02,1929.63 2778.67,3192.92 284.73,1224.92 91.16,2526.81 -171.64,3661.04zm-723.89 -420.04c212.34,-981.61 348.26,-2069.75 117.41,-3062.88 -241.08,-1037.15 -898.36,-1992.41 -2328.67,-2642.92 -965.75,-439.23 -1856.11,-856.1 -2752.14,-1364.92 -899.16,-510.6 -1792.29,-1107.49 -2751.68,-1900.73 -196.89,-162.79 -403.56,-325.86 -619.1,-486.88 -1217.84,-909.81 -2657.99,-1703.89 -4082.33,-1898.24 -1373.65,-187.43 -2750.8,193.77 -3915.94,1602.96 -65.53,79.26 -131.82,163.69 -198.83,253.39 -27.66,37.06 -60.53,67.93 -96.82,92.4 226.5,711.21 -33.99,1573.24 -344.37,2369.47 814.14,-721.32 1752.73,-1373.73 2695.34,-870.63 79.58,42.47 155.65,87.72 228.41,135.68 666.29,-571.49 1406.67,-1008.05 2221.86,-1254.92 842.65,-255.19 1760.56,-306.89 2753.31,-94.94 185.01,39.22 312.72,200.72 316.49,381.99 96.39,1089.71 5.36,1931.16 -198.53,2628.89 -143.33,490.48 -339.59,904.92 -564.51,1281.55 475.57,238.56 816.92,756.65 1097.12,1310.9 38.74,-895.95 214.34,-1787.84 1010.31,-2121.55 186.25,-78.09 370.93,-129.8 555.1,-157.91 180.88,-27.61 364.38,-31.64 551.17,-14.88 285.98,25.67 432.18,190.64 583.64,361.54 50.98,57.54 103.49,116.78 127.26,126.18l-0.29 0.73c12.21,4.84 24.3,10.32 36.22,16.46 30.61,15.89 110.39,17.9 187.57,19.84 229.58,5.77 449.95,11.32 661.13,219.49 126.54,124.72 239.97,262.57 339.28,415.93 98.45,152.06 182.64,319.19 251.52,503.68 98.12,262.8 114.36,517.18 71.73,762.57 809.27,66.65 1405.22,321.73 1840.11,624.05 540.36,375.63 829.47,822.24 973.99,1078.88 325.82,578.56 639.54,1033.99 972.21,1409.27 85.51,96.46 172.68,188.06 262.03,275.55zm-37699.29 604.83c-9.25,9.83 -19.02,19.2 -29.27,28.08 -272.35,259.44 -560.92,485.84 -877.04,694.8 -982.4,649.41 -1471.69,1327.07 -1621.17,2051.94 -131.23,636.4 -10.67,1333.57 263.75,2094.58 135.67,-105.35 281.06,-209.47 436.71,-312.36 139.49,-92.21 307.89,-196.66 478.06,-302.19 1008.23,-625.29 2087.86,-1294.87 2498.21,-3384.93 42.28,-216.6 252.15,-357.91 468.75,-315.63 69.99,13.66 132.1,44.84 182.71,88.07 -103.93,-252.68 -45.72,-458.02 14.91,-671.7 24.33,-85.79 49.49,-174.49 43.2,-220.26 -1.84,-13.69 -2.96,-27.31 -3.39,-40.82 -3.74,-33.68 -42.21,-106.83 -79.6,-177.93 -104.01,-197.8 -204.4,-388.71 -143.73,-662.64 41,-185.12 100.55,-363.98 181.48,-536.81 82.42,-176.02 184.25,-342.61 308.07,-499.61 560.72,-711.03 1449.81,-594.61 2292.99,-345.17 -206.87,-221.15 -403.73,-454.3 -561.13,-698.76 -783.32,16.9 -1330.49,234.79 -1710.68,499.07 -406.13,282.32 -624.23,619.44 -733.38,813.24 -351.55,624.26 -697.51,1124.07 -1072.21,1546.77 -110.14,124.26 -222.28,241.27 -337.24,352.26zm17201.43 -10086.12c-7.98,9.43 -16.48,18.53 -25.44,27.3 -494.22,546.24 -22.39,1694.02 361.99,2628.8 54.68,132.97 107.79,262.14 157.19,387.3 253.37,-106.81 529.32,-165.44 818.27,-165.44 384.88,0 746.7,104.03 1062.83,287.39 62.06,-162.71 131.94,-332.64 204.56,-509.27 387.15,-941.53 863.19,-2099.25 351.3,-2640.63 -115.76,-122.44 -237.05,-223.59 -363.91,-305.98 -125.29,-81.37 -259,-145.95 -400.86,-196.05 -10,-3.53 -66.45,38.66 -145.67,75.04 -169.53,77.86 -343.98,157.98 -568.1,151.49 -226.06,7 -401.87,-67.96 -572.11,-140.56 -86.2,-36.76 -168.96,-72.04 -169.29,-71.92 -132.28,49.85 -258.9,113.97 -379.84,194.48 -115.38,76.8 -225.69,168.87 -330.92,278.05zm-807.8 -251.99l-16.74 -20.34c-1165.14,-1409.19 -2542.27,-1790.38 -3915.91,-1602.95 -1424.35,194.34 -2864.49,988.41 -4082.32,1898.22 -215.54,161.03 -422.23,324.11 -619.12,486.9 -959.39,793.24 -1852.52,1390.13 -2751.69,1900.73 -896.03,508.82 -1786.38,925.69 -2752.14,1364.92 -1430.3,650.51 -2087.58,1605.77 -2328.66,2642.92 -191,821.69 -130.94,1708.43 15.76,2546.06 259.33,-325.91 510.74,-708.04 769.76,-1168 144.53,-256.63 433.64,-703.25 974,-1078.88 434.89,-302.32 1030.83,-557.39 1840.1,-624.05 -42.62,-245.4 -26.39,-499.77 71.73,-762.57 68.88,-184.5 153.08,-351.62 251.53,-503.68 99.3,-153.35 212.73,-291.2 339.27,-415.93 211.21,-208.18 431.55,-213.72 661.14,-219.49 77.17,-1.94 156.96,-3.95 187.57,-19.84 11.92,-6.14 24.01,-11.62 36.22,-16.46l-0.29 -0.73c23.75,-9.39 76.27,-68.65 127.26,-126.18 151.45,-170.91 297.66,-335.87 583.63,-361.54 186.79,-16.76 370.3,-12.73 551.17,14.88 184.17,28.11 368.85,79.82 555.1,157.91 795.98,333.72 971.57,1225.62 1010.31,2121.58 280.2,-554.26 621.55,-1072.36 1097.13,-1310.92 -224.93,-376.63 -421.18,-791.08 -564.51,-1281.56 -203.89,-697.73 -294.91,-1539.18 -198.53,-2628.89 3.77,-181.27 131.48,-342.77 316.49,-381.99 992.75,-211.95 1910.65,-160.25 2753.3,94.94 825.34,249.95 1574.02,694.35 2246.74,1276.36 99.26,-71.23 204.83,-136.95 317.23,-196.94 949.69,-506.88 1895.28,159.13 2713.65,886.85 -355.26,-915.86 -638.91,-1915.63 -189.18,-2671.33zm-1669.46 42732.32c435.74,66.52 875.19,201.23 1317.88,336.97 541.82,166.13 1088.89,333.88 1614.85,363.55 34.62,1.95 130.82,-36.82 239.67,-80.69 186.21,-75.05 398.91,-160.77 634.91,-161.27 236.84,-0.5 445.55,83.34 626.99,156.23 104.44,41.96 195.85,78.67 223.82,75.97 484.16,-46.88 986.86,-201.02 1485.12,-353.79 442.7,-135.74 882.14,-270.44 1317.89,-336.97 -361.02,-241.16 -683.77,-513.97 -986.52,-769.88 -305.03,-257.84 -587.81,-496.87 -839.38,-641.4 -8.61,-3.96 -17.14,-8.24 -25.58,-12.87 -431.99,-239.01 -1013.43,291.51 -1395.35,639.99 -75.73,69.1 -145.16,132.45 -215.13,191.57 -77.99,65.99 -173.93,96.86 -268.61,94.26 -94.68,2.6 -190.61,-28.27 -268.6,-94.26 -69.97,-59.12 -139.4,-122.47 -215.13,-191.57 -381.92,-348.48 -963.36,-879 -1395.35,-639.99 -8.44,4.63 -16.97,8.91 -25.58,12.87 -251.57,144.53 -534.35,383.56 -839.38,641.4 -302.75,255.91 -625.5,528.72 -986.52,769.88zm8442.33 504.69c-667.57,-146.44 -1405.02,79.61 -2152.61,308.84 -521.75,159.98 -1048.13,321.38 -1584.72,373.33 -148.7,14.39 -292.22,-43.28 -456.24,-109.17 -140.52,-56.45 -302.16,-121.38 -441.45,-121.09 -137.14,0.29 -303.62,67.39 -449.37,126.13 -163.33,65.83 -307.68,123.99 -452.55,115.83 -586.1,-33.06 -1162.82,-209.9 -1733.99,-385.03 -747.59,-229.23 -1485.03,-455.28 -2152.6,-308.84 -101.11,36.12 -205.04,68.44 -312.1,96.27 -213.14,55.22 -430.72,-72.8 -485.94,-285.94 -55.22,-213.14 72.8,-430.72 285.94,-485.94 772.18,-200.73 1406.1,-736.58 1964.2,-1208.34 331.26,-280.01 638.26,-539.51 964.62,-725.58 10.13,-6.84 20.65,-13.31 31.58,-19.31 901.39,-498.71 1713.99,200.35 2263.46,700.36 549.47,-500.01 1362.09,-1199.06 2263.47,-700.36 10.93,6 21.45,12.47 31.58,19.31 326.36,186.07 633.36,445.57 964.62,725.58 558.1,471.76 1192.02,1007.61 1964.2,1208.34 213.14,55.22 341.16,272.8 285.94,485.94 -55.22,213.14 -272.8,341.16 -485.94,285.94 -107.05,-27.83 -210.99,-60.15 -312.1,-96.27zm-25523.61 -16215.77c-570.11,667.79 -1251.42,1316.37 -1937.14,1969.15l-29.89 28.45c293.69,385.84 624.63,797.42 986.4,1247.1l24.27 30.16c3023.78,3758.59 1493.15,6340.2 -702.9,10044.13 -89.6,151.12 -180.37,304.21 -271.99,459.38 -19.38,32.81 -33.68,57.22 -43.03,73.41 244.96,149.05 500.2,277.38 764.67,381.9 769.18,303.99 1619.65,407 2525,233.41 88.08,-277.47 178.02,-552.77 269.11,-825.28 2961.42,-8859.93 1822.53,-9911.56 279.36,-11336.46 -625.36,-577.43 -1309.89,-1209.9 -1863.86,-2305.35zm-2548.6 2554.66c-1049.69,1016.96 -2021.37,2051.67 -2452.11,3141.57 -403.42,1020.78 -427.97,2249.57 -150.36,3464.14 249.93,1093.46 743.68,2170.77 1426.45,3074.13 325.25,430.33 693.06,820.29 1097.24,1152.37l8.63 -14.76c91.62,-155.17 182.39,-308.26 271.99,-459.38 2030.17,-3424.15 3445.18,-5810.76 768.52,-9137.87l-24.27 -30.16c-341.35,-424.3 -658.19,-818.23 -946.09,-1190.04zm8967.32 21701.48c-226.05,336.08 -451.47,657.55 -664.6,961.32 -138.34,197.18 -272.02,387.71 -344.97,493.45 -359.79,521.51 -720.45,900.27 -1064.36,1261.45 -191.02,200.6 -376.55,395.45 -549.05,603.17 57.13,33.62 104.14,60.89 141.13,81.86 1116.53,633.07 1903.67,698.27 2413.21,440.12 243.01,-123.12 428.31,-324.97 559.19,-574.62 141.57,-270.04 221.61,-596.72 244.4,-945.4 54.03,-826.62 -209.59,-1744.18 -734.95,-2321.35zm-3301.89 2888.72c206.91,-257.35 424.82,-486.19 649.84,-722.5 323.89,-340.15 663.54,-696.85 986.22,-1164.57 146.85,-212.86 245.75,-353.81 348.11,-499.71 1634.71,-2329.97 4060.31,-5787.2 1160.44,-8726.39 -1344.17,-1362.39 -3543.95,-1043.9 -4323.4,-883.26 -603.8,1966.69 -1089.13,4019.3 -1168.9,5926.21 -94.05,2248.29 377.83,4296.19 1900.42,5749.98 147.32,110.43 296.46,217.25 447.27,320.24zm-2061.88 -11830.44c-911.73,105.92 -1771.32,-25.95 -2558.32,-336.98 -282.69,-111.72 -555.71,-246.54 -818.07,-401.68 -780.9,1972.94 -477.45,4363.75 523.82,6620.15 549.59,1238.53 1308.18,2433.87 2213.3,3497.58 -375.91,-1120.22 -497.51,-2357.06 -443.42,-3650.11 77.7,-1857.57 518.94,-3829.03 1082.69,-5728.96zm-3495.77 -13967.48c761.33,-724.83 1513.51,-1444.55 2085.22,-2171.01 -358.28,-981 -621.57,-2265.96 -713.2,-4019.78 -9.55,-182.75 -7.92,-363.19 5.84,-541.44 -2843.44,3176.65 -2825.75,4627.99 -1377.86,6732.23zm2656.02 -3014.71c270.71,-485.13 460.36,-989.76 641.47,-1471.77l37.11 -98.68c541.38,-3448.98 2992.45,-4597.6 5349.06,-5701.88 1648.47,-772.45 3246.2,-1521.2 3963.81,-3113.25 -2.05,1.39 -4.03,2.83 -6.09,4.22 -160.7,107.99 -324.1,192.12 -490.64,254.96 -167.04,63.01 -338.24,104.78 -513.97,127.86 -293.8,38.54 -473.62,-92.23 -660.96,-228.5 -66.3,-48.22 -134.85,-98.08 -163.48,-103.26 -13.84,-2.48 -27.38,-5.66 -40.6,-9.47 -18.78,-5.35 -93.26,9.86 -165.58,24.63 -221.96,45.33 -436.22,89.08 -679.95,-65.92 -155.04,-98.61 -300.02,-215.32 -434.5,-353.26 -131.39,-134.79 -250.35,-288.93 -356.19,-465.28 -459.09,-765.04 -78.01,-1610.02 404.39,-2369.09 -774.48,402.2 -1612.77,675.36 -2282.81,94.47 -146.67,-127.18 -272.39,-263.91 -379.59,-409.92 -50.34,-68.57 -96.73,-139.42 -139.43,-212.53 2.36,34.15 0.36,69.16 -6.51,104.35 -477.02,2429.66 -1711.23,3195.1 -2863.83,3909.93 -146.18,90.66 -290.87,180.4 -456.2,289.69 -1018.06,672.97 -1506.39,1377.66 -1636.06,2134.94 -107.52,627.92 21.99,1314.2 297.06,2061.62 358.52,-499.22 865.89,-976.03 1552.61,-1432.65 179.81,-119.56 354.41,-228.2 530.83,-337.95 1108.44,-689.63 2295.33,-1428.06 2746.56,-3726.32 42.28,-216.6 252.15,-357.91 468.75,-315.63 216.6,42.28 357.91,252.15 315.63,468.75 -518.21,2639.4 -1857.9,3472.9 -3109.06,4251.32 -176.88,110.04 -351.89,218.93 -512.09,325.45 -743.29,494.23 -1237.19,1002.09 -1534.01,1529.48 -287.87,511.48 -392.52,1049.13 -362.85,1616.99 70.05,1340.64 245.35,2384.05 487.12,3216.7zm2796.81 -4285.38c282.21,-123.55 606.48,-224.92 982.75,-300.27 434.89,-87.09 969.42,-190.26 1476.19,-288.07 4924.07,-950.38 6935.04,-1338.84 9645.63,-6565.1 -52.53,-37.79 -104.09,-76.63 -154.62,-116.52 -360.53,-284.61 -669.34,-621.68 -910.09,-989.54 -28.93,158.59 -83.83,309.97 -233.13,446.03 -136.85,124.71 -286.8,233.69 -452.47,325.49 -166.92,92.49 -345.25,165.33 -537.17,216.81 -557.68,149.6 -1029.73,-71.98 -1440.91,-444.42 -167.04,3275.68 -2440.08,4341.01 -4807.85,5450.52 -1289.57,604.28 -2609.83,1223.1 -3568.33,2265.07zm14707.43 4877.85c97.08,-97.62 254.92,-98.06 352.54,-0.98 97.62,97.08 98.06,254.92 0.98,352.54l-1128.18 1139.94c-97.08,97.62 -254.92,98.06 -352.54,0.98 -97.62,-97.08 -98.06,-254.92 -0.98,-352.54l1128.18 -1139.94zm-951.54 -397.04c91.14,-103.01 248.55,-112.62 351.56,-21.48 103.01,91.14 112.62,248.55 21.48,351.56l-968.78 1094.84c-91.14,103.01 -248.55,112.62 -351.56,21.48 -103.01,-91.14 -112.62,-248.55 -21.48,-351.56l968.78 -1094.84zm-990.1 -299.04c84.13,-108.94 240.67,-129.06 349.61,-44.93 108.94,84.13 129.06,240.67 44.93,349.61l-809.38 1049.72c-84.13,108.94 -240.67,129.06 -349.61,44.93 -108.94,-84.13 -129.06,-240.67 -44.93,-349.61l809.38 -1049.72zm-1018.6 -197.3c74.96,-115.41 229.31,-148.2 344.72,-73.24 115.41,74.96 148.2,229.31 73.24,344.72l-649.99 1004.62c-74.96,115.41 -229.31,148.2 -344.72,73.24 -115.41,-74.96 -148.2,-229.31 -73.24,-344.72l649.99 -1004.62zm-1037.51 -91.42c62.56,-122.43 212.53,-170.96 334.96,-108.4 122.43,62.56 170.96,212.53 108.4,334.96l-490.59 959.52c-62.56,122.43 -212.53,170.96 -334.96,108.4 -122.43,-62.56 -170.96,-212.53 -108.4,-334.96l490.59 -959.52zm-1045.79 16.99c46.92,-129.44 189.9,-196.34 319.34,-149.42 129.44,46.92 196.34,189.9 149.42,319.34l-331.18 914.39c-46.92,129.44 -189.9,196.34 -319.34,149.42 -129.44,-46.92 -196.34,-189.9 -149.42,-319.34l331.18 -914.39zm-1041.89 131.29c26.42,-135.37 157.6,-223.69 292.97,-197.27 135.37,26.42 223.69,157.6 197.27,292.97l-171.78 869.28c-26.42,135.37 -157.6,223.69 -292.97,197.27 -135.37,-26.42 -223.69,-157.6 -197.27,-292.97l171.78 -869.28zm-1021.96 247.54c1.61,-137.52 114.43,-247.7 251.95,-246.09 137.52,1.61 247.7,114.43 246.09,251.95l-12.39 824.18c-1.61,137.52 -114.43,247.7 -251.95,246.09 -137.52,-1.61 -247.7,-114.43 -246.09,-251.95l12.39 -824.18zm-988.72 362.23c-25.34,-135.37 63.85,-265.68 199.22,-291.02 135.37,-25.34 265.68,63.85 291.02,199.22l147.01 779.06c25.34,135.37 -63.85,265.68 -199.22,291.02 -135.37,25.34 -265.68,-63.85 -291.02,-199.22l-147.01 -779.06zm-938.88 474.71c-52.85,-127.28 7.49,-273.32 134.77,-326.17 127.28,-52.85 273.32,7.49 326.17,134.77l306.41 733.95c52.85,127.28 -7.49,273.32 -134.77,326.17 -127.28,52.85 -273.32,-7.49 -326.17,-134.77l-306.41 -733.95zm-876.72 578.46c-77.12,-114.33 -46.95,-269.56 67.38,-346.68 114.33,-77.12 269.56,-46.95 346.68,67.38l465.82 688.85c77.12,114.33 46.95,269.56 -67.38,346.68 -114.33,77.12 -269.56,46.95 -346.68,-67.38l-465.82 -688.85zm8237.97 5693.09c124.04,-59.86 273.15,-7.83 333.01,116.21 59.86,124.04 7.83,273.15 -116.21,333.01 -2821.45,1370.84 -4962.83,-57.68 -6699.2,-1216.03 -508.73,-339.38 -981.06,-654.48 -1412.33,-855.9 -124.58,-58.24 -178.36,-206.48 -120.12,-331.06 58.24,-124.58 206.48,-178.36 331.06,-120.12 467.13,218.17 954.17,543.08 1478.73,893.02 1629.47,1087.04 3639.03,2427.61 6205.06,1180.87zm2969.52 -1557.94c216.6,42.28 357.91,252.15 315.63,468.75 -42.28,216.6 -252.15,357.91 -468.75,315.63 -935.57,-183.74 -1785.16,120.49 -2651.37,430.69 -1798.65,644.11 -3660.86,1310.98 -6642.5,-1439.77 -162.23,-149.28 -172.72,-401.83 -23.44,-564.06 149.28,-162.23 401.83,-172.72 564.06,-23.44 2625.99,2422.64 4257.4,1838.43 5833.12,1274.15 970.11,-347.41 1921.6,-688.13 3073.25,-461.95zm-2360.81 -19876.82c-509.26,-701 -982.19,-1139.65 -1571.15,-1358.68 -407,-151.36 -885.4,-205.64 -1483.87,-176.63 509.57,204.46 910.89,531.58 1047.81,1087.68 46.49,188.83 71.33,375.2 76.56,560.15 5.22,183.94 -9.43,363.88 -41.82,541.12 -26.69,146.04 -83.79,253.15 -156.73,341.9 205.22,430.63 527.16,828.48 930.51,1146.9 378.08,298.46 827.12,526.36 1318.18,645.45 166.02,-474.85 229.19,-940.43 208.37,-1392.25 -22.11,-479.53 -138.85,-946.74 -327.86,-1395.64zm-2883.54 -2339.76c613.41,-11.34 1128.14,62.25 1590.51,234.2 221.85,82.5 428.59,186.29 625.25,312.7l-0.91 -6.06c-82.98,-559.5 116.19,-1025.9 453.2,-1427.65 -396.37,16.43 -769.71,-14.96 -1137.1,-99.84 -304.64,-70.38 -601.49,-176.81 -900.27,-322.38 0.44,62.01 -1.26,124.75 -5.17,188.29 -29.61,481.18 -272.62,840.07 -625.51,1120.74zm12.88 2936.71c14.38,-12.86 29.79,-24.74 46.17,-35.54 38.19,-28.38 66.96,-47.77 67.64,-51.53 22.64,-123.91 32.91,-248.82 29.32,-375.48 -3.56,-125.66 -21.29,-255.78 -54.68,-391.41 -64.4,-261.58 -292.17,-428.41 -586.2,-543.58 -295.76,-115.84 -656.25,-181.86 -1008.77,-232.91 -21.79,85.94 -47.58,170.54 -77.35,253.43 -209.76,584.1 -614.19,1085.23 -1171.03,1385.76l2.2 3.18c473.25,685.96 1055.18,1529.43 1591.79,1385.48 131.54,-35.29 249.57,-82.88 355.93,-141.81 107.61,-59.63 207.98,-133.12 302.47,-219.23 14.31,-13.04 -5.93,-58.61 2.75,-132.85 19.17,-163.85 38.89,-332.41 141.76,-506.82 96.39,-186.29 228.63,-292.66 356.66,-395.62l1.34 -1.07zm-268.32 -4784.49c-103.52,-74.65 -208.32,-154 -314.71,-238.09 -98.54,-57.14 -194.06,-128.64 -277.6,-238.91l0.15 -0.12c-125.83,-148.24 -177.98,-304.43 -228.52,-455.86 -24.94,-74.75 -26.81,-133.68 -37.85,-140.09 -102.46,-59.56 -208.81,-107.08 -320.09,-141.33 -109.93,-33.82 -227.35,-55.48 -353.54,-63.83l-0.14 -0.01 -4.09 -0.27 -0.18 -0.01c-556.01,-35.22 -978.56,911.6 -1322.2,1681.65 -76.47,171.35 -149.7,335.43 -221.27,483.06 301.35,206.81 554.5,500.77 720.62,865.05 12.64,27.74 23.94,53.65 33.77,77.56 157.11,382.11 156.34,794.08 28.08,1151.24 -131.38,365.85 -396.04,675.79 -762.79,843.04 -18.42,8.39 -34.78,15.55 -48.86,21.33 -357.84,147.12 -740.88,132.35 -1076.77,-12.88 -327.74,-141.7 -608.92,-407.77 -772.95,-767.45 -9.48,-20.79 -17.7,-39.63 -24.6,-56.41 -97.94,-238.19 -97.33,-495.36 -17.17,-718.59 78.42,-218.37 232.53,-405.66 445.74,-515.94 12.89,-7.73 26.34,-14.83 40.35,-21.2 10.64,-4.84 -1.01,1.13 31.46,-12.23 230.55,-94.8 477.08,-85.39 693.07,8 207.85,89.86 385.71,257.6 488.81,483.73 6.28,13.76 11.43,25.51 15.43,35.24 83.7,203.65 -13.54,436.61 -217.19,520.31 -203.65,83.7 -436.61,-13.54 -520.31,-217.19l-2.93 -7.1c-18.69,-40.99 -47.47,-69.92 -79.43,-83.73 -23.82,-10.3 -50.33,-11.63 -74.33,-1.76l-3.88 1.61 0.08 0.19c4.8,-1.73 13.81,-5.02 0.48,1.05l-13.39 5.77c-24.36,15.7 -42.99,41.46 -53.96,72.01 -16.03,44.63 -15.73,97.09 4.67,146.71 4.84,11.79 8.89,21.23 12.1,28.27 79.6,174.55 211.69,301.79 363.57,367.45 143.73,62.14 306.73,68.84 458.03,6.64 9.18,-3.77 16.05,-6.7 20.72,-8.83 163.53,-74.57 283.06,-216.95 344.05,-386.8 64.13,-178.57 64,-385.82 -15.58,-579.36 -7.79,-18.96 -14.89,-35.41 -21.27,-49.42 -140.5,-308.11 -375.92,-533.68 -647.7,-651.19 -263.64,-113.98 -563.16,-126.06 -841.74,-11.5 -15,6.16 -27.7,11.62 -38.1,16.36 -216.32,98.64 -389.62,261.54 -509.86,460.59 -5.88,11.31 -12.34,22.37 -19.35,33.16 -35.91,63.71 -66.54,130.82 -91.56,200.49 -112.23,312.5 -112.26,674.55 26.5,1012.01 10.73,26.11 20.9,49.65 30.45,70.61 201.41,441.68 540.15,765.56 931.83,934.91 383.54,165.82 819.56,183.26 1225.43,16.37 20.8,-8.54 39.32,-16.52 55.5,-23.9 428.69,-195.49 740.28,-563.98 897.47,-1001.7 160.33,-446.43 160.52,-963.27 -37.41,-1444.64 -83.7,-203.65 13.54,-436.61 217.19,-520.31 203.65,-83.7 436.61,13.54 520.31,217.19 45.85,111.5 84,224.45 114.76,338.12 301.09,-109.77 598.89,-233.01 836.14,-381.68 278.72,-174.65 481.49,-388.7 498.63,-667.23 9,-146.43 2.08,-284.33 -19.26,-415.16 -14.79,-90.59 -36.55,-178.78 -64.81,-265zm8.81 -1000.93c39.91,32.99 79.49,65.21 118.76,96.69 22.33,11.65 46.97,23.76 71.35,35.75 169.11,83.13 333.24,163.83 444.2,345.47 172.71,116.03 340.96,216.38 506.96,301.78 -271.68,-1060.81 -651.87,-2092.13 -1203.44,-2994.3 -525.47,-859.49 -1208.15,-1603.23 -2103.49,-2144.32 -33.31,777.85 46.24,1396.21 198.08,1915.83 157.79,539.94 398.35,981.73 672.42,1389.73 117.68,17.43 231.57,43.39 342.11,77.4 171.95,52.92 333.21,124.56 485.71,213.21 249.76,145.15 320.47,356.93 394.11,577.59 24.42,73.16 49.57,148.49 73.23,185.17zm1712.99 1017.58c80.73,25.5 161.54,47.61 242.71,66.36 633.62,146.38 1312.69,94.62 2164.19,-112.95l38.22 -24.76c-1076.43,85.78 -2229.64,50.65 -2715.86,-942.97 101.71,334.65 191.31,673.72 270.74,1014.32zm-3275.52 -5579.34c801.53,558.91 1429.87,1275.66 1926.14,2087.39 332.21,543.38 604.65,1128.8 829.95,1737.23 -31.01,-160.4 -48.17,-321.76 -52.73,-484.48 -8.82,-314.44 142.71,-504.3 300.58,-702.11 67.54,-84.63 137.35,-172.11 152.98,-232.79 3.13,-12.26 6.81,-24.24 10.99,-35.92 18.87,-52.39 8.73,-162.01 -1.11,-268.45 -23.18,-250.68 -45.53,-492.63 127.09,-737.96 24.91,-35.39 50.58,-70.21 77.06,-104.46 -576.08,-487.54 -1210.18,-858.84 -1901.62,-1068.23 -462.2,-139.98 -951.96,-207.91 -1469.33,-190.22zm-2630.2 8041.51l-2.23 1.01 2.31 -0.82 -0.08 -0.19zm-693.06 -1796.51c272.83,-112.19 556.55,-154.91 833.69,-135.76 -2.74,-136.22 -2.74,-279.09 -2.74,-426.97 0,-857.63 -0.01,-1912.16 -527.55,-2133.33 -123.89,-51.94 -246.18,-86.26 -367.6,-104.79 -124.74,-19.04 -245.6,-22.33 -363.65,-11.74 -32,2.87 -10.98,45.65 -55.51,95.9 -114.06,128.7 -231.48,261.17 -423.79,339.17 -178.8,84.58 -344.51,88.77 -505.09,92.8 -67.69,1.7 -108.38,-20.59 -120.52,-8.63 -86.07,84.84 -162.96,178.18 -229.89,281.55 -67.77,104.68 -125.82,219.95 -173.41,347.42 -214.76,575.24 515.38,1296.59 1109.17,1883.24 68.69,67.86 135.83,134.2 200.38,199.1 159.3,-159.14 347.15,-291.91 560.27,-389.1 24.24,-11.05 46.36,-20.69 66.24,-28.86zm-1066.75 2763.23c-188.48,-458.4 -211.99,-947.74 -98.21,-1390.98 -100.56,-32.83 -203.75,-68.14 -309.82,-104.43 -762.34,-260.85 -1699.74,-581.59 -2056.79,-128.82 -89.42,113.39 -160.16,227.7 -214.31,343.35 -55.64,118.82 -96.75,242.53 -125.24,371.19 -2.77,12.51 36.71,52.02 71.87,118.88 76.54,145.54 155.27,295.29 169.17,498.5 24.97,204.08 -21.69,368.68 -66.88,528.01 -22.7,80.03 -47.28,150.56 -45.89,153.69 49.96,112.3 111.01,218.81 184.84,319.37 73.28,99.81 158.66,192.79 257.71,278.68 428.58,371.56 1291.88,-128.8 1993.96,-535.74 122.67,-71.1 241.17,-139.8 356.32,-203.17 -25.88,-48.83 -50.51,-98.75 -73.78,-149.78 -15.83,-34.72 -30.18,-67.68 -42.95,-98.75zm1384.16 1433.66c-214.7,-92.83 -417.97,-216.77 -603.23,-368.92 -68.04,101.94 -141.67,208.65 -217.59,318.7 -479.63,695.2 -1069.39,1550.06 -755.97,2072.36 72.49,120.79 153.88,226.27 243.69,318.4 86.73,88.96 183.89,166.56 290.74,234.52 25.53,16.23 32.41,-28.08 92.45,-40.34 162.31,-33.16 329.3,-67.25 529.28,-13.78 201.03,41.73 336.91,140.54 468.52,236.26 57.31,41.69 65.84,87.8 89.08,84.76 113.27,-14.87 225.09,-42.35 335.83,-84.12 111.24,-41.97 220.52,-98.26 328.14,-170.58 485.92,-326.45 297.35,-1364.75 143.98,-2209.16 -11.04,-60.81 -21.93,-120.77 -32.34,-178.97 -313.99,-5.47 -623.42,-74.11 -912.58,-199.13zm-6751.67 32267.58c-134.29,30.2 -267.65,-54.18 -297.85,-188.47 -30.2,-134.29 54.18,-267.65 188.47,-297.85 29.24,-6.65 12.91,-2.76 18.71,-4.14l0.22 -0.05 -0.22 -0.92c283.61,-67.64 2228.36,-531.51 3417.68,673.93 2165.51,2194.88 457.02,4630.02 -694.4,6271.16 -88.71,126.45 -174.38,248.54 -222.36,318.09 -78.2,113.26 -233.42,141.68 -346.68,63.48 -113.26,-78.2 -141.68,-233.42 -63.48,-346.68 93.69,-135.8 157.91,-227.34 224.32,-321.99 1055.14,-1503.91 2620.77,-3735.42 747.14,-5634.46 -990.46,-1003.88 -2697.97,-596.6 -2946.98,-537.21l-0.22 -0.92c-23.55,5.63 -5.9,1.83 -24.35,6.03zm22122.98 -431.97c141.52,-169.13 393.37,-191.52 562.5,-50 169.13,141.52 191.52,393.37 50,562.5 -267.16,318.66 -482.02,589.28 -666.47,821.6 -699.06,880.49 -1003.78,1264.31 -1846.2,1467.15 -452.45,108.95 -990.33,162.89 -1528.2,167.05 -556.5,4.3 -1117.75,-44.71 -1587.29,-141.15 -926.75,-190.34 -1227.21,-568.78 -1961.01,-1493.04 -184.45,-232.32 -399.3,-502.94 -666.48,-821.61 -141.52,-169.13 -119.13,-420.98 50,-562.5 169.13,-141.52 420.98,-119.13 562.5,50 269.03,320.88 489.61,598.71 678.98,837.23 606.76,764.24 855.21,1077.17 1495.39,1208.66 417.89,85.83 921.74,129.42 1424.79,125.53 479.61,-3.71 954.18,-50.59 1346.94,-145.17 570.63,-137.4 824.12,-456.66 1405.58,-1189.03 189.37,-238.52 409.95,-516.34 678.97,-837.22zm-508.29 -17260.46c-97.08,-97.62 -96.64,-255.46 0.98,-352.54 97.62,-97.08 255.46,-96.64 352.54,0.98l1128.19 1139.94c97.08,97.62 96.64,255.46 -0.98,352.54 -97.62,97.08 -255.46,96.64 -352.54,-0.98l-1128.19 -1139.94zm932.02 -418.52c-91.14,-103.01 -81.53,-260.42 21.48,-351.56 103.01,-91.14 260.42,-81.53 351.56,21.48l968.79 1094.84c91.14,103.01 81.53,260.42 -21.48,351.56 -103.01,91.14 -260.42,81.53 -351.56,-21.48l-968.79 -1094.84zm968.6 -324.44c-84.13,-108.94 -64.01,-265.48 44.93,-349.61 108.94,-84.13 265.48,-64.01 349.61,44.93l809.38 1049.72c84.13,108.94 64.01,265.48 -44.93,349.61 -108.94,84.13 -265.48,64.01 -349.61,-44.93l-809.38 -1049.72zm995.18 -230.5c-74.96,-115.41 -42.17,-269.76 73.24,-344.72 115.41,-74.96 269.76,-42.17 344.72,73.24l649.99 1004.62c74.96,115.41 42.17,269.76 -73.24,344.72 -115.41,74.96 -269.76,42.17 -344.72,-73.24l-649.99 -1004.62zm1012.12 -136.34c-62.56,-122.43 -14.03,-272.4 108.4,-334.96 122.43,-62.56 272.4,-14.03 334.96,108.4l490.59 959.52c62.56,122.43 14.03,272.4 -108.4,334.96 -122.43,62.56 -272.4,14.03 -334.96,-108.4l-490.59 -959.52zm1020.38 -39.65c-46.92,-129.44 19.98,-272.42 149.42,-319.34 129.44,-46.92 272.42,19.98 319.34,149.42l331.19 914.39c46.92,129.44 -19.98,272.42 -149.42,319.34 -129.44,46.92 -272.42,-19.98 -319.34,-149.42l-331.19 -914.39zm1020.41 57.07c-26.42,-135.37 61.9,-266.55 197.27,-292.97 135.37,-26.42 266.55,61.9 292.97,197.27l171.78 869.28c26.42,135.37 -61.9,266.55 -197.27,292.97 -135.37,26.42 -266.55,-61.9 -292.97,-197.27l-171.78 -869.28zm1014.16 157.7c-1.61,-137.52 108.57,-250.34 246.09,-251.95 137.52,-1.61 250.34,108.57 251.95,246.09l12.39 824.18c1.61,137.52 -108.57,250.34 -246.09,251.95 -137.52,1.61 -250.34,-108.57 -251.95,-246.09l-12.39 -824.18zm996.52 264.57c25.34,-135.37 155.65,-224.56 291.02,-199.22 135.37,25.34 224.56,155.65 199.22,291.02l-147.01 779.06c-25.34,135.37 -155.65,224.56 -291.02,199.22 -135.37,-25.34 -224.56,-155.65 -199.22,-291.02l147.01 -779.06zm968.19 375.11c52.85,-127.28 198.89,-187.62 326.17,-134.77 127.28,52.85 187.62,198.89 134.77,326.17l-306.42 733.95c-52.85,127.28 -198.89,187.62 -326.17,134.77 -127.28,-52.85 -187.62,-198.89 -134.77,-326.17l306.42 -733.95zm923.59 490.56c77.12,-114.33 232.35,-144.5 346.68,-67.38 114.33,77.12 144.5,232.35 67.38,346.68l-465.81 688.85c-77.12,114.33 -232.35,144.5 -346.68,67.38 -114.33,-77.12 -144.5,-232.35 -67.38,-346.68l465.81 -688.85zm-8040.71 6421.61c-124.04,-59.86 -176.07,-208.97 -116.21,-333.01 59.86,-124.04 208.97,-176.07 333.01,-116.21 2566.03,1246.74 4575.59,-93.83 6205.06,-1180.87 524.56,-349.94 1011.6,-674.85 1478.73,-893.02 124.58,-58.24 272.82,-4.46 331.06,120.12 58.24,124.58 4.46,272.82 -120.12,331.06 -431.27,201.42 -903.6,516.52 -1412.33,855.9 -1736.37,1158.35 -3877.75,2586.87 -6699.2,1216.03zm-2599.6 -1222.78c-216.6,42.28 -426.47,-99.03 -468.75,-315.63 -42.28,-216.6 99.03,-426.47 315.63,-468.75 1151.65,-226.18 2103.16,114.54 3073.25,461.95 1575.72,564.28 3207.13,1148.49 5833.12,-1274.15 162.23,-149.28 414.78,-138.79 564.06,23.44 149.28,162.23 138.79,414.78 -23.44,564.06 -2981.64,2750.75 -4843.85,2083.88 -6642.5,1439.77 -866.2,-310.2 -1715.8,-614.43 -2651.37,-430.69zm2954.27 -22503.21c172.98,-104.45 354.03,-191.99 546.45,-263.55 462.37,-171.95 977.11,-245.54 1590.52,-234.2 -352.89,-280.66 -595.9,-639.57 -625.52,-1120.74 -3.91,-63.54 -5.61,-126.28 -5.17,-188.28 -298.77,145.57 -595.61,251.99 -900.26,322.37 -353.9,81.76 -713.31,113.89 -1093.52,101.45 340.05,397.83 544.87,851.8 487.5,1382.95zm2308.42 306.71c-598.45,-29.01 -1076.85,25.26 -1483.85,176.62 -588.94,219.02 -1061.89,657.68 -1571.15,1358.68 -189.01,448.9 -305.74,916.11 -327.85,1395.64 -20.82,451.81 42.36,917.39 208.37,1392.25 491.06,-119.1 940.08,-346.99 1318.17,-645.45 110.43,-87.17 214.73,-180.3 312.24,-278.43 24.67,-36.28 55.36,-68.6 91.12,-95.33 217.22,-236.21 396.02,-497.97 527.15,-773.12 -72.95,-88.75 -130.03,-195.87 -156.72,-341.92 -32.39,-177.24 -47.05,-357.18 -41.83,-541.12 5.25,-184.96 30.08,-371.33 76.57,-560.15 136.91,-556.09 538.24,-883.21 1047.78,-1087.67zm-230.63 2096.62c16.47,10.83 31.94,22.78 46.39,35.71l1.25 1c128.03,102.95 260.26,209.31 356.67,395.63 102.84,174.4 122.59,342.96 141.74,506.79 8.68,74.24 -11.55,119.82 2.75,132.86 94.5,86.11 194.87,159.6 302.48,219.23 106.36,58.93 224.39,106.52 355.93,141.81 536.6,143.95 1118.53,-699.52 1591.78,-1385.48l2.19 -3.18c-556.83,-300.53 -961.25,-801.66 -1171.02,-1385.76 -29.77,-82.89 -55.57,-167.49 -77.35,-253.43 -352.52,51.05 -713.01,117.07 -1008.77,232.91 -294.02,115.17 -521.79,282 -586.19,543.58 -33.39,135.63 -51.13,265.75 -54.69,391.41 -3.59,126.65 6.69,251.56 29.33,375.48 0.68,3.75 29.38,23.11 67.51,51.44zm-221.83 1216.58c-94.56,144.45 -199.61,284.16 -314.16,417.81 1734.78,5932.08 3388.77,6250.07 8509.97,7232.2 532.36,102.1 1098.79,210.73 1590.6,309.22 582.32,116.62 1047.92,287.13 1429.62,501.37 -968.85,-1165.38 -2374.01,-1823.98 -3744.5,-2466.17 -2367.77,-1109.51 -4640.81,-2174.84 -4807.85,-5450.52 -411.17,372.44 -883.23,594.02 -1440.9,444.42 -191.91,-51.48 -370.25,-124.32 -537.17,-216.81 -165.67,-91.8 -315.62,-200.78 -452.48,-325.49 -149.28,-136.07 -204.2,-287.45 -233.13,-446.03zm-3537.17 -5982.1c825.81,196.45 1489.2,242.89 2109.11,99.67 81.17,-18.75 161.97,-40.85 242.69,-66.35 49.43,-211.97 102.8,-423.35 160.58,-633.45 -308.39,356.28 -751.15,526.97 -1250.38,594.68 -404.58,54.86 -840.36,39.33 -1262,5.45zm2923.53 -204.57c166,-85.4 334.25,-185.76 506.96,-301.78 110.96,-181.65 275.1,-262.36 444.2,-345.48 24.38,-11.98 49.02,-24.1 71.35,-35.75 39.28,-31.48 78.86,-63.71 118.76,-96.69 23.66,-36.67 48.81,-112.01 73.23,-185.17 73.64,-220.66 144.36,-432.44 394.11,-577.59 152.51,-88.65 313.77,-160.29 485.71,-213.21 110.55,-34.01 224.44,-59.97 342.12,-77.4 274.07,-408 514.64,-849.79 672.42,-1389.73 151.84,-519.62 231.4,-1137.98 198.09,-1915.83 -895.35,541.08 -1578.04,1284.82 -2103.51,2144.32 -551.57,902.18 -931.75,1933.5 -1203.44,2994.31zm113.32 -1938.87c190.12,-457.38 409.67,-898.64 664.34,-1315.2 496.27,-811.73 1124.61,-1528.48 1926.15,-2087.39 -517.37,-17.69 -1007.13,50.24 -1469.34,190.22 -671.94,203.49 -1289.73,559.85 -1852.75,1027.24 37.1,44.64 72.8,90.38 107.15,137.2 183.82,250.53 167.26,496.86 150.03,753.54 -7.5,111.7 -15.25,227.18 7.04,288.9 4.64,12.96 8.57,25.98 11.81,39.06 15.09,51.52 81.45,130.34 145.92,206.92 159.87,189.86 314.17,373.12 311.45,676.62 -0.25,27.7 -0.85,55.33 -1.8,82.89zm-1556.6 -1893.82c-9.31,-7.35 -18.36,-15.2 -27.12,-23.49 -105.27,-89.46 -221.97,-169.1 -351.66,-238.32 -618.75,-330.24 -1504.46,492.47 -2224.77,1161.57 -170.29,158.17 -332.53,308.87 -489.86,442.86 262.5,392.29 417.29,873.17 417.29,1391.58 0,470.3 -177.64,898.3 -464.83,1210.05 -295.36,320.62 -705.18,518.94 -1159.43,518.94 -454.24,0 -864.07,-198.32 -1159.43,-518.94 -287.19,-311.75 -464.83,-739.75 -464.83,-1210.05 0,-286.8 109.14,-548.68 285.54,-740.18 184.6,-200.36 441.39,-324.31 726.6,-324.31 285.21,0 542.01,123.95 726.58,324.32 176.4,191.5 285.54,453.37 285.54,740.17 0,220.91 -179.09,400 -400,400 -220.91,0 -400,-179.09 -400,-400 0,-80.17 -27.92,-150.57 -73.04,-199.55 -36.95,-40.12 -86.25,-64.94 -139.08,-64.94 -52.85,0 -102.15,24.82 -139.1,64.93 -45.12,48.98 -73.04,119.39 -73.04,199.56 0,263.67 96.43,500.2 252.33,669.43 147.73,160.36 350.05,259.56 571.93,259.56 221.88,0 424.2,-99.2 571.93,-259.56 155.9,-169.23 252.33,-405.76 252.33,-669.43 0,-447.16 -164.96,-849.81 -431.62,-1139.29 -258.5,-280.62 -613.85,-454.19 -1004.76,-454.19 -390.92,0 -746.27,173.57 -1004.77,454.19 -266.68,289.48 -431.62,692.13 -431.62,1139.29 0,630.66 233.47,1199.44 610.9,1609.17 369.27,400.86 877.66,648.81 1437.61,648.81 559.94,0 1068.33,-247.95 1437.61,-648.82 377.43,-409.73 610.9,-978.5 610.9,-1609.16 0,-220.91 179.09,-400 400,-400 220.91,0 400,179.09 400,400 0,170.86 -13.12,338.51 -38.3,501.84 400.92,34.22 811.36,53.2 1165.66,5.15 390.34,-52.94 714.84,-189.81 863.67,-495.8 75.84,-155.94 130.6,-311.35 166.53,-467.03 36.56,-158.43 54.41,-316.01 55.83,-473.69 0.09,-10.53 -60.83,-82.9 -123.95,-157.86 -119.72,-142.19 -242.89,-288.48 -303.78,-505.18 -73.98,-215.38 -61.04,-408.43 -48.49,-595.32 7.3,-108.8 14.31,-213.24 3.09,-228.54 -86.15,-117.43 -181.73,-223.62 -288.39,-317.77zm5902.14 12178.66c717.61,1592.05 2315.34,2340.8 3963.81,3113.25 2380.17,1115.32 4856.41,2276.21 5364.44,5806.36 196.87,443.13 406.28,909.18 689.11,1375.46 228.39,-817.48 393.69,-1833.79 461.22,-3126.19 29.67,-567.86 -74.98,-1105.51 -362.85,-1616.99 -296.83,-527.39 -790.72,-1035.25 -1534.02,-1529.48 -160.17,-106.51 -335.23,-215.42 -512.09,-325.46 -1251.16,-778.42 -2590.85,-1611.92 -3109.05,-4251.31 -42.28,-216.6 99.03,-426.47 315.63,-468.75 216.6,-42.28 426.47,99.03 468.75,315.63 451.22,2298.25 1638.11,3036.68 2746.55,3726.31 176.41,109.76 350.99,218.37 530.83,337.96 686.73,456.62 1194.1,933.44 1552.62,1432.66 275.07,-747.42 404.58,-1433.71 297.06,-2061.63 -129.67,-757.28 -617.99,-1461.96 -1636.06,-2134.94 -165.39,-109.32 -310.03,-199.03 -456.19,-289.68 -1152.6,-714.83 -2386.82,-1480.28 -2863.85,-3909.94 -6.87,-35.19 -8.87,-70.21 -6.51,-104.35 -42.7,73.11 -89.09,143.96 -139.43,212.53 -107.2,146.01 -232.91,282.75 -379.59,409.92 -670.04,580.9 -1508.33,307.73 -2282.81,-94.47 482.39,759.07 863.49,1604.05 404.39,2369.09 -105.82,176.35 -224.78,330.48 -356.18,465.28 -134.48,137.94 -279.45,254.65 -434.51,353.26 -243.72,154.99 -457.97,111.25 -679.94,65.92 -72.32,-14.77 -146.81,-29.98 -165.55,-24.54 -13.25,3.72 -26.79,6.9 -40.63,9.38 -28.65,5.18 -97.19,55.04 -163.49,103.26 -187.33,136.27 -367.14,267.05 -660.95,228.5 -175.72,-23.07 -346.91,-64.84 -513.97,-127.86 -166.53,-62.83 -329.93,-146.97 -490.65,-254.96 -2.06,-1.39 -4.04,-2.83 -6.09,-4.22zm6048.83 -3987.42c50.62,-43.23 112.72,-74.41 182.71,-88.07 216.6,-42.28 426.47,99.03 468.75,315.63 410.36,2090.06 1490,2759.65 2498.23,3384.94 170.17,105.54 338.62,210.02 478.05,302.18 155.66,102.89 301.06,207.01 436.71,312.36 274.43,-761.02 394.97,-1458.19 263.74,-2094.58 -149.48,-724.88 -638.76,-1402.53 -1621.17,-2051.94 -461.45,-305.04 -864.22,-647.23 -1243.55,-1075.14 -374.7,-422.7 -720.65,-922.5 -1072.21,-1546.77 -109.14,-193.81 -327.24,-530.92 -733.37,-813.24 -380.19,-264.28 -927.36,-482.17 -1710.69,-499.07 -157.4,244.45 -354.27,477.62 -561.14,698.77 843.18,-249.45 1732.29,-365.87 2293.01,345.16 123.82,157.01 225.64,323.59 308.06,499.61 80.93,172.83 140.49,351.68 181.49,536.81 60.65,273.95 -39.74,464.85 -143.73,662.63 -37.38,71.1 -75.86,144.26 -79.6,177.94 -0.44,13.51 -1.55,27.13 -3.39,40.82 -6.3,45.79 18.86,134.47 43.2,220.27 60.61,213.66 118.84,419 14.9,671.69zm-5173.77 -1658.3l2.34 0.82 -2.26 -1.02 -0.08 0.2zm-140.55 -1932.47c277.14,-19.15 560.86,23.57 833.69,135.76 19.88,8.17 42,17.81 66.24,28.86 213.12,97.19 400.97,229.97 560.27,389.1 64.54,-64.89 131.68,-131.23 200.37,-199.09 593.81,-586.65 1323.94,-1308.01 1109.18,-1883.25 -47.59,-127.47 -105.63,-242.74 -173.4,-347.42 -66.93,-103.36 -143.82,-196.71 -229.9,-281.55 -12.13,-11.96 -52.83,10.33 -120.51,8.63 -160.62,-4.03 -326.33,-8.22 -505.17,-92.84 -192.25,-77.99 -309.68,-210.44 -423.71,-339.13 -44.54,-50.26 -23.5,-93.03 -55.52,-95.9 -118.06,-10.59 -238.91,-7.3 -363.65,11.74 -121.43,18.53 -243.71,52.85 -367.6,104.79 -527.54,221.17 -527.55,1275.7 -527.55,2133.33 0,147.88 0,290.75 -2.74,426.97zm1998.65 1508.01c113.78,443.22 90.28,932.57 -98.2,1390.98 -12.76,31.04 -27.11,64 -42.94,98.74 -23.27,51.03 -47.92,100.96 -73.8,149.79 115.15,63.37 233.65,132.07 356.32,203.17 702.08,406.94 1565.38,907.3 1993.96,535.74 99.06,-85.89 184.43,-178.87 257.71,-278.68 73.83,-100.56 134.88,-207.07 184.84,-319.37 1.39,-3.13 -23.18,-73.66 -45.88,-153.68 -45.21,-159.34 -91.86,-323.93 -66.88,-528.02 13.9,-203.21 92.64,-352.96 169.17,-498.51 35.15,-66.86 74.64,-106.35 71.87,-118.87 -28.49,-128.66 -69.61,-252.37 -125.25,-371.19 -54.15,-115.65 -124.88,-229.96 -214.3,-343.35 -357.06,-452.77 -1294.45,-132.03 -2056.79,128.82 -106.07,36.29 -209.27,71.6 -309.83,104.43zm-879.14 2455.72c-185.25,152.15 -388.53,276.1 -603.23,368.92 -289.16,125.02 -598.59,193.66 -912.58,199.13 -10.41,58.2 -21.3,118.15 -32.34,178.95 -153.36,844.42 -341.93,1882.73 143.98,2209.18 107.62,72.31 216.91,128.61 328.15,170.58 110.75,41.77 222.55,69.25 335.83,84.12 23.25,3.05 31.76,-43.07 89.07,-84.76 131.62,-95.72 267.48,-194.53 468.53,-236.26 199.99,-53.48 366.98,-19.38 529.28,13.78 60.04,12.26 66.91,56.57 92.44,40.34 106.87,-67.96 204.02,-145.56 290.75,-234.52 89.81,-92.13 171.2,-197.61 243.68,-318.4 313.43,-522.3 -276.34,-1377.16 -755.97,-2072.36 -75.92,-110.05 -149.54,-216.76 -217.59,-318.7zm-14905.05 -5830c0,-593.67 202.97,-1138.13 538.27,-1556.69 -112.24,-100.11 -227.34,-207.02 -346.37,-317.58 -720.32,-669.1 -1606.03,-1491.82 -2224.79,-1161.56 -145.59,77.7 -274.3,167.96 -388.38,269.98 -112.62,100.71 -213.36,216.14 -304.17,345.17 -4.91,6.98 4.16,105.08 13.55,206.7 17.38,187.89 35.24,381.23 -37.17,593.29 -61.46,220.69 -179.82,369 -294.45,512.63 -65.97,82.65 -129.29,162.02 -128.7,183.35 4.24,151.51 23.4,301.33 59.39,450.08 35.71,147.58 89.04,295.99 162,446.01 322.52,663.07 1498.35,545.71 2454.59,450.28 179.8,-17.94 352.9,-35.22 517.5,-47.14 -14.01,-122.77 -21.27,-247.76 -21.27,-374.52zm823.4 2149.79c-200.83,-218.02 -371.41,-468.46 -504.32,-743.25 -135.88,89.43 -279.82,179.03 -429.18,272 -834.19,519.23 -1859.91,1157.72 -1747.72,1914.18 25.68,173.12 68.02,332.44 125.61,480.06 57.31,146.9 130.81,284.62 218.95,414.97 1.24,1.83 81.3,17.33 166.82,37.19 182.67,42.42 370.68,86.12 548.15,232.15 179.9,130.85 277.55,295.65 372.09,455.29 52.02,87.82 101.97,172.13 106.94,173.66 133.48,41.12 270.54,67.39 412.36,77.05 142.1,9.68 288.82,2.49 441.31,-23.29 694.2,-117.39 953.88,-1342.2 1165.06,-2338.28 20,-94.32 39.63,-186.91 58.94,-275.63 -352.93,-157.21 -670.11,-388.54 -935.01,-676.1zm4050.22 -0.01c-488.55,530.35 -1154.88,869.42 -1895.45,905.03l15.13 71.35c211.18,996.08 470.87,2220.88 1165.06,2338.26 158.92,26.87 312.42,33.34 461.74,21.43 146.78,-11.72 290.33,-42.03 431.78,-88.87 4.58,-1.51 39.97,-78.33 86.12,-161.05 91.18,-163.41 184.97,-331.49 362.21,-461.23 177.41,-146.41 364.09,-195.28 544.79,-242.55 92,-24.07 180.31,-47.18 186.39,-56.57 80.13,-123.66 147.69,-255.77 201.48,-398.09 53.47,-141.49 93.12,-294.25 117.72,-460.15 51.26,-345.61 -131.21,-660.51 -414.84,-947.1 -282.18,-285.14 -666.53,-546.63 -1044.12,-786.19 -67.92,93.06 -140.71,181.81 -218.01,265.73zm16289.26 35830.4c134.29,30.2 218.67,163.56 188.47,297.85 -30.2,134.29 -163.56,218.67 -297.85,188.47 -18.41,-4.19 -0.8,-0.4 -24.35,-6.03l-0.22 0.92c-249.01,-59.39 -1956.52,-466.67 -2946.99,537.21 -1873.64,1899.04 -307.99,4130.57 747.16,5634.47 66.29,94.49 130.13,185.48 224.31,321.98 78.2,113.26 49.78,268.48 -63.48,346.68 -113.26,78.2 -268.48,49.78 -346.68,-63.48 -47.48,-68.82 -133.53,-191.47 -222.35,-318.08 -1151.43,-1641.12 -2859.95,-4076.28 -694.42,-6271.17 1189.34,-1205.44 3134.08,-741.57 3417.69,-673.93l-0.22 0.92 0.22 0.05c5.81,1.38 -10.48,-2.5 18.71,4.14zm3157.78 -21867.66c13.76,178.25 15.38,358.7 5.83,541.44 -88.52,1694.12 -337.3,2950.47 -677.03,3918.33 538.01,690.56 1206.3,1392.27 1881.64,2101.34 55.17,57.92 110.38,115.89 165.58,173.92 1449.72,-2105.69 1468.66,-3556.99 -1376.02,-6735.03zm1203.76 19827.15c-327.56,212.36 -672.89,392.83 -1034.06,535.57 -706.48,279.22 -1471.46,414.09 -2280.15,362.14 560.17,1892.18 997.86,3854.44 1075.22,5703.81 54.06,1292.44 -67.39,2528.72 -442.89,3648.52 853.86,-1004.1 1577.34,-2125.56 2117.97,-3290.02 1099.55,-2368.33 1437.73,-4902.98 563.91,-6960.02zm-4935.15 12381.65c1521.67,-1453.72 1993.3,-3501.15 1899.28,-5748.87 -78.89,-1886.02 -554.52,-3914.56 -1149.09,-5861.53l-16.39 -3.67c-65.4,-14.95 23.45,4.88 -36.35,-9.41l-0.35 1.48c-385.48,-91.94 -3028.94,-722.48 -4560.84,830.18 -2899.87,2939.19 -474.27,6396.42 1160.44,8726.39 102.36,145.9 201.26,286.85 348.11,499.71 324.79,470.79 707.11,881.77 1069.26,1271.07 231.06,248.41 454.36,488.43 657.07,736.68 212.9,-139.88 422.67,-287.38 628.86,-442.03zm-1318.08 861.54c-169.78,-201.29 -358.1,-403.74 -552.23,-612.43 -379.75,-408.22 -780.65,-839.18 -1141.14,-1361.71 -72.96,-105.75 -206.63,-296.27 -344.97,-493.45 -57.84,-82.44 -116.62,-166.23 -176.04,-251.21 -350.15,701.87 -526.45,1455.91 -499.99,2088.33 14.28,341.47 88.49,638.9 227.54,858.88 119.91,189.69 295.36,322.08 530.47,370.5 331.9,68.35 784.69,-11.54 1373.74,-294.84 192.54,-92.6 386.89,-194.12 582.62,-304.07zm6502.7 -25088.73c-279.18,359.54 -585,739.8 -913.7,1148.38l-24.27 30.16c-2676.65,3327.11 -1261.64,5713.73 768.53,9137.89 62.73,105.81 126.04,212.59 189.82,320.37 333.95,-296.59 641.01,-633.03 917.33,-998.62 682.77,-903.36 1176.51,-1980.67 1426.44,-3074.12 277.62,-1214.57 253.08,-2443.37 -150.36,-3464.15 -412.16,-1042.9 -1269.26,-2078.16 -2213.79,-3099.91zm-615.81 11129.82c-81.15,-137.31 -161.61,-273 -241.13,-407.13 -2196.05,-3703.94 -3726.69,-6285.56 -702.91,-10044.15l24.27 -30.16c359.27,-446.57 688.59,-855.84 980.66,-1239.3 -88.6,-93.31 -177.35,-186.51 -265.99,-279.58 -578.08,-606.96 -1151.15,-1208.68 -1652.26,-1812.42 -561.27,1149.13 -1265.24,1799.47 -1906.9,2391.95 -1543.16,1424.89 -2682.06,2476.53 279.36,11336.46 96.1,287.53 190.96,578.15 283.66,871.16 799.01,103.7 1551.88,-7.44 2239.76,-279.3 336.12,-132.84 657.34,-304.1 961.48,-507.53z"/>
  </g>
</svg>