<?xml version="1.0" encoding="utf-8"?>
<svg version="1.1" x="0px" y="0px" viewBox="-1.725 10.059 45.546 96.262" style="enable-background:new 0 0 42.944 92.013;" xmlns="http://www.w3.org/2000/svg">
  <defs/>
  <path d="M 24.356 56.084 C 24.464 57.307 23.689 58.552 22.606 59.1 C 21.429 59.724 19.905 59.26 19.141 58.174 C 18.091 56.821 18.487 54.61 19.918 53.711 C 20.468 53.328 21.157 53.169 21.821 53.235 C 22.079 53.251 22.329 53.31 22.546 53.472 C 22.142 53.631 21.764 53.863 21.479 54.197 C 20.794 54.971 20.927 56.336 21.953 56.745 C 22.814 57.132 23.73 56.688 24.356 56.084 Z M 25.989 98.308 C 25.954 98.452 25.772 98.57 25.625 98.515 C 23.526 97.768 22.078 95.502 22.414 93.279 C 22.14 93.063 22.333 92.668 22.664 92.724 C 25.196 93.161 26.643 95.906 25.989 98.308 Z M 23.607 93.704 C 24.187 94.401 24.76 95.153 25.034 96.026 C 25.073 96.207 25.08 96.4 25.07 96.583 C 25.062 96.733 24.858 96.803 24.778 96.662 C 24.431 96.053 24.181 95.408 23.767 94.836 C 23.502 94.468 23.203 94.127 22.896 93.793 C 22.88 95.49 23.949 97.11 25.485 97.816 C 25.772 96.232 25.059 94.469 23.607 93.704 Z M 20.437 92.465 C 19.596 94.006 17.528 94.719 15.9 94.125 C 15.746 94.069 15.617 93.871 15.732 93.711 C 16.689 92.385 18.429 91.702 20.038 92.074 C 20.259 91.94 20.59 92.185 20.437 92.465 Z M 19.686 92.518 C 18.507 92.356 17.258 92.803 16.463 93.691 C 17.659 93.933 18.914 93.457 19.686 92.518 Z M 27.734 89.985 C 27.43 90.789 26.823 91.466 26.031 91.814 C 25.371 92.108 24.612 92.166 23.914 91.98 C 23.677 91.917 23.206 91.803 23.245 91.481 C 23.888 89.892 25.96 89.142 27.545 89.652 C 27.673 89.693 27.787 89.844 27.734 89.985 Z M 27.098 90.097 C 25.903 89.848 24.585 90.369 23.871 91.358 C 24.481 91.598 25.184 91.575 25.788 91.328 C 26.352 91.092 26.822 90.642 27.098 90.097 Z M 19.754 77.395 C 19.85 77.415 19.937 77.482 19.975 77.591 C 20.861 80.276 18.434 82.363 17.386 84.584 C 17.272 84.836 16.901 84.739 16.831 84.511 C 16.631 83.868 16.53 83.191 16.54 82.518 C 16.555 81.392 16.875 80.273 17.473 79.318 C 17.853 78.706 18.989 77.298 19.754 77.395 Z M 17.236 83.567 C 18.166 81.96 19.685 80.42 19.562 78.433 C 18.989 79.343 18.679 80.376 18.189 81.326 C 18.111 81.469 17.855 81.411 17.87 81.24 C 17.901 80.892 17.968 80.576 18.087 80.246 C 18.337 79.566 18.651 78.908 19.005 78.277 C 17.603 79.654 16.918 81.647 17.236 83.567 Z M 29.375 79.939 C 29.352 80.176 29.046 80.373 28.857 80.154 C 27.088 78.191 23.226 80.008 21.969 77.163 C 21.849 76.86 21.802 76.487 21.878 76.155 C 21.843 75.955 22.043 75.776 22.16 75.624 C 22.196 75.589 22.263 75.597 22.292 75.635 C 22.863 75.266 23.517 75.035 24.192 74.945 C 27.096 74.496 29.666 77.043 29.375 79.939 Z M 22.766 76.056 C 23.593 76.383 24.551 76.293 25.42 76.435 C 26.349 76.586 27.28 77.011 27.647 77.934 C 27.766 78.234 27.252 78.446 27.127 78.153 C 26.206 76.385 23.79 77.31 22.301 76.509 C 23.052 79.376 26.906 77.795 28.777 79.262 C 28.584 76.286 25.344 74.565 22.766 76.056 Z M 15.693 75.579 C 15.567 75.459 15.591 75.221 15.75 75.139 C 16.48 74.76 17.287 74.406 18.129 74.514 C 18.697 74.589 19.31 74.854 19.565 75.407 C 19.655 75.461 19.703 75.577 19.643 75.686 C 19.237 76.289 18.346 76.426 17.667 76.41 C 16.931 76.371 16.228 76.089 15.693 75.579 Z M 16.411 75.431 C 17.199 75.944 18.257 75.947 19.075 75.499 C 18.798 75.218 18.418 75.067 18.028 75.035 C 17.462 74.993 16.918 75.187 16.411 75.431 Z M 30.248 70.776 C 30.38 71.859 29.901 72.994 29.016 73.636 C 28.875 73.738 28.646 73.672 28.593 73.502 C 28.35 72.716 28.146 71.859 28.402 71.05 C 28.578 70.505 28.947 69.949 29.537 69.797 C 29.606 69.718 29.729 69.692 29.826 69.77 C 30.11 69.999 30.205 70.43 30.248 70.776 Z M 29.541 70.295 C 28.7 70.874 28.73 72.021 28.999 72.904 C 29.308 72.574 29.52 72.158 29.615 71.714 C 29.723 71.242 29.686 70.755 29.541 70.295 Z M 38.201 84.604 C 38.245 84.854 38.011 85.056 37.773 84.933 C 36.204 84.01 33.665 83.3 33.437 81.2 C 33.335 81.092 33.325 80.918 33.439 80.795 C 34.609 79.563 37.036 79.856 37.903 81.307 C 38.474 82.331 38.008 83.512 38.201 84.604 Z M 37.406 81.629 C 36.813 80.635 35.217 80.348 34.244 80.895 C 35.191 81.206 36.096 81.675 36.792 82.399 C 37.046 82.659 37.284 82.939 37.376 83.299 C 37.422 83.433 37.247 83.574 37.129 83.489 C 36.984 83.385 36.834 83.295 36.714 83.162 C 36 82.32 35.047 81.737 33.995 81.422 C 34.521 82.957 36.302 83.436 37.58 84.178 C 37.566 83.791 37.593 83.403 37.608 83.013 C 37.626 82.551 37.632 82.049 37.406 81.629 Z M 38.239 75.557 C 38.195 76.436 37.739 77.255 37.053 77.801 C 36.313 78.39 35.348 78.683 34.407 78.684 C 34.154 78.684 34.091 78.394 34.241 78.239 C 34.489 77.078 35.536 76.155 36.649 75.823 C 37.041 75.711 37.513 75.69 37.812 75.38 C 37.957 75.227 38.25 75.339 38.239 75.557 Z M 37.648 76.061 C 37.075 76.257 36.45 76.314 35.939 76.671 C 35.52 76.941 35.159 77.312 34.912 77.747 C 35.341 77.445 35.783 77.157 36.256 76.947 C 36.524 76.828 36.734 77.173 36.487 77.343 C 36.14 77.581 35.781 77.798 35.427 78.024 C 35.883 77.911 36.318 77.727 36.698 77.431 C 37.144 77.086 37.49 76.602 37.648 76.061 Z M 11.535 77.634 C 11.507 77.811 11.292 77.872 11.146 77.804 C 10.031 78.109 8.81 77.604 7.94 76.908 C 6.908 76.093 6.584 74.786 6.181 73.601 C 6.124 73.448 6.268 73.323 6.403 73.309 C 7.641 73.189 8.839 73.938 9.762 74.675 C 10.661 75.392 11.74 76.364 11.535 77.634 Z M 8.304 75.193 C 9.269 75.545 10.164 76.16 10.937 76.859 C 10.639 76.079 9.955 75.539 9.339 75.014 C 8.586 74.396 7.693 73.858 6.705 73.791 C 7.214 75.814 8.583 77.36 10.755 77.441 C 9.987 76.689 9.059 76.139 8.119 75.632 C 7.885 75.501 8.046 75.098 8.304 75.193 Z M 9.405 72.192 C 9.06 71.1 9.329 69.936 9.572 68.853 C 9.622 68.63 9.932 68.658 9.996 68.853 C 10.139 69.291 10.492 69.615 10.767 69.971 C 11.597 71.013 11.733 72.511 11.164 73.706 C 11.243 73.736 11.263 73.853 11.162 73.863 C 11.043 73.855 10.922 73.888 10.813 73.825 C 10.104 73.643 9.61 72.841 9.405 72.192 Z M 10.215 72.856 C 10.037 72.421 9.857 71.943 9.956 71.471 C 9.964 71.307 10.199 71.269 10.245 71.432 C 10.472 71.975 10.561 72.579 10.884 73.086 C 11.086 72.444 11.07 71.748 10.859 71.105 C 10.678 70.496 10.229 70.048 9.866 69.548 C 9.617 70.653 9.511 71.901 10.215 72.856 Z M 12.639 28.229 C 12.501 28.349 11.721 29.083 11.547 28.748 C 11.459 28.194 11.366 27.567 11.397 27.005 C 11.538 25.454 12.739 24.333 13.876 23.404 C 14.001 23.298 14.168 23.372 14.185 23.532 C 14.3 24.592 14.401 25.707 13.941 26.703 C 13.654 27.326 13.149 27.786 12.639 28.229 Z M 13.05 25.888 C 12.767 26.708 12.202 27.405 11.911 28.22 C 13.664 27.082 14.092 25.921 13.856 23.873 C 12.73 24.758 11.595 26.029 11.747 27.556 C 12.087 26.959 12.365 26.323 12.776 25.772 C 12.87 25.647 13.113 25.714 13.05 25.888 Z M 3.254 36.21 C 3.316 36.583 3.523 37.423 2.943 37.445 C 2.059 37.488 1.343 37.076 0.858 36.352 C 0.603 35.972 0.424 35.541 0.269 35.112 C 0.148 34.829 -0.317 33.144 0.355 33.376 C 1.164 33.781 2.007 34.211 2.6 34.915 C 2.914 35.287 3.153 35.732 3.254 36.21 Z M 2.871 36.776 C 2.931 35.36 1.602 34.455 0.454 33.915 C 0.574 35.034 1.228 36.814 2.492 37.004 C 2.051 36.484 1.587 35.957 1.292 35.338 C 1.213 35.163 1.436 34.945 1.58 35.116 C 1.851 35.438 2.077 35.798 2.334 36.131 C 2.505 36.352 2.685 36.567 2.871 36.776 Z M 4.523 34.263 C 4.43 34.567 4.254 34.85 4.109 35.131 C 4.043 35.26 4.056 35.428 3.875 35.36 C 3.779 35.324 3.661 35.234 3.603 35.147 C 3.013 34.107 3.112 32.559 4.1 31.79 C 4.19 31.727 4.327 31.791 4.352 31.893 C 4.542 32.667 4.766 33.472 4.523 34.263 Z M 4.111 32.297 C 3.536 32.968 3.455 34.002 3.844 34.787 C 4.119 34.467 4.262 34.088 4.293 33.674 C 4.328 33.213 4.234 32.745 4.111 32.297 Z M 16.25 38.802 C 16.098 39.583 15.537 40.229 14.858 40.616 C 14.125 41.034 13.354 41.103 12.53 41.142 C 12.323 41.152 12.196 41.287 12.055 41.091 C 12.007 41.024 11.997 40.931 12.033 40.852 C 12.12 40.106 12.733 39.622 13.35 39.3 C 14.188 38.904 15.084 38.444 16.036 38.521 C 16.186 38.537 16.279 38.651 16.25 38.802 Z M 15.747 38.954 C 15.012 38.984 14.319 39.319 13.655 39.615 C 13.237 39.812 12.826 40.066 12.571 40.462 C 13.123 40.161 13.689 39.784 14.324 39.728 C 14.458 39.704 14.556 39.888 14.422 39.96 C 13.998 40.253 13.485 40.396 13.05 40.679 C 13.585 40.626 14.111 40.51 14.589 40.248 C 15.114 39.962 15.549 39.515 15.747 38.954 Z M 6.973 49.949 C 6.238 50.397 5.259 50.508 4.516 50.025 C 4.403 49.956 4.396 49.817 4.477 49.721 C 5.052 49.043 5.72 48.446 6.464 47.958 C 7.075 47.555 7.896 47.239 8.611 47.566 C 8.761 47.569 8.895 47.747 8.8 47.893 C 8.302 48.658 7.772 49.466 6.973 49.949 Z M 7.825 48.554 C 7.357 48.831 6.941 49.202 6.444 49.421 C 6.267 49.486 6.172 49.25 6.275 49.13 C 6.835 48.615 7.529 48.254 8.155 47.82 C 6.941 47.773 5.737 49.006 4.923 49.807 C 6.036 50.26 7.199 49.443 7.825 48.554 Z M 25.392 29.54 C 25.382 29.421 25.517 29.332 25.624 29.363 C 27.381 29.864 28.88 31.675 28.757 33.541 C 28.763 33.595 28.733 33.655 28.675 33.677 C 28.237 33.835 27.725 33.667 27.331 33.456 C 25.918 32.705 25.481 31.022 25.392 29.54 Z M 25.787 29.803 C 25.926 31.285 26.606 33.035 28.229 33.345 C 27.594 32.621 26.879 31.954 26.333 31.16 C 26.239 31.023 26.439 30.898 26.549 30.993 C 27.207 31.559 27.746 32.253 28.325 32.903 C 28.209 32.264 27.959 31.664 27.557 31.134 C 27.106 30.54 26.488 30.063 25.787 29.803 Z M 28.32 34.623 C 28.137 35.183 27.711 35.669 27.246 36.015 C 26.771 36.369 26.209 36.575 25.624 36.647 C 25.508 36.661 25.401 36.514 25.441 36.407 C 25.803 35.46 26.683 34.677 27.699 34.533 C 27.773 34.526 28.391 34.405 28.32 34.623 Z M 27.758 34.831 C 27.011 35.047 26.33 35.522 25.951 36.211 C 26.594 36.057 27.163 35.658 27.561 35.136 C 27.636 35.039 27.699 34.937 27.758 34.831 Z M 39.05 32.281 C 38.884 32.4 38.691 32.22 38.755 32.043 C 38.79 31.947 38.276 31.005 38.805 29.35 C 39.149 28.422 39.76 27.602 40.373 26.832 C 40.467 26.72 40.663 26.74 40.713 26.886 C 40.855 27.304 40.938 27.742 40.956 28.183 C 41.017 29.735 40.328 31.364 39.05 32.281 Z M 40.441 27.375 C 39.628 28.44 38.722 29.778 39.03 31.171 C 39.236 30.502 39.297 29.8 39.531 29.14 C 40.085 28.669 39.405 31.324 39.334 31.488 C 39.452 31.362 39.564 31.232 39.667 31.093 C 40.444 30.042 40.745 28.646 40.441 27.375 Z M 33.361 45.531 C 33.208 45.202 33.098 44.374 33.079 44.352 C 32.965 44.217 33.033 43.989 33.229 43.99 C 34.021 43.993 34.757 44.429 35.282 44.998 C 35.868 45.634 36.219 46.431 36.55 47.218 C 36.606 47.35 36.467 47.493 36.341 47.492 C 35.498 47.485 34.694 47.123 34.09 46.542 C 33.791 46.254 33.537 45.909 33.361 45.531 Z M 33.511 44.838 C 33.824 45.967 34.83 46.893 36.001 47.038 C 35.527 45.991 34.885 44.828 33.765 44.502 C 34.185 44.981 34.695 45.367 35.13 45.83 C 35.237 45.937 35.1 46.103 34.973 46.034 C 34.589 45.846 34.263 45.574 33.955 45.281 C 33.801 45.138 33.654 44.99 33.511 44.838 Z M 42.67 40.794 C 42.086 40.655 41.491 40.522 40.963 40.223 C 40.581 40.007 39.8 39.088 39.766 38.959 C 39.716 38.77 39.884 38.681 40.042 38.699 C 41.293 38.768 42.449 39.312 42.931 40.533 C 42.995 40.692 42.812 40.828 42.67 40.794 Z M 42.32 40.285 C 41.896 39.655 41.153 39.19 40.377 39.195 C 40.59 39.501 40.892 39.738 41.224 39.907 C 41.566 40.087 41.941 40.198 42.32 40.285 Z M 38.882 38.776 C 38.383 38.999 37.885 39.221 37.386 39.442 C 37.422 39.684 37.458 39.926 37.5 40.167 C 37.526 40.318 37.573 40.471 37.519 40.621 C 37.426 40.878 37.126 41.013 36.901 41.118 C 35.818 41.634 34.704 42.079 33.606 42.561 C 33.401 42.561 33.727 42.723 33.759 42.733 C 34.329 42.904 34.896 43.09 35.459 43.284 C 35.923 43.444 36.459 43.557 36.836 43.892 C 36.901 43.95 36.851 44.071 36.765 44.065 C 36.376 44.044 36.015 43.881 35.649 43.763 C 34.774 43.491 33.872 43.27 32.964 43.153 C 31.734 43.165 30.96 44.252 29.968 45.2 C 30.054 45.334 30.095 45.489 30.083 45.642 C 30.233 45.76 30.382 45.876 30.526 46.004 C 30.527 46.004 30.527 46.004 30.527 46.004 C 31.6 45.226 32.949 46.563 32.167 47.644 L 32.167 47.645 C 32.293 47.79 32.413 47.938 32.53 48.091 C 33.054 48.03 33.483 48.641 33.254 49.112 C 33.546 49.567 33.813 50.039 34.052 50.528 C 34.41 50.601 34.764 50.695 35.122 50.771 C 34.934 51.063 34.731 51.339 34.528 51.619 C 34.781 52.272 34.984 52.951 35.136 53.647 C 35.63 53.827 35.751 54.548 35.348 54.877 C 35.371 55.067 35.391 55.26 35.407 55.453 C 36.717 55.675 36.704 57.557 35.407 57.772 C 35.391 57.965 35.371 58.157 35.348 58.347 C 35.752 58.676 35.625 59.403 35.136 59.577 C 34.99 60.247 34.796 60.898 34.556 61.528 C 34.749 61.796 34.943 62.059 35.122 62.338 C 34.784 62.41 34.45 62.496 34.113 62.569 C 33.862 63.101 33.571 63.617 33.254 64.113 C 33.483 64.584 33.054 65.195 32.529 65.134 C 32.413 65.285 32.291 65.434 32.166 65.579 C 32.166 65.58 32.166 65.58 32.166 65.58 C 32.941 66.662 31.613 67.996 30.526 67.22 C 30.526 67.22 30.526 67.22 30.525 67.22 C 30.378 67.346 30.232 67.466 30.08 67.583 C 30.089 67.719 30.06 67.856 29.993 67.98 C 32.162 69.821 33.385 72.69 33.363 75.522 C 33.34 78.294 32.166 80.88 31.73 83.585 C 34.395 83.012 37.243 85.241 37.047 87.991 C 36.975 88.606 36.93 89.275 36.465 89.745 C 36.187 88.42 35.137 87.204 33.683 87.252 C 32.762 87.263 32.015 87.927 31.731 88.757 C 31.354 89.819 31.807 90.939 32.432 91.811 C 30.683 91.731 29.071 90.402 28.501 88.767 C 27.738 86.731 29.103 84.391 31.142 83.746 C 31.551 80.92 32.824 78.239 32.807 75.352 C 32.792 72.696 31.571 70.117 29.652 68.301 C 29.464 68.387 29.248 68.39 29.058 68.309 C 28.608 68.599 28.14 68.864 27.656 69.1 C 27.586 69.406 27.513 69.709 27.446 70.015 C 27.197 69.857 26.966 69.684 26.726 69.515 C 26.012 69.801 25.282 70.027 24.524 70.192 C 24.346 70.685 23.625 70.807 23.294 70.404 C 23.103 70.427 22.91 70.447 22.717 70.463 C 22.63 71.01 22.166 71.429 21.6 71.449 C 19.846 75.843 21.841 79.927 22.586 84.27 C 23.859 84.553 24.124 86.342 22.8 86.796 C 22.803 87.126 22.797 87.457 22.78 87.788 C 23.4 88.123 23.334 89.101 22.629 89.287 C 22.319 91.366 21.609 93.387 20.544 95.199 C 21.714 97.18 20.848 99.756 19.226 101.212 C 18.054 102.292 16.573 102.961 15.093 103.504 C 14.897 103.576 14.647 103.345 14.731 103.142 C 15.619 101.044 15.415 98.543 16.795 96.649 C 17.605 95.572 18.859 94.78 20.204 94.615 C 21.126 92.964 21.746 91.148 22.03 89.276 C 21.237 89.024 21.307 87.694 22.192 87.667 C 22.205 87.399 22.21 87.132 22.209 86.864 C 20.882 86.691 20.648 84.716 21.985 84.33 C 21.371 80.822 19.84 77.359 20.427 73.74 C 20.573 72.936 20.766 72.088 21.223 71.403 C 20.796 71.276 20.472 70.912 20.401 70.464 C 20.208 70.448 20.014 70.428 19.824 70.405 C 19.495 70.809 18.768 70.682 18.594 70.193 C 17.885 70.039 17.2 69.829 16.527 69.57 C 16.309 69.719 16.106 69.876 15.881 70.016 C 15.822 69.747 15.759 69.481 15.697 69.213 C 15.13 68.95 14.585 68.647 14.059 68.31 C 13.948 68.357 13.829 68.374 13.711 68.365 C 11.955 72.299 14.832 76.51 13.678 80.538 C 15.813 82.323 15.638 85.927 13.395 87.51 C 12.855 87.896 12.166 88.233 11.495 88.278 C 10.876 88.316 10.211 88.389 9.666 88.016 C 10.92 87.508 11.933 86.26 11.629 84.837 C 11.486 84.109 10.961 83.573 10.303 83.315 C 9.054 82.819 7.777 83.51 6.922 84.411 C 6.543 81.094 10.157 78.185 13.189 80.171 C 14.113 76.183 11.329 71.993 13.234 68.136 C 13.091 67.982 13.026 67.783 13.039 67.587 C 12.887 67.47 12.74 67.35 12.593 67.224 C 12.592 67.224 12.592 67.224 12.592 67.224 C 12.592 67.224 12.592 67.224 12.592 67.224 C 11.506 67.998 10.178 66.672 10.953 65.585 C 10.953 65.585 10.953 65.585 10.953 65.585 C 10.953 65.585 10.953 65.585 10.953 65.584 C 10.827 65.439 10.709 65.292 10.593 65.142 C 10.069 65.199 9.636 64.597 9.865 64.117 C 9.538 63.604 9.24 63.074 8.982 62.521 C 8.727 62.461 8.46 62.4 8.206 62.343 C 8.341 62.128 8.492 61.933 8.633 61.723 C 8.361 61.031 8.142 60.32 7.982 59.583 C 7.493 59.41 7.365 58.683 7.77 58.354 C 7.747 58.163 7.727 57.97 7.711 57.776 C 6.404 57.55 6.403 55.686 7.711 55.46 C 7.725 55.267 7.748 55.073 7.77 54.881 C 7.363 54.546 7.495 53.828 7.982 53.652 C 8.147 52.895 8.375 52.155 8.664 51.439 C 8.511 51.21 8.351 51.001 8.207 50.771 C 8.487 50.71 8.763 50.644 9.041 50.58 C 9.041 50.58 9.041 50.58 9.041 50.58 C 9.288 50.073 9.562 49.583 9.866 49.112 C 9.638 48.641 10.066 48.031 10.59 48.091 C 10.707 47.939 10.827 47.791 10.953 47.645 L 10.953 47.644 C 10.67 47.258 10.652 46.739 10.899 46.337 C 10.485 46.102 10.056 45.893 9.625 45.691 C 8.854 46.264 7.975 46.719 7.025 46.886 C 6.892 46.908 6.756 46.909 6.637 46.857 C 6.597 46.855 6.574 46.798 6.615 46.777 C 6.84 46.584 7.154 46.524 7.429 46.419 C 8.048 46.192 8.645 45.88 9.168 45.484 C 8.234 45.073 7.276 44.757 6.299 44.465 C 6.207 44.438 6.139 44.353 6.14 44.255 C 6.14 43.91 6.115 43.567 6.07 43.227 C 5.378 42.833 4.673 42.434 3.877 42.292 C 3.7 42.239 3.478 42.271 3.332 42.149 C 3.073 41.521 2.877 40.855 2.626 40.22 C 2.605 40.165 2.692 40.143 2.714 40.195 C 2.956 40.779 3.201 41.371 3.473 41.942 C 4.367 42 5.253 42.326 6.004 42.809 C 5.766 41.469 5.211 40.199 4.453 39.073 C 4.208 38.709 3.96 38.343 3.704 37.986 C 3.669 37.937 3.743 37.896 3.781 37.927 C 4.499 38.457 5.004 39.22 5.43 39.991 C 6.086 41.165 6.362 42.488 6.595 43.8 C 6.577 43.85 6.592 43.911 6.659 43.926 C 6.881 43.975 7.084 44.077 7.296 44.157 C 7.945 44.364 8.592 44.569 9.232 44.803 C 10.039 45.042 10.844 45.319 11.513 45.845 C 11.871 45.719 12.277 45.77 12.594 46.004 C 12.594 46.004 12.594 46.004 12.595 46.004 C 12.797 45.829 13.002 45.668 13.215 45.509 C 13.183 45.424 13.165 45.335 13.168 45.244 C 12.536 44.82 11.855 44.47 11.2 44.081 C 10.621 43.725 9.94 43.458 9.552 42.882 C 9.225 42.382 9.037 41.806 8.798 41.262 C 8.231 40.202 7.81 39.061 7.149 38.056 C 6.476 37.115 5.445 35.962 6.096 34.749 C 6.289 34.347 6.506 33.958 6.689 33.549 C 7.068 32.743 7.283 31.87 7.622 31.048 C 7.664 30.951 7.827 31.001 7.821 31.102 C 7.791 31.589 7.65 32.077 7.492 32.536 C 7.215 33.41 6.783 34.22 6.386 35.04 C 6.143 35.55 6.4 36.069 6.686 36.495 C 7.16 37.145 7.63 37.804 8.215 38.361 C 8.65 37.236 9.139 36.139 9.722 35.081 C 9.925 34.561 10.135 34.042 10.317 33.517 C 10.434 33.233 10.501 32.918 10.368 32.628 C 10.247 32.189 9.939 31.847 9.727 31.452 C 9.135 30.344 8.631 29.078 8.711 27.801 C 8.723 27.674 8.908 27.632 8.944 27.77 C 9.033 28.113 9.09 28.466 9.168 28.812 C 9.393 29.827 9.78 30.806 10.348 31.678 C 10.525 31.131 10.688 30.557 10.998 30.07 C 11.102 29.931 11.297 30.015 11.271 30.185 C 11.216 30.479 11.084 30.759 10.985 31.041 C 10.885 31.449 10.843 31.849 10.769 32.267 C 11.4 32.97 11.012 33.667 10.687 34.401 C 10.549 34.733 10.412 35.063 10.274 35.394 C 9.806 36.508 9.326 37.71 8.848 38.826 C 8.925 39.145 8.937 39.481 9.045 39.796 C 9.171 40.166 9.29 40.542 9.446 40.897 C 9.729 41.416 10.079 41.894 10.308 42.443 C 10.344 42.6 10.928 43.29 10.931 42.843 C 10.904 42.197 11.004 41.536 11.186 40.917 C 11.278 40.286 11.514 39.692 11.701 39.087 C 11.825 38.573 11.609 38.062 11.582 37.548 C 11.534 37.044 11.514 36.511 11.652 36.018 C 11.679 35.923 11.806 35.952 11.815 36.041 C 11.873 36.634 11.86 37.225 11.973 37.815 C 12.08 38.304 12.232 38.807 12.057 39.3 C 11.916 39.773 11.736 40.226 11.634 40.712 C 11.446 41.546 11.447 42.411 11.492 43.255 C 11.478 43.304 11.495 43.363 11.557 43.382 C 12.293 43.631 12.918 44.146 13.519 44.624 C 13.791 44.452 14.164 44.485 14.398 44.709 C 14.808 44.46 15.232 44.232 15.669 44.027 C 15.74 43.715 15.816 43.407 15.883 43.094 C 16.142 43.261 16.384 43.438 16.633 43.617 C 17.274 43.375 17.923 43.178 18.596 43.033 C 18.778 42.542 19.492 42.419 19.825 42.821 C 20.017 42.798 20.208 42.778 20.402 42.762 C 20.462 42.375 20.729 42.03 21.089 41.875 C 21.019 41.737 20.952 41.598 20.887 41.458 C 20.006 41.532 19.573 40.373 20.267 39.846 C 20.188 39.594 20.116 39.341 20.051 39.085 C 19.324 39.017 19.127 38.01 19.768 37.671 C 19.733 37.436 19.705 37.2 19.682 36.963 C 19.249 36.791 19.206 36.138 19.615 35.913 C 19.606 35.58 19.608 35.248 19.621 34.917 C 17.71 34.343 16.931 31.816 18.118 30.256 C 18.49 29.723 19.063 29.347 19.689 29.185 C 19.929 29.113 20.177 29.083 20.427 29.158 C 19.603 29.818 19.237 31.135 20.068 31.946 C 20.529 30.109 21.271 28.342 21.97 26.575 C 22.506 25.037 23.589 23.087 22.802 21.488 C 22.534 22.168 21.992 22.778 21.24 22.901 C 20.694 22.99 20.113 22.779 19.854 22.268 C 19.428 21.427 19.957 20.256 20.841 19.979 C 21.46 19.785 22.063 19.968 22.548 20.341 C 22.994 18.177 23.066 15.932 22.771 13.742 C 22.676 13.029 22.504 12.324 22.491 11.603 C 22.485 11.486 22.661 11.461 22.708 11.558 C 23.216 12.599 23.32 13.795 23.423 14.935 C 23.594 16.901 23.458 18.885 23.023 20.811 C 24.313 22.461 23.319 24.611 22.681 26.323 C 21.921 28.279 21.067 30.219 20.578 32.251 C 21.598 32.613 22.547 31.815 22.95 30.925 C 23.822 32.792 22.364 35.343 20.181 35.042 C 20.171 35.324 20.172 35.606 20.179 35.888 C 20.585 36.06 20.626 36.694 20.245 36.917 C 20.268 37.147 20.295 37.377 20.33 37.605 C 20.919 37.743 21.087 38.577 20.595 38.931 C 20.651 39.175 20.721 39.416 20.793 39.655 C 21.657 39.611 22.063 40.747 21.386 41.265 C 21.463 41.437 21.543 41.608 21.626 41.777 C 22.179 41.802 22.637 42.222 22.722 42.761 C 22.915 42.776 23.108 42.799 23.299 42.82 C 23.637 42.415 24.35 42.545 24.528 43.032 C 25.243 43.189 25.948 43.401 26.629 43.668 C 26.901 43.472 27.168 43.275 27.451 43.093 C 27.525 43.442 27.616 43.787 27.688 44.136 C 28.162 44.369 28.619 44.63 29.063 44.913 C 29.104 44.895 29.146 44.883 29.189 44.873 C 29.62 44.114 30.245 43.423 30.537 42.591 C 30.577 42.47 30.583 42.346 30.564 42.22 C 30.518 41.91 30.384 41.615 30.265 41.327 C 30.02 40.576 29.738 39.845 29.387 39.138 C 29.125 38.602 28.799 38.068 28.671 37.485 C 28.199 35.379 29.665 33.455 29.596 31.36 C 29.594 31.254 29.765 31.211 29.787 31.323 C 30.225 33.487 28.412 35.552 29.172 37.694 C 29.504 37.292 29.917 36.949 30.41 36.769 C 30.682 36.567 30.63 36.176 30.647 35.878 C 30.693 35.109 30.749 34.339 30.85 33.576 C 30.862 33.487 30.993 33.481 30.995 33.576 C 31.004 34.1 31.003 34.626 30.982 35.15 C 31.171 34.792 31.382 34.435 31.638 34.122 C 31.708 34.052 31.843 34.122 31.809 34.222 C 31.596 34.691 31.293 35.122 30.968 35.521 C 30.933 35.894 30.99 36.292 30.889 36.655 C 30.735 37.048 30.295 37.201 30.022 37.498 C 29.788 37.722 29.598 37.99 29.401 38.244 C 29.84 39.098 30.293 39.943 30.755 40.786 C 31.022 41.287 31.345 41.866 31.281 42.452 C 31.265 42.596 31.193 43.074 31.038 43.144 C 31.445 42.939 31.813 42.623 32.221 42.408 C 32.283 42.372 32.57 42.258 32.589 42.197 C 32.753 41.641 32.812 41.058 32.803 40.48 C 32.751 39.917 33.25 39.606 33.572 39.225 C 34.083 38.65 34.405 37.95 34.774 37.284 C 34.827 37.204 34.989 37.224 34.976 37.339 C 34.92 37.838 34.643 38.324 34.38 38.741 C 34.106 39.174 33.782 39.571 33.419 39.93 C 33.341 40.008 33.243 40.088 33.209 40.197 C 33.378 40.713 33.288 41.299 33.264 41.834 C 34.493 41.199 35.778 40.676 37.095 40.264 C 36.96 39.502 36.802 38.741 36.728 37.968 C 36.667 37.582 36.605 37.195 36.549 36.808 C 36.511 36.541 36.501 36.288 36.624 36.041 C 36.705 35.881 36.826 35.739 36.943 35.599 C 36.85 35.455 36.739 35.33 36.649 35.185 C 36.476 34.945 36.239 34.698 36.239 34.383 C 36.242 34.172 36.359 33.997 36.472 33.827 C 36.985 33.074 37.358 32.231 37.585 31.35 C 37.713 30.913 37.749 30.455 37.844 30.012 C 37.858 29.959 37.952 29.951 37.961 30.012 C 38.002 31.351 37.53 32.7 36.846 33.84 C 36.801 33.935 36.67 34.031 36.687 34.156 L 36.68 34.155 C 36.755 34.281 36.76 34.445 36.841 34.57 C 36.962 34.778 37.157 34.922 37.331 35.084 C 37.84 34.365 38.267 33.578 38.603 32.766 C 38.641 32.672 38.789 32.706 38.76 32.809 C 38.606 33.351 38.406 33.873 38.156 34.378 C 36.667 37.145 36.763 35.313 37.273 38.721 C 37.801 38.54 38.323 38.37 38.847 38.183 C 38.586 37.475 38.549 36.687 38.757 35.961 C 38.772 35.91 38.857 35.918 38.852 35.974 C 38.786 36.686 38.889 37.413 39.162 38.075 C 39.3 38.027 39.439 37.981 39.58 37.939 C 39.911 36.806 40.128 35.628 40.584 34.535 C 40.619 34.456 40.757 34.494 40.748 34.579 C 40.69 35.131 40.546 35.668 40.406 36.204 C 41.003 35.593 41.462 34.876 41.951 34.181 C 42.017 34.096 42.166 34.189 42.131 34.285 C 42.043 34.532 41.905 34.78 41.763 35 C 41.352 35.622 40.866 36.199 40.284 36.668 C 40.192 37.015 40.101 37.362 40.006 37.708 C 39.894 38.407 39.465 38.541 38.882 38.776 Z M 22.402 20.948 C 21.728 20.236 20.573 20.202 20.284 21.286 C 20.192 21.608 20.227 21.998 20.481 22.202 C 20.891 22.531 21.49 22.312 21.83 21.991 C 22.121 21.714 22.288 21.338 22.402 20.948 Z M 20.16 95.823 C 19.773 96.425 19.342 96.998 18.873 97.539 C 18.583 97.874 18.291 98.204 17.91 98.435 C 17.741 98.538 17.532 98.332 17.637 98.162 C 17.9 97.738 18.262 97.387 18.579 97.003 C 19.04 96.444 19.461 95.853 19.84 95.235 C 19.828 95.192 19.827 95.15 19.835 95.111 C 16.058 96.431 16.475 99.539 15.513 102.715 C 17.358 101.992 19.272 100.897 20.088 98.996 C 20.515 97.99 20.607 96.819 20.16 95.823 Z M 24.55 43.52 C 24.447 43.903 24.009 44.142 23.631 44.017 C 23.516 46.075 22.836 48.104 21.676 49.811 C 21.983 49.883 22.221 50.129 22.284 50.439 C 22.422 50.458 22.559 50.481 22.693 50.509 C 22.954 50.198 23.518 50.358 23.571 50.764 C 23.757 50.834 23.939 50.913 24.116 51.003 C 26.322 50.083 28.225 48.431 29.376 46.329 C 28.831 46.372 28.421 45.711 28.702 45.245 C 28.281 44.98 27.846 44.737 27.395 44.52 C 27.188 44.683 26.981 44.844 26.776 45.01 C 26.677 44.719 26.601 44.427 26.517 44.133 C 26.144 43.985 25.766 43.853 25.381 43.739 C 25.108 43.656 24.83 43.584 24.55 43.52 Z M 23.5 51.125 C 23.242 51.553 22.549 51.354 22.559 50.852 C 22.465 50.832 22.37 50.817 22.275 50.802 C 22.072 51.611 20.907 51.609 20.701 50.803 C 20.606 50.816 20.511 50.832 20.417 50.851 C 20.428 51.353 19.735 51.553 19.478 51.123 C 18.91 51.343 18.382 51.659 17.921 52.043 C 18.207 52.551 17.626 53.15 17.109 52.881 C 17.103 52.889 17.098 52.896 17.091 52.905 C 17.091 52.906 17.09 52.906 17.09 52.906 C 16.765 53.328 16.493 53.801 16.301 54.301 C 16.73 54.556 16.532 55.252 16.029 55.24 C 16.01 55.334 15.994 55.43 15.981 55.525 C 16.788 55.73 16.787 56.894 15.98 57.098 C 15.995 57.194 16.009 57.287 16.03 57.382 C 16.535 57.376 16.731 58.06 16.303 58.323 C 16.524 58.895 16.838 59.421 17.227 59.883 C 17.707 59.665 18.246 60.187 18.039 60.673 C 18.472 61.018 18.957 61.298 19.48 61.5 C 19.734 61.072 20.432 61.267 20.42 61.772 C 20.514 61.791 20.609 61.807 20.705 61.82 C 20.909 61.013 22.075 61.013 22.278 61.821 C 22.373 61.806 22.468 61.791 22.562 61.771 C 22.55 61.267 23.247 61.071 23.501 61.498 C 23.819 61.376 24.119 61.225 24.405 61.05 C 24.405 61.05 24.408 61.05 24.408 61.049 C 24.624 60.915 24.826 60.769 25.023 60.608 C 24.795 60.12 25.335 59.573 25.827 59.795 C 26.184 59.353 26.477 58.854 26.68 58.32 C 26.253 58.058 26.448 57.372 26.953 57.379 C 26.973 57.285 26.988 57.19 27.003 57.095 C 26.651 57.006 26.391 56.688 26.391 56.308 C 26.391 55.929 26.651 55.611 27.002 55.521 C 26.991 55.438 26.978 55.356 26.962 55.275 C 26.939 55.262 26.916 55.247 26.894 55.232 C 26.723 55.213 26.578 55.107 26.503 54.961 C 26.376 54.74 26.463 54.424 26.683 54.296 C 26.471 53.746 26.167 53.232 25.795 52.779 C 25.28 53.073 24.673 52.474 24.961 51.955 C 24.96 51.954 24.96 51.954 24.959 51.953 L 24.958 51.953 C 24.789 51.818 24.612 51.693 24.427 51.578 C 24.13 51.404 23.823 51.245 23.5 51.125 Z M 22.7 43.232 C 22.562 43.837 21.907 44.247 21.297 44.094 C 21.59 46.251 21.249 48.524 20.213 50.446 C 20.238 50.463 20.263 50.485 20.284 50.509 C 20.39 50.486 20.497 50.467 20.606 50.451 C 22.233 48.453 23.173 45.863 23.112 43.273 C 22.975 43.257 22.838 43.242 22.7 43.232 Z M 16.838 44.042 C 16.747 44.367 16.663 44.688 16.555 45.008 C 16.324 44.821 16.09 44.64 15.857 44.457 C 15.433 44.654 15.023 44.876 14.625 45.117 C 14.634 45.166 14.638 45.215 14.637 45.265 C 16.103 47.11 16.993 49.421 17.102 51.778 C 17.27 51.687 17.499 51.691 17.665 51.785 C 18.179 51.351 18.767 51.002 19.407 50.762 C 19.442 50.56 19.596 50.399 19.794 50.355 C 20.789 48.347 21.153 46.021 20.761 43.808 C 20.596 43.652 20.476 43.453 20.422 43.231 C 20.284 43.242 20.147 43.256 20.011 43.273 C 20.058 44.14 18.812 44.343 18.572 43.52 C 18.142 43.616 17.72 43.736 17.307 43.875 C 17.149 43.927 16.993 43.983 16.838 44.042 Z M 12.911 46.351 C 13.038 46.565 13.091 46.811 13.07 47.052 C 14.834 48.645 16.113 50.833 16.446 53.199 C 16.51 53.094 16.577 52.993 16.648 52.892 C 16.738 50.359 15.919 47.816 14.387 45.8 C 14.14 46.018 13.782 46.044 13.51 45.872 C 13.415 45.942 13.32 46.015 13.228 46.088 C 13.121 46.174 13.015 46.261 12.911 46.351 Z M 8.851 52.275 C 11.237 52.784 13.467 54.074 15.061 55.928 C 15.174 55.719 15.375 55.566 15.614 55.517 C 15.633 55.379 15.656 55.243 15.684 55.108 C 15.372 54.848 15.535 54.285 15.939 54.232 C 16.002 54.062 16.074 53.894 16.155 53.731 C 15.777 51.395 14.643 49.177 12.906 47.56 C 12.583 48.113 11.828 48.29 11.301 47.963 C 11.211 48.068 11.123 48.175 11.038 48.283 C 11.673 48.866 10.951 49.871 10.197 49.471 C 9.948 49.862 9.721 50.266 9.517 50.682 C 9.719 50.936 9.916 51.193 10.121 51.445 C 9.764 51.565 9.404 51.658 9.042 51.758 C 9.042 51.758 9.042 51.758 9.042 51.759 C 8.974 51.927 8.911 52.1 8.851 52.275 Z M 8.691 52.777 C 8.607 53.054 8.533 53.337 8.469 53.622 C 8.884 53.728 9.126 54.245 8.93 54.638 C 11.412 54.785 13.894 55.766 15.642 57.56 C 15.655 57.545 15.669 57.531 15.685 57.517 C 14.392 55.49 12.322 53.922 10.025 53.142 C 9.588 52.994 9.143 52.871 8.691 52.777 Z M 8.982 61.312 C 11.37 60.04 14.241 59.6 16.88 60.258 C 16.897 60.208 16.918 60.16 16.946 60.117 C 16.519 59.609 16.176 59.027 15.939 58.395 C 15.703 58.353 15.523 58.15 15.518 57.903 C 13.527 56.131 10.896 55.063 8.217 55.11 C 8.202 55.231 8.19 55.351 8.181 55.474 C 9.358 55.763 9.359 57.462 8.181 57.751 C 8.192 57.889 8.206 58.026 8.223 58.162 C 9.093 58.124 9.293 59.353 8.47 59.603 C 8.602 60.187 8.775 60.759 8.982 61.312 Z M 10.057 63.529 C 11.935 61.851 14.436 60.8 16.968 60.819 C 16.941 60.783 16.917 60.744 16.899 60.702 C 14.494 60.165 11.923 60.472 9.702 61.536 C 9.842 61.582 9.981 61.606 10.12 61.663 C 9.905 61.931 9.695 62.204 9.481 62.471 C 9.658 62.834 9.849 63.186 10.057 63.529 Z M 14.69 68.145 C 15.815 65.51 17.944 63.254 20.619 62.176 C 20.505 62.16 20.392 62.14 20.281 62.117 C 20.02 62.428 19.461 62.265 19.407 61.863 C 18.935 61.686 18.494 61.446 18.088 61.16 C 15.377 61.159 12.728 61.88 10.633 63.672 C 11.236 63.725 11.505 64.547 11.039 64.945 C 11.124 65.052 11.212 65.16 11.301 65.265 C 12.334 64.647 13.526 65.838 12.909 66.872 C 13.014 66.963 13.121 67.051 13.23 67.137 C 13.813 66.501 14.82 67.223 14.418 67.978 C 14.419 67.979 14.42 67.979 14.421 67.98 C 14.509 68.035 14.599 68.092 14.69 68.145 Z M 15.15 68.408 C 15.352 68.519 15.558 68.623 15.766 68.724 C 16.028 68.514 16.294 68.312 16.555 68.1 C 16.672 68.448 16.764 68.8 16.861 69.153 C 17.338 66.574 18.759 64.123 20.915 62.6 C 20.89 62.575 20.867 62.548 20.845 62.519 C 18.671 63.512 16.831 65.203 15.684 67.302 C 15.487 67.662 15.308 68.03 15.15 68.408 Z M 23.111 69.95 C 23.092 69.71 23.206 69.48 23.38 69.34 C 22.712 66.81 22.895 64.023 24.047 61.659 C 23.891 61.734 23.731 61.803 23.569 61.863 C 23.515 62.265 22.956 62.427 22.695 62.117 C 22.559 62.145 22.423 62.168 22.284 62.187 C 22.201 62.648 21.685 62.955 21.233 62.796 C 19.204 64.426 17.75 66.777 17.317 69.353 C 17.727 69.49 18.145 69.607 18.57 69.704 C 18.819 68.881 20.048 69.081 20.01 69.951 C 20.147 69.967 20.283 69.982 20.421 69.992 C 20.71 68.815 22.408 68.815 22.698 69.992 C 22.698 69.992 22.698 69.992 22.698 69.992 C 22.838 69.981 22.975 69.966 23.111 69.95 Z M 25.918 69.314 C 24.501 66.927 23.963 63.924 24.777 61.242 C 24.742 61.266 24.706 61.289 24.669 61.312 C 23.481 63.734 23.17 66.567 23.88 69.176 C 24.199 69.191 24.466 69.409 24.55 69.704 C 25.015 69.598 25.472 69.468 25.918 69.314 Z M 30.211 66.872 C 29.792 66.224 30.216 65.253 30.987 65.122 C 28.955 63.712 27.36 61.63 26.631 59.257 C 26.476 59.529 26.299 59.786 26.102 60.029 C 26.466 60.575 25.807 61.244 25.256 60.886 C 25.219 60.916 25.182 60.946 25.146 60.975 C 24.551 63.733 24.872 66.721 26.383 69.145 C 26.416 69.132 26.451 69.12 26.484 69.106 C 26.577 68.768 26.666 68.432 26.777 68.099 C 27.012 68.289 27.249 68.472 27.485 68.659 C 27.904 68.453 28.311 68.225 28.705 67.976 C 28.303 67.222 29.31 66.499 29.893 67.135 C 29.893 67.135 29.894 67.134 29.895 67.134 C 30.001 67.049 30.107 66.962 30.211 66.872 Z M 33.081 63.503 C 30.526 62.677 28.24 60.873 27.01 58.469 C 26.981 58.545 26.948 58.617 26.918 58.69 C 27.704 61.365 29.543 63.703 31.947 65.113 C 31.994 65.056 32.041 64.999 32.085 64.942 C 31.451 64.359 32.172 63.354 32.926 63.754 C 32.927 63.753 32.927 63.752 32.928 63.751 C 32.981 63.669 33.032 63.586 33.081 63.503 Z M 34.9 58.161 C 34.916 58.026 34.931 57.889 34.941 57.752 C 34.538 57.653 34.217 57.345 34.1 56.949 C 31.949 57.159 29.727 56.759 27.803 55.768 C 28.227 56.201 27.96 57.013 27.363 57.109 C 27.344 57.247 27.321 57.384 27.293 57.517 C 27.5 57.692 27.512 58.06 27.316 58.247 C 28.645 60.514 30.81 62.3 33.329 63.072 C 33.468 62.822 33.598 62.566 33.719 62.306 C 33.55 62.091 33.383 61.877 33.211 61.664 C 33.507 61.564 33.805 61.486 34.105 61.401 C 34.329 60.82 34.512 60.219 34.653 59.601 C 33.851 59.36 34.012 58.168 34.861 58.159 C 34.874 58.159 34.887 58.161 34.9 58.161 Z M 34.899 55.061 C 34.554 55.086 34.245 54.852 34.154 54.537 C 32.017 55.295 29.617 55.39 27.455 54.691 C 27.467 54.803 27.434 54.919 27.376 55.007 C 29.386 56.167 31.759 56.661 34.065 56.425 C 34.14 55.959 34.488 55.584 34.941 55.472 C 34.93 55.335 34.916 55.198 34.899 55.061 Z M 32.085 48.281 C 32 48.173 31.912 48.066 31.823 47.961 C 30.31 49.807 28.198 51.166 25.886 51.764 C 26.107 51.93 26.188 52.278 26.047 52.525 C 26.441 52.998 26.763 53.535 26.996 54.116 C 29.319 54.887 31.907 54.888 34.199 54.005 C 34.287 53.82 34.454 53.679 34.653 53.622 C 34.503 52.959 34.302 52.315 34.057 51.694 C 33.773 51.612 33.492 51.54 33.211 51.444 C 33.372 51.245 33.527 51.045 33.685 50.845 C 33.46 50.37 33.206 49.911 32.925 49.47 C 32.646 49.619 32.294 49.579 32.059 49.344 C 31.765 49.051 31.771 48.556 32.085 48.281 Z M 30.005 46.179 C 28.869 48.431 26.929 50.316 24.576 51.254 C 24.701 51.33 24.823 51.411 24.94 51.495 C 27.256 51.05 29.406 49.835 31.003 48.104 C 30.224 47.984 29.788 47.003 30.211 46.35 C 30.143 46.292 30.075 46.234 30.005 46.179 Z M 34.227 69.909 C 35.171 70.146 35.689 68.621 34.634 68.422 C 33.732 68.334 33.215 69.609 34.227 69.909 Z M 35.663 67.029 C 35.588 66.473 34.751 66.591 34.826 67.142 C 34.846 67.344 35.037 67.534 35.245 67.535 C 35.489 67.535 35.708 67.268 35.663 67.029 Z M 36.81 72.621 C 36.328 71.846 35.135 72.71 35.816 73.362 C 36.331 73.89 37.165 73.27 36.81 72.621 Z M 14.704 90.149 C 14.482 89.606 13.693 89.543 13.401 90.057 C 13.309 90.235 13.272 90.432 13.33 90.627 C 13.324 90.788 13.356 90.944 13.438 91.083 C 14.068 92.048 15.442 91.039 14.704 90.149 Z M 11.639 89.931 C 10.925 89.931 10.924 91.04 11.639 91.04 C 12.353 91.04 12.354 89.931 11.639 89.931 Z M 13.881 97.584 C 13.473 96.918 12.534 97.498 12.887 98.165 C 13.29 98.806 14.24 98.255 13.881 97.584 Z M 6.144 79.194 C 5.909 78.465 5 78.438 4.645 79.089 C 4.303 79.611 4.749 80.367 5.366 80.345 C 5.943 80.36 6.364 79.725 6.144 79.194 Z M 6.096 76.647 C 5.457 76.647 5.456 77.64 6.096 77.64 C 6.735 77.64 6.736 76.647 6.096 76.647 Z M 8.205 66.29 C 7.541 65.297 6.191 66.396 7.011 67.264 C 7.73 67.975 8.817 67.114 8.205 66.29 Z M 28.688 82.666 C 28.067 81.773 26.918 82.697 27.426 83.57 C 28.048 84.464 29.208 83.562 28.688 82.666 Z M 26.931 84.994 C 26.335 84.994 26.334 85.92 26.931 85.92 C 27.527 85.92 27.528 84.994 26.931 84.994 Z M 35.511 92.626 C 35.045 91.576 33.561 92.203 34.083 93.248 C 34.565 94.061 35.874 93.551 35.511 92.626 Z M 25.903 18.869 C 25.715 18.552 25.274 18.458 24.952 18.622 C 24.692 18.758 24.533 19.058 24.468 19.333 C 24.39 19.613 24.539 19.927 24.776 20.084 C 25.104 20.307 25.577 20.212 25.795 19.879 C 26.026 19.594 26.151 19.183 25.903 18.869 Z M 25.86 22.281 C 25.401 21.803 24.575 22.388 25.023 22.952 C 25.503 23.462 26.317 22.856 25.86 22.281 Z M 26.685 40.036 C 27.444 40.447 28.119 39.424 27.452 38.898 C 27.144 38.628 26.638 38.754 26.438 39.092 C 26.246 39.405 26.364 39.856 26.685 40.036 Z M 13.598 35.878 C 14.288 36.524 15.249 35.553 14.607 34.869 C 13.917 34.224 12.956 35.194 13.598 35.878 Z M 16.258 36.328 C 15.768 36.328 15.768 37.089 16.258 37.089 C 16.747 37.088 16.748 36.328 16.258 36.328 Z M 9.176 24.321 C 8.423 24.321 8.422 25.491 9.176 25.491 C 9.929 25.491 9.93 24.321 9.176 24.321 Z M 29.485 27.715 C 29.255 27.3 28.619 27.211 28.299 27.569 C 27.99 27.849 27.935 28.372 28.119 28.736 C 28.826 29.704 29.983 28.654 29.485 27.715 Z M 5.497 62.003 C 5.537 62.059 5.641 62.028 5.616 61.953 C 5.436 61.426 5.236 60.913 5.079 60.379 C 4.494 58.449 4.554 56.365 5.144 54.445 C 5.231 54.137 5.347 53.825 5.4 53.51 C 5.403 53.493 5.381 53.474 5.367 53.491 C 3.893 55.714 4.037 59.793 5.497 62.003 Z M 3.542 60.174 C 3.441 59.761 3.393 59.34 3.339 58.92 C 3.335 58.775 3.264 58.659 3.211 58.531 C 3.209 58.524 3.199 58.524 3.197 58.531 C 3.056 58.788 3.079 59.081 3.106 59.364 C 3.204 60.228 3.382 61.125 3.872 61.858 C 3.926 61.937 4.061 61.891 4.033 61.79 C 3.879 61.249 3.668 60.725 3.542 60.174 Z M 37.965 52.173 C 37.739 51.544 37.422 50.884 36.82 50.543 C 36.791 50.523 36.764 50.565 36.784 50.589 C 37.613 51.561 37.924 52.84 38.081 54.08 C 38.282 55.522 38.289 56.997 38.108 58.441 C 38.047 59.248 37.749 60.032 37.694 60.834 C 38.017 61.447 38.382 58.889 38.407 58.703 C 38.694 56.533 38.625 54.27 37.965 52.173 Z M 39.524 51.805 C 39.4 50.84 38.868 49.931 38.098 49.338 C 37.986 49.257 37.871 49.172 37.744 49.118 C 37.695 49.102 37.651 49.124 37.599 49.1 C 37.559 49.082 37.531 49.132 37.565 49.158 C 37.607 49.19 37.606 49.24 37.638 49.275 C 37.872 49.474 38.109 49.672 38.308 49.908 C 39.023 50.733 39.355 51.843 39.287 52.923 C 39.295 53.033 39.438 53.051 39.476 52.949 C 39.603 52.606 39.565 52.162 39.524 51.805 Z"/>
</svg>