<?xml version="1.0" encoding="utf-8"?>
<svg version="1.1" style="shape-rendering:geometricPrecision;text-rendering:geometricPrecision;image-rendering:optimizeQuality;" viewBox="0 0 896.65 856.983" x="0px" y="0px" fill-rule="evenodd" clip-rule="evenodd" xmlns="http://www.w3.org/2000/svg">
  <defs>
    <style type="text/css">
   
    .fil0 {fill:none}
    .fil1 {fill:black}
   
  </style>
  </defs>
  <g transform="matrix(1.011786, 0, 0, 1.011786, 19.833485, -0.000016)">
    <rect class="fil0" width="847" height="847"/>
    <path class="fil1" d="M140 448c0,0 253,-381 575,0 0,0 -260,378 -575,0zm397 -383l0 0c-8,-1 -17,5 -18,14l-24 167c-1,9 5,17 14,18l0 0c9,1 17,-5 19,-14l23 -166c2,-9 -5,-18 -14,-19zm140 45l0 0c-8,-3 -18,0 -21,9l-69 154c-4,8 0,17 8,21l0 0c9,4 18,0 22,-8l69 -154c3,-8 -1,-18 -9,-22zm122 68l0 0c-7,-6 -17,-5 -23,1l-112 126c-6,7 -6,17 1,23l0 0c7,6 17,5 23,-1l112 -126c6,-7 6,-17 -1,-23zm-372 -125l0 0c9,0 16,8 16,17l0 168c0,9 -7,16 -16,16l0 0c-9,0 -17,-7 -17,-16l0 -168c0,-9 8,-17 17,-17zm-118 2l0 0c9,-1 17,5 19,14l23 167c2,9 -5,17 -14,18l0 0c-8,2 -17,-5 -18,-13l-24 -167c-1,-9 5,-17 14,-19zm-140 46l0 0c9,-4 18,0 22,8l69 154c3,8 0,18 -9,21l0 0c-8,4 -18,0 -21,-8l-69 -154c-3,-8 0,-18 8,-21zm-121 67l0 0c6,-6 17,-5 23,1l112 126c6,7 5,17 -1,23l0 0c-7,6 -17,6 -23,-1l-113 -126c-6,-7 -5,-17 2,-23zm449 526c5,9 8,20 8,31 0,38 -35,68 -78,68 -43,0 -78,-30 -78,-68 0,-12 3,-23 9,-32 13,23 39,38 70,38 30,0 56,-15 69,-37zm193 -152c15,0 26,11 26,25 0,14 -11,25 -26,25 -14,0 -26,-11 -26,-25 0,-14 12,-25 26,-25zm-126 81c15,0 26,12 26,26 0,14 -11,25 -26,25 -14,0 -26,-11 -26,-25 0,-14 12,-26 26,-26zm-283 -5c15,0 27,12 27,26 0,14 -12,25 -27,25 -14,0 -26,-11 -26,-25 0,-14 12,-26 26,-26zm-119 -78c15,0 26,11 26,25 0,14 -11,26 -26,26 -14,0 -26,-12 -26,-26 0,-14 12,-25 26,-25zm263 -185c15,0 29,3 41,9 -1,5 -2,10 -2,16 0,34 26,63 60,66 0,3 0,5 0,8 0,55 -44,99 -99,99 -54,0 -99,-44 -99,-99 0,-55 45,-99 99,-99zm-233 93c0,0 208,-312 472,0 0,0 -214,310 -472,0z"/>
  </g>
</svg>