<?xml version="1.0" encoding="utf-8"?>
<svg viewBox="0 0 500 500" xmlns="http://www.w3.org/2000/svg">
  <defs/>
  <path d="M 276.225 471.446 C 274.609 479.566 270.16 487.153 263.08 492.609 C 247.55 504.586 225.245 501.702 213.276 486.164 C 201.299 470.634 204.183 448.329 219.722 436.36 C 226.615 431.048 234.837 428.662 242.898 429.001 C 231.107 439.473 232.477 456.094 239.853 465.669 C 247.17 475.159 263.283 479.684 276.225 471.446 Z M 71.942 161.981 C 71.638 161.474 71.232 161.059 70.724 160.763 C 70.031 160.23 69.337 159.697 68.652 159.165 C 68.305 158.894 67.958 158.632 67.612 158.361 C 67.451 158.234 67.299 158.133 67.121 158.031 C 67.02 157.972 66.918 157.921 66.808 157.87 C 66.546 157.76 66.284 157.65 66.03 157.541 C 65.988 157.532 65.945 157.532 65.903 157.524 C 65.675 157.481 65.455 157.371 65.243 157.295 C 64.685 157.084 64.135 157.084 63.585 157.211 C 63.518 157.202 63.442 157.194 63.374 157.185 C 62.731 157.118 62.088 157.541 61.716 158.023 C 61.335 158.522 61.107 159.249 61.335 159.867 C 61.352 159.917 61.378 159.977 61.395 160.027 C 61.403 160.594 61.555 161.135 61.902 161.634 C 62.037 161.829 62.198 162.024 62.3 162.235 C 62.274 162.176 62.249 162.108 62.224 162.049 C 62.359 162.413 62.562 162.734 62.849 163.005 C 62.917 163.081 62.976 163.157 63.044 163.225 C 63.196 163.385 63.349 163.529 63.526 163.665 C 63.873 163.935 64.211 164.206 64.558 164.477 C 65.243 165.018 65.928 165.559 66.614 166.101 C 67.036 166.524 67.536 166.811 68.119 166.972 L 69.024 167.09 C 70.09 167.141 71.071 166.557 71.697 165.745 C 72.272 164.993 72.492 164.172 72.365 163.233 C 72.323 162.793 72.188 162.379 71.942 161.981 Z M 461.053 182.865 C 460.148 183.889 459.217 184.904 458.27 185.902 C 455.808 188.516 453.229 191.019 450.573 193.447 C 450.057 193.946 449.532 194.411 448.999 194.893 C 445.294 198.201 441.454 201.364 437.563 204.435 C 437.935 204.562 438.291 204.705 438.638 204.908 C 439.027 205.213 439.416 205.509 439.805 205.813 C 440.515 206.532 441.014 207.378 441.285 208.36 C 441.353 208.867 441.42 209.383 441.488 209.891 C 441.522 210.686 441.353 211.422 440.989 212.107 C 440.761 212.817 440.363 213.443 439.796 213.959 C 439.272 214.517 438.654 214.915 437.944 215.152 C 437.259 215.515 436.514 215.676 435.728 215.651 C 434.687 215.651 433.715 215.389 432.818 214.864 C 432.429 214.568 432.04 214.264 431.651 213.968 C 430.94 213.249 430.441 212.403 430.171 211.422 C 430.12 211.032 430.069 210.652 430.018 210.263 C 418.049 219.263 405.412 227.349 392.225 234.429 C 390.737 235.232 389.24 236.011 387.734 236.789 C 388.208 236.975 388.656 237.212 389.037 237.567 C 389.637 237.956 390.119 238.472 390.466 239.123 C 390.652 239.563 390.838 240.003 391.024 240.443 C 391.092 240.933 391.16 241.424 391.219 241.915 C 391.244 242.676 391.092 243.386 390.745 244.046 C 390.61 244.52 390.373 244.926 390.035 245.273 C 389.646 245.873 389.13 246.355 388.478 246.702 C 388.038 246.888 387.599 247.074 387.15 247.26 C 387.049 247.294 386.947 247.32 386.846 247.353 C 385.848 247.624 384.85 247.624 383.852 247.353 C 382.896 247.083 382.067 246.601 381.365 245.907 C 380.815 245.4 380.426 244.79 380.197 244.088 C 379.842 243.42 379.681 242.693 379.715 241.915 C 379.715 241.492 379.774 241.094 379.859 240.697 C 362.206 249.164 343.707 255.913 324.735 260.752 C 325.183 260.828 325.614 260.955 326.012 261.183 C 326.266 261.378 326.519 261.581 326.782 261.775 C 327.255 262.249 327.577 262.807 327.754 263.45 C 327.932 264.118 327.932 264.795 327.754 265.463 C 327.737 265.522 327.729 265.573 327.712 265.632 C 327.712 265.649 327.704 265.666 327.704 265.683 C 327.577 265.979 327.45 266.275 327.323 266.58 C 327.323 266.588 327.315 266.588 327.315 266.597 C 327.205 266.732 327.103 266.867 326.993 267.011 C 326.985 267.036 326.968 267.053 326.959 267.079 C 326.663 267.578 326.266 267.975 325.767 268.271 C 325.251 268.576 324.692 268.72 324.092 268.728 C 323.491 268.728 322.933 268.576 322.417 268.271 C 321.918 267.975 321.52 267.578 321.224 267.079 L 321.182 266.994 C 321.182 266.986 321.165 266.986 321.165 266.977 C 321.038 266.867 320.937 266.74 320.869 266.588 C 320.844 266.546 320.497 265.725 320.488 265.675 C 320.488 265.658 320.48 265.649 320.48 265.632 C 320.463 265.573 320.455 265.522 320.438 265.463 C 320.26 264.795 320.26 264.118 320.438 263.45 C 320.615 262.807 320.945 262.249 321.41 261.775 C 321.512 261.665 321.63 261.589 321.74 261.496 C 316.445 262.79 311.116 263.941 305.762 264.93 C 284.827 268.804 263.605 270.327 242.425 269.523 C 243.609 270.572 244.387 272.086 244.387 273.753 C 244.387 276.823 241.773 279.445 238.694 279.445 C 235.607 279.445 233.002 276.84 233.002 273.753 C 233.002 271.9 233.966 270.225 235.395 269.176 C 227.766 268.703 220.145 267.925 212.549 266.842 C 181.616 262.435 151.487 252.995 123.43 239.292 C 109.456 232.466 96.066 224.422 83.395 215.38 C 80.063 213.003 76.798 210.559 73.592 208.03 C 74.539 210.271 73.431 213.46 70.268 213.46 C 65.379 213.46 65.387 205.873 70.268 205.873 C 70.53 205.873 70.767 205.907 70.995 205.949 C 68.982 204.316 66.986 202.667 65.023 200.975 C 64.854 200.831 64.693 200.696 64.524 200.552 C 64.287 200.349 64.059 200.129 63.822 199.926 C 62.511 198.793 61.259 197.643 60.007 196.475 C 60.287 196.052 60.566 195.638 60.862 195.215 C 62.198 193.269 63.492 191.307 64.829 189.379 C 64.719 189.319 64.626 189.226 64.516 189.133 C 64.6 189.074 64.685 189.023 64.77 188.964 C 64.076 188.651 63.399 188.304 62.731 187.941 C 60.447 186.672 58.189 185.335 56.032 183.864 C 51.794 180.979 47.954 177.655 44.917 173.502 C 39.918 166.684 37.262 157.194 40.121 148.972 C 42.744 141.435 49.189 136.529 56.683 134.339 C 59.339 133.561 61.944 133.18 64.499 133.112 C 61.488 124.366 61.259 114.816 64.677 106.062 C 68.618 95.962 76.375 87.631 86.533 83.647 C 97.327 79.417 109.38 81.904 119.167 87.563 C 119.167 87.529 119.158 87.487 119.158 87.453 C 119.014 80.889 119.496 74.41 121.797 68.201 C 123.92 62.466 127.126 57.247 131.22 52.714 C 139.036 44.061 150.319 38.072 162.127 37.954 C 168.378 37.894 174.359 39.586 179.772 42.453 C 182.445 32.878 188.028 24.158 195.97 18.042 C 206.856 9.66 220.813 8.357 233.332 13.779 C 241.9 17.492 248.853 24.242 253.911 32.126 C 260.475 20.207 271.742 10.548 284.861 6.801 C 291.873 4.796 299.41 4.728 306.447 6.64 C 313.612 8.577 320.015 13.026 324.878 18.575 C 333.582 28.514 337.203 41.041 337.025 53.805 C 342.531 51.749 348.41 50.785 354.23 51.352 C 367.45 52.646 377.364 61.553 381.602 73.928 C 383.133 78.394 383.911 83.105 384.055 87.867 C 389.07 86.717 394.281 86.556 399.432 87.715 C 410.521 90.219 418.455 99.126 422.042 109.589 C 424.368 116.364 424.791 123.402 423.708 130.27 C 424.901 130.067 426.11 129.915 427.328 129.839 C 436.472 129.297 444.871 133.214 450.04 140.835 C 454.853 147.932 455.944 157.067 454.032 165.305 C 452.45 172.098 448.889 178.23 444.406 183.542 C 445.303 183.551 446.199 183.576 447.088 183.567 L 447.384 183.567 C 451.968 183.534 456.527 183.314 461.053 182.865 Z M 420.232 142.425 C 417.711 148.388 413.939 153.81 410.141 159.021 C 407.815 162.21 405.336 165.28 402.807 168.308 C 413.076 173.975 423.844 178.695 435.136 181.91 C 440.608 176.209 445.235 169.213 446.411 161.271 C 447.324 155.096 445.777 147.965 441.497 143.271 C 437.03 138.382 430.077 136.817 423.717 138.103 C 423.023 138.247 422.346 138.433 421.678 138.627 C 421.238 139.904 420.756 141.173 420.232 142.425 Z M 411.232 143.914 C 409.05 145.572 407.028 147.483 405.142 149.564 C 402.553 152.415 400.303 155.527 398.197 158.742 C 397.123 160.383 396.099 162.142 394.881 163.707 C 394.958 163.749 395.034 163.8 395.101 163.851 C 395.82 164.29 396.548 164.705 397.267 165.136 C 402.731 158.547 407.688 151.653 411.232 143.914 Z M 386.761 170.482 C 386.753 170.524 386.744 170.558 386.736 170.601 C 386.601 171.1 386.423 171.565 386.178 172.022 C 385.848 172.622 385.543 173.24 385.188 173.823 C 385.036 174.069 384.867 174.297 384.706 174.534 C 389.671 175.836 394.662 177.054 399.686 178.154 C 395.237 175.735 390.94 173.147 386.761 170.482 Z M 379.766 111.518 C 375.638 121.82 368.694 131.818 359.778 138.796 C 369.523 146.274 379.318 153.7 389.612 160.383 C 390.762 157.617 392.589 155.003 394.103 152.651 C 396.886 148.329 400.024 144.151 403.763 140.598 C 407.087 137.443 410.893 134.829 415.021 132.96 C 416.747 125.271 416.468 117.109 413.338 109.885 C 409.785 101.689 402.697 95.666 393.418 95.311 C 390.06 95.184 386.778 95.658 383.64 96.614 C 382.98 101.748 381.652 106.806 379.766 111.518 Z M 90.399 172.563 C 89.088 173.967 87.785 175.363 86.491 176.792 C 87.532 176.259 88.589 175.735 89.638 175.202 C 94.958 172.538 100.363 170.042 105.836 167.699 C 105.337 167.175 104.905 166.566 104.457 166.05 C 103.721 165.196 103.028 164.307 102.317 163.436 C 101.86 162.878 101.412 162.32 100.955 161.761 C 97.36 165.289 93.833 168.883 90.399 172.563 Z M 93.486 156.128 C 93.715 155.891 93.952 155.663 94.18 155.426 C 88.995 150.875 83.581 146.418 77.339 143.466 C 78.971 145.479 80.756 147.365 82.719 149.082 C 84.453 150.605 86.314 151.958 88.267 153.176 C 89.976 154.242 91.795 155.079 93.486 156.128 Z M 107.646 163.013 C 108.001 163.453 108.356 163.884 108.712 164.324 C 109.126 164.832 109.659 165.365 109.871 165.999 C 112.907 164.747 115.961 163.546 119.031 162.396 C 117.982 160.839 116.942 159.275 115.893 157.718 C 114.709 155.95 113.525 154.182 112.34 152.406 C 112.163 152.144 111.994 151.882 111.816 151.62 C 109.185 153.963 106.606 156.356 104.051 158.784 C 104.525 159.334 104.998 159.892 105.472 160.442 C 106.2 161.305 106.944 162.142 107.646 163.013 Z M 119.471 155.401 C 120.706 157.143 121.949 158.877 123.184 160.619 C 123.227 160.687 123.286 160.755 123.328 160.814 C 125.68 159.968 128.04 159.139 130.408 158.344 C 132.167 157.76 133.927 157.185 135.695 156.635 C 135.542 156.365 135.39 156.094 135.238 155.849 C 134.637 154.868 134.062 153.886 133.495 152.888 C 132.336 150.824 131.254 148.727 130.256 146.578 C 129.19 144.286 128.2 141.96 127.304 139.6 C 127.228 139.397 127.134 139.169 127.041 138.932 C 126.635 139.253 126.212 139.558 125.806 139.879 C 122.085 142.814 118.448 145.842 114.878 148.947 C 115.208 149.412 115.538 149.877 115.876 150.342 C 117.069 152.026 118.27 153.717 119.471 155.401 Z M 138.334 150.063 C 138.951 151.112 139.577 152.152 140.237 153.184 C 140.617 153.785 141.023 154.343 141.345 154.935 C 144.508 154.013 147.689 153.134 150.886 152.313 C 151.935 152.034 152.992 151.772 154.05 151.51 C 153.83 150.892 153.618 150.308 153.398 149.792 C 152.07 146.68 150.742 143.559 149.406 140.446 C 148.036 137.232 146.708 134 145.38 130.761 C 144.923 129.644 144.305 128.375 143.798 127.073 C 139.602 129.763 135.483 132.596 131.474 135.565 C 131.694 136.098 131.88 136.597 132.024 136.969 C 132.861 139.16 133.791 141.309 134.806 143.423 C 135.898 145.682 137.073 147.898 138.334 150.063 Z M 133.664 118.149 C 134.206 119.139 134.789 120.103 135.356 121.076 C 136.566 120.264 137.767 119.46 138.985 118.673 C 137.581 116.855 136.27 114.943 134.874 113.133 C 133.005 110.706 131.051 108.337 129.004 106.053 C 128.649 105.656 128.285 105.275 127.93 104.886 C 128.488 106.629 129.114 108.354 129.799 110.046 C 130.924 112.82 132.227 115.527 133.664 118.149 Z M 157.856 147.543 C 158.245 148.473 158.626 149.403 159.015 150.334 C 165.113 148.913 171.263 147.703 177.429 146.654 C 177.023 145.487 176.617 144.32 176.211 143.161 C 174.849 139.287 173.479 135.421 172.117 131.547 C 170.713 127.555 169.3 123.571 167.93 119.562 C 167.363 117.912 166.678 116.237 166.205 114.537 C 160.013 117.506 153.982 120.805 148.112 124.383 C 148.848 125.872 149.406 127.504 149.973 128.824 C 151.317 131.928 152.662 135.032 153.957 138.154 C 155.259 141.283 156.562 144.413 157.856 147.543 Z M 235.59 99.718 C 235.615 98.804 235.624 97.832 235.692 96.859 C 229.39 97.062 223.114 97.671 216.905 98.618 C 217.227 100.386 217.531 102.162 217.802 103.93 C 218.461 108.253 219.003 112.592 219.603 116.923 C 220.771 125.39 222.132 133.823 223.342 142.281 C 227.385 142.197 231.428 142.154 235.472 142.231 C 235.514 140.167 235.556 138.111 235.556 136.047 C 235.556 131.277 235.565 126.515 235.565 121.744 C 235.565 116.846 235.573 111.949 235.573 107.06 C 235.573 104.615 235.514 102.162 235.59 99.718 Z M 215.002 117.549 C 214.469 113.082 213.86 108.616 213.42 104.142 C 213.259 102.526 213.099 100.894 212.972 99.27 C 212.769 99.303 212.566 99.329 212.371 99.371 C 206.019 100.53 199.768 102.061 193.627 103.905 C 193.644 103.964 193.661 104.032 193.678 104.099 C 194.16 105.969 194.608 107.847 195.065 109.724 C 195.987 113.48 196.791 117.261 197.645 121.033 C 199.328 128.502 201.02 135.971 202.703 143.44 C 207.11 143.051 211.517 142.721 215.941 142.518 C 216.541 142.493 217.133 142.484 217.734 142.467 C 216.795 134.153 215.983 125.846 215.002 117.549 Z M 192.096 122.15 C 191.233 118.386 190.328 114.622 189.533 110.841 C 189.195 109.208 188.687 107.407 188.29 105.588 C 182.157 107.635 176.152 110.012 170.265 112.668 C 171.077 114.503 171.66 116.466 172.337 118.352 C 173.724 122.218 175.061 126.092 176.397 129.974 C 177.742 133.848 179.078 137.731 180.423 141.605 C 180.922 143.043 181.421 144.481 181.929 145.918 C 184.162 145.572 186.387 145.242 188.628 144.946 C 191.098 144.633 193.576 144.32 196.046 144.058 C 196.393 144.024 196.731 143.998 197.078 143.965 C 195.42 136.682 193.754 129.416 192.096 122.15 Z M 160.021 160.146 C 162.99 175.405 168.531 189.92 177.632 202.853 C 188.958 218.975 205.156 231.198 223.79 237.178 C 242.721 243.243 263.072 243.217 281.774 236.061 C 298.936 229.497 312.876 216.26 321.444 199.876 C 325.504 192.144 328.465 183.102 329.624 174.39 C 329.861 172.681 330.013 170.795 330.123 168.883 C 320.598 165.991 311.049 163.233 301.372 160.873 C 300.264 166.067 298.742 171.159 296.627 176.09 C 290.96 189.302 280.835 199.673 267.335 204.748 C 254.842 209.442 240.2 209.256 227.757 204.528 C 214.486 199.503 203.735 189.573 196.968 177.164 C 193.636 171.049 191.2 164.392 189.846 157.574 C 189.66 156.669 189.508 155.773 189.347 154.851 C 179.501 156.136 169.715 157.904 160.021 160.146 Z M 304.992 113.192 C 304.976 113.184 304.95 113.175 304.933 113.167 C 304.688 115.383 303.986 117.658 303.495 119.638 C 302.497 123.639 301.499 127.64 300.442 131.624 C 299.351 135.734 298.268 139.845 297.177 143.956 C 296.703 145.724 296.238 147.483 295.756 149.251 C 298.183 149.776 300.611 150.308 303.03 150.901 C 303.309 150.96 303.588 151.044 303.867 151.104 C 306.735 151.797 309.585 152.542 312.436 153.303 C 313.806 147.61 315.896 142.036 317.731 136.487 C 318.729 133.476 319.727 130.465 320.776 127.47 C 321.199 126.252 321.605 124.882 322.121 123.563 C 316.572 119.858 310.888 116.364 304.992 113.192 Z M 309.949 104.514 C 316.843 93.941 323.018 82.412 326.325 70.231 C 324.489 71.974 322.789 73.86 321.258 75.848 C 317.553 80.652 314.644 86.049 311.945 91.462 C 310.567 94.22 309.272 97.011 308.021 99.819 C 307.581 100.817 307.132 101.824 306.633 102.814 C 307.733 103.372 308.85 103.922 309.949 104.514 Z M 301.127 111.213 C 294.859 108.066 288.388 105.394 281.748 103.228 C 281.74 103.287 281.74 103.347 281.731 103.406 C 281.528 105.808 281.308 108.219 281.072 110.621 C 280.59 115.417 279.761 120.204 279.084 124.984 C 278.382 129.94 277.68 134.889 276.986 139.845 C 276.715 141.791 276.403 143.728 276.106 145.665 C 280.928 146.392 285.724 147.246 290.503 148.194 C 291.044 146.181 291.577 144.176 292.119 142.163 C 293.193 138.179 294.275 134.203 295.35 130.228 C 296.458 126.125 297.633 122.04 298.801 117.946 C 299.401 115.84 300.129 113.759 300.915 111.712 C 300.983 111.526 301.059 111.382 301.127 111.213 Z M 278.12 102.103 C 273.061 100.614 267.91 99.447 262.674 98.584 C 262.674 98.601 262.674 98.61 262.674 98.627 C 262.454 101.147 262.133 103.651 261.862 106.163 C 261.304 111.323 260.805 116.491 260.374 121.659 C 259.942 126.836 259.604 132.021 259.359 137.206 C 259.257 139.338 259.181 141.461 259.105 143.592 C 262.945 143.956 266.785 144.396 270.608 144.895 C 270.921 142.84 271.226 140.784 271.564 138.737 C 272.359 133.941 273.163 129.154 273.958 124.358 C 274.778 119.452 275.43 114.478 276.47 109.614 C 276.978 107.246 277.477 104.878 278.018 102.518 C 278.052 102.382 278.086 102.239 278.12 102.103 Z M 333.219 144.624 C 334.327 142.247 335.367 139.828 336.577 137.502 C 337.025 136.631 337.49 135.684 338.015 134.779 C 334.293 132.013 330.546 129.297 326.731 126.667 C 326.426 127.665 326.097 128.646 325.817 129.577 C 324.929 132.495 323.99 135.405 323.06 138.306 C 321.309 143.762 319.685 149.344 317.528 154.665 C 320.861 155.595 324.193 156.551 327.518 157.532 C 329.429 153.235 331.231 148.896 333.219 144.624 Z M 332.897 159.148 C 335.122 159.816 337.338 160.484 339.554 161.178 C 341.085 161.651 342.616 162.117 344.147 162.59 C 344.443 162.108 344.739 161.634 345.035 161.152 C 346.228 159.215 347.421 157.278 348.63 155.35 C 350.246 152.77 351.887 149.319 354.365 147.204 C 350.466 144.21 346.566 141.216 342.641 138.247 C 342.396 138.856 342.142 139.456 341.897 140.048 C 340.882 142.544 339.681 144.971 338.556 147.424 C 336.746 151.374 334.8 155.24 332.897 159.148 Z M 353.477 133.958 C 357.774 130.507 361.851 126.684 364.921 122.091 C 368.465 116.787 371.384 111.171 373.295 105.072 C 373.718 103.719 374.099 102.34 374.429 100.936 C 371.333 102.932 368.491 105.343 365.996 107.999 C 362.13 112.11 359.076 116.77 356.074 121.516 C 354.56 123.909 353.105 126.337 351.565 128.722 C 351.058 129.509 350.609 130.329 349.933 130.972 C 349.874 131.023 349.823 131.065 349.764 131.116 C 351.007 132.072 352.242 133.019 353.477 133.958 Z M 349.924 164.367 C 355.025 165.94 360.125 167.505 365.243 169.027 L 368.55 164.4 C 369.311 163.326 370.081 162.26 370.842 161.186 C 371.088 160.848 371.341 160.493 371.612 160.146 C 366.951 156.771 362.358 153.311 357.782 149.809 C 356.987 152.804 354.915 155.68 353.485 158.183 C 352.36 160.163 351.218 162.125 350.077 164.096 C 350.026 164.189 349.975 164.274 349.924 164.367 Z M 370.58 170.601 C 373.168 171.353 375.765 172.089 378.37 172.808 C 378.489 172.622 378.616 172.444 378.743 172.267 C 379.259 171.531 379.758 170.761 380.333 170.068 C 380.764 169.543 381.212 169.036 381.652 168.528 C 381.914 168.224 382.236 167.995 382.557 167.758 C 380.172 166.177 377.812 164.561 375.478 162.912 C 375.342 163.157 375.224 163.411 375.072 163.656 C 374.361 164.756 373.65 165.855 372.932 166.955 C 372.145 168.173 371.367 169.391 370.58 170.601 Z M 335.739 66.256 C 332.677 81.76 324.523 94.939 315.946 107.863 C 325.987 113.708 335.46 120.391 344.739 127.335 C 345.145 125.88 345.915 124.459 346.507 123.114 C 347.894 119.934 349.628 116.855 351.472 113.92 C 355.287 107.855 359.778 101.993 365.31 97.383 C 368.499 94.736 372.052 92.46 375.841 90.71 C 376.053 84.789 375.165 78.859 372.669 73.505 C 370.563 68.979 367.433 64.996 363.077 62.458 C 358.628 59.861 353.545 59.125 348.469 59.557 C 344.156 59.92 340.07 61.189 336.289 63.109 C 336.128 64.167 335.942 65.215 335.739 66.256 Z M 258.276 40.153 C 258.893 41.531 259.469 42.919 259.976 44.314 C 262.725 51.834 264.078 59.777 264.857 67.719 C 265.254 71.779 265.466 75.856 265.592 79.933 C 265.652 81.913 265.694 83.9 265.719 85.88 C 265.736 86.92 265.812 88.011 265.796 89.094 C 267.056 89.305 268.316 89.5 269.576 89.745 C 280.158 91.826 290.376 95.277 300.171 99.709 C 300.695 98.043 301.364 96.402 301.964 94.846 C 303.385 91.166 304.899 87.495 306.642 83.951 C 310.017 77.091 314.398 70.527 319.77 65.055 C 322.366 62.407 325.352 60.022 328.575 58 C 329.759 44.593 326.257 30.738 316.234 21.265 C 311.717 16.993 305.762 13.737 299.562 12.823 C 293.692 11.96 287.365 13.297 282.011 15.699 C 271.167 20.58 263.123 29.537 258.276 40.153 Z M 257.405 97.823 C 251.864 97.146 246.273 96.808 240.674 96.8 C 240.758 97.933 240.758 99.075 240.784 100.107 C 240.834 102.551 240.784 105.004 240.792 107.449 C 240.792 112.22 240.8 116.982 240.8 121.752 C 240.8 126.65 240.809 131.547 240.809 136.436 C 240.809 138.433 240.851 140.42 240.894 142.408 C 244.894 142.552 248.904 142.763 252.896 143.059 C 252.989 140.979 253.091 138.906 253.209 136.826 C 253.514 131.64 253.911 126.455 254.402 121.279 C 254.901 115.967 255.518 110.68 256.237 105.394 C 256.567 102.864 256.922 100.335 257.405 97.823 Z M 251.475 87.368 C 253.378 87.504 255.282 87.673 257.185 87.876 C 257.193 87.081 257.219 86.286 257.21 85.533 C 257.176 83.435 257.134 81.337 257.058 79.231 C 256.922 75.154 256.694 71.077 256.28 67.026 C 255.814 62.5 255.07 57.941 253.937 53.492 C 252.845 58.466 252.211 63.541 251.932 68.641 C 251.72 72.566 251.695 76.508 251.67 80.441 C 251.661 82.462 251.611 84.476 251.534 86.497 C 251.526 86.802 251.501 87.081 251.475 87.368 Z M 186.26 46.607 C 189.356 48.975 192.181 51.716 194.659 54.693 C 199.125 60.064 202.593 66.078 205.41 72.464 C 206.907 75.848 208.269 79.29 209.529 82.767 C 210.358 85.034 211.229 87.284 211.838 89.593 C 214.579 89.111 217.336 88.663 220.102 88.299 C 228.603 87.199 237.172 86.785 245.723 87.072 C 245.055 84.019 245.021 80.72 244.878 77.734 C 244.649 73.04 244.835 68.286 245.233 63.608 C 245.867 56.131 247.263 48.764 249.724 41.718 C 245.072 32.168 237.332 23.997 227.444 19.869 C 216.863 15.445 205.3 18.719 197.298 26.543 C 191.648 32.075 188.002 39.079 186.26 46.607 Z M 185.067 58.491 C 185.253 65.638 186.894 72.651 189.339 79.341 C 190.557 82.682 192.012 85.914 193.585 89.102 C 194.262 90.473 194.989 91.826 195.691 93.188 C 198.457 92.435 201.248 91.775 204.048 91.149 C 203.151 88.874 202.483 86.48 201.646 84.222 C 200.402 80.855 199.074 77.523 197.543 74.275 C 194.71 68.261 191.284 62.424 186.75 57.518 C 186.209 56.935 185.651 56.376 185.084 55.818 C 185.05 56.706 185.042 57.603 185.067 58.491 Z M 125.181 91.615 C 128.868 94.448 132.252 97.696 135.356 101.156 C 137.632 103.702 139.755 106.375 141.835 109.073 C 143.189 110.832 144.618 112.592 145.879 114.444 C 159.708 106.256 174.392 99.616 189.711 94.913 C 188.899 93.535 188.112 92.131 187.385 90.71 C 185.312 86.649 183.477 82.446 181.98 78.14 C 179.121 69.918 177.531 61.054 178.106 52.333 C 178.148 51.69 178.216 51.047 178.283 50.405 C 172.472 46.734 165.782 44.712 158.643 45.507 C 148.746 46.607 139.594 52.764 133.656 60.572 C 126.999 69.335 124.267 80.754 125.181 91.615 Z M 71.443 133.721 C 81.957 135.794 91.465 142.814 99.729 149.979 C 108.872 141.216 118.557 133.028 128.843 125.601 C 129.537 125.102 130.239 124.62 130.941 124.129 C 129.934 122.649 129.038 121.059 128.175 119.494 C 126.339 116.17 124.775 112.702 123.447 109.132 C 122.076 105.453 121.019 101.646 120.283 97.781 C 118.532 96.419 116.705 95.15 114.768 94.034 C 106.174 89.077 95.618 87.089 86.457 91.716 C 78.523 95.725 72.433 103.254 69.887 111.754 C 67.696 119.071 68.534 126.785 71.443 133.721 Z M 68.872 183.999 C 71.088 181.182 73.313 178.382 75.613 175.65 C 79.987 170.465 84.554 165.432 89.24 160.509 C 87.413 159.714 85.688 158.615 84.064 157.566 C 81.551 155.933 79.158 154.073 76.967 152.026 C 73.431 148.735 70.335 144.861 67.925 140.649 C 64.389 140.209 60.786 140.437 57.326 141.512 C 51.701 143.262 47.117 147.712 46.203 153.667 C 45.137 160.619 48.656 167.64 53.376 172.512 C 56.125 175.346 59.187 177.773 62.486 179.939 C 64.22 181.081 66.064 182.062 67.772 183.238 C 68.145 183.483 68.517 183.728 68.872 183.999 Z M 396.861 220.464 C 409.633 213.054 421.881 204.722 433.342 195.435 C 434.231 194.716 435.119 194.005 435.99 193.261 C 420.435 192.466 404.964 189.869 389.832 186.257 C 372.872 182.214 356.243 176.919 339.579 171.785 C 339.241 175.845 338.556 179.846 337.71 183.644 C 335.536 193.413 331.561 202.904 326.232 211.371 C 314.982 229.235 297.701 242.363 277.375 248.149 C 256.525 254.103 233.425 252.555 213.446 244.198 C 193.077 235.672 176.431 220.523 165.469 201.398 C 160.165 192.128 156.13 182.011 153.61 171.632 C 152.865 168.52 152.223 165.365 151.757 162.176 C 142.487 164.57 133.309 167.386 124.301 170.609 C 110.97 175.371 97.978 181.047 85.425 187.602 C 80.883 189.971 76.417 192.474 72.01 195.071 C 92.471 210.88 114.404 224.49 138.131 235.012 C 165.621 247.176 195.243 255.051 225.084 258.104 C 254.909 261.166 285.03 259.415 314.221 252.86 C 343.217 246.338 371.138 235.376 396.861 220.464 Z M 91.549 117.455 C 92.505 119.553 93.562 121.609 94.704 123.605 C 95.846 125.601 97.014 127.58 98.274 129.5 C 98.832 130.355 99.238 131.302 99.83 132.14 C 100.685 133.366 101.623 134.356 102.858 135.21 C 105.176 136.826 108.111 137.122 110.606 135.709 C 112.856 134.44 114.32 131.657 114.337 129.103 C 114.345 127.826 114.024 126.422 113.423 125.288 C 112.856 124.205 111.977 123.385 111.131 122.514 C 109.566 120.89 108.077 119.24 106.386 117.726 C 103.721 115.341 100.854 113.049 98.062 110.748 C 95.905 108.972 92.708 104.776 89.646 107.221 C 88.716 107.965 88.056 109.293 88.259 110.494 C 88.462 111.754 89.24 112.854 89.849 113.945 C 90.492 115.07 91.016 116.28 91.549 117.455 Z M 146.361 66.992 C 146.665 68.455 146.961 69.91 147.342 71.356 C 148.103 74.232 148.915 77.1 149.82 79.933 C 150.658 82.555 151.597 85.144 152.637 87.698 C 153.508 89.838 154.574 92.131 156.316 93.712 C 158.634 95.802 162.153 96.521 165.046 95.269 C 168.463 93.788 170.121 89.711 168.488 86.328 C 167.685 84.662 166.365 83.308 165.096 81.963 C 164.733 81.583 164.377 81.202 164.022 80.813 C 160.8 77.328 157.746 73.699 154.87 69.927 C 153.457 68.074 152.087 66.188 150.522 64.454 C 149.846 63.701 147.74 60.868 146.505 61.451 C 145.371 61.984 145.557 66.129 146.344 66.916 C 146.352 66.941 146.361 66.966 146.361 66.992 Z M 219.544 77.074 C 226.692 82.378 235.362 76.042 235.666 67.973 C 235.785 64.852 234.533 61.147 233.433 58.246 C 232.283 55.217 230.912 52.291 229.331 49.466 C 227.106 45.499 224.695 41.168 222.699 36.913 C 222.09 35.619 218.639 24.927 215.966 29.918 C 215.526 30.738 215.543 31.72 215.569 32.65 C 215.763 41.379 214.858 50.024 214.224 58.711 C 213.75 65.156 213.818 72.828 219.544 77.074 Z M 290.917 80.652 C 299.494 77.506 301.592 67.415 302.861 59.404 C 303.766 53.703 304.316 47.943 304.468 42.174 C 304.578 38.173 305.957 29.241 303.055 25.985 C 302.776 25.672 302.489 25.435 302.184 25.274 C 298.64 23.337 293.7 31.018 292.034 33.014 C 289.361 36.211 286.874 39.535 284.734 43.113 C 282.56 46.734 280.564 50.506 278.932 54.405 C 277.24 58.457 275.616 62.627 275.489 67.068 C 275.278 75.078 282.205 83.85 290.917 80.652 Z M 335.815 105.148 C 338.116 107.364 341.483 107.153 344.181 105.859 C 348.774 103.643 351.413 98.483 353.358 94.034 C 355.871 88.273 358.493 82.505 360.311 76.474 C 360.98 74.258 358.848 71.813 356.607 72.135 C 356.141 72.202 355.685 72.338 355.245 72.524 C 353.088 73.42 351.201 75.518 349.577 76.973 C 346.905 79.367 344.494 82.04 342.058 84.653 C 341.229 85.541 340.493 86.548 339.766 87.512 C 339.444 87.935 339.089 88.358 338.81 88.806 C 338.488 89.331 337.82 89.762 337.27 90.557 C 335.883 92.545 334.614 94.981 334.014 97.341 C 333.329 100.022 333.743 103.152 335.815 105.148 Z M 386.017 142.425 C 388.58 141.892 390.441 139.862 391.938 137.857 C 393.52 135.743 394.975 133.527 396.353 131.268 C 397.901 128.739 399.339 126.151 400.726 123.537 C 401.454 122.158 402.173 120.771 402.883 119.384 C 403.619 117.946 404.871 116.246 404.719 114.588 C 404.499 112.11 402.655 112.067 400.887 112.693 C 400.067 112.981 399.263 113.421 398.646 113.818 C 397.512 114.554 396.438 115.383 395.372 116.212 C 389.536 120.78 383.2 124.696 379.707 131.522 C 378.472 133.941 378.04 136.699 379.309 139.202 C 380.561 141.664 383.319 142.992 386.017 142.425 Z M 422.837 169.958 C 423.006 170.237 423.226 170.465 423.505 170.626 C 423.869 170.956 424.292 171.184 424.782 171.294 C 425.112 171.336 425.442 171.387 425.781 171.429 C 426.457 171.429 427.092 171.26 427.675 170.922 C 427.878 170.77 428.081 170.617 428.284 170.457 C 428.64 170.186 429.012 169.941 429.316 169.611 C 429.401 169.518 429.494 169.416 429.578 169.323 C 429.942 168.926 430.306 168.537 430.67 168.139 C 431.042 167.742 431.405 167.319 431.668 166.836 L 432.031 166.177 C 432.099 166.05 432.167 165.931 432.234 165.805 C 432.37 165.551 432.53 165.221 432.607 164.942 C 432.649 164.654 432.683 164.358 432.725 164.071 C 432.733 163.91 432.717 163.741 432.666 163.58 C 432.624 163.292 432.632 163.199 432.547 162.988 C 432.463 162.759 432.361 162.489 432.251 162.269 C 432.074 161.939 431.828 161.677 431.524 161.474 C 431.253 161.22 430.932 161.051 430.56 160.966 C 430.5 160.941 430.441 160.915 430.374 160.899 C 430.221 160.848 429.621 160.772 429.46 160.772 C 429.299 160.772 429.147 160.789 428.995 160.831 C 428.699 160.831 428.42 160.907 428.166 161.059 C 427.828 161.203 427.506 161.372 427.176 161.541 C 426.965 161.651 426.753 161.761 426.542 161.88 C 426.237 162.04 425.933 162.303 425.671 162.523 C 425.628 162.556 425.586 162.599 425.544 162.641 C 425.442 162.726 425.349 162.819 425.256 162.903 C 424.892 163.233 424.52 163.563 424.157 163.893 C 423.97 164.054 423.776 164.214 423.624 164.4 C 423.454 164.603 423.302 164.815 423.141 165.026 C 422.778 165.365 422.516 165.771 422.363 166.236 C 422.126 166.684 422.025 167.166 422.042 167.682 C 422.084 168.012 422.135 168.351 422.177 168.68 C 422.287 169.171 422.507 169.594 422.837 169.958 Z M 46.415 129.196 C 46.871 129.551 47.328 129.906 47.785 130.253 C 48.842 130.871 49.984 131.175 51.211 131.175 C 52.141 131.209 53.012 131.015 53.824 130.592 C 54.662 130.321 55.389 129.847 56.007 129.187 C 56.666 128.57 57.131 127.843 57.411 127.005 C 57.834 126.193 58.028 125.322 57.994 124.391 C 57.91 123.791 57.834 123.19 57.749 122.59 C 57.428 121.439 56.844 120.441 56.007 119.595 C 55.55 119.24 55.093 118.885 54.636 118.538 C 53.579 117.921 52.437 117.616 51.211 117.616 C 50.28 117.582 49.409 117.777 48.597 118.2 C 47.759 118.47 47.032 118.944 46.415 119.604 C 45.755 120.221 45.29 120.949 45.01 121.786 C 44.587 122.598 44.393 123.469 44.427 124.4 C 44.511 125 44.587 125.601 44.672 126.202 C 44.993 127.352 45.577 128.35 46.415 129.196 Z M 102.639 71.915 C 103.087 72.261 103.535 72.608 103.992 72.955 C 105.024 73.564 106.149 73.869 107.35 73.869 C 108.272 73.902 109.126 73.708 109.921 73.293 C 110.75 73.023 111.461 72.566 112.07 71.915 C 112.721 71.314 113.186 70.595 113.449 69.766 C 113.863 68.971 114.058 68.117 114.024 67.195 C 113.948 66.603 113.863 66.011 113.787 65.418 C 113.474 64.285 112.899 63.304 112.07 62.475 C 111.621 62.128 111.173 61.781 110.725 61.434 C 109.684 60.834 108.559 60.529 107.35 60.521 C 106.428 60.487 105.574 60.682 104.779 61.096 C 103.958 61.367 103.239 61.832 102.639 62.475 C 101.987 63.084 101.522 63.803 101.251 64.623 C 100.837 65.418 100.642 66.281 100.685 67.195 L 100.921 68.971 C 101.234 70.104 101.81 71.086 102.639 71.915 Z M 168.285 29.571 C 168.742 29.918 169.19 30.273 169.647 30.62 C 170.696 31.229 171.821 31.533 173.031 31.533 C 173.953 31.567 174.815 31.373 175.619 30.958 C 176.448 30.688 177.167 30.222 177.776 29.571 C 178.427 28.962 178.892 28.243 179.163 27.414 C 179.586 26.611 179.772 25.756 179.738 24.826 L 179.501 23.041 C 179.18 21.908 178.605 20.918 177.776 20.081 C 177.319 19.734 176.871 19.379 176.414 19.032 C 175.365 18.423 174.24 18.118 173.031 18.118 C 172.109 18.084 171.246 18.279 170.442 18.693 C 169.613 18.964 168.894 19.429 168.285 20.081 C 167.634 20.69 167.169 21.409 166.898 22.238 C 166.475 23.041 166.289 23.895 166.323 24.826 C 166.399 25.418 166.484 26.019 166.56 26.611 C 166.881 27.744 167.456 28.734 168.285 29.571 Z M 255.654 13.635 C 264.425 13.635 264.442 0 255.654 0 C 246.874 0 246.865 13.635 255.654 13.635 Z M 343.733 41.616 C 344.147 41.938 344.57 42.259 344.984 42.58 C 345.949 43.139 346.989 43.418 348.106 43.426 C 348.96 43.46 349.755 43.282 350.491 42.893 C 351.261 42.648 351.92 42.217 352.479 41.616 C 353.079 41.058 353.511 40.39 353.756 39.628 C 354.145 38.892 354.323 38.097 354.289 37.243 C 354.213 36.693 354.145 36.143 354.069 35.602 C 353.773 34.553 353.248 33.648 352.479 32.87 C 352.064 32.549 351.641 32.227 351.227 31.906 C 350.263 31.347 349.222 31.068 348.106 31.06 C 347.251 31.026 346.456 31.204 345.72 31.593 C 344.951 31.838 344.291 32.269 343.733 32.87 C 343.132 33.428 342.701 34.096 342.455 34.858 C 342.066 35.594 341.889 36.389 341.922 37.243 C 341.999 37.793 342.066 38.343 342.142 38.884 C 342.43 39.933 342.963 40.846 343.733 41.616 Z M 391.845 79.206 C 392.758 79.739 393.74 80.001 394.797 80.001 C 394.907 80.009 395.017 80.018 395.127 80.026 C 396.218 80.026 397.233 79.747 398.18 79.197 C 399.085 78.656 399.813 77.937 400.346 77.032 C 401.437 75.163 401.437 72.794 400.346 70.925 C 399.271 69.089 397.258 67.931 395.127 67.931 C 392.978 67.931 391.007 69.089 389.908 70.925 C 389.857 71.01 389.798 71.103 389.747 71.187 C 388.673 72.972 388.698 75.306 389.747 77.091 C 390.272 77.988 390.965 78.69 391.845 79.206 Z M 433.03 121.532 C 433.038 121.549 433.055 121.575 433.063 121.592 C 433.072 121.6 433.072 121.609 433.08 121.617 C 433.342 121.955 433.605 122.294 433.867 122.632 C 434.324 123.123 434.865 123.469 435.483 123.672 C 435.702 123.766 435.931 123.859 436.151 123.952 C 436.168 123.96 436.185 123.96 436.193 123.969 C 436.413 124.062 436.658 124.095 436.912 124.07 C 437.623 124.231 438.325 124.197 439.035 123.977 C 439.458 123.799 439.881 123.622 440.304 123.444 L 441.378 122.615 C 441.894 122.133 442.266 121.558 442.478 120.898 C 442.715 120.484 442.841 120.035 442.841 119.553 C 442.968 119.079 442.968 118.606 442.841 118.141 C 442.808 117.43 442.596 116.77 442.207 116.161 L 441.378 115.087 L 440.304 114.258 C 439.695 113.869 439.035 113.658 438.325 113.624 C 437.851 113.497 437.377 113.497 436.912 113.624 C 436.43 113.624 435.982 113.742 435.567 113.987 C 434.907 114.199 434.332 114.571 433.85 115.087 L 433.021 116.161 C 432.843 116.584 432.666 117.007 432.488 117.43 C 432.268 118.141 432.234 118.843 432.395 119.553 C 432.429 120.264 432.64 120.923 433.03 121.532 Z M 77.263 225.556 C 77.263 222.629 74.793 220.159 71.866 220.159 C 68.948 220.159 66.47 222.638 66.47 225.556 C 66.47 228.482 68.94 230.952 71.866 230.952 C 74.784 230.952 77.263 228.474 77.263 225.556 Z M 79.682 259.458 C 80.122 259.272 80.553 259.085 80.993 258.908 C 81.636 258.561 82.143 258.087 82.533 257.495 C 83.015 256.962 83.345 256.345 83.514 255.626 C 83.539 255.465 83.556 255.313 83.581 255.152 C 83.598 255.034 83.624 254.915 83.649 254.797 C 83.852 254.256 83.979 253.697 83.954 253.097 C 83.987 252.31 83.818 251.574 83.463 250.889 C 83.235 250.179 82.837 249.561 82.279 249.045 C 81.763 248.487 81.145 248.089 80.435 247.861 C 79.75 247.506 79.014 247.337 78.227 247.37 C 77.72 247.438 77.212 247.506 76.705 247.573 C 75.732 247.844 74.886 248.335 74.175 249.045 C 73.879 249.434 73.575 249.823 73.279 250.204 C 72.763 251.101 72.501 252.065 72.492 253.097 C 72.56 253.604 72.628 254.112 72.695 254.619 C 72.729 254.755 72.797 254.873 72.839 255 C 72.847 255.051 72.864 255.093 72.864 255.144 C 72.89 255.304 72.907 255.457 72.932 255.617 L 73.482 256.929 C 73.829 257.571 74.302 258.079 74.894 258.468 C 75.241 258.806 75.639 259.043 76.104 259.178 C 76.755 259.525 77.466 259.678 78.219 259.652 L 79.682 259.458 Z M 88.876 277.982 L 87.726 277.094 C 86.838 276.578 85.891 276.324 84.867 276.324 C 84.089 276.299 83.361 276.459 82.685 276.815 C 81.983 277.043 81.374 277.432 80.858 277.99 C 80.308 278.506 79.91 279.115 79.682 279.817 C 79.327 280.494 79.166 281.221 79.191 282 C 79.259 282.499 79.327 283.006 79.394 283.505 C 79.665 284.461 80.147 285.298 80.849 286.009 C 81.23 286.305 81.611 286.601 82 286.897 C 82.888 287.413 83.835 287.667 84.859 287.667 C 85.637 287.692 86.364 287.532 87.041 287.176 C 87.743 286.948 88.352 286.559 88.868 286.001 C 89.418 285.485 89.815 284.876 90.044 284.174 C 90.399 283.497 90.56 282.769 90.534 281.991 C 90.467 281.492 90.399 280.985 90.331 280.486 C 90.069 279.521 89.579 278.692 88.876 277.982 Z M 101.437 311.63 C 101.446 311.613 101.446 311.596 101.454 311.579 C 101.547 311.063 101.64 310.539 101.666 310.006 C 101.666 309.989 101.666 309.964 101.666 309.947 C 101.666 308.915 101.404 307.95 100.888 307.062 C 100.592 306.673 100.295 306.293 99.991 305.904 C 99.28 305.193 98.435 304.702 97.47 304.432 C 96.709 304.195 95.948 304.161 95.195 304.33 C 94.434 304.364 93.723 304.592 93.072 305.007 C 92.404 305.362 91.871 305.853 91.473 306.479 C 90.966 307.029 90.627 307.68 90.45 308.424 C 90.331 308.872 90.272 309.321 90.255 309.769 C 90.255 309.778 90.255 309.786 90.255 309.794 C 90.238 310.353 90.297 310.911 90.45 311.469 C 90.458 311.495 90.467 311.52 90.467 311.545 C 90.467 311.545 90.467 311.537 90.467 311.537 C 90.568 312.061 90.737 312.569 91.033 313.043 C 91.329 313.423 91.625 313.812 91.922 314.193 C 92.437 314.751 93.047 315.14 93.749 315.369 C 94.188 315.622 94.671 315.758 95.187 315.758 C 95.939 315.927 96.701 315.893 97.453 315.656 C 97.91 315.462 98.358 315.276 98.815 315.081 C 99.67 314.574 100.346 313.897 100.854 313.043 C 101.082 312.586 101.277 312.112 101.437 311.63 Z M 116.494 325.993 C 115.631 325.494 114.709 325.24 113.711 325.24 C 112.713 325.24 111.791 325.494 110.928 325.993 C 110.099 326.483 109.439 327.143 108.949 327.972 C 108.45 328.835 108.196 329.757 108.196 330.755 C 108.196 331.753 108.45 332.675 108.949 333.538 C 109.228 333.918 109.515 334.29 109.811 334.663 C 110.184 334.95 110.556 335.238 110.928 335.525 C 110.936 335.525 110.936 335.534 110.945 335.534 C 110.953 335.542 110.962 335.542 110.979 335.551 C 110.987 335.559 110.996 335.559 111.004 335.568 C 111.207 335.686 111.351 335.72 111.655 335.847 C 112.29 336.185 112.983 336.337 113.719 336.304 C 114.683 336.304 115.58 336.058 116.417 335.576 C 116.434 335.568 116.451 335.559 116.468 335.551 C 116.477 335.551 116.485 335.542 116.494 335.534 C 116.494 335.534 116.502 335.534 116.502 335.525 C 116.874 335.238 117.246 334.95 117.619 334.663 C 117.915 334.299 118.211 333.927 118.481 333.538 C 118.98 332.675 119.234 331.753 119.234 330.755 C 119.234 329.757 118.98 328.835 118.481 327.972 C 117.982 327.143 117.323 326.483 116.494 325.993 Z M 135.568 340.964 C 135.212 341.632 135.052 342.36 135.086 343.138 C 135.153 343.637 135.221 344.136 135.289 344.635 C 135.559 345.591 136.041 346.42 136.735 347.122 C 137.116 347.418 137.496 347.706 137.877 348.002 C 138.757 348.509 139.704 348.771 140.727 348.771 C 141.506 348.797 142.225 348.636 142.901 348.289 C 143.603 348.061 144.204 347.672 144.72 347.122 C 145.27 346.615 145.659 346.006 145.887 345.303 C 146.242 344.635 146.403 343.908 146.369 343.13 C 146.302 342.631 146.234 342.131 146.166 341.632 C 145.896 340.677 145.413 339.848 144.72 339.146 C 144.339 338.85 143.959 338.554 143.578 338.266 C 142.698 337.758 141.751 337.496 140.727 337.496 C 139.949 337.471 139.23 337.632 138.554 337.978 C 137.851 338.207 137.251 338.596 136.735 339.146 C 136.185 339.662 135.796 340.262 135.568 340.964 Z M 162.297 344.864 C 162.322 344.957 162.339 345.058 162.364 345.151 L 162.923 346.479 C 163.269 347.131 163.752 347.646 164.361 348.044 C 164.707 348.391 165.113 348.628 165.587 348.763 C 166.247 349.11 166.966 349.271 167.736 349.245 C 168.226 349.177 168.725 349.11 169.216 349.042 C 169.656 348.856 170.104 348.67 170.544 348.484 C 171.195 348.137 171.711 347.655 172.109 347.046 C 172.599 346.505 172.929 345.879 173.107 345.151 C 173.132 345.058 173.149 344.957 173.174 344.864 C 173.174 344.855 173.183 344.855 173.183 344.847 C 173.267 344.542 173.31 344.229 173.344 343.925 C 173.352 343.806 173.369 343.688 173.369 343.569 C 173.394 342.994 173.335 342.428 173.183 341.852 C 173.183 341.852 173.183 341.852 173.183 341.844 C 173.166 341.785 173.141 341.734 173.124 341.675 C 173.073 341.497 173.005 341.336 172.938 341.167 C 172.861 340.99 172.794 340.82 172.701 340.66 C 172.667 340.609 172.658 340.55 172.625 340.499 C 172.388 340.059 172.075 339.704 171.719 339.382 C 171.398 339.027 171.034 338.714 170.603 338.477 C 170.552 338.444 170.493 338.427 170.442 338.401 C 170.282 338.308 170.104 338.232 169.935 338.164 C 169.766 338.097 169.605 338.021 169.427 337.978 C 169.368 337.961 169.317 337.928 169.258 337.919 C 168.759 337.851 168.26 337.784 167.761 337.716 C 167.685 337.716 167.617 337.725 167.549 337.733 C 167.423 337.733 167.296 337.75 167.169 337.758 C 166.864 337.792 166.568 337.843 166.281 337.919 C 166.281 337.919 166.272 337.919 166.272 337.919 C 166.264 337.919 166.255 337.928 166.247 337.928 C 165.79 338.054 165.35 338.241 164.919 338.486 C 164.073 338.985 163.396 339.662 162.897 340.507 C 162.897 340.507 162.897 340.507 162.897 340.516 C 162.652 340.93 162.466 341.379 162.331 341.861 C 162.331 341.861 162.331 341.861 162.331 341.869 C 162.06 342.867 162.06 343.866 162.331 344.872 C 162.297 344.847 162.297 344.855 162.297 344.864 Z M 192.257 339.509 C 193.128 340.017 194.075 340.271 195.09 340.279 C 195.86 340.304 196.579 340.144 197.256 339.797 C 197.949 339.569 198.55 339.188 199.058 338.638 C 199.607 338.131 199.988 337.53 200.216 336.836 C 200.572 336.168 200.732 335.449 200.698 334.671 C 200.631 334.172 200.563 333.673 200.495 333.182 C 200.225 332.235 199.751 331.406 199.049 330.704 C 198.668 330.408 198.296 330.12 197.916 329.824 C 197.044 329.317 196.097 329.063 195.082 329.055 C 194.312 329.029 193.593 329.19 192.917 329.537 C 192.223 329.765 191.622 330.146 191.115 330.696 C 190.565 331.203 190.185 331.804 189.956 332.497 C 189.601 333.165 189.44 333.884 189.474 334.654 C 189.542 335.153 189.609 335.652 189.677 336.143 C 189.948 337.09 190.421 337.919 191.123 338.621 C 191.496 338.926 191.876 339.213 192.257 339.509 Z M 217.514 311.114 C 216.753 311.089 216.042 311.241 215.383 311.588 C 214.697 311.808 214.097 312.197 213.598 312.73 C 213.056 313.229 212.676 313.829 212.456 314.514 C 212.109 315.174 211.948 315.885 211.982 316.646 C 212.05 317.136 212.118 317.627 212.177 318.118 C 212.439 319.057 212.913 319.869 213.606 320.562 C 213.978 320.85 214.351 321.137 214.731 321.425 C 215.594 321.924 216.524 322.178 217.531 322.178 C 218.292 322.203 219.003 322.051 219.663 321.704 C 220.348 321.484 220.948 321.095 221.447 320.562 C 221.989 320.063 222.369 319.463 222.589 318.777 C 222.936 318.118 223.097 317.407 223.063 316.646 L 222.868 315.174 C 222.606 314.235 222.132 313.423 221.439 312.73 C 221.067 312.442 220.695 312.154 220.314 311.867 C 219.451 311.368 218.521 311.114 217.514 311.114 Z M 228.603 289.832 C 227.91 290.061 227.309 290.441 226.802 290.991 C 226.26 291.499 225.871 292.099 225.643 292.793 C 225.296 293.461 225.135 294.18 225.161 294.95 C 225.228 295.449 225.296 295.939 225.364 296.438 C 225.626 297.386 226.108 298.206 226.802 298.908 C 227.182 299.196 227.554 299.492 227.935 299.78 C 228.806 300.287 229.745 300.541 230.76 300.541 C 231.53 300.566 232.249 300.405 232.917 300.059 C 233.611 299.83 234.211 299.45 234.719 298.9 C 235.26 298.392 235.649 297.792 235.878 297.098 C 236.224 296.43 236.385 295.711 236.36 294.941 C 236.292 294.442 236.224 293.952 236.157 293.453 C 235.895 292.505 235.412 291.685 234.719 290.983 C 234.338 290.695 233.966 290.399 233.585 290.111 C 232.714 289.604 231.775 289.35 230.76 289.35 C 229.99 289.325 229.271 289.485 228.603 289.832 Z M 267.775 283.353 C 267.377 283.049 266.98 282.736 266.582 282.431 C 265.66 281.898 264.671 281.627 263.605 281.627 C 262.793 281.594 262.031 281.763 261.329 282.135 C 260.593 282.372 259.959 282.778 259.426 283.353 C 258.851 283.886 258.445 284.52 258.208 285.256 C 257.836 285.958 257.667 286.72 257.701 287.532 C 257.768 288.056 257.844 288.58 257.912 289.105 C 258.191 290.103 258.699 290.974 259.435 291.71 C 259.832 292.015 260.23 292.328 260.627 292.632 C 261.549 293.165 262.539 293.436 263.605 293.436 C 264.417 293.469 265.178 293.3 265.88 292.928 C 266.616 292.691 267.242 292.285 267.783 291.71 C 268.358 291.177 268.764 290.543 269.001 289.807 C 269.373 289.105 269.543 288.344 269.509 287.532 C 269.441 287.007 269.365 286.483 269.297 285.958 C 269.01 284.952 268.502 284.089 267.775 283.353 Z M 278.762 307.325 C 278.373 307.029 277.993 306.732 277.604 306.428 C 276.715 305.912 275.751 305.65 274.719 305.65 C 273.933 305.616 273.197 305.785 272.52 306.14 C 271.81 306.369 271.201 306.766 270.685 307.325 C 270.126 307.841 269.737 308.458 269.5 309.16 C 269.145 309.837 268.976 310.573 269.01 311.359 C 269.077 311.867 269.145 312.374 269.213 312.882 C 269.483 313.846 269.974 314.692 270.685 315.402 C 271.074 315.699 271.454 315.995 271.843 316.299 C 272.732 316.815 273.696 317.077 274.728 317.077 C 275.514 317.111 276.25 316.942 276.927 316.587 C 277.637 316.358 278.246 315.961 278.762 315.402 C 279.321 314.887 279.71 314.269 279.947 313.567 C 280.302 312.89 280.471 312.154 280.437 311.368 C 280.37 310.86 280.302 310.353 280.234 309.845 C 279.955 308.872 279.465 308.035 278.762 307.325 Z M 294.318 323.007 C 291.264 323.007 288.346 325.688 288.481 328.843 C 288.625 332.007 291.044 334.68 294.318 334.68 C 297.371 334.68 300.289 331.998 300.154 328.843 C 300.01 325.68 297.583 323.007 294.318 323.007 Z M 327.67 333.064 C 327.382 332.04 326.866 331.152 326.122 330.399 C 325.716 330.087 325.31 329.774 324.904 329.461 C 323.965 328.919 322.95 328.64 321.859 328.64 C 321.03 328.606 320.252 328.784 319.533 329.156 C 318.788 329.401 318.137 329.816 317.596 330.399 C 317.012 330.949 316.589 331.592 316.352 332.336 C 315.972 333.055 315.802 333.825 315.836 334.663 C 315.904 335.195 315.98 335.728 316.048 336.261 C 316.335 337.285 316.851 338.173 317.596 338.917 C 318.002 339.23 318.408 339.543 318.814 339.856 C 319.753 340.397 320.768 340.677 321.859 340.677 C 322.688 340.71 323.466 340.533 324.185 340.161 C 324.929 339.915 325.581 339.501 326.122 338.917 C 326.714 338.367 327.128 337.725 327.365 336.98 C 327.746 336.261 327.915 335.492 327.881 334.654 L 327.67 333.064 Z M 349.459 328.581 C 348.486 328.852 347.632 329.351 346.913 330.061 C 346.617 330.45 346.312 330.839 346.016 331.228 C 345.492 332.125 345.23 333.098 345.23 334.138 C 345.196 334.933 345.365 335.669 345.729 336.354 C 345.957 337.065 346.355 337.682 346.921 338.207 C 347.64 338.917 348.486 339.416 349.467 339.687 C 349.975 339.755 350.491 339.822 350.998 339.89 C 352.039 339.89 353.012 339.628 353.908 339.103 C 354.771 338.587 355.465 337.902 355.972 337.039 C 355.989 336.997 356.014 336.955 356.031 336.913 C 356.243 336.481 356.429 336.041 356.59 335.593 C 356.657 335.102 356.716 334.62 356.784 334.13 C 356.835 333.064 356.48 332.269 356.023 331.338 C 356.014 331.321 356.006 331.296 355.989 331.279 C 355.981 331.262 355.972 331.245 355.964 331.22 C 355.448 330.357 354.763 329.664 353.9 329.156 C 353.24 328.733 352.521 328.505 351.76 328.471 C 350.99 328.302 350.22 328.336 349.459 328.581 Z M 378.531 318.371 C 378.328 317.83 378.117 317.28 377.846 316.764 C 377.804 316.688 377.753 316.612 377.702 316.544 C 376.932 315.496 376.408 314.777 375.232 314.117 C 374.226 313.559 372.974 313.144 371.807 313.186 C 371.544 313.195 370.851 313.313 370.961 313.296 C 370.868 313.305 370.385 313.356 370.115 313.415 C 370.073 313.423 370.03 313.432 369.988 313.449 C 369.43 313.618 368.871 313.846 368.364 314.134 C 367.873 314.421 367.433 314.793 367.011 315.174 C 366.985 315.199 366.951 315.225 366.926 315.259 C 366.909 315.276 366.892 315.293 366.884 315.309 C 366.579 315.707 366.275 316.096 365.97 316.494 C 365.962 316.502 365.953 316.519 365.945 316.527 C 365.902 316.595 365.86 316.663 365.826 316.73 C 365.581 317.246 365.327 317.771 365.167 318.329 C 365.158 318.371 365.141 318.405 365.133 318.448 C 365.124 318.473 365.124 318.498 365.116 318.524 C 365.082 318.777 365.048 319.04 365.014 319.293 C 364.845 320.063 364.879 320.833 365.116 321.603 C 365.226 322.017 365.48 322.702 365.801 323.142 C 366.672 324.335 366.816 324.521 368.009 325.358 C 368.059 325.392 368.11 325.426 368.169 325.46 C 369.176 325.984 369.675 326.128 370.8 326.196 C 371.02 326.196 371.231 326.136 371.443 326.111 C 372.204 326.339 372.974 326.382 373.735 326.204 C 374.268 326.204 374.759 326.069 375.224 325.806 C 375.951 325.57 376.586 325.164 377.118 324.588 C 377.423 324.191 377.736 323.793 378.04 323.396 C 378.573 322.482 378.844 321.493 378.844 320.427 C 378.785 319.826 378.726 319.217 378.599 318.634 C 378.59 318.549 378.565 318.456 378.531 318.371 Z M 396.091 298.993 C 395.592 298.147 394.924 297.479 394.078 296.98 L 393.917 296.887 C 393.088 296.405 392.2 296.168 391.244 296.159 C 390.288 296.159 389.392 296.405 388.571 296.887 C 388.521 296.921 388.461 296.946 388.411 296.98 C 387.759 297.335 387.235 297.817 386.837 298.426 C 386.491 298.773 386.245 299.187 386.118 299.661 C 385.763 300.329 385.602 301.048 385.636 301.827 L 385.839 303.315 L 386.406 304.66 C 386.761 305.311 387.243 305.836 387.852 306.233 C 388.199 306.58 388.614 306.826 389.087 306.952 C 389.756 307.308 390.475 307.468 391.253 307.435 C 391.752 307.367 392.251 307.299 392.741 307.232 L 394.086 306.665 C 394.738 306.31 395.262 305.827 395.66 305.218 C 396.006 304.872 396.252 304.457 396.379 303.983 C 396.734 303.315 396.895 302.596 396.861 301.818 C 396.793 301.319 396.725 300.82 396.658 300.329 L 396.091 298.993 Z M 405.387 273.144 C 404.66 273.38 404.025 273.786 403.492 274.362 C 402.917 274.894 402.511 275.529 402.274 276.256 C 401.902 276.958 401.733 277.711 401.767 278.523 C 401.834 279.048 401.911 279.564 401.978 280.088 C 402.257 281.086 402.765 281.949 403.492 282.685 C 403.89 282.989 404.287 283.302 404.685 283.607 C 405.598 284.14 406.588 284.41 407.654 284.41 C 408.466 284.444 409.219 284.275 409.921 283.903 C 410.648 283.666 411.283 283.26 411.815 282.685 C 412.391 282.152 412.797 281.518 413.034 280.79 C 413.406 280.088 413.566 279.335 413.541 278.523 C 413.473 277.999 413.397 277.483 413.33 276.958 C 413.05 275.96 412.543 275.097 411.815 274.362 C 411.418 274.057 411.02 273.744 410.623 273.44 C 409.709 272.907 408.72 272.636 407.654 272.636 C 406.85 272.611 406.089 272.78 405.387 273.144 Z M 423.877 251.71 C 423.488 251.414 423.108 251.117 422.719 250.813 C 421.83 250.297 420.866 250.035 419.834 250.035 C 419.048 250.001 418.312 250.17 417.635 250.525 C 416.924 250.754 416.315 251.151 415.799 251.71 C 415.241 252.226 414.852 252.843 414.615 253.545 C 414.26 254.222 414.091 254.958 414.125 255.744 C 414.192 256.252 414.26 256.759 414.328 257.267 C 414.598 258.231 415.089 259.077 415.799 259.788 C 416.189 260.084 416.569 260.38 416.958 260.684 C 417.846 261.2 418.811 261.462 419.843 261.462 C 420.629 261.496 421.365 261.327 422.042 260.972 C 422.752 260.743 423.361 260.346 423.877 259.788 C 424.436 259.272 424.825 258.654 425.062 257.952 C 425.417 257.267 425.586 256.539 425.552 255.753 C 425.484 255.245 425.417 254.738 425.349 254.23 C 425.078 253.257 424.588 252.42 423.877 251.71 Z M 433.089 228.668 C 432.708 228.372 432.319 228.076 431.938 227.78 C 431.05 227.264 430.094 227.011 429.071 227.002 C 428.284 226.977 427.557 227.137 426.88 227.493 C 426.178 227.721 425.569 228.11 425.053 228.668 C 424.495 229.184 424.106 229.793 423.877 230.496 C 423.522 231.172 423.361 231.9 423.387 232.686 C 423.454 233.194 423.522 233.693 423.59 234.2 C 423.86 235.165 424.351 236.002 425.053 236.713 C 425.434 237.009 425.823 237.305 426.203 237.601 C 427.092 238.117 428.047 238.37 429.071 238.379 C 429.858 238.413 430.585 238.244 431.262 237.888 C 431.964 237.66 432.573 237.271 433.089 236.713 C 433.647 236.197 434.036 235.588 434.264 234.886 C 434.62 234.209 434.78 233.481 434.755 232.695 C 434.687 232.187 434.62 231.688 434.552 231.181 C 434.273 230.216 433.791 229.379 433.089 228.668 Z M 137.741 269.481 C 138.021 270.471 138.52 271.325 139.239 272.052 C 139.636 272.357 140.025 272.661 140.423 272.966 C 141.336 273.49 142.318 273.761 143.366 273.761 C 144.17 273.795 144.923 273.626 145.616 273.262 C 146.344 273.025 146.97 272.628 147.494 272.052 C 148.061 271.528 148.467 270.902 148.704 270.175 C 149.067 269.481 149.237 268.728 149.203 267.925 C 149.135 267.409 149.067 266.893 148.991 266.377 C 148.712 265.387 148.213 264.533 147.494 263.805 C 147.097 263.501 146.708 263.196 146.31 262.892 C 145.396 262.367 144.415 262.097 143.366 262.097 C 142.563 262.063 141.81 262.232 141.116 262.596 C 140.389 262.833 139.763 263.23 139.239 263.805 C 138.672 264.33 138.266 264.956 138.029 265.683 C 137.665 266.377 137.496 267.13 137.53 267.933 C 137.606 268.449 137.674 268.965 137.741 269.481 Z M 151.698 297.208 C 151.309 296.904 150.92 296.608 150.531 296.303 C 149.626 295.779 148.653 295.516 147.613 295.516 C 146.818 295.483 146.073 295.652 145.38 296.015 C 144.661 296.252 144.043 296.65 143.519 297.208 C 142.952 297.733 142.554 298.35 142.326 299.069 C 141.962 299.763 141.802 300.499 141.827 301.302 C 141.895 301.818 141.962 302.326 142.03 302.842 C 142.309 303.823 142.8 304.669 143.519 305.396 C 143.908 305.701 144.297 305.997 144.686 306.301 C 145.591 306.826 146.564 307.088 147.604 307.088 C 148.399 307.122 149.144 306.952 149.837 306.589 C 150.556 306.352 151.174 305.954 151.698 305.396 C 152.265 304.872 152.662 304.254 152.891 303.535 C 153.254 302.842 153.415 302.106 153.39 301.302 C 153.322 300.786 153.254 300.279 153.187 299.763 C 152.908 298.781 152.417 297.927 151.698 297.208 Z M 160.064 330.966 C 160.419 330.298 160.58 329.579 160.546 328.801 C 160.478 328.302 160.41 327.803 160.343 327.312 C 160.072 326.365 159.598 325.536 158.896 324.834 C 158.516 324.538 158.135 324.25 157.763 323.954 C 156.883 323.447 155.944 323.193 154.929 323.184 C 154.16 323.159 153.432 323.32 152.764 323.666 C 152.07 323.895 151.461 324.284 150.954 324.825 C 150.404 325.333 150.015 325.933 149.795 326.635 C 149.44 327.304 149.279 328.023 149.313 328.801 C 149.38 329.3 149.448 329.799 149.516 330.29 C 149.786 331.237 150.26 332.066 150.962 332.768 C 151.343 333.064 151.723 333.352 152.096 333.648 C 152.975 334.155 153.914 334.409 154.929 334.417 C 155.699 334.443 156.426 334.282 157.095 333.935 C 157.788 333.707 158.397 333.318 158.905 332.776 C 159.446 332.269 159.835 331.668 160.064 330.966 Z M 178.309 371.212 C 178.241 370.696 178.173 370.18 178.097 369.664 C 177.818 368.683 177.319 367.829 176.6 367.101 C 176.211 366.797 175.813 366.492 175.424 366.196 C 174.519 365.672 173.538 365.409 172.489 365.401 C 171.686 365.367 170.941 365.536 170.248 365.9 C 169.529 366.137 168.903 366.534 168.378 367.101 C 167.812 367.626 167.414 368.252 167.177 368.97 C 166.814 369.664 166.644 370.408 166.678 371.212 C 166.746 371.728 166.814 372.244 166.89 372.76 C 167.169 373.741 167.668 374.595 168.387 375.323 C 168.776 375.627 169.173 375.932 169.563 376.228 C 170.468 376.752 171.449 377.015 172.498 377.023 C 173.301 377.057 174.046 376.888 174.739 376.524 C 175.458 376.287 176.084 375.89 176.609 375.323 C 177.175 374.798 177.573 374.172 177.81 373.454 C 178.173 372.751 178.343 372.007 178.309 371.212 Z M 190.506 389.956 C 187.469 389.956 184.889 392.536 184.889 395.573 C 184.889 398.618 187.461 401.189 190.506 401.189 C 193.543 401.189 196.122 398.609 196.122 395.573 C 196.122 392.528 193.551 389.956 190.506 389.956 Z M 207.474 415.696 C 207.618 418.842 210.028 421.507 213.285 421.507 C 216.321 421.507 219.231 418.834 219.096 415.696 C 218.952 412.549 216.541 409.884 213.285 409.884 C 210.24 409.884 207.33 412.557 207.474 415.696 Z M 237.104 413.336 C 236.563 413.843 236.174 414.444 235.945 415.137 C 235.598 415.805 235.438 416.524 235.463 417.294 C 235.531 417.793 235.598 418.284 235.666 418.783 C 235.928 419.73 236.41 420.551 237.104 421.253 C 237.485 421.54 237.857 421.836 238.238 422.124 C 239.109 422.632 240.048 422.885 241.054 422.885 C 241.824 422.911 242.543 422.75 243.211 422.403 C 243.905 422.175 244.505 421.794 245.013 421.244 C 245.554 420.737 245.943 420.136 246.172 419.443 C 246.518 418.774 246.679 418.055 246.654 417.286 C 246.586 416.787 246.518 416.296 246.451 415.797 C 246.189 414.85 245.706 414.029 245.013 413.336 C 244.632 413.048 244.26 412.752 243.879 412.464 C 243.008 411.957 242.069 411.703 241.063 411.703 C 240.293 411.678 239.574 411.838 238.906 412.185 C 238.212 412.405 237.612 412.794 237.104 413.336 Z M 267.563 397.484 C 266.667 396.96 265.694 396.698 264.654 396.698 C 263.858 396.664 263.123 396.833 262.437 397.197 C 261.727 397.425 261.101 397.823 260.585 398.389 C 260.027 398.914 259.629 399.531 259.392 400.242 C 259.029 400.927 258.868 401.671 258.893 402.458 C 258.961 402.965 259.029 403.481 259.096 403.989 C 259.367 404.962 259.866 405.816 260.577 406.535 C 260.966 406.831 261.355 407.135 261.744 407.432 C 262.64 407.956 263.613 408.218 264.654 408.218 C 265.449 408.252 266.185 408.083 266.87 407.719 C 267.58 407.491 268.206 407.093 268.722 406.526 C 269.28 406.002 269.678 405.385 269.915 404.674 C 270.279 403.989 270.439 403.245 270.414 402.458 C 270.346 401.95 270.279 401.434 270.211 400.927 C 269.94 399.954 269.441 399.1 268.731 398.381 C 268.342 398.085 267.952 397.78 267.563 397.484 Z M 282.137 375.441 C 279.084 375.441 276.166 378.123 276.301 381.278 C 276.445 384.441 278.864 387.114 282.137 387.114 C 285.191 387.114 288.109 384.433 287.974 381.278 C 287.83 378.114 285.402 375.441 282.137 375.441 Z M 295.299 350.099 C 294.901 349.795 294.504 349.482 294.106 349.177 C 293.193 348.645 292.203 348.374 291.137 348.374 C 290.325 348.34 289.572 348.509 288.87 348.881 C 288.143 349.118 287.509 349.524 286.976 350.099 C 286.401 350.632 285.995 351.267 285.758 351.994 C 285.386 352.696 285.216 353.449 285.25 354.261 C 285.318 354.785 285.394 355.301 285.462 355.826 C 285.741 356.824 286.248 357.687 286.976 358.423 C 287.373 358.727 287.771 359.04 288.168 359.345 C 289.082 359.878 290.072 360.148 291.137 360.148 C 291.949 360.182 292.702 360.013 293.404 359.641 C 294.132 359.404 294.766 358.998 295.299 358.423 C 295.874 357.89 296.28 357.255 296.517 356.528 C 296.889 355.826 297.058 355.073 297.024 354.261 C 296.957 353.737 296.881 353.221 296.813 352.696 C 296.534 351.698 296.026 350.835 295.299 350.099 Z M 299.114 298.849 C 298.716 298.545 298.327 298.24 297.93 297.936 C 297.016 297.411 296.035 297.14 294.986 297.14 C 294.182 297.107 293.43 297.276 292.736 297.64 C 292.017 297.876 291.383 298.274 290.858 298.849 C 290.291 299.374 289.885 299.999 289.649 300.727 C 289.285 301.42 289.116 302.173 289.15 302.977 C 289.217 303.493 289.285 304.009 289.361 304.525 C 289.64 305.514 290.139 306.369 290.858 307.096 C 291.256 307.401 291.645 307.705 292.042 308.01 C 292.956 308.534 293.937 308.805 294.986 308.805 C 295.79 308.839 296.542 308.669 297.236 308.306 C 297.963 308.069 298.589 307.671 299.114 307.096 C 299.68 306.572 300.086 305.946 300.323 305.218 C 300.687 304.525 300.856 303.772 300.822 302.968 C 300.755 302.452 300.687 301.936 300.611 301.42 C 300.34 300.439 299.841 299.577 299.114 298.849 Z M 299.021 280.384 C 299.57 279.877 299.96 279.268 300.188 278.574 C 300.543 277.906 300.704 277.178 300.67 276.409 C 300.602 275.91 300.535 275.41 300.467 274.911 C 300.196 273.956 299.714 273.127 299.021 272.425 C 298.64 272.129 298.259 271.841 297.879 271.545 C 296.999 271.037 296.052 270.784 295.037 270.775 C 294.259 270.75 293.54 270.91 292.871 271.257 C 292.178 271.486 291.569 271.875 291.061 272.425 C 290.511 272.932 290.122 273.541 289.894 274.235 C 289.539 274.903 289.378 275.63 289.412 276.4 C 289.479 276.899 289.547 277.398 289.615 277.897 C 289.885 278.853 290.368 279.682 291.061 280.384 C 291.442 280.68 291.822 280.968 292.203 281.264 C 293.083 281.771 294.03 282.025 295.045 282.033 C 295.823 282.059 296.542 281.898 297.211 281.551 C 297.904 281.323 298.513 280.934 299.021 280.384 Z M 340.002 270.995 C 339.723 270.014 339.233 269.16 338.514 268.432 C 337.786 267.713 336.94 267.214 335.951 266.943 C 334.919 266.664 333.895 266.664 332.863 266.943 C 332.61 266.986 332.381 267.087 332.161 267.239 C 331.442 267.476 330.816 267.874 330.292 268.441 C 329.987 268.83 329.683 269.227 329.387 269.616 C 329.387 269.625 329.378 269.625 329.378 269.633 C 329.37 269.65 329.362 269.667 329.353 269.684 C 329.336 269.718 329.319 269.743 329.302 269.777 C 329.268 269.845 329.235 269.904 329.201 269.972 C 329.006 270.428 328.82 270.877 328.626 271.333 C 328.389 272.086 328.355 272.848 328.524 273.6 C 328.524 274.116 328.651 274.59 328.913 275.038 C 329.142 275.74 329.531 276.358 330.089 276.865 C 330.47 277.161 330.859 277.457 331.239 277.753 L 332.601 278.329 C 333.354 278.565 334.115 278.599 334.868 278.43 C 335.621 278.396 336.331 278.168 336.983 277.753 C 337.05 277.72 337.11 277.686 337.177 277.652 C 337.211 277.635 337.236 277.618 337.27 277.601 C 337.287 277.593 337.304 277.584 337.313 277.576 C 337.761 277.339 338.04 277.161 338.505 276.654 C 338.81 276.265 339.114 275.867 339.41 275.478 C 339.715 275.047 339.909 274.582 339.994 274.082 C 340.282 273.059 340.282 272.027 340.002 270.995 Z M 357.342 269.464 C 354.263 269.464 351.32 272.171 351.464 275.343 C 351.608 278.532 354.052 281.221 357.342 281.221 C 360.421 281.221 363.365 278.515 363.221 275.343 C 363.086 272.154 360.641 269.464 357.342 269.464 Z M 373.955 257.081 C 373.253 257.309 372.635 257.698 372.128 258.257 C 371.57 258.772 371.181 259.381 370.952 260.084 C 370.597 260.76 370.436 261.496 370.462 262.274 C 370.529 262.782 370.597 263.281 370.665 263.788 C 370.935 264.753 371.426 265.59 372.128 266.301 L 373.278 267.189 C 374.166 267.705 375.122 267.958 376.146 267.967 C 376.932 268.001 377.66 267.832 378.337 267.476 C 379.039 267.248 379.656 266.85 380.164 266.301 C 380.722 265.785 381.111 265.176 381.339 264.474 C 381.695 263.797 381.855 263.061 381.83 262.283 C 381.762 261.775 381.695 261.276 381.627 260.769 C 381.356 259.804 380.866 258.967 380.164 258.257 C 379.783 257.96 379.394 257.664 379.013 257.368 C 378.125 256.852 377.169 256.599 376.146 256.59 C 375.359 256.556 374.632 256.726 373.955 257.081 Z M 74.514 236.543 C 70.242 236.543 70.234 243.183 74.514 243.183 C 78.785 243.175 78.794 236.543 74.514 236.543 Z M 80.875 267.206 C 76.535 267.206 76.527 273.956 80.875 273.956 C 85.214 273.947 85.222 267.206 80.875 267.206 Z M 89.875 299.796 C 94.755 299.796 94.764 292.209 89.875 292.209 C 84.994 292.209 84.986 299.796 89.875 299.796 Z M 106.419 320.021 C 106.183 319.843 105.946 319.657 105.717 319.479 C 105.176 319.167 104.592 319.006 103.958 319.006 C 103.476 318.989 103.028 319.09 102.613 319.302 C 102.182 319.446 101.81 319.683 101.497 320.021 C 101.158 320.334 100.913 320.706 100.778 321.137 C 100.558 321.552 100.456 322 100.482 322.482 C 100.524 322.795 100.566 323.1 100.608 323.404 C 100.778 323.996 101.074 324.504 101.505 324.944 C 101.742 325.121 101.979 325.307 102.207 325.485 C 102.748 325.798 103.332 325.959 103.966 325.959 C 104.449 325.976 104.897 325.874 105.311 325.663 C 105.743 325.519 106.115 325.282 106.428 324.944 C 106.766 324.631 107.012 324.259 107.147 323.827 C 107.367 323.413 107.468 322.964 107.443 322.482 C 107.401 322.178 107.358 321.865 107.316 321.56 C 107.147 320.968 106.851 320.452 106.419 320.021 Z M 124.182 342.724 C 124.715 343.028 125.282 343.189 125.891 343.189 C 126.5 343.189 127.075 343.037 127.6 342.724 C 128.107 342.419 128.513 342.013 128.818 341.506 C 128.86 341.413 128.902 341.311 128.945 341.218 C 129.266 340.668 129.427 340.068 129.427 339.433 C 129.427 338.799 129.266 338.198 128.945 337.648 C 128.632 337.116 128.209 336.693 127.676 336.38 C 127.126 336.058 126.525 335.898 125.891 335.898 C 125.257 335.898 124.656 336.058 124.106 336.38 C 123.573 336.693 123.15 337.116 122.838 337.648 C 122.516 338.198 122.355 338.799 122.355 339.433 C 122.355 340.068 122.516 340.668 122.838 341.218 C 122.88 341.311 122.922 341.413 122.964 341.506 C 123.26 342.013 123.666 342.419 124.182 342.724 Z M 153.965 341.954 C 149.719 341.954 149.71 348.552 153.965 348.552 C 158.211 348.56 158.22 341.954 153.965 341.954 Z M 180.17 342.867 C 180.474 343.197 180.838 343.426 181.252 343.561 C 181.65 343.772 182.09 343.866 182.546 343.849 C 183.012 343.866 183.443 343.772 183.841 343.561 C 184.255 343.426 184.619 343.197 184.923 342.867 C 185.253 342.563 185.482 342.199 185.617 341.785 C 185.828 341.387 185.921 340.947 185.904 340.491 C 185.862 340.194 185.828 339.89 185.786 339.594 C 185.625 339.027 185.338 338.528 184.923 338.105 C 184.695 337.928 184.467 337.758 184.238 337.581 C 183.714 337.276 183.147 337.124 182.538 337.124 C 182.242 337.166 181.937 337.2 181.641 337.242 C 181.202 337.344 180.821 337.547 180.499 337.843 C 180.136 338.08 179.848 338.393 179.637 338.79 C 179.451 339.061 179.341 339.357 179.29 339.662 C 179.214 339.924 179.163 340.203 179.155 340.491 C 179.155 340.778 179.205 341.049 179.29 341.319 C 179.341 341.632 179.451 341.92 179.637 342.191 C 179.823 342.419 180 342.639 180.17 342.867 Z M 207.457 324.132 C 202.762 324.132 202.754 331.423 207.457 331.423 C 212.151 331.423 212.151 324.132 207.457 324.132 Z M 224.932 310.277 C 229.669 310.277 229.677 302.909 224.932 302.909 C 220.195 302.909 220.187 310.277 224.932 310.277 Z M 238.982 283.006 C 238.559 282.583 238.06 282.296 237.485 282.135 C 237.383 282.101 237.273 282.076 237.172 282.042 C 236.605 281.89 236.03 281.89 235.463 282.042 C 234.922 282.194 234.448 282.473 234.051 282.871 C 233.653 283.268 233.374 283.742 233.222 284.283 C 233.069 284.85 233.069 285.417 233.222 285.992 L 233.315 286.305 C 233.475 286.88 233.763 287.379 234.186 287.802 C 234.609 288.225 235.108 288.513 235.683 288.673 C 236.284 288.834 236.884 288.834 237.485 288.673 C 238.06 288.513 238.559 288.225 238.982 287.802 C 239.405 287.379 239.692 286.88 239.853 286.305 C 240.014 285.705 240.014 285.104 239.853 284.503 C 239.692 283.928 239.405 283.429 238.982 283.006 Z M 141.252 257.681 C 145.777 257.681 145.786 250.644 141.252 250.644 C 136.718 250.644 136.718 257.681 141.252 257.681 Z M 144.432 289.824 C 144.965 289.841 145.464 289.731 145.929 289.485 C 146.412 289.325 146.826 289.063 147.181 288.682 C 147.562 288.327 147.824 287.912 147.985 287.43 C 148.23 286.965 148.34 286.466 148.323 285.933 L 148.188 284.901 C 148.002 284.241 147.672 283.674 147.19 283.184 C 146.927 282.981 146.665 282.778 146.403 282.575 C 145.794 282.22 145.143 282.05 144.441 282.042 C 143.908 282.025 143.409 282.135 142.944 282.38 C 142.461 282.541 142.047 282.803 141.692 283.184 C 141.311 283.539 141.049 283.954 140.888 284.436 C 140.643 284.901 140.533 285.4 140.55 285.933 C 140.592 286.28 140.643 286.618 140.685 286.965 C 140.871 287.625 141.201 288.191 141.683 288.682 C 141.945 288.885 142.208 289.088 142.47 289.291 C 143.07 289.638 143.73 289.815 144.432 289.824 Z M 152.899 312.425 C 152.645 312.231 152.392 312.036 152.146 311.841 C 151.563 311.503 150.937 311.334 150.26 311.334 C 149.744 311.317 149.262 311.418 148.822 311.655 C 148.357 311.808 147.959 312.061 147.621 312.425 C 147.257 312.763 146.995 313.161 146.851 313.626 C 146.615 314.074 146.513 314.548 146.53 315.064 C 146.572 315.394 146.623 315.724 146.665 316.054 C 146.843 316.688 147.164 317.238 147.63 317.703 C 147.883 317.898 148.137 318.092 148.382 318.287 C 148.966 318.625 149.592 318.794 150.269 318.794 C 150.785 318.811 151.267 318.71 151.707 318.473 C 152.172 318.321 152.569 318.067 152.908 317.703 C 153.271 317.365 153.534 316.967 153.677 316.502 C 153.914 316.054 154.016 315.58 153.999 315.064 C 153.957 314.734 153.906 314.404 153.863 314.074 C 153.677 313.44 153.364 312.89 152.899 312.425 Z M 168.268 359.565 C 168.328 359.488 168.395 359.404 168.454 359.328 C 168.784 359.015 169.021 358.651 169.165 358.228 C 169.376 357.822 169.478 357.382 169.461 356.909 C 169.419 356.604 169.376 356.3 169.343 356.004 C 169.182 355.428 168.886 354.921 168.463 354.498 C 168.404 354.422 168.336 354.337 168.277 354.261 C 168.023 354.067 167.769 353.872 167.516 353.677 C 167.22 353.551 166.915 353.424 166.619 353.297 C 166.12 353.136 165.621 353.119 165.122 353.229 C 164.783 353.229 164.471 353.314 164.174 353.483 C 163.853 353.576 163.582 353.737 163.346 353.965 C 163.066 354.134 162.838 354.354 162.669 354.642 C 162.432 354.879 162.271 355.149 162.187 355.471 C 161.95 355.919 161.84 356.401 161.865 356.917 C 161.908 357.247 161.958 357.585 162.001 357.915 C 162.127 358.211 162.254 358.516 162.381 358.812 C 162.576 359.066 162.77 359.319 162.965 359.573 C 163.219 359.768 163.472 359.962 163.726 360.157 C 164.022 360.284 164.327 360.41 164.623 360.537 C 165.122 360.698 165.621 360.715 166.12 360.605 C 166.458 360.605 166.771 360.52 167.067 360.351 C 167.524 360.191 167.93 359.928 168.268 359.565 Z M 180.973 380.457 C 176.515 380.457 176.507 387.385 180.973 387.385 C 185.431 387.385 185.439 380.457 180.973 380.457 Z M 203.549 404.776 C 203.287 404.573 203.016 404.361 202.754 404.158 C 202.136 403.803 201.477 403.625 200.766 403.617 C 200.225 403.6 199.717 403.71 199.244 403.955 C 198.753 404.116 198.33 404.386 197.975 404.767 C 197.594 405.122 197.315 405.545 197.163 406.036 C 196.918 406.51 196.799 407.009 196.824 407.558 C 196.875 407.905 196.918 408.26 196.968 408.607 C 197.154 409.275 197.493 409.859 197.983 410.35 C 198.246 410.553 198.516 410.764 198.778 410.967 C 199.396 411.322 200.056 411.5 200.766 411.509 C 201.308 411.525 201.815 411.415 202.289 411.17 C 202.779 411.009 203.202 410.739 203.557 410.358 C 203.938 410.003 204.217 409.58 204.37 409.089 C 204.615 408.616 204.733 408.117 204.708 407.567 C 204.657 407.22 204.615 406.865 204.564 406.518 C 204.37 405.85 204.031 405.275 203.549 404.776 Z M 229.128 414.68 C 228.882 414.486 228.629 414.3 228.383 414.105 C 228.087 413.978 227.8 413.86 227.504 413.733 C 227.013 413.581 226.522 413.556 226.032 413.665 C 225.702 413.665 225.389 413.75 225.101 413.919 C 224.645 414.071 224.247 414.325 223.917 414.68 L 223.697 414.883 C 223.367 415.188 223.131 415.552 222.995 415.975 C 222.784 416.381 222.682 416.812 222.699 417.286 L 222.818 418.191 C 222.978 418.766 223.274 419.265 223.689 419.688 L 223.909 419.891 C 224.154 420.086 224.408 420.272 224.653 420.466 C 224.949 420.593 225.237 420.711 225.533 420.838 C 226.023 420.991 226.514 421.016 227.005 420.906 C 227.334 420.906 227.647 420.821 227.935 420.652 C 228.248 420.568 228.519 420.407 228.747 420.179 C 229.026 420.018 229.246 419.798 229.407 419.519 C 229.635 419.29 229.796 419.02 229.88 418.707 C 230.109 418.267 230.219 417.793 230.193 417.286 C 230.151 416.956 230.109 416.634 230.058 416.305 C 229.931 416.008 229.813 415.721 229.686 415.425 C 229.508 415.18 229.322 414.934 229.128 414.68 Z M 255.662 407.838 C 255.104 407.516 254.503 407.347 253.852 407.347 C 253.361 407.33 252.896 407.432 252.473 407.66 C 252.025 407.804 251.644 408.049 251.323 408.404 C 250.976 408.726 250.722 409.115 250.579 409.555 C 250.35 409.986 250.249 410.443 250.266 410.933 C 250.308 411.255 250.35 411.568 250.392 411.889 C 250.562 412.498 250.875 413.023 251.314 413.471 C 251.56 413.657 251.797 413.843 252.042 414.029 C 252.6 414.351 253.201 414.52 253.852 414.52 C 254.343 414.537 254.808 414.435 255.231 414.207 C 255.679 414.063 256.06 413.818 256.381 413.462 C 256.728 413.141 256.982 412.752 257.125 412.312 C 257.354 411.881 257.455 411.424 257.438 410.933 C 257.396 410.612 257.354 410.299 257.312 409.978 C 257.142 409.369 256.829 408.844 256.39 408.396 C 256.153 408.21 255.907 408.024 255.662 407.838 Z M 276.91 390.201 C 276.648 389.998 276.394 389.804 276.132 389.601 C 275.531 389.254 274.888 389.076 274.186 389.076 C 273.653 389.06 273.163 389.17 272.706 389.406 C 272.232 389.559 271.818 389.829 271.471 390.201 C 271.099 390.548 270.828 390.963 270.676 391.436 C 270.439 391.893 270.321 392.392 270.346 392.917 C 270.388 393.255 270.439 393.602 270.482 393.94 C 270.668 394.591 270.998 395.158 271.471 395.64 C 271.733 395.843 271.987 396.038 272.249 396.241 C 272.85 396.588 273.493 396.765 274.195 396.765 C 274.728 396.782 275.218 396.672 275.675 396.435 C 276.149 396.283 276.563 396.012 276.91 395.64 C 277.282 395.293 277.553 394.879 277.705 394.405 C 277.942 393.949 278.06 393.45 278.035 392.925 C 277.993 392.587 277.942 392.24 277.9 391.902 C 277.714 391.25 277.384 390.684 276.91 390.201 Z M 286.9 363.159 C 281.994 363.159 281.985 370.781 286.9 370.781 C 291.806 370.781 291.814 363.159 286.9 363.159 Z M 290.401 344.618 C 290.96 344.94 291.552 345.1 292.195 345.1 C 292.685 345.117 293.142 345.016 293.565 344.796 C 294.005 344.652 294.385 344.407 294.707 344.06 C 295.054 343.739 295.299 343.358 295.443 342.918 C 295.663 342.495 295.764 342.038 295.747 341.548 C 295.705 341.235 295.663 340.922 295.62 340.601 C 295.451 340 295.147 339.476 294.707 339.036 C 294.47 338.85 294.225 338.663 293.988 338.477 C 293.43 338.156 292.837 337.995 292.195 337.995 C 291.704 337.978 291.247 338.08 290.824 338.3 C 290.385 338.444 290.004 338.689 289.682 339.036 C 289.336 339.357 289.09 339.738 288.947 340.178 C 288.727 340.601 288.625 341.057 288.642 341.548 C 288.684 341.861 288.727 342.174 288.769 342.495 C 288.938 343.096 289.243 343.62 289.682 344.069 C 289.919 344.246 290.165 344.432 290.401 344.618 Z M 291.137 318.701 C 291.29 318.955 291.493 319.158 291.746 319.31 C 291.958 319.522 292.203 319.666 292.491 319.742 C 292.897 319.953 293.328 320.046 293.793 320.029 C 294.089 319.987 294.394 319.953 294.69 319.911 C 294.961 319.801 295.223 319.683 295.493 319.573 C 295.722 319.395 295.95 319.217 296.179 319.048 C 296.356 318.82 296.534 318.591 296.703 318.363 C 296.813 318.092 296.931 317.83 297.041 317.559 C 297.185 317.111 297.202 316.663 297.101 316.214 C 297.101 315.91 297.024 315.622 296.872 315.36 C 296.737 314.946 296.5 314.582 296.179 314.277 C 296.111 314.21 296.035 314.134 295.967 314.066 C 295.688 313.77 295.358 313.559 294.978 313.432 C 294.614 313.237 294.216 313.153 293.793 313.169 C 293.523 313.203 293.252 313.246 292.981 313.279 C 292.465 313.423 292.009 313.685 291.628 314.066 C 291.56 314.134 291.484 314.21 291.416 314.277 C 291.239 314.506 291.061 314.734 290.892 314.963 C 290.782 315.233 290.664 315.496 290.554 315.766 C 290.41 316.214 290.393 316.663 290.494 317.111 C 290.494 317.416 290.571 317.703 290.723 317.965 C 290.782 318.245 290.926 318.49 291.137 318.701 Z M 295.485 287.261 C 294.961 286.956 294.394 286.804 293.785 286.804 C 293.32 286.787 292.888 286.88 292.482 287.092 C 292.068 287.227 291.704 287.464 291.4 287.785 C 291.07 288.09 290.841 288.454 290.706 288.868 C 290.494 289.274 290.401 289.705 290.418 290.171 C 290.461 290.467 290.494 290.771 290.537 291.067 C 290.697 291.642 290.985 292.133 291.408 292.556 C 291.636 292.734 291.865 292.911 292.093 293.08 C 292.618 293.385 293.184 293.537 293.793 293.537 C 294.259 293.554 294.69 293.461 295.096 293.25 C 295.51 293.114 295.874 292.877 296.179 292.556 C 296.509 292.251 296.737 291.888 296.872 291.473 C 297.084 291.067 297.177 290.636 297.16 290.171 C 297.118 289.875 297.084 289.57 297.041 289.274 C 296.881 288.699 296.593 288.208 296.17 287.785 C 295.942 287.616 295.713 287.439 295.485 287.261 Z M 263.639 272.653 C 263.385 272.458 263.123 272.255 262.869 272.061 C 262.277 271.714 261.634 271.545 260.949 271.536 C 260.424 271.52 259.934 271.629 259.477 271.866 C 259.003 272.019 258.597 272.281 258.25 272.653 C 257.878 273 257.616 273.406 257.464 273.879 C 257.227 274.336 257.117 274.827 257.134 275.351 C 257.176 275.69 257.227 276.028 257.269 276.366 C 257.447 277.009 257.777 277.576 258.25 278.05 C 258.504 278.244 258.766 278.447 259.02 278.642 C 259.612 278.988 260.255 279.158 260.94 279.158 C 261.465 279.175 261.955 279.065 262.412 278.828 C 262.886 278.675 263.292 278.413 263.639 278.041 C 264.011 277.694 264.273 277.288 264.425 276.815 C 264.662 276.358 264.772 275.867 264.755 275.343 L 264.62 274.328 C 264.442 273.685 264.112 273.127 263.639 272.653 Z M 271.835 298.096 C 271.691 297.665 271.454 297.284 271.107 296.971 C 271.107 296.971 271.099 296.963 271.099 296.963 C 271.091 296.946 271.074 296.937 271.065 296.921 C 271.04 296.895 271.014 296.87 270.998 296.844 C 270.947 296.794 270.904 296.743 270.854 296.692 C 270.532 296.345 270.16 296.109 269.72 295.965 C 269.297 295.745 268.849 295.643 268.367 295.66 C 267.885 295.643 267.428 295.745 267.014 295.965 C 266.574 296.109 266.202 296.345 265.88 296.692 C 265.694 296.929 265.516 297.166 265.33 297.403 C 265.009 297.952 264.848 298.545 264.848 299.179 C 264.89 299.492 264.933 299.805 264.975 300.118 C 265.144 300.71 265.44 301.234 265.88 301.674 C 265.931 301.725 265.982 301.767 266.032 301.818 C 266.058 301.843 266.083 301.86 266.108 301.886 L 266.151 301.92 C 266.151 301.92 266.159 301.928 266.159 301.928 C 266.396 302.114 266.633 302.292 266.87 302.478 C 267.149 302.596 267.428 302.715 267.707 302.833 C 268.02 302.951 268.333 302.994 268.646 302.96 C 269.128 302.977 269.576 302.875 269.991 302.655 C 270.422 302.512 270.795 302.275 271.116 301.936 C 271.302 301.7 271.48 301.463 271.666 301.226 C 271.979 300.685 272.139 300.092 272.139 299.467 C 272.156 299.306 272.139 299.154 272.08 298.993 C 272.072 298.663 271.987 298.367 271.835 298.096 Z M 279.896 319.429 C 279.887 319.437 279.363 320.114 279.363 320.122 C 279.363 320.122 279.363 320.122 279.363 320.122 C 279.363 320.122 279.363 320.122 279.363 320.131 C 279.363 320.139 279.355 320.139 279.355 320.148 C 279.228 320.418 279.101 320.689 279.008 320.977 C 279.008 320.985 279.008 320.985 278.999 320.994 C 278.999 320.994 278.999 321.002 278.999 321.002 C 278.999 321.027 278.881 321.882 278.881 321.907 C 278.881 321.907 278.881 321.907 278.881 321.916 C 278.881 321.924 278.881 321.932 278.881 321.932 C 278.881 321.941 278.881 321.949 278.881 321.958 C 278.881 321.958 278.881 321.958 278.881 321.966 C 278.923 322.262 278.957 322.558 278.999 322.863 C 278.999 322.863 278.999 322.863 278.999 322.863 C 278.999 322.871 278.999 322.871 278.999 322.88 C 279.109 323.151 279.228 323.413 279.338 323.683 C 279.515 323.912 279.684 324.14 279.862 324.36 C 280.09 324.538 280.319 324.707 280.539 324.885 C 280.573 324.91 280.615 324.918 280.649 324.935 C 280.691 324.961 280.725 324.994 280.776 325.02 C 280.776 325.02 280.776 325.02 280.776 325.02 C 281.19 325.282 281.63 325.426 282.112 325.443 C 282.586 325.553 283.068 325.527 283.542 325.375 C 283.829 325.257 284.117 325.13 284.396 325.011 C 284.81 324.783 285.149 324.479 285.402 324.089 C 285.622 323.869 285.775 323.599 285.868 323.294 C 286.096 322.863 286.198 322.406 286.181 321.916 C 286.138 321.594 286.096 321.281 286.054 320.96 C 285.885 320.351 285.572 319.826 285.132 319.378 C 285.132 319.378 285.132 319.378 285.132 319.378 C 284.81 319.031 284.421 318.777 283.973 318.634 C 283.542 318.405 283.085 318.304 282.594 318.321 C 282.273 318.363 281.96 318.405 281.638 318.448 C 281.613 318.456 281.588 318.473 281.562 318.481 C 281.554 318.481 281.537 318.481 281.528 318.481 C 281.528 318.481 281.528 318.481 281.52 318.481 C 281.511 318.481 281.495 318.481 281.486 318.49 C 281.478 318.49 281.478 318.49 281.469 318.498 C 281.461 318.498 280.649 318.845 280.64 318.845 C 280.64 318.845 280.64 318.845 280.64 318.845 C 280.64 318.845 280.632 318.845 280.632 318.845 C 280.623 318.845 280.623 318.854 280.623 318.854 C 280.623 318.854 280.623 318.854 280.615 318.854 C 280.615 318.854 280.615 318.854 280.615 318.854 C 280.606 318.862 279.93 319.386 279.921 319.395 C 279.904 319.412 279.904 319.42 279.896 319.429 Z M 308.638 331.998 C 308.384 331.804 308.131 331.601 307.877 331.406 C 307.285 331.068 306.65 330.89 305.974 330.89 C 305.458 330.873 304.967 330.983 304.519 331.212 C 304.054 331.364 303.648 331.626 303.301 331.99 C 302.929 332.328 302.675 332.734 302.523 333.208 C 302.286 333.656 302.176 334.138 302.201 334.663 C 302.243 335.001 302.294 335.331 302.336 335.669 C 302.514 336.312 302.836 336.862 303.309 337.336 C 303.563 337.53 303.817 337.733 304.07 337.928 C 304.663 338.266 305.297 338.444 305.974 338.444 C 306.49 338.46 306.98 338.359 307.428 338.122 C 307.894 337.97 308.3 337.708 308.647 337.344 C 309.019 337.006 309.272 336.6 309.425 336.126 C 309.662 335.678 309.772 335.195 309.746 334.671 C 309.704 334.333 309.653 334.003 309.611 333.664 C 309.425 333.022 309.103 332.463 308.638 331.998 Z M 337.922 331.99 C 337.482 331.753 337 331.651 336.484 331.668 C 335.815 331.668 335.181 331.837 334.606 332.176 C 334.352 332.37 334.107 332.565 333.853 332.759 C 333.388 333.225 333.075 333.774 332.897 334.4 C 332.72 335.06 332.72 335.72 332.897 336.38 C 333.024 336.676 333.151 336.972 333.269 337.268 C 333.269 337.268 333.269 337.268 333.269 337.268 C 333.303 337.344 333.337 337.42 333.371 337.505 C 333.549 337.733 333.726 337.961 333.904 338.198 C 334.217 338.528 334.58 338.765 335.003 338.9 C 335.266 339.053 335.553 339.129 335.866 339.137 C 336.171 339.222 336.467 339.222 336.771 339.137 C 336.991 339.137 337.194 339.086 337.389 339.01 C 337.423 339.002 337.456 339.002 337.482 338.993 L 338.37 338.621 C 338.928 338.291 339.376 337.843 339.706 337.285 C 339.977 336.853 340.129 336.397 340.146 335.898 C 340.256 335.398 340.231 334.908 340.079 334.409 C 339.901 333.774 339.579 333.233 339.123 332.768 C 338.784 332.404 338.378 332.142 337.922 331.99 Z M 361.58 331.355 C 366.182 331.355 366.19 324.208 361.58 324.208 C 356.979 324.208 356.97 331.355 361.58 331.355 Z M 383.564 310.031 C 383.336 309.854 383.107 309.676 382.879 309.507 C 382.354 309.202 381.788 309.05 381.179 309.05 C 380.713 309.033 380.282 309.126 379.876 309.338 C 379.462 309.473 379.098 309.71 378.793 310.031 C 378.463 310.336 378.235 310.7 378.1 311.114 C 377.888 311.52 377.795 311.951 377.812 312.417 C 377.854 312.713 377.888 313.017 377.931 313.313 C 378.091 313.888 378.379 314.379 378.802 314.802 C 379.03 314.98 379.259 315.157 379.487 315.326 C 380.011 315.631 380.578 315.783 381.187 315.783 C 381.652 315.8 382.084 315.707 382.49 315.496 C 382.904 315.36 383.268 315.123 383.572 314.802 C 383.902 314.497 384.131 314.134 384.266 313.719 C 384.477 313.313 384.57 312.882 384.554 312.417 C 384.511 312.121 384.477 311.816 384.435 311.52 C 384.266 310.953 383.978 310.454 383.564 310.031 Z M 399.187 287.151 C 394.611 287.151 394.602 294.265 399.187 294.265 C 403.763 294.256 403.763 287.151 399.187 287.151 Z M 412.957 265.032 C 408.55 265.032 408.542 271.883 412.957 271.883 C 417.364 271.883 417.373 265.032 412.957 265.032 Z M 423.547 240.781 C 419.276 240.781 419.267 247.421 423.547 247.421 C 427.819 247.413 427.828 240.781 423.547 240.781 Z M 432.547 218.552 C 428.301 218.552 428.293 225.15 432.547 225.15 C 436.794 225.15 436.802 218.552 432.547 218.552 Z M 346.355 274.455 C 343.166 274.455 343.157 279.411 346.355 279.411 C 349.544 279.411 349.552 274.455 346.355 274.455 Z M 369.523 268.745 C 369.091 268.5 368.635 268.373 368.136 268.373 C 367.89 268.407 367.653 268.441 367.408 268.474 C 367.053 268.559 366.74 268.72 366.478 268.965 C 366.241 269.117 366.055 269.329 365.894 269.557 C 365.801 269.667 365.708 269.769 365.64 269.887 C 365.42 270.268 365.31 270.674 365.31 271.114 C 365.31 271.553 365.42 271.959 365.64 272.34 C 365.759 272.535 365.894 272.704 366.046 272.856 C 366.097 272.924 366.148 272.983 366.199 273.051 C 366.444 273.321 366.74 273.507 367.078 273.617 C 367.408 273.786 367.755 273.871 368.136 273.854 C 368.516 273.871 368.863 273.786 369.193 273.617 C 369.531 273.507 369.827 273.321 370.073 273.051 C 370.343 272.805 370.529 272.509 370.639 272.171 C 370.808 271.841 370.893 271.494 370.876 271.114 L 370.775 270.386 C 370.648 269.921 370.411 269.515 370.073 269.176 C 369.895 269.024 369.709 268.88 369.523 268.745 Z M 379.893 254.112 C 379.952 254.146 380.003 254.179 380.062 254.213 C 380.426 254.425 380.823 254.535 381.246 254.535 C 381.669 254.535 382.067 254.425 382.43 254.213 C 382.49 254.179 382.54 254.146 382.6 254.112 C 382.913 253.943 383.158 253.714 383.352 253.427 C 383.522 253.257 383.632 253.063 383.699 252.835 C 383.868 252.513 383.945 252.175 383.928 251.803 C 383.894 251.566 383.86 251.329 383.835 251.092 C 383.742 250.881 383.657 250.669 383.564 250.458 C 383.395 250.145 383.166 249.899 382.879 249.705 C 382.71 249.536 382.515 249.426 382.287 249.358 C 381.965 249.189 381.627 249.113 381.255 249.13 C 381.018 249.164 380.781 249.197 380.544 249.223 C 380.333 249.316 380.121 249.4 379.91 249.493 C 379.597 249.663 379.352 249.891 379.157 250.179 C 378.988 250.348 378.878 250.542 378.81 250.771 C 378.641 251.092 378.565 251.43 378.582 251.803 C 378.616 252.039 378.649 252.276 378.675 252.513 C 378.768 252.725 378.853 252.936 378.946 253.148 C 379.174 253.554 379.495 253.875 379.893 254.112 Z M 374.716 370.248 L 364.515 366.619 C 363.94 366.416 363.678 365.765 363.932 365.215 L 368.575 355.445 C 368.99 354.574 368.085 353.669 367.214 354.083 L 357.444 358.727 C 356.894 358.989 356.243 358.719 356.04 358.144 L 352.411 347.959 C 352.09 347.054 350.804 347.054 350.483 347.959 L 346.862 358.144 C 346.659 358.719 346.008 358.989 345.458 358.727 L 335.689 354.083 C 334.817 353.669 333.912 354.574 334.327 355.445 L 338.97 365.215 C 339.233 365.765 338.962 366.416 338.387 366.619 L 328.186 370.248 C 327.281 370.569 327.281 371.855 328.186 372.176 L 338.387 375.805 C 338.962 376.008 339.224 376.659 338.97 377.209 L 334.327 386.979 C 333.912 387.85 334.817 388.755 335.689 388.341 L 345.458 383.697 C 346.008 383.435 346.659 383.705 346.862 384.28 L 350.483 394.465 C 350.804 395.37 352.09 395.37 352.411 394.465 L 356.04 384.28 C 356.243 383.714 356.894 383.443 357.444 383.697 L 367.214 388.341 C 368.085 388.755 368.99 387.85 368.575 386.979 L 363.932 377.209 C 363.669 376.659 363.94 376.008 364.515 375.805 L 374.716 372.176 C 375.621 371.846 375.621 370.569 374.716 370.248 Z M 146.513 370.129 L 140.55 356.604 L 140.33 357.103 L 134.586 370.129 L 119.877 368.522 L 128.606 380.44 L 119.877 392.384 L 134.586 390.777 L 140.33 403.803 L 140.55 404.302 L 146.513 390.777 L 161.206 392.384 L 152.476 380.44 L 161.206 368.522 L 146.513 370.129 Z M 423.175 308.272 C 422.989 308.018 422.803 307.756 422.6 307.494 C 421.509 305.997 420.401 304.508 419.293 303.011 C 417.161 300.135 414.962 297.276 412.822 294.391 C 412.746 294.29 412.67 294.197 412.594 294.095 C 412.213 293.588 411.832 293.072 411.452 292.564 C 411.393 292.488 411.342 292.421 411.291 292.344 C 411.232 292.412 411.19 292.48 411.139 292.531 C 410.707 293.047 410.293 293.571 409.887 294.087 C 409.701 294.307 409.523 294.535 409.346 294.755 C 408.17 296.286 407.019 297.817 405.869 299.357 C 403.594 302.469 401.344 305.607 399.305 308.805 C 398.925 309.405 398.544 310.014 398.172 310.615 C 398.18 310.623 398.197 310.623 398.206 310.64 C 398.798 311.232 399.39 311.816 399.982 312.4 C 400.777 313.203 401.555 314.007 402.333 314.81 C 405.015 317.61 407.688 320.427 410.268 323.286 C 410.462 323.506 410.674 323.726 410.868 323.946 C 411.054 324.157 411.249 324.36 411.443 324.572 C 411.799 324.952 412.145 325.341 412.501 325.722 C 412.856 325.307 413.203 324.876 413.541 324.445 C 413.769 324.182 413.989 323.895 414.209 323.624 C 415.25 322.364 416.29 321.087 417.297 319.801 C 419.208 317.39 421.12 314.988 422.998 312.569 C 423.556 311.858 424.106 311.148 424.664 310.437 C 424.689 310.412 424.698 310.395 424.723 310.361 C 424.563 310.167 424.393 309.964 424.25 309.778 C 423.911 309.287 423.547 308.779 423.175 308.272 Z M 94.028 335.466 C 93.909 335.179 93.782 334.899 93.656 334.603 C 92.92 332.971 92.175 331.33 91.448 329.697 C 90.027 326.542 88.555 323.404 87.117 320.249 C 87.066 320.139 87.016 320.029 86.973 319.911 C 86.923 319.809 86.872 319.691 86.829 319.581 C 86.584 319.057 86.347 318.524 86.102 317.999 C 86.06 318.075 86.026 318.143 86.001 318.211 C 85.713 318.777 85.442 319.353 85.163 319.919 C 85.036 320.165 84.918 320.401 84.808 320.655 C 84.013 322.322 83.243 324.005 82.482 325.697 C 80.959 329.105 79.462 332.548 78.109 336.058 C 77.846 336.71 77.601 337.369 77.347 338.029 C 77.356 338.038 77.356 338.046 77.364 338.063 C 77.762 338.706 78.168 339.349 78.549 339.991 C 79.09 340.871 79.606 341.742 80.122 342.622 C 81.915 345.701 83.7 348.788 85.417 351.918 C 85.552 352.163 85.679 352.392 85.814 352.637 C 86.144 353.238 86.491 353.847 86.821 354.456 C 86.855 354.506 86.872 354.549 86.906 354.599 C 87.134 354.134 87.371 353.669 87.599 353.195 C 87.743 352.899 87.904 352.595 88.056 352.299 C 88.75 350.903 89.426 349.499 90.103 348.095 C 91.38 345.456 92.657 342.817 93.909 340.169 C 94.29 339.391 94.662 338.604 95.017 337.835 C 95.034 337.801 95.051 337.784 95.06 337.75 C 94.958 337.53 94.84 337.31 94.755 337.107 C 94.527 336.566 94.281 336.016 94.028 335.466 Z"/>
</svg>