<?xml version="1.0" encoding="utf-8"?>
<svg viewBox="0 0 500 500" xmlns="http://www.w3.org/2000/svg">
  <defs/>
  <path class="cls-1" d="M 421.215 158.62 C 418.937 158.121 417.215 157.787 415.66 157.287 C 405.385 154.455 394.998 151.733 384.5 149.733 C 382.056 149.161 379.645 148.461 377.279 147.623 C 370.492 145.434 363.571 143.69 356.561 142.402 L 354.506 141.957 C 352.873 141.718 351.518 140.58 351.007 139.013 C 350.007 136.681 349.007 134.403 348.174 132.015 C 346.002 126.571 344.153 121.006 342.62 115.352 C 341.214 109.531 339.259 103.859 336.788 98.411 C 335.604 95.739 334.655 92.967 333.955 90.135 C 332.622 85.413 331.566 80.692 330.4 75.971 C 329.956 74.027 330.4 73.249 332.233 73.027 C 339.12 72.083 346.063 71.361 352.951 70.416 C 359.838 69.472 366.837 70.028 373.724 69.639 C 376.946 69.639 380.112 69.639 383.334 69.639 L 397.497 69.139 L 418.326 67.917 C 420.087 67.578 421.748 68.85 421.881 70.639 C 421.964 71.744 421.964 72.86 421.881 73.971 C 421.881 79.526 421.881 85.08 421.881 90.634 C 421.881 92.412 421.881 94.189 422.27 96.189 C 422.27 99.633 422.603 103.132 422.714 106.576 C 422.825 110.019 422.714 112.963 422.714 116.185 C 422.714 123.128 422.714 130.126 422.714 137.069 C 422.77 137.897 422.77 138.736 422.714 139.569 C 421.87 144.89 421.626 150.294 421.992 155.677 C 421.853 156.682 421.592 157.671 421.215 158.62 Z M 334.344 77.359 C 336.065 83.358 337.399 89.079 339.509 94.523 C 340.509 97.244 341.898 100.077 342.897 102.576 C 344.841 107.798 346.458 113.141 347.73 118.573 C 348.896 123.517 350.896 128.293 352.229 133.292 C 352.99 137.253 356.417 140.146 360.449 140.235 C 364.998 140.807 369.481 141.813 373.835 143.235 C 377.724 144.346 381.667 145.345 385.555 146.234 C 388.555 146.956 391.554 147.401 394.553 148.123 L 415.16 153.399 C 415.938 153.399 416.716 153.399 417.826 153.733 C 417.826 146.623 417.826 139.847 418.16 133.07 C 418.493 126.294 418.16 119.406 418.16 112.63 C 418.16 105.854 418.16 98.966 418.16 92.134 C 418.16 85.302 419.104 78.581 418.16 71.861 L 416.604 71.861 C 411.605 72.138 406.606 72.472 401.608 72.694 C 396.753 73.166 391.876 73.388 386.999 73.36 C 381.856 73.083 376.702 73.083 371.558 73.36 C 362.56 73.86 353.506 74.582 344.508 75.36 C 341.048 75.582 337.632 76.254 334.344 77.359 Z" style="fill-rule: evenodd;"/>
  <path class="cls-1" d="M 145.494 363.8 C 148.043 368.966 150.304 374.265 152.27 379.686 C 152.992 381.797 153.603 383.907 154.436 385.962 C 155.269 388.018 156.491 391.128 157.547 393.683 C 157.908 394.588 158.319 395.477 158.769 396.349 C 159.13 396.771 159.413 397.266 159.602 397.793 C 160.79 401.909 162.312 405.919 164.156 409.791 C 165.49 413.29 166.545 416.901 167.656 420.455 C 168.156 422.066 168.489 423.677 168.878 425.343 C 169.105 426.143 169.272 426.96 169.378 427.787 C 169.711 429.254 168.55 430.637 167.045 430.564 C 164.823 430.564 162.601 431.009 160.379 431.009 C 143.716 431.009 127.053 432.675 110.779 433.508 C 103.558 433.841 96.337 434.508 89.116 434.119 C 87.172 434.119 85.228 434.119 83.284 434.119 C 81.062 434.375 79.091 432.686 79.007 430.453 C 78.896 429.342 78.896 428.226 79.007 427.121 C 79.007 422.122 79.007 417.123 79.007 412.124 C 79.007 404.181 78.396 396.238 78.341 388.351 C 78.341 382.796 78.73 377.242 78.841 372.076 C 78.841 368.188 78.841 364.3 78.841 360.412 C 78.841 356.524 78.507 354.025 78.396 350.803 C 78.108 348.803 78.696 346.776 80.007 345.249 C 85.906 346.893 91.71 348.853 97.392 351.136 C 110.201 356.207 123.57 359.735 137.218 361.634 L 140.05 362.245 L 145.494 363.8 Z M 83.34 350.414 C 82.423 351.864 82.107 353.619 82.451 355.302 C 82.451 359.19 83.007 363.078 83.007 366.966 C 83.007 377.242 83.007 387.518 83.007 397.849 C 83.007 408.18 83.007 417.345 83.007 427.065 C 82.768 428.382 83.068 429.742 83.84 430.842 C 84.467 430.875 85.101 430.875 85.728 430.842 L 96.837 430.842 C 98.781 430.842 100.725 430.842 102.391 430.842 C 108.335 430.509 114.333 429.953 120.277 429.676 C 126.22 429.398 133.385 429.231 139.884 428.843 C 146.382 428.454 153.214 427.954 159.88 427.509 L 164.823 426.843 C 164.973 426.238 165.067 425.627 165.101 425.01 C 164.656 423.066 164.101 421.233 163.712 419.456 C 161.468 412.301 158.796 405.292 155.714 398.46 C 154.214 394.183 152.492 389.906 150.659 385.685 C 148.826 381.463 147.771 377.575 146.271 373.576 C 145.544 371.243 144.438 369.044 142.994 367.077 L 128.608 363.8 C 124.942 362.967 121.221 362.356 117.499 361.523 C 112.489 360.384 107.568 358.879 102.78 357.024 C 97.226 354.858 91.671 352.969 86.117 351.025 C 85.339 350.748 84.395 350.636 83.34 350.414 Z" style="fill-rule: evenodd;"/>
  <path class="cls-1" d="M 1.079 258.878 C 1.634 257.156 3.134 256.767 4.301 256.211 C 6.095 255.423 7.633 254.151 8.744 252.546 C 9.827 251.09 11.099 249.779 12.521 248.657 C 15.487 246.341 18.042 243.542 20.075 240.381 C 22.169 237.41 24.807 234.86 27.851 232.883 C 28.762 232.272 29.618 231.589 30.406 230.828 C 34.694 226.251 38.738 221.446 42.515 216.442 C 42.648 216.197 42.82 215.97 43.015 215.775 C 46.458 211.998 49.847 208.11 53.457 204.667 C 55.957 202.056 59.011 199.779 61.511 197.39 C 64.01 195.002 65.51 195.724 67.065 198.112 C 67.732 199.168 68.232 200.334 68.787 201.445 L 79.396 222.33 C 81.34 226.162 83.34 229.995 85.228 233.827 C 87.644 238.698 90.533 243.331 93.838 247.658 C 95.787 249.729 97.015 252.379 97.337 255.212 C 95.782 257.489 94.226 259.433 93.004 261.599 C 88.978 268.276 85.562 275.302 82.784 282.595 C 80.674 288.149 77.952 293.704 75.73 299.258 C 73.508 304.813 71.898 310.034 70.176 315.421 C 69.82 316.788 69.565 318.182 69.398 319.587 C 68.415 320.393 66.993 320.393 66.01 319.587 C 64.671 318.726 63.388 317.782 62.177 316.755 C 58.123 313.2 54.012 309.589 50.013 305.923 C 46.014 302.258 43.459 299.758 39.96 296.648 C 33.794 291.093 27.462 285.539 21.297 279.984 C 16.798 275.707 12.188 271.319 7.855 266.765 L 2.801 261.766 C 2.351 261.233 1.957 260.655 1.634 260.044 C 1.429 259.661 1.246 259.272 1.079 258.878 Z M 5.689 259.6 C 6.189 260.433 6.3 260.877 6.578 261.099 C 11.299 265.654 15.965 270.264 20.797 274.652 C 29.462 282.539 38.238 290.204 46.958 298.036 C 51.624 302.202 56.179 306.423 60.844 310.645 C 62.383 312.178 64.099 313.516 65.954 314.644 C 67.621 313.644 67.732 311.978 68.232 310.589 C 69.843 306.146 71.453 301.702 73.175 297.259 C 74.897 292.815 76.786 288.816 78.396 284.539 C 80.801 277.857 83.834 271.425 87.45 265.321 C 89.672 261.655 91.671 257.878 93.838 254.212 C 92.988 252.812 92.044 251.474 91.005 250.213 C 88.483 247.413 86.372 244.269 84.728 240.881 C 79.174 230.328 73.62 219.608 68.065 208.999 L 63.955 201.056 C 60.022 203.161 56.501 205.966 53.568 209.332 C 49.347 213.776 45.625 218.664 41.626 223.329 C 40.238 224.996 38.738 226.718 37.238 228.328 L 26.129 239.826 C 24.019 241.992 21.852 244.158 19.631 246.213 C 15.354 250.49 10.577 254.989 5.689 259.6 Z" style="fill-rule: evenodd;"/>
  <path class="cls-1" d="M 191.651 437.452 C 197.683 435.269 203.537 432.614 209.147 429.509 C 219.156 424.282 228.804 418.4 238.03 411.902 C 242.563 408.691 247.356 405.869 252.361 403.459 C 253.188 403.17 254.049 402.965 254.916 402.848 C 255.527 406.125 257.97 407.458 260.47 408.402 C 266.469 411.291 272.634 413.957 278.522 417.012 C 285.159 420.217 291.986 423.016 298.962 425.399 C 300.406 425.954 301.85 426.51 303.183 427.121 C 307.943 429.381 312.887 431.242 317.958 432.675 C 319.647 432.964 320.385 434.969 319.291 436.285 C 319.208 436.385 319.113 436.474 319.013 436.563 C 316.02 440.473 312.776 444.184 309.293 447.672 C 301.378 456.831 292.919 465.513 283.965 473.667 C 279.688 477.999 275.522 482.554 271.301 486.997 C 267.08 491.441 264.025 494.607 260.192 498.439 C 259.815 498.834 259.403 499.206 258.97 499.55 C 258.165 500.15 257.054 500.15 256.249 499.55 L 255.638 498.995 C 251.039 494.157 246.14 489.613 240.974 485.386 C 235.864 480.887 230.976 476.111 225.977 471.5 C 224.416 470.112 222.767 468.834 221.034 467.668 C 215.712 463.613 210.647 459.236 205.87 454.559 C 201.76 450.838 197.483 447.228 193.206 443.451 C 191.601 442.29 190.734 440.362 190.929 438.396 C 191.151 438.063 191.395 437.752 191.651 437.452 Z M 196.316 440.785 C 197.872 442.284 199.094 443.617 200.482 444.784 C 204.037 447.894 207.703 450.894 211.258 454.004 C 213.146 455.67 214.868 457.448 216.812 459.114 C 221.867 463.613 227.588 467.39 232.309 472.389 C 235.919 476.222 240.196 479.388 244.029 482.998 C 247.861 486.608 252.749 490.774 256.804 494.996 C 257.221 495.368 257.665 495.701 258.137 495.995 C 260.392 494.29 262.425 492.313 264.191 490.108 C 268.968 484.831 273.467 479.388 278.466 474.278 C 284.354 467.946 291.13 461.836 297.518 455.615 C 298.851 454.337 300.295 453.226 301.461 451.893 C 303.683 449.227 306.072 446.728 308.516 444.228 C 311.004 441.807 313.154 439.057 314.903 436.063 C 314.514 435.674 314.348 435.23 314.014 435.063 C 310.46 433.508 306.905 431.953 303.294 430.509 L 283.854 422.955 C 283.315 422.788 282.793 422.566 282.299 422.288 C 274.078 417.623 265.358 414.068 256.86 409.958 C 255.249 409.18 253.527 408.569 251.638 407.847 C 250.278 408.297 248.956 408.874 247.695 409.569 C 243.529 412.29 239.419 415.123 235.197 417.9 C 230.976 420.678 226.699 423.455 222.2 426.176 C 215.09 430.176 207.814 433.953 200.593 437.841 C 199.021 438.591 197.583 439.585 196.316 440.785 Z" style="fill-rule: evenodd;"/>
  <path class="cls-1" d="M 307.627 64.64 C 307.582 65.901 306.766 67 305.572 67.417 C 302.311 68.578 299.195 70.128 296.296 72.027 C 292.963 74.082 289.742 76.249 286.409 78.248 C 283.36 80.203 280.166 81.931 276.855 83.414 C 272.978 85.091 269.257 87.119 265.747 89.468 C 263.747 90.69 261.636 91.745 259.637 93.023 C 257.015 94.578 254.488 96.305 252.083 98.188 C 250.483 99.838 247.978 100.199 245.973 99.077 C 241.585 97.022 237.086 95.134 232.642 93.189 L 227.699 90.912 C 223.144 88.857 218.534 86.802 213.924 84.913 C 208.37 82.636 202.537 80.47 196.816 78.248 C 192.739 76.437 188.868 74.204 185.263 71.583 C 183.541 70.416 183.597 69.139 185.263 67.417 C 186.93 65.695 187.096 65.306 188.04 64.307 C 191.651 60.641 194.65 56.419 197.927 52.476 C 199.538 50.143 201.593 47.254 203.815 44.588 C 209.369 38.201 214.924 31.924 220.478 25.537 C 223.533 22.093 226.366 18.483 229.31 14.983 C 229.704 14.4 230.132 13.845 230.587 13.317 C 234.475 9.318 238.308 5.319 242.196 1.375 C 244.084 -0.513 244.473 -0.402 246.195 1.375 C 251.027 5.708 255.027 10.318 259.359 14.595 C 261.192 16.316 263.247 17.761 264.913 19.371 C 266.041 20.193 267.113 21.082 268.135 22.037 C 274.356 27.925 280.133 33.924 286.187 39.645 C 293.185 46.255 298.851 54.086 305.572 60.918 C 306.605 61.929 307.321 63.223 307.627 64.64 Z M 244.196 4.597 C 243.746 4.663 243.312 4.813 242.918 5.041 C 239.919 8.263 236.642 11.262 233.753 14.761 C 230.865 18.26 227.81 22.149 224.811 25.87 C 222.978 28.147 220.978 30.314 219.256 32.48 L 207.647 45.144 C 205.204 47.977 202.871 50.698 200.371 53.753 C 197.205 57.419 194.817 61.64 191.206 64.862 C 189.818 66.195 188.707 67.75 187.429 69.194 C 190.823 71.833 194.561 73.999 198.538 75.638 C 202.093 76.86 205.703 77.915 209.203 79.359 C 217.423 82.747 225.533 86.358 233.753 89.857 C 238.502 92.129 243.401 94.078 248.417 95.689 L 254.471 92.079 C 258.97 89.301 263.414 86.524 267.913 83.747 C 270.823 81.559 274.017 79.787 277.411 78.47 C 279.783 77.687 282.027 76.56 284.076 75.138 C 285.02 74.582 285.854 73.86 286.853 73.305 L 301.017 65.64 C 301.661 65.24 302.272 64.795 302.85 64.307 L 298.129 58.752 C 294.907 54.92 291.797 51.031 288.353 47.366 C 283.41 41.811 278.355 36.923 273.19 31.813 C 269.524 28.203 265.802 24.648 262.081 21.371 C 258.743 18.638 255.549 15.728 252.527 12.651 C 249.805 9.929 246.973 7.263 244.196 4.597 Z" style="fill-rule: evenodd;"/>
  <path class="cls-1" d="M 75.453 170.063 C 74.514 169.39 73.942 168.324 73.897 167.174 C 72.953 158.343 72.842 149.4 72.064 140.569 C 71.453 133.626 72.064 126.683 71.731 119.74 C 71.398 112.797 71.065 105.243 71.065 98.022 C 71.065 93.134 70.676 88.302 70.398 83.469 C 70.398 82.136 70.398 80.637 71.898 79.692 C 76.125 81.453 80.751 82.047 85.284 81.414 C 94.449 81.414 103.613 80.97 113.056 80.581 C 119.555 80.581 126.109 79.859 132.607 79.47 L 136.773 79.47 L 154.325 79.081 C 155.714 78.998 157.102 78.998 158.491 79.081 C 159.552 79.12 160.263 80.198 159.88 81.192 C 158.935 84.08 157.936 86.746 156.825 89.801 C 155.019 94.617 153.531 99.555 152.381 104.576 C 151.792 106.837 151.07 109.058 150.215 111.241 C 148.687 116.007 147.465 120.867 146.549 125.794 C 145.494 130.515 144.161 135.236 143.05 139.958 C 142.594 142.179 140.95 143.973 138.773 144.623 C 134.107 146.345 129.441 148.178 124.72 149.844 C 115.566 153.06 106.596 156.771 97.837 160.953 C 91.06 164.175 83.951 166.508 77.008 169.563 C 76.519 169.807 75.997 169.979 75.453 170.063 Z M 77.674 165.452 C 79.124 165.136 80.557 164.73 81.951 164.23 C 89.727 160.898 97.67 157.843 105.169 153.844 C 107.257 152.727 109.429 151.783 111.667 151.011 L 138.106 141.957 C 138.467 141.774 138.801 141.546 139.106 141.291 C 140.272 137.236 141.661 133.292 142.439 129.238 C 143.938 121.573 145.438 113.907 147.604 106.409 C 149.004 100.71 150.859 95.139 153.159 89.746 C 154.347 87.679 155.108 85.391 155.38 83.025 C 153.575 82.514 151.687 82.364 149.826 82.581 L 134.385 82.969 C 131.608 82.969 128.83 82.969 125.998 83.247 L 103.78 84.525 C 98.226 84.802 93.227 84.858 87.894 85.024 L 83.84 85.024 C 80.746 84.686 77.624 84.797 74.564 85.358 C 74.286 85.858 74.064 86.08 74.064 86.358 C 74.064 89.801 74.064 93.301 74.064 96.744 C 74.825 104.77 75.08 112.841 74.842 120.906 C 74.842 122.017 74.842 123.128 74.842 124.239 C 74.842 126.627 74.842 128.96 74.842 131.348 C 74.842 132.848 74.842 134.403 74.842 135.903 C 74.842 139.347 75.508 142.79 75.619 146.29 C 75.825 152.716 76.513 159.12 77.674 165.452 Z" style="fill-rule: evenodd;"/>
  <path class="cls-1" d="M 361.56 356.691 L 381.001 349.692 C 386.999 347.47 392.887 345.026 398.941 342.916 C 402.33 341.749 405.662 340.361 408.939 338.861 C 412.155 337.556 415.438 336.423 418.771 335.473 L 426.713 332.973 C 428.102 332.529 429.268 332.973 428.88 334.418 C 428.296 336.995 428.296 339.666 428.88 342.249 C 428.907 342.671 428.907 343.099 428.88 343.527 C 429.324 353.802 430.49 364.023 430.213 374.354 C 430.213 383.13 430.602 391.906 431.157 400.626 C 431.546 406.625 431.935 412.568 432.268 418.567 C 432.268 421.733 432.268 423.399 427.602 423.344 C 419.687 422.899 411.75 422.899 403.829 423.344 C 399.275 423.844 394.665 423.955 390.054 424.066 C 386.866 424.099 383.678 423.971 380.501 423.677 C 372.558 423.066 364.615 423.677 356.672 423.677 C 353.951 423.677 351.118 423.677 348.341 423.677 C 345.564 423.677 345.452 422.399 345.73 420.289 C 345.702 419.878 345.702 419.472 345.73 419.067 C 348.002 411.602 349.857 404.014 351.285 396.349 C 352.507 391.239 354.006 386.185 355.228 381.019 C 356.117 377.242 356.783 373.41 357.45 369.577 C 357.839 367.411 358.172 365.189 358.394 362.967 C 358.616 360.745 360.894 358.857 361.56 356.691 Z M 424.325 337.472 C 423.825 337.472 423.547 337.139 423.325 337.472 C 418.954 338.345 414.699 339.744 410.661 341.638 C 407.19 343.382 403.607 344.904 399.941 346.193 L 393.609 348.359 C 387.222 350.748 380.834 353.136 374.446 355.413 C 370.569 356.68 366.842 358.374 363.338 360.468 C 362.421 364.128 361.699 367.833 361.171 371.577 C 360.477 376.398 359.438 381.169 358.061 385.851 C 356.895 390.684 355.395 395.516 354.173 400.348 C 352.951 405.181 351.507 411.457 350.229 417.012 C 350.229 417.734 350.229 418.567 350.229 419.622 C 352.395 419.622 354.339 420.011 356.228 420.011 C 361.005 420.011 365.726 420.011 370.447 420.011 C 376.724 420.011 383 420.011 389.221 420.455 L 392.609 420.455 C 398.553 420.455 404.551 420.011 410.495 419.955 C 416.438 419.9 421.603 419.955 427.158 419.955 C 428.002 419.894 428.835 419.767 429.657 419.567 C 429.657 418.789 429.657 418.289 429.657 417.734 C 429.102 410.124 428.658 402.459 428.047 394.85 C 427.447 386.918 427.263 378.964 427.491 371.021 C 427.491 367.3 427.102 363.523 426.88 359.912 C 426.547 355.08 426.158 350.192 425.769 345.36 C 425.653 342.671 425.169 340.022 424.325 337.472 Z" style="fill-rule: evenodd;"/>
  <path class="cls-1" d="M 498.921 245.214 C 497.977 246.158 497.254 246.991 496.421 247.713 C 491.533 251.935 486.896 256.439 482.535 261.21 C 478.314 265.598 474.093 270.042 469.982 274.597 C 465.872 279.151 461.151 284.539 456.763 289.593 C 452.375 294.648 449.431 298.314 445.654 302.646 C 444.354 304.068 442.943 305.39 441.433 306.59 C 439.989 307.756 438.6 307.256 437.767 305.535 C 436.434 302.757 435.101 299.98 433.712 297.259 C 433.418 296.786 433.173 296.281 432.99 295.759 C 431.99 291.971 430.085 288.483 427.436 285.594 C 426.769 284.65 426.214 283.706 425.658 282.762 C 422.653 277.19 419.259 271.847 415.494 266.765 C 412.439 262.988 409.439 259.1 406.44 255.323 C 404.518 253.129 403.079 250.551 402.219 247.769 C 401.83 246.724 401.83 245.586 402.219 244.547 C 403.718 240.659 405.273 236.771 406.829 232.883 C 407.123 232.266 407.384 231.633 407.606 230.994 C 409.178 226.223 411.261 221.641 413.827 217.331 C 418.06 209.488 422.709 201.884 427.769 194.557 C 428.763 193.041 429.618 191.441 430.324 189.781 C 430.918 188.342 432.001 187.165 433.379 186.448 C 434.617 186.554 435.773 187.131 436.6 188.059 C 444.488 194.891 452.43 201.612 460.207 208.555 C 464.372 212.276 468.205 216.331 472.149 220.219 C 473.537 221.607 474.981 222.941 476.425 224.218 L 495.699 241.492 C 496.843 242.664 497.921 243.908 498.921 245.214 Z M 494.977 244.658 C 493.422 243.381 492.033 242.325 490.7 241.159 C 486.979 237.993 483.368 234.771 479.591 231.661 C 473.626 226.851 468.055 221.58 462.928 215.886 C 462.201 215.037 461.406 214.259 460.54 213.554 C 452.836 206.922 445.082 200.351 437.267 193.835 C 436.056 192.636 434.567 191.752 432.934 191.28 C 431.157 194.391 429.657 197.557 427.38 200.39 C 423.503 206 419.993 211.865 416.882 217.942 C 413.611 222.963 411.156 228.473 409.606 234.272 C 409.511 234.683 409.339 235.077 409.106 235.438 C 407.379 238.793 406.04 242.331 405.107 245.991 C 405.662 247.158 406.107 247.991 406.495 248.88 C 406.745 249.796 407.079 250.685 407.495 251.546 C 408.828 253.601 410.272 255.656 411.772 257.711 C 415.16 262.266 418.771 266.709 421.992 271.431 C 425.214 276.152 428.769 281.04 431.546 285.816 C 432.768 287.705 433.934 289.649 435.045 291.371 L 439.877 300.091 C 440.25 300.547 440.677 300.958 441.155 301.313 C 441.744 300.908 442.299 300.463 442.821 299.98 C 446.098 296.425 449.431 292.815 452.653 289.205 L 470.427 269.209 C 477.659 260.899 485.474 253.123 493.811 245.936 C 494.255 245.519 494.644 245.053 494.977 244.547 L 494.977 244.658 Z" style="fill-rule: evenodd;"/>
  <path class="cls-1" d="M 347.674 85.469 C 349.207 84.108 351.179 83.336 353.229 83.303 C 358.783 83.303 364.337 82.692 369.892 82.358 L 391.554 81.136 C 392.387 81.136 393.22 81.136 394.054 81.136 C 397.747 81.486 401.469 81.486 405.162 81.136 C 406.268 80.998 407.39 80.998 408.495 81.136 C 408.989 81.242 409.473 81.392 409.939 81.581 C 409.939 81.97 410.383 82.192 410.383 82.469 C 410.383 85.802 410.828 89.135 410.939 92.467 C 410.939 102.354 411.272 112.241 410.939 122.128 C 410.717 125.027 410.717 127.943 410.939 130.848 C 410.989 134.781 410.6 138.713 409.773 142.568 C 408.945 142.696 408.101 142.696 407.273 142.568 C 402.385 141.568 397.497 140.402 392.609 139.402 C 387.721 138.402 383 137.736 378.279 136.625 C 374.213 135.725 370.092 135.075 365.948 134.681 C 363.371 134.498 361.166 132.759 360.394 130.293 C 356.678 121.278 353.651 111.991 351.34 102.521 C 350.174 96.966 348.841 91.968 347.563 86.691 C 347.574 86.28 347.613 85.869 347.674 85.469 Z M 351.229 87.135 C 351.201 87.574 351.201 88.024 351.229 88.468 C 351.229 89.579 351.729 90.69 352.007 91.745 C 352.284 92.801 352.84 94.411 353.118 95.745 C 355.284 106.081 358.289 116.224 362.116 126.072 C 362.504 126.96 362.727 127.905 363.171 128.793 C 363.838 130.348 365.315 131.398 367.004 131.515 C 369.092 131.715 371.169 132.031 373.224 132.459 C 376.779 133.07 380.279 133.792 383.833 134.514 C 389.388 135.625 394.942 136.736 400.497 137.958 C 402.818 138.641 405.246 138.908 407.662 138.736 C 407.662 136.847 407.662 135.236 407.662 133.57 C 407.662 124.516 407.662 115.463 407.662 106.465 C 407.662 100.077 407.662 93.634 407.329 87.246 C 407.573 86.019 407.123 84.758 406.162 83.969 C 388.332 83.969 370.336 85.191 352.284 86.58 C 351.829 86.691 351.401 86.874 351.007 87.135 L 351.229 87.135 Z" style="fill-rule: evenodd;"/>
  <path class="cls-1" d="M 89.95 363.412 C 92.266 362.578 94.799 362.578 97.115 363.412 C 105.135 366.15 113.317 368.394 121.61 370.132 C 124.998 370.854 128.442 371.354 131.885 371.743 C 133.957 371.854 136.034 371.854 138.106 371.743 C 138.567 372.393 138.939 373.104 139.217 373.854 C 141.606 383.185 144.772 392.183 148.16 401.182 C 149.826 405.903 151.326 410.68 152.881 415.456 C 152.887 415.584 152.887 415.712 152.881 415.845 C 153.159 417.012 153.825 418.289 152.881 419.456 C 151.937 420.622 150.659 420.122 149.437 420.011 C 148.315 419.983 147.199 420.094 146.105 420.344 L 138.662 421.233 L 124.554 422.677 C 118.738 423.205 112.895 423.371 107.057 423.177 L 95.504 422.788 L 93.282 422.788 C 91.116 422.788 90.283 422.011 89.838 419.9 C 89.577 418.806 89.483 417.684 89.561 416.567 C 90.061 407.847 90.116 399.071 90.005 390.295 L 89.95 376.131 C 89.95 372.521 89.95 368.91 89.95 365.022 C 89.922 364.484 89.922 363.945 89.95 363.412 Z M 92.782 366.244 C 92.616 367.177 92.505 368.122 92.449 369.077 C 92.449 373.354 92.449 377.686 92.727 381.963 C 93.365 393.616 93.365 405.297 92.727 416.956 C 92.804 417.8 92.971 418.639 93.227 419.456 L 97.559 419.456 C 99.781 419.456 102.003 419.789 104.224 419.844 C 109.057 419.844 113.945 420.178 118.721 419.844 C 125.387 419.344 131.941 418.067 138.606 417.678 C 141.239 417.395 143.838 416.895 146.382 416.178 C 147.338 415.834 148.249 415.39 149.104 414.845 C 148.382 412.457 147.66 410.235 146.938 408.013 C 145.216 402.848 143.439 397.738 141.661 392.628 C 141.106 390.906 140.439 389.24 139.939 387.518 C 138.884 384.185 137.995 380.852 136.94 377.52 C 136.329 375.409 136.107 375.354 134.107 375.187 C 132.108 375.02 129.719 374.854 127.497 374.465 C 123.943 373.854 120.443 373.021 116.888 372.299 C 112.228 371.493 107.651 370.249 103.225 368.577 C 101.569 367.888 99.859 367.327 98.115 366.911 C 96.337 366.183 94.399 365.955 92.505 366.244 L 92.782 366.244 Z" style="fill-rule: evenodd;"/>
  <path class="cls-1" d="M 84.728 257.767 C 82.507 262.543 80.729 266.543 78.785 270.542 C 75.453 277.263 72.009 283.928 68.732 290.704 C 66.904 293.648 65.232 296.686 63.733 299.814 C 63.733 300.48 62.566 300.869 61.9 301.48 C 61.172 301.019 60.467 300.519 59.789 299.98 C 58.817 298.98 57.756 298.069 56.623 297.259 C 53.268 294.809 50.158 292.037 47.347 288.982 C 43.459 285.372 40.293 281.151 36.683 277.318 C 35.972 276.546 35.211 275.824 34.405 275.152 L 17.742 260.377 C 17.742 259.655 17.742 258.822 17.742 257.989 C 17.759 256.428 18.725 255.039 20.186 254.49 C 23.447 252.845 26.385 250.624 28.851 247.935 C 34.961 241.27 41.293 234.827 47.292 228.106 C 50.219 225.334 52.913 222.324 55.346 219.108 C 56.19 217.992 57.201 217.02 58.345 216.22 C 59.111 215.242 60.65 215.464 61.105 216.62 C 61.111 216.631 61.117 216.647 61.122 216.664 C 62.122 218.441 63.066 220.33 64.01 222.218 C 65.732 225.551 67.288 228.995 69.12 232.272 C 70.953 235.549 72.287 237.16 73.786 239.659 L 84.728 257.767 Z M 21.408 258.433 C 22.963 260.044 24.13 261.433 25.407 262.655 C 26.685 263.877 28.795 265.543 30.462 267.043 C 33.739 270.042 37.072 272.986 40.238 276.096 C 43.404 279.207 45.792 282.095 48.347 285.039 C 49.68 286.483 51.124 287.76 52.457 289.205 C 55.079 291.96 58.095 294.32 61.4 296.203 C 62.1 295.498 62.716 294.715 63.233 293.87 C 64.899 290.815 66.399 287.705 68.01 284.594 C 71.176 278.429 74.508 272.375 77.174 265.932 C 77.508 265.154 77.841 264.432 78.23 263.71 C 79.118 261.988 80.007 260.266 81.007 258.155 C 78.23 253.212 75.453 248.213 72.731 243.547 C 68.809 237.771 65.282 231.739 62.177 225.496 C 61.666 224.351 61.05 223.252 60.345 222.218 C 60.011 221.719 59.345 221.441 58.9 221.052 C 46.403 233.438 34.683 246.436 21.408 258.433 Z" style="fill-rule: evenodd;"/>
  <path class="cls-1" d="M 257.748 484.609 C 256.843 484.164 255.971 483.665 255.138 483.109 C 250.694 479.332 246.417 475.333 241.863 472 C 237.308 468.668 231.976 462.613 226.81 458.17 C 224.033 455.837 221.256 453.726 218.312 451.449 C 216.701 450.116 215.09 448.783 213.535 447.339 C 212.347 446.417 211.541 445.089 211.258 443.617 C 211.686 442.368 212.641 441.373 213.868 440.896 C 217.757 438.968 221.472 436.719 224.977 434.175 C 227.588 432.342 230.532 430.787 233.031 429.009 L 244.14 421.233 C 246.695 419.511 249.194 417.845 251.805 416.234 C 252.422 415.956 253.133 415.956 253.749 416.234 C 256.637 418.456 260.359 418.345 263.414 419.955 C 267.968 422.344 272.745 424.288 277.355 426.454 C 284.076 429.62 290.13 433.786 296.463 437.563 C 298.295 438.618 298.573 439.563 297.74 441.34 C 297.301 442.351 296.701 443.29 295.963 444.117 C 289.242 451.56 282.576 459.059 275.745 466.335 C 271.69 470.723 267.357 474.889 263.192 479.165 C 261.47 480.665 259.692 482.609 257.748 484.609 Z M 252.194 419.844 C 249.361 421.733 246.639 423.233 244.473 424.899 C 242.307 426.565 239.974 428.176 237.641 429.676 C 235.308 431.175 232.642 432.675 230.198 434.286 C 227.754 435.897 225.644 437.507 223.311 439.007 C 220.978 440.507 218.534 442.062 215.924 443.728 C 217.523 445.811 219.39 447.683 221.478 449.283 C 227.066 453.415 232.254 458.064 236.975 463.169 C 237.264 463.491 237.58 463.785 237.919 464.057 L 252.361 477.277 C 253.188 478.038 254.077 478.727 255.027 479.332 C 255.693 479.749 256.404 480.099 257.137 480.387 C 262.297 476.072 267.13 471.373 271.579 466.335 C 279.355 458.003 286.687 449.227 294.185 440.673 C 294.219 440.523 294.219 440.373 294.185 440.229 C 294.185 440.229 294.185 440.229 294.185 439.618 C 290.208 436.735 286.031 434.136 281.688 431.842 L 276.855 429.342 C 274.928 428.232 272.923 427.265 270.857 426.454 C 268.513 425.61 266.247 424.566 264.08 423.344 C 261.292 421.466 257.998 420.478 254.638 420.511 C 253.877 420.439 253.138 420.211 252.472 419.844 L 252.194 419.844 Z" style="fill-rule: evenodd;"/>
  <path class="cls-1" d="M 244.862 16.816 C 246.101 17.644 247.273 18.577 248.361 19.594 C 251.805 22.404 254.971 25.548 257.804 28.98 C 259.048 30.469 260.42 31.847 261.914 33.091 C 264.858 36.09 267.469 39.09 270.69 42.033 C 271.968 43.311 273.412 44.422 274.8 45.588 L 289.131 58.308 C 289.647 58.874 290.108 59.485 290.519 60.141 C 290.519 61.863 289.02 62.307 288.02 62.918 C 285.759 64.251 283.426 65.529 281.021 66.75 C 272.523 71.138 264.747 76.86 256.526 81.747 C 254.138 83.192 251.861 84.802 249.583 86.413 C 248.484 87.257 247 87.407 245.751 86.802 C 241.463 85.147 237.336 83.097 233.42 80.692 C 229.365 78.193 225.199 76.026 220.978 73.916 C 216.757 71.805 213.702 70.527 209.869 68.75 C 208.347 68.045 206.881 67.223 205.481 66.306 C 203.759 65.14 203.648 63.807 204.759 61.974 C 204.937 61.596 205.181 61.257 205.481 60.974 C 209.292 56.769 212.819 52.315 216.035 47.643 C 219.756 43.311 223.533 39.09 227.532 35.035 C 229.532 32.98 231.476 30.813 233.42 28.647 L 242.029 18.927 C 242.929 18.16 243.873 17.455 244.862 16.816 Z M 209.092 63.696 C 209.525 64.14 210.008 64.529 210.536 64.862 C 213.091 66.251 215.701 67.584 218.312 68.861 C 222.839 70.661 227.177 72.916 231.254 75.582 C 235.975 79.137 241.696 80.637 246.473 83.858 C 248.028 83.025 249.472 82.414 250.75 81.581 C 255.082 78.859 259.359 76.026 263.692 73.249 C 268.168 70.189 272.806 67.373 277.578 64.806 L 283.91 61.529 C 284.576 61.141 285.187 60.641 286.02 60.085 C 283.987 57.525 281.699 55.181 279.188 53.087 C 276.967 51.198 274.689 49.365 272.412 47.532 C 266.469 42.867 262.136 36.701 256.582 31.702 C 253.271 27.87 249.544 24.426 245.473 21.426 C 245.084 21.371 244.695 21.371 244.307 21.426 C 243.529 22.26 242.529 23.204 241.64 24.204 C 236.475 30.036 231.476 36.035 226.144 41.7 C 221.8 46.377 217.74 51.309 213.98 56.475 C 212.147 58.641 210.814 61.252 209.092 63.696 Z" style="fill-rule: evenodd;"/>
  <path class="cls-1" d="M 85.895 150.844 L 85.895 150.511 C 84.706 144.546 83.873 138.519 83.395 132.459 C 82.534 124.988 82.312 117.462 82.729 109.964 C 82.729 104.798 82.729 99.688 82.729 94.523 C 82.929 93.556 83.206 92.606 83.562 91.69 C 84.562 91.69 85.339 91.69 86.117 91.69 C 89.177 91.845 92.238 91.751 95.282 91.412 C 96.948 91.273 98.62 91.273 100.281 91.412 L 113.556 91.412 L 121.054 91.412 C 122.887 91.412 124.665 91.412 126.609 91.412 C 129.925 91.762 133.274 91.495 136.495 90.634 C 137.051 90.579 137.606 90.579 138.162 90.634 C 139.167 90.662 139.945 91.518 139.884 92.523 C 139.884 94.189 139.384 95.856 139.106 97.466 C 137.995 103.354 136.495 109.131 135.662 115.074 C 134.829 121.017 133.441 126.516 132.219 132.181 C 130.997 137.847 130.774 137.736 125.664 139.069 C 120.554 140.402 116.277 141.568 111.612 142.957 C 106.946 144.346 101.003 146.29 95.726 148.012 C 94.971 148.339 94.26 148.767 93.615 149.289 C 91.249 150.544 88.566 151.083 85.895 150.844 Z M 89.116 146.623 C 93.116 145.234 96.504 144.012 99.892 142.901 C 103.28 141.791 107.279 140.458 111.001 139.347 C 114.722 138.236 119.999 136.458 124.554 135.292 C 126.675 134.981 128.331 133.303 128.608 131.182 C 129.886 124.239 131.219 117.24 132.496 110.297 C 132.885 108.242 133.274 106.242 133.718 104.187 C 134.618 100.888 135.268 97.527 135.662 94.134 L 127.331 94.134 C 117.999 94.134 108.723 94.134 99.559 94.134 C 95.782 94.134 92.116 94.8 88.45 94.856 C 87.617 94.806 86.784 94.806 85.95 94.856 C 85.95 96.744 85.95 98.411 85.95 100.021 C 86.395 111.852 85.95 123.683 87.228 135.459 C 87.628 139.213 88.255 142.94 89.116 146.623 Z" style="fill-rule: evenodd;"/>
  <path class="cls-1" d="M 418.326 412.568 C 415.699 412.735 413.066 412.735 410.439 412.568 C 403.79 411.929 397.092 411.929 390.443 412.568 C 389.61 412.646 388.777 412.646 387.944 412.568 C 382 411.624 376.002 412.235 370.058 411.846 C 368.803 411.763 367.542 411.763 366.281 411.846 C 364.954 411.952 363.843 410.841 363.949 409.513 C 363.999 408.536 364.126 407.575 364.337 406.625 C 365.448 401.626 366.448 396.571 367.837 391.572 C 369.464 385.818 370.547 379.919 371.058 373.965 C 371.058 370.521 371.836 367.077 372.225 363.412 L 380.445 360.523 C 385.111 358.746 389.888 357.135 394.442 354.969 C 400.847 352.281 407.462 350.125 414.216 348.526 C 416.105 348.026 416.66 348.526 416.882 350.581 C 416.854 350.853 416.854 351.136 416.882 351.414 C 418.176 359.623 418.865 367.922 418.937 376.242 C 418.937 378.742 419.437 381.241 419.493 383.741 C 419.493 389.295 419.493 394.294 419.493 399.571 C 419.493 401.959 419.493 404.292 419.493 406.68 C 419.859 408.719 419.443 410.818 418.326 412.568 Z M 367.67 407.958 C 369.12 408.586 370.708 408.836 372.28 408.68 C 378.946 408.68 385.666 408.68 392.332 408.68 L 415.216 408.68 C 415.932 408.641 416.643 408.508 417.327 408.291 L 417.327 406.069 C 417.327 401.07 417.327 396.072 417.327 391.017 C 417.327 388.962 417.327 386.851 417.327 384.796 C 416.827 378.02 416.271 371.188 415.771 364.411 C 415.771 361.134 415.327 357.802 414.938 354.469 C 414.733 353.686 414.416 352.936 413.994 352.247 C 413.233 352.297 412.472 352.386 411.717 352.525 C 406.718 353.714 401.83 355.33 397.108 357.357 C 394.498 358.635 391.887 360.023 389.166 361.079 C 385.333 362.578 381.389 363.911 377.39 365.189 C 376.013 365.533 375.035 366.761 375.002 368.188 C 374.669 370.799 374.335 373.41 374.113 376.076 C 373.963 379.819 373.424 383.546 372.502 387.184 C 371.669 390.239 370.836 393.35 370.058 396.46 C 368.986 400.226 368.187 404.07 367.67 407.958 Z" style="fill-rule: evenodd;"/>
  <path class="cls-1" d="M 443.932 286.705 C 442.738 286.344 441.749 285.494 441.21 284.372 C 437.861 278.512 434.034 272.941 429.768 267.709 C 425.158 261.821 419.937 256.323 415.049 250.657 C 414.472 250.068 413.972 249.418 413.55 248.713 C 412.961 247.624 412.194 246.647 411.272 245.825 C 413.838 237.982 417.421 230.511 421.937 223.607 C 424.492 219.83 427.491 216.331 430.268 212.498 C 431.435 210.943 432.601 209.388 433.823 207.888 C 434.412 207.11 435.062 206.388 435.767 205.722 C 436.884 204.561 438.733 204.533 439.877 205.666 C 443.471 207.744 446.793 210.26 449.764 213.165 C 455.819 218.719 461.928 223.774 467.872 229.217 C 470.371 231.439 472.482 234.049 474.87 236.382 C 477.259 238.715 478.869 240.27 480.869 242.214 C 481.474 242.764 482.002 243.397 482.424 244.103 C 483.418 245.414 483.057 247.302 481.647 248.158 C 477.87 251.601 473.926 254.934 470.204 258.489 C 463.261 264.776 456.835 271.608 450.986 278.929 C 449.487 280.929 447.931 282.873 446.265 284.761 C 445.571 285.5 444.788 286.155 443.932 286.705 Z M 479.203 245.491 C 477.092 243.381 475.203 241.714 473.648 239.937 C 469.544 235.021 464.861 230.622 459.707 226.829 C 459.707 226.829 459.707 226.829 459.429 226.551 C 454.18 221.241 448.615 216.247 442.766 211.61 C 441.955 210.837 441.21 210.004 440.544 209.11 L 439.1 207.721 C 438.561 208.077 438.078 208.505 437.656 208.999 L 428.769 220.663 C 424.342 226.401 420.609 232.644 417.66 239.27 C 416.771 241.442 416.01 243.67 415.382 245.936 C 418.704 248.374 421.642 251.296 424.103 254.601 C 426.436 257.489 428.769 260.155 431.046 263.432 L 441.599 277.429 C 442.377 278.54 442.877 279.929 444.488 280.54 C 445.154 279.929 445.932 279.318 446.543 278.651 C 450.042 274.708 453.486 270.653 457.041 266.765 C 461.312 261.821 465.994 257.25 471.038 253.101 C 473.759 250.879 476.259 248.269 479.203 245.491 Z" style="fill-rule: evenodd;"/>
  <path class="cls-1" d="M 434.656 321.587 C 431.324 322.864 428.38 324.253 425.325 325.142 C 420.159 326.697 414.994 328.419 409.939 330.696 C 403.329 333.251 396.553 335.306 389.832 337.639 C 383.111 339.972 375.28 342.527 368.114 345.082 C 364.837 346.248 361.671 347.804 358.505 349.137 C 357.45 349.564 356.722 350.553 356.617 351.692 C 355.173 361.879 352.89 371.926 349.785 381.741 C 349.229 383.574 348.952 385.574 348.341 387.296 L 342.786 403.959 C 342.009 406.181 341.398 408.513 340.565 410.68 C 338.343 416.567 336.01 422.399 333.677 428.176 C 333.322 429.498 331.794 430.109 330.622 429.398 C 326.567 427.621 322.457 425.899 318.402 423.844 C 315.003 422.238 311.521 420.828 307.96 419.622 C 302.406 417.678 297.296 415.512 292.075 413.29 C 284.632 410.124 277.3 406.847 269.857 403.514 C 266.58 402.07 263.358 400.404 260.081 398.849 L 256.193 397.293 C 254.505 396.577 252.56 396.855 251.139 398.016 C 247.584 400.459 243.751 402.404 240.03 404.681 C 231.698 409.846 222.922 414.012 214.313 418.622 C 212.591 419.511 210.702 420.122 208.758 421.011 C 202.926 423.955 197.15 427.01 191.373 430.009 L 189.096 431.12 C 186.063 432.136 183.303 433.847 181.042 436.119 C 180.192 436.958 178.765 436.702 178.265 435.619 C 178.031 435.258 177.859 434.864 177.765 434.452 C 176.765 428.898 174.321 424.177 172.877 418.956 C 171.433 413.735 169.6 408.624 167.767 403.514 C 165.323 396.682 162.768 389.906 160.157 383.185 C 157.547 376.464 154.603 368.91 151.659 361.856 C 151.109 360.557 150.476 359.296 149.771 358.079 C 143.716 356.802 137.94 354.913 132.108 353.136 C 127.164 351.636 122.165 350.414 117.222 349.026 C 113.833 348.081 110.501 347.137 107.224 346.026 C 99.003 343.305 90.838 340.472 82.673 337.695 C 79.618 336.695 76.619 335.64 73.62 334.529 C 72.348 334.179 71.631 332.829 72.064 331.585 C 72.153 331.157 72.303 330.746 72.509 330.363 C 76.908 322.476 80.574 314.199 83.451 305.646 C 84.756 302.263 86.261 298.964 87.95 295.759 C 89.888 292.054 91.488 288.188 92.727 284.206 C 96.104 275.196 100.603 266.648 106.113 258.766 C 106.668 258.044 107.263 257.361 107.89 256.711 L 102.891 248.491 C 100.558 244.714 98.059 240.992 95.948 237.049 C 88.544 223.346 81.246 209.554 74.064 195.668 C 72.125 191.686 70.404 187.609 68.898 183.449 C 67.843 180.838 68.343 180.06 71.009 179.172 C 77.063 177.117 83.173 175.173 89.227 173.006 C 91.838 172.118 94.338 170.785 96.893 169.729 C 108.557 164.841 120.499 160.564 132.552 156.732 C 137.162 155.232 141.661 153.233 146.216 151.566 C 147.71 151.122 148.832 149.878 149.104 148.345 C 149.771 144.957 150.715 141.568 151.381 138.18 C 152.392 133.248 153.825 128.421 155.658 123.739 C 157.447 119.062 158.935 114.274 160.102 109.408 C 162.001 101.549 164.318 93.8 167.045 86.191 C 168.211 82.803 169.267 79.303 170.377 75.86 C 170.377 75.193 170.933 74.582 171.099 74.082 C 172.533 73.016 174.499 73.016 175.932 74.082 C 176.709 74.638 177.654 74.971 178.431 75.582 C 182.714 78.498 187.185 81.136 191.817 83.469 C 199.76 87.802 208.147 91.245 216.368 94.967 C 221.384 97.044 226.277 99.399 231.032 102.021 C 234.225 103.721 237.552 105.17 240.974 106.353 L 244.418 107.798 C 246.862 108.92 249.694 108.792 252.027 107.464 C 262.281 102.127 272.223 96.211 281.799 89.746 C 283.593 88.585 285.448 87.53 287.353 86.58 C 288.186 86.08 289.131 85.747 289.908 85.191 C 298.295 79.192 307.571 74.582 316.236 69.028 C 317.236 68.422 318.28 67.884 319.347 67.417 C 320.902 67.917 321.069 69.139 321.291 70.194 C 322.624 75.304 323.846 80.47 325.123 85.58 C 326.573 91.523 328.561 97.322 331.067 102.91 C 331.677 104.187 332.122 105.52 332.622 106.798 C 334.788 112.852 337.343 118.74 339.065 124.905 C 340.787 131.071 343.786 136.458 346.063 142.29 C 347.052 144.401 348.185 146.44 349.452 148.4 C 362.116 151.622 374.446 155.677 387.111 158.454 C 391.721 159.509 396.22 161.064 400.774 162.231 C 409.717 164.453 418.326 167.785 427.102 170.451 L 428.269 170.896 C 429.246 171.235 429.752 172.312 429.38 173.284 C 429.046 174.212 428.619 175.106 428.102 175.95 C 425.436 180.505 422.548 184.948 420.048 189.559 C 416.882 195.113 414.049 201.223 411.106 207.055 C 408.995 211.276 406.884 215.498 404.829 219.774 C 402.774 224.051 400.274 229.606 398.053 234.549 C 396.886 237.104 395.886 239.659 394.887 242.27 C 394.276 243.936 393.72 245.658 393.276 246.991 L 396.942 252.546 C 399.33 255.934 401.608 259.489 404.163 262.766 C 407.556 267.359 410.656 272.164 413.438 277.152 C 416.771 283.428 420.104 288.982 423.214 295.203 C 425.825 300.313 428.047 305.535 430.379 310.756 C 431.657 313.533 432.879 316.31 434.045 319.198 C 434.312 319.976 434.517 320.776 434.656 321.587 Z M 425.325 173.506 C 424.842 173.145 424.32 172.851 423.77 172.618 C 414.549 169.396 405.218 166.619 395.998 164.175 L 370.503 157.787 L 354.395 153.51 C 351.918 153.049 349.535 152.188 347.341 150.955 C 346.119 150.261 345.164 149.189 344.619 147.9 C 342.675 143.29 340.62 138.736 338.676 134.125 C 335.899 127.571 333.122 121.073 330.955 114.296 C 329.234 108.742 327.067 103.576 325.401 98.133 C 324.068 94.078 322.902 89.912 321.846 85.691 C 320.791 81.47 320.18 77.804 319.291 73.916 C 319.069 73.221 318.752 72.571 318.347 71.972 C 316.458 73.083 314.848 74.138 313.126 75.082 C 305.916 78.731 298.973 82.886 292.352 87.524 C 291.352 88.246 290.186 88.746 289.075 89.412 L 282.354 93.523 C 280.91 94.411 279.577 95.356 278.133 96.189 C 269.968 101.021 261.47 105.742 253.638 110.575 C 250.472 112.702 246.417 112.997 242.974 111.352 C 241.585 110.686 240.085 110.297 238.641 109.742 C 235.697 108.52 232.587 107.631 229.754 106.131 C 221.756 101.854 213.091 98.411 205.092 95.022 C 195.678 90.851 186.646 85.869 178.098 80.137 C 177.032 79.098 175.637 78.47 174.154 78.359 C 173.782 78.87 173.482 79.431 173.266 80.026 C 170.672 88.801 168.083 97.611 165.49 106.465 C 163.823 112.019 162.379 118.018 160.491 123.683 C 158.435 128.871 156.819 134.22 155.658 139.68 C 155.519 140.502 155.281 141.302 154.936 142.068 C 153.575 144.562 152.709 147.295 152.381 150.122 C 152.331 151.822 151.32 153.349 149.771 154.066 C 149.037 154.471 148.276 154.827 147.493 155.121 L 130.219 161.231 C 126.72 162.453 123.165 163.73 119.555 164.897 C 111.056 167.563 102.891 171.173 94.615 174.451 C 92.782 175.173 91.005 175.95 89.061 176.561 C 84.062 178.283 79.007 179.838 73.953 181.505 C 73.32 181.771 72.709 182.088 72.12 182.449 L 73.175 185.393 C 76.08 191.869 79.329 198.19 82.895 204.333 C 85.728 209.888 88.45 215.442 91.338 220.663 C 92.116 222.107 92.838 223.663 93.615 225.107 C 96.17 229.772 98.781 234.383 101.225 239.048 C 102.419 241.398 103.813 243.647 105.391 245.769 C 107.385 248.557 109.24 251.451 110.945 254.434 C 111.245 254.995 111.49 255.595 111.667 256.211 C 110.723 257.656 109.834 258.878 109.112 260.155 C 108.39 261.433 107.446 263.71 106.391 265.321 C 102.641 271.347 99.409 277.685 96.726 284.261 C 94.782 288.871 92.838 293.482 90.838 298.036 C 89.838 300.202 88.672 302.258 87.728 304.424 C 86.395 307.479 85.284 310.645 83.895 313.7 C 81.729 318.532 79.341 323.253 77.119 328.03 C 76.619 329.141 75.73 330.196 76.341 331.696 C 76.797 331.951 77.28 332.157 77.785 332.307 L 91.949 335.973 C 92.893 336.206 93.821 336.506 94.726 336.861 C 103.997 340.677 113.617 343.593 123.443 345.582 C 123.993 345.632 124.531 345.743 125.053 345.915 L 139.939 350.636 L 144.383 351.914 C 146.605 352.525 149.16 352.358 150.659 354.691 C 150.659 354.691 151.159 354.691 151.437 354.969 C 153.436 354.969 153.992 356.635 154.603 358.302 C 156.114 362.645 157.858 366.911 159.824 371.077 C 162.979 377.742 165.651 384.629 167.822 391.684 C 168.322 393.128 168.878 394.572 169.433 395.96 C 171.599 401.515 173.988 407.069 175.987 413.179 C 177.598 417.9 178.765 422.788 180.209 427.565 C 180.486 428.62 180.653 429.787 182.042 430.342 C 185.519 429.042 188.851 427.382 191.984 425.399 C 199.427 420.733 207.203 416.678 215.035 412.679 C 217.645 411.346 220.2 409.958 222.867 408.736 C 227.305 406.725 231.593 404.409 235.697 401.793 C 239.585 399.349 243.529 396.96 247.473 394.572 C 248.028 394.172 248.683 393.939 249.361 393.905 C 250.583 394.061 251.827 393.905 252.971 393.461 C 253.899 393.183 254.882 393.183 255.804 393.461 C 256.86 393.794 257.804 394.405 258.859 394.85 C 265.802 398.071 272.745 401.293 279.744 404.403 C 283.798 406.236 287.909 407.902 292.019 409.958 C 298.557 412.968 305.272 415.584 312.126 417.789 C 313.837 418.406 315.503 419.128 317.125 419.955 L 328.234 425.121 C 329.034 425.427 329.85 425.688 330.678 425.899 C 331.122 424.954 331.566 424.288 331.844 423.51 C 333.288 419.622 334.732 415.679 336.121 411.735 C 336.843 409.513 337.343 407.18 338.121 404.959 C 339.62 400.459 341.342 396.072 342.786 391.517 C 346.141 381.469 348.885 371.227 351.007 360.857 C 351.623 358.002 352.384 355.185 353.284 352.414 C 353.951 350.303 354.839 348.304 355.784 345.804 C 380.612 336.861 405.773 328.585 431.157 319.532 C 430.713 318.421 430.435 317.477 430.046 316.643 C 428.38 313.255 426.658 309.923 424.936 306.59 C 423.214 303.257 421.492 299.591 419.382 296.148 C 416.382 290.593 413.327 285.039 410.161 279.484 C 408.051 275.763 405.884 271.986 403.496 268.376 C 399.663 262.821 395.553 257.267 391.665 251.212 C 389.743 248.885 389.543 245.586 391.165 243.047 C 391.61 242.181 391.998 241.292 392.332 240.381 C 394.498 235.382 396.442 230.328 398.775 225.44 C 402.219 217.997 405.884 210.61 409.495 203.222 C 411.939 198.223 414.272 193.169 416.882 188.281 C 419.493 183.393 421.659 180.116 424.047 176.006 C 424.536 175.206 424.964 174.367 425.325 173.506 Z" style="fill-rule: evenodd;"/>
  <path class="cls-1" d="M 313.903 80.581 C 315.259 81.997 316.136 83.803 316.403 85.747 C 319.019 96.689 322.302 107.47 326.234 118.018 C 328.012 122.517 329.456 127.182 331.789 131.515 L 332.122 132.293 C 333.066 134.903 332.4 135.57 329.067 135.181 C 325.956 127.016 322.679 118.795 319.68 110.408 C 316.681 102.021 315.403 93.745 312.737 84.913 C 311.693 85.252 310.676 85.663 309.682 86.135 L 299.129 92.023 L 296.629 93.523 L 285.909 100.132 C 283.465 101.743 281.077 103.41 278.688 105.131 C 275.3 107.52 271.912 110.019 268.579 112.463 C 267.246 113.463 266.247 112.797 265.302 111.908 C 264.975 110.936 265.369 109.875 266.247 109.353 L 269.357 107.242 C 272.256 105.609 275.022 103.748 277.633 101.688 C 279.36 100.266 281.221 99.022 283.187 97.966 C 292.075 92.817 301 87.691 309.96 82.581 C 311.182 81.858 312.459 81.303 313.903 80.581 Z" style="fill-rule: evenodd;"/>
  <path class="cls-1" d="M 232.809 392.739 C 234.753 395.016 234.809 395.794 232.809 397.182 C 230.809 398.571 227.255 400.959 224.033 402.737 C 220.811 404.514 216.201 407.014 212.48 409.402 C 208.053 412.029 203.432 414.312 198.649 416.234 C 196.483 417.178 194.372 418.234 192.262 419.233 C 190.034 420.489 187.485 421.066 184.93 420.9 C 183.419 417.667 182.153 414.323 181.153 410.902 C 179.653 406.236 178.32 401.57 176.876 396.96 C 176.543 395.905 176.043 394.905 175.599 393.85 C 173.871 390.25 172.388 386.535 171.155 382.741 C 170.044 378.908 168.267 375.187 166.823 371.632 C 166.389 370.605 166.034 369.544 165.767 368.466 C 165.623 367.733 166.056 367.011 166.767 366.8 C 167.506 366.378 168.439 366.544 168.989 367.189 C 169.4 367.755 169.733 368.366 169.989 369.022 C 171.433 372.632 172.821 376.298 174.21 380.13 C 175.599 383.963 177.543 388.073 178.931 392.183 C 181.486 399.404 183.819 406.68 186.207 413.901 C 186.396 415.24 187.068 416.462 188.096 417.345 C 203.754 410.585 218.723 402.348 232.809 392.739 Z" style="fill-rule: evenodd;"/>
  <path class="cls-1" d="M 89.95 325.308 C 90.827 325.764 91.738 326.153 92.671 326.475 C 99.059 328.363 105.502 330.141 111.945 332.029 L 112.723 332.029 C 119.149 333.407 125.459 335.262 131.608 337.584 C 132.935 337.933 134.296 338.178 135.662 338.306 C 137.44 338.694 139.217 338.972 140.939 339.472 C 142.067 339.872 142.333 341.344 141.417 342.122 C 141.389 342.144 141.361 342.166 141.328 342.194 C 140.511 342.96 139.323 343.199 138.273 342.805 C 135.051 341.972 131.774 341.194 128.553 340.305 L 113.722 336.139 L 110.501 335.14 L 100.17 332.029 L 89.061 328.919 C 88.155 328.613 87.267 328.258 86.395 327.863 C 85.75 326.564 85.75 325.047 86.395 323.753 C 87.394 321.753 88.394 319.809 89.283 317.754 C 91.171 313.533 93.004 309.367 94.837 305.09 C 96.604 300.391 98.626 295.792 100.892 291.315 C 101.447 290.204 101.947 289.038 102.447 287.927 L 108.668 274.263 C 108.829 273.741 109.073 273.258 109.39 272.819 C 109.734 272.408 110.245 272.186 110.779 272.208 C 111.351 272.569 111.823 273.064 112.167 273.652 C 112.167 273.652 112.167 274.152 112.167 274.43 C 111.167 276.874 110.223 279.318 109.168 281.706 C 108.112 284.095 106.391 287.816 105.002 290.815 C 103.169 294.759 101.281 298.592 99.448 302.535 C 97.615 306.479 95.559 312.033 93.504 316.755 C 92.727 319.587 91.449 322.309 89.95 325.308 Z" style="fill-rule: evenodd;"/>
  <path class="cls-1" d="M 80.951 188.059 C 80.918 186.815 81.712 185.704 82.895 185.337 C 88.45 183.615 94.004 181.838 99.559 180.338 C 103.191 179.394 106.752 178.205 110.223 176.783 C 113.967 175.25 117.783 173.912 121.665 172.784 C 125.437 171.584 129.147 170.196 132.774 168.618 C 133.385 168.38 134.018 168.213 134.663 168.118 C 136.107 170.674 136.051 171.396 134.163 172.229 C 131.102 173.551 127.969 174.7 124.776 175.672 C 119.221 177.283 113.667 179.561 108.112 181.227 C 102.558 182.893 96.393 184.671 90.505 186.392 L 85.673 187.892 C 84.951 189.17 85.673 189.836 85.673 190.558 C 87.95 194.557 90.338 198.446 92.505 202.5 C 95.337 208.055 98.614 212.776 101.614 217.997 C 103.169 220.608 104.058 223.551 105.669 226.218 C 107.279 228.884 108.446 231.328 109.723 233.938 C 110.362 234.705 110.206 235.855 109.39 236.438 C 109.001 236.715 108.168 236.827 107.89 236.438 C 107.146 235.816 106.524 235.06 106.057 234.216 C 103.447 229.273 100.947 224.329 98.448 219.386 C 98.109 218.608 97.698 217.864 97.226 217.164 C 93.338 211.61 90.838 205.444 87.506 199.668 C 85.839 195.891 83.284 191.891 80.951 188.059 Z" style="fill-rule: evenodd;"/>
  <path class="cls-1" d="M 325.123 413.124 C 325.384 412.835 325.607 412.518 325.79 412.179 C 327.845 405.958 329.956 399.793 331.844 393.572 C 333.733 387.351 334.955 382.463 336.454 376.909 C 337.51 372.743 338.454 368.522 339.454 364.356 C 339.454 364.356 339.454 363.8 339.454 363.523 C 339.842 362.023 340.676 361.412 341.731 361.69 C 342.681 362.095 343.175 363.139 342.897 364.134 C 342.931 364.389 342.931 364.65 342.897 364.911 C 341.342 370.132 340.065 375.354 338.898 380.686 C 337.926 384.741 336.738 388.745 335.343 392.683 C 334.066 396.794 332.677 400.848 331.344 404.959 C 330.511 407.736 329.678 410.513 328.9 413.346 C 328.517 414.923 327.589 416.317 326.29 417.289 C 324.901 416.623 323.346 416.012 321.957 415.234 C 313.359 410.968 304.511 407.219 295.463 404.014 C 293.519 403.237 291.686 402.237 289.908 401.348 L 286.853 400.071 L 273.245 395.016 C 272.451 394.772 271.684 394.439 270.968 394.016 C 270.412 393.628 269.912 392.905 270.412 392.239 C 270.801 391.7 271.418 391.372 272.079 391.35 C 273.706 391.634 275.289 392.117 276.8 392.794 C 287.52 397.071 298.24 401.348 308.849 405.847 C 312.959 407.569 316.903 409.68 320.902 411.402 C 322.135 412.335 323.59 412.929 325.123 413.124 Z" style="fill-rule: evenodd;"/>
  <path class="cls-1" d="M 179.209 86.58 C 179.931 87.08 180.375 87.357 180.764 87.691 C 181.658 88.54 182.603 89.34 183.597 90.079 C 186.93 92.301 190.318 94.467 193.761 96.633 C 195.206 97.466 196.705 98.188 198.205 98.911 L 221.645 110.019 C 222.411 110.336 223.122 110.764 223.755 111.297 C 224.133 111.675 224.283 112.224 224.144 112.741 C 224.005 113.263 223.605 113.68 223.089 113.852 C 222.283 113.98 221.456 113.885 220.7 113.574 C 212.535 109.853 204.037 106.131 196.15 102.188 C 192.595 100.41 189.318 97.966 185.874 95.856 C 184.208 94.856 182.542 93.967 180.653 92.912 C 180.331 93.423 180.053 93.962 179.82 94.523 C 178.098 100.41 176.376 106.242 174.71 112.13 C 173.377 116.796 172.155 121.517 170.766 126.183 C 169.378 130.848 168.267 134.736 166.989 138.958 C 166.695 139.891 166.284 140.785 165.767 141.624 C 165.501 141.913 165.106 142.057 164.712 142.013 C 164.268 142.013 163.601 141.402 163.545 141.068 C 163.44 139.835 163.534 138.597 163.823 137.403 C 166.6 127.793 169.378 118.184 172.321 108.575 C 173.932 103.021 175.376 97.466 176.987 91.912 C 177.265 89.973 178.031 88.141 179.209 86.58 Z" style="fill-rule: evenodd;"/>
  <path class="cls-1" d="M 421.881 316.144 C 420.77 317.116 419.432 317.804 417.993 318.143 C 415.105 319.143 412.439 320.365 409.384 321.254 C 404.329 322.809 399.219 324.253 394.165 325.697 C 389.832 326.736 385.566 328.036 381.389 329.585 C 378.057 330.974 374.613 332.085 371.225 333.307 C 370.836 333.462 370.397 333.462 370.003 333.307 C 369.509 333.118 369.098 332.762 368.837 332.307 C 368.642 331.94 368.642 331.501 368.837 331.14 C 369.425 330.563 370.125 330.107 370.892 329.807 C 376.235 328.308 381.467 326.453 386.555 324.253 C 387.594 323.853 388.677 323.575 389.777 323.42 C 399.236 321.309 408.517 318.487 417.549 314.977 C 417.849 314.76 418.126 314.516 418.382 314.255 C 418.004 313.294 417.56 312.367 417.049 311.478 C 412.328 304.257 407.551 297.036 402.885 289.816 C 399.552 284.65 396.442 279.373 393.22 274.208 C 392.498 272.986 391.721 271.819 390.999 270.653 C 390.61 270.081 390.293 269.464 390.054 268.82 C 390.054 268.298 390.254 267.803 390.61 267.431 C 390.976 267.231 391.415 267.231 391.776 267.431 C 392.537 268.015 393.215 268.709 393.776 269.486 C 396.386 273.43 398.997 277.374 401.552 281.373 C 405.662 287.816 409.55 294.37 413.883 300.647 C 416.716 304.813 418.826 309.367 421.381 313.644 C 421.642 314.455 421.809 315.294 421.881 316.144 Z" style="fill-rule: evenodd;"/>
  <path class="cls-1" d="M 411.661 179.172 C 410.933 178.655 410.15 178.228 409.328 177.894 L 395.942 174.728 C 395.248 174.617 394.565 174.467 393.887 174.284 C 388.077 172.384 382.134 170.901 376.113 169.84 C 372.069 168.729 367.914 168.063 363.726 167.841 C 363.049 167.785 362.388 167.596 361.782 167.285 C 361.116 167.024 360.738 166.313 360.894 165.619 C 361.044 164.902 361.616 164.347 362.338 164.23 L 363.56 164.23 C 368.114 164.791 372.625 165.663 377.057 166.841 C 379.457 167.535 381.912 168.035 384.389 168.341 C 386.577 168.741 388.732 169.318 390.832 170.063 C 393.626 170.962 396.459 171.723 399.33 172.34 L 413.438 176.006 C 414.255 176.311 415.049 176.667 415.827 177.061 C 416.199 178.239 415.971 179.522 415.216 180.505 C 413.883 182.782 412.439 185.004 411.106 187.281 C 406.384 195.779 401.552 204.278 396.942 212.831 C 395.109 216.275 393.776 219.941 392.276 223.496 C 392.104 224.04 391.86 224.562 391.554 225.051 C 391.221 225.384 390.554 225.94 390.277 225.829 C 389.666 225.568 389.171 225.09 388.888 224.496 C 388.793 223.829 388.888 223.157 389.166 222.552 C 390.054 220.33 390.943 218.164 391.943 215.997 C 396.509 206 401.763 196.329 407.662 187.059 C 409.317 184.604 410.661 181.955 411.661 179.172 Z" style="fill-rule: evenodd;"/>
  <path class="cls-1" d="M 193.706 401.626 L 195.483 400.682 C 200.205 397.849 204.981 395.127 209.758 392.128 C 211.33 391.234 212.963 390.456 214.646 389.795 C 215.268 389.428 216.062 389.595 216.479 390.184 C 217.04 390.856 217.04 391.839 216.479 392.517 C 215.935 393.15 215.274 393.678 214.535 394.072 L 198.649 403.181 C 197.094 404.07 195.65 405.125 194.095 406.125 C 192.539 407.125 190.873 406.903 190.096 405.014 C 187.929 400.071 185.652 395.127 183.597 390.128 C 182.042 386.407 180.709 382.63 179.376 379.019 C 179.187 378.386 179.314 377.709 179.709 377.187 C 180.459 376.881 181.292 376.881 182.042 377.187 C 182.714 377.642 183.219 378.303 183.486 379.075 C 185.485 384.074 187.318 389.184 189.04 394.183 C 189.984 396.516 191.206 398.682 192.317 400.959 C 192.817 401.015 193.262 401.182 193.706 401.626 Z" style="fill-rule: evenodd;"/>
  <path class="cls-1" d="M 307.905 95.911 C 309.21 96.35 310.182 97.45 310.46 98.799 C 313.07 107.02 316.014 115.129 319.291 123.072 C 319.669 123.966 319.969 124.894 320.18 125.849 C 320.369 126.699 319.891 127.56 319.069 127.849 C 318.369 128.043 317.63 127.688 317.347 127.016 C 316.586 125.533 315.897 124.011 315.292 122.461 C 312.904 115.685 310.571 108.853 308.238 102.021 C 308.238 101.243 307.516 100.577 307.127 99.633 C 306.172 99.944 305.244 100.332 304.35 100.799 L 292.852 108.353 C 289.686 110.353 286.465 112.297 283.243 114.185 C 282.499 114.641 281.532 114.446 281.021 113.741 C 280.466 113.063 280.466 112.08 281.021 111.408 C 281.616 110.814 282.288 110.308 283.021 109.908 C 287.298 107.353 291.575 104.798 295.907 102.299 C 298.906 100.521 301.906 98.799 304.961 97.133 C 306.072 96.633 307.127 96.244 307.905 95.911 Z" style="fill-rule: evenodd;"/>
  <path class="cls-1" d="M 97.781 193.169 C 98.276 191.886 99.348 190.919 100.67 190.558 L 110.223 186.559 L 121.776 181.838 C 122.665 181.449 123.498 180.894 124.387 180.505 C 125.27 180.094 126.181 179.738 127.109 179.449 C 127.925 179.116 128.847 179.549 129.108 180.394 C 129.541 181.316 129.203 182.416 128.331 182.949 C 125.387 184.171 122.387 185.282 119.388 186.392 C 114.722 188.17 110.001 189.836 105.391 191.669 C 104.102 192.275 102.858 192.98 101.669 193.78 C 102.975 197.657 104.708 201.384 106.835 204.889 C 108.668 208.332 110.612 211.721 112.389 215.164 C 112.956 216.253 113.384 217.408 113.667 218.608 C 113.667 219.164 113.389 219.83 113.223 220.663 C 111.767 220.397 110.518 219.475 109.834 218.164 C 109.279 217.219 108.835 216.22 108.335 215.22 C 105.557 209.665 102.78 203.722 100.003 198.001 C 99.225 196.502 98.448 194.557 97.781 193.169 Z" style="fill-rule: evenodd;"/>
  <path class="cls-1" d="M 114.5 289.705 C 116.222 290.649 116.611 291.593 116.166 292.815 C 114.444 297.37 112.723 301.924 110.945 306.423 L 107.557 315.421 C 107.351 316.144 107.218 316.888 107.168 317.643 C 107.996 318.093 108.851 318.499 109.723 318.865 C 114.667 320.754 119.76 322.242 124.942 323.309 C 126.281 323.636 127.586 324.103 128.83 324.697 C 129.258 325.003 129.508 325.503 129.497 326.03 C 129.291 326.519 128.892 326.902 128.386 327.086 C 127.197 327.475 125.914 327.475 124.72 327.086 L 108.501 321.531 C 106.929 320.954 105.285 320.598 103.613 320.476 C 102.764 320.282 102.219 319.443 102.391 318.587 C 102.486 318.054 102.636 317.532 102.836 317.032 C 104.835 312.144 106.946 307.256 108.835 302.369 C 109.729 300.025 110.49 297.631 111.112 295.203 C 111.812 293.137 112.967 291.254 114.5 289.705 Z" style="fill-rule: evenodd;"/>
  <path class="cls-1" d="M 319.791 401.237 C 314.437 398.832 308.854 396.971 303.128 395.683 L 291.575 392.128 C 290.925 391.95 290.369 391.534 290.019 390.961 C 289.719 390.328 289.719 389.59 290.019 388.962 C 290.414 388.19 291.33 387.857 292.13 388.184 C 293.685 388.795 295.185 389.573 296.74 390.073 C 303.461 392.406 310.182 394.627 316.958 396.849 C 317.325 396.894 317.703 396.894 318.069 396.849 C 318.53 396.26 318.919 395.627 319.236 394.961 C 321.457 388.962 323.624 382.963 325.901 376.964 C 326.54 375.592 327.339 374.304 328.289 373.132 C 328.289 373.132 329.289 373.132 329.789 373.132 C 330.117 373.354 330.306 373.732 330.289 374.132 C 330.028 375.903 329.6 377.653 329.011 379.353 C 326.456 385.518 323.79 391.628 321.18 397.793 C 320.846 398.515 320.402 399.682 319.791 401.237 Z" style="fill-rule: evenodd;"/>
  <path class="cls-1" d="M 401.33 307.201 C 399.152 302.852 396.742 298.625 394.109 294.537 C 392.554 292.037 390.999 289.593 389.499 287.094 C 389.049 286.383 388.694 285.616 388.444 284.817 C 388.233 283.978 388.655 283.111 389.443 282.762 C 390.221 282.317 390.776 282.762 391.332 283.206 C 391.726 283.6 392.065 284.05 392.332 284.539 C 395.998 291.371 399.663 298.258 403.44 305.146 C 404.49 306.618 404.701 308.528 403.996 310.2 C 402.107 310.867 400.052 311.756 397.942 312.311 C 392.732 313.816 387.688 315.844 382.889 318.365 C 381.639 318.96 380.34 319.443 379.001 319.809 C 378.462 319.843 377.935 319.643 377.557 319.254 C 377.001 318.743 377.001 317.871 377.557 317.365 C 378.535 316.627 379.595 316.01 380.723 315.533 L 398.219 308.701 C 399.219 308.312 400.052 307.812 401.33 307.201 Z" style="fill-rule: evenodd;"/>
  <path class="cls-1" d="M 187.429 103.965 C 189.818 104.965 192.428 105.965 194.928 107.075 L 209.314 113.63 C 209.592 113.691 209.853 113.807 210.091 113.963 C 210.508 114.463 210.808 115.052 210.98 115.685 C 211.052 116.568 210.314 117.307 209.425 117.24 C 208.458 117.34 207.481 117.185 206.592 116.796 C 202.149 114.685 197.872 112.463 193.484 110.353 C 191.762 109.519 189.929 108.853 187.929 108.02 C 187.468 108.764 187.063 109.547 186.707 110.353 C 184.53 115.579 182.675 120.945 181.153 126.405 C 180.875 127.344 180.503 128.254 180.042 129.127 C 179.764 129.46 179.042 129.904 178.653 129.737 C 178.037 129.554 177.515 129.138 177.209 128.571 C 176.993 127.788 176.993 126.96 177.209 126.183 C 178.876 121.906 180.598 117.629 182.319 113.408 L 184.985 106.409 C 185.541 105.354 185.93 104.354 187.429 103.965 Z" style="fill-rule: evenodd;"/>
  <path class="cls-1" d="M 396.164 186.837 C 394.276 186.17 392.887 185.559 391.443 185.171 C 385.889 183.393 379.723 181.727 373.835 180.06 C 372.225 179.561 372.114 179.116 373.113 176.894 C 374.452 176.55 375.868 176.683 377.113 177.283 L 386.555 180.616 L 394.387 183.449 C 396.22 183.871 397.886 184.837 399.164 186.226 C 399.164 186.837 399.164 187.448 398.664 188.114 C 396.903 194.191 394.52 200.073 391.554 205.666 C 390.61 207.388 389.888 209.221 389.055 211.221 C 388.799 211.887 388.088 212.265 387.388 212.109 C 386.405 211.859 385.789 210.876 386 209.888 C 386.277 209.227 386.611 208.593 386.999 207.999 C 389.643 203.572 391.926 198.951 393.831 194.169 C 394.665 191.614 395.442 189.503 396.164 186.837 Z" style="fill-rule: evenodd;"/>
  <path class="cls-1" d="M 197.261 388.462 L 200.816 387.184 C 201.71 386.851 202.643 386.623 203.593 386.518 C 204.12 386.557 204.593 386.846 204.87 387.296 C 204.87 387.296 204.87 388.073 204.87 388.406 C 204.748 388.673 204.559 388.901 204.315 389.073 C 202.088 390.945 199.371 392.139 196.483 392.517 C 195.35 392.833 194.172 392.156 193.873 391.017 C 192.928 389.017 192.04 386.962 191.151 384.963 C 190.829 384.346 190.584 383.691 190.429 383.019 C 190.379 382.485 190.562 381.958 190.929 381.574 C 191.429 381.574 192.373 381.019 192.762 381.574 C 193.611 382.263 194.345 383.091 194.928 384.018 C 195.483 385.129 196.316 386.629 197.261 388.462 Z" style="fill-rule: evenodd;"/>
  <path class="cls-1" d="M 114.167 199.334 C 114.944 201.667 115.666 203.611 116.222 205.611 C 116.416 206.261 116.416 206.955 116.222 207.61 C 115.966 207.877 115.589 208.005 115.222 207.944 C 114.822 207.838 114.478 207.577 114.278 207.222 C 113.111 204.889 111.889 202.556 110.89 200.167 C 110.268 198.534 110.962 196.701 112.5 195.891 C 115 194.669 117.555 193.613 120.11 192.558 C 121.165 192.114 121.943 192.558 122.221 193.224 C 122.576 194.002 122.348 194.924 121.665 195.446 C 121.015 195.946 120.282 196.318 119.499 196.557 C 117.544 197.09 115.728 198.035 114.167 199.334 Z" style="fill-rule: evenodd;"/>
  <path class="cls-1" d="M 304.461 381.686 L 311.126 384.741 C 313.181 385.629 313.737 385.407 314.625 383.241 C 315.125 382.13 315.403 380.852 315.959 379.797 C 316.381 379.269 317.008 378.947 317.68 378.908 C 318.402 378.908 319.069 379.964 318.958 380.741 C 319.013 381.141 319.013 381.558 318.958 381.963 C 318.291 383.519 317.569 385.018 316.847 386.518 C 316.125 388.018 316.014 387.962 315.625 388.74 C 314.392 389.401 312.915 389.401 311.682 388.74 C 309.11 387.668 306.699 386.251 304.516 384.518 C 303.461 383.407 303.628 382.796 304.461 381.686 Z" style="fill-rule: evenodd;"/>
  <path class="cls-1" d="M 381.889 203.056 C 381.556 202.445 381.001 201.834 381.112 201.334 C 381.356 200.24 381.706 199.179 382.167 198.168 L 383.944 193.28 C 383.25 192.302 382.223 191.608 381.056 191.336 C 379.901 190.892 378.801 190.314 377.779 189.614 C 377.612 189.259 377.612 188.853 377.779 188.503 C 377.779 188.17 378.39 187.726 378.557 187.781 C 381.228 188.442 383.867 189.259 386.444 190.225 C 387.783 190.875 388.394 192.452 387.833 193.835 C 386.949 196.924 385.439 199.801 383.389 202.278 C 383.389 202.278 382.5 202.667 381.889 203.056 Z" style="fill-rule: evenodd;"/>
  <path class="cls-1" d="M 302.85 113.574 L 296.851 116.462 C 296.207 116.835 295.385 116.607 295.018 115.963 C 294.624 115.346 294.796 114.53 295.407 114.13 C 297.796 112.685 300.128 111.297 302.572 110.019 C 304.105 109.686 305.655 110.508 306.238 111.963 C 307.071 114.463 307.905 116.962 308.682 119.462 C 308.732 119.717 308.732 119.978 308.682 120.239 C 308.682 120.739 308.682 121.406 308.016 121.573 C 307.349 121.739 306.794 121.573 306.627 121.295 C 305.933 120.267 305.316 119.19 304.794 118.073 C 304.239 116.796 303.683 115.352 302.85 113.574 Z" style="fill-rule: evenodd;"/>
  <path class="cls-1" d="M 200.649 119.517 C 200.205 120.962 199.483 121.573 198.372 121.073 C 196.628 120.128 194.756 119.44 192.817 119.017 C 192.373 119.851 191.873 120.628 191.484 121.461 C 191.095 122.295 190.54 123.794 189.984 124.905 C 189.685 125.177 189.285 125.316 188.874 125.294 C 188.501 125.155 188.202 124.877 188.04 124.516 C 188.179 122.145 188.824 119.834 189.929 117.74 C 190.262 116.407 190.429 116.407 192.928 114.852 C 195.483 116.074 198.983 116.018 200.649 119.517 Z" style="fill-rule: evenodd;"/>
  <path class="cls-1" d="M 391.443 305.979 C 388.86 305.873 386.305 306.551 384.111 307.923 C 382.778 308.534 382 308.256 381.612 307.423 C 381.173 306.312 381.795 305.068 382.945 304.757 C 384.667 304.035 386.777 304.035 388.499 302.035 C 388.26 300.319 387.594 298.697 386.555 297.314 C 386.039 296.809 386.039 295.981 386.555 295.481 C 387.077 294.953 387.921 294.953 388.444 295.481 C 389.982 297.27 391.071 299.403 391.61 301.702 C 392.387 303.035 392.321 304.701 391.443 305.979 Z" style="fill-rule: evenodd;"/>
  <path class="cls-1" d="M 118.832 311.2 C 119.777 312.922 121.332 312.811 122.609 313.255 C 124.998 314.199 125.887 314.866 125.442 315.644 C 124.998 316.421 123.165 316.366 122.054 316.199 C 119.999 315.866 117.944 315.421 115.944 314.922 C 114.894 314.772 114.25 313.694 114.611 312.7 C 115.778 310.2 117 307.701 118.277 305.257 C 118.571 304.563 119.416 304.296 120.054 304.701 C 120.71 305.024 121.021 305.785 120.777 306.479 C 120.777 307.145 120.221 307.701 119.999 308.367 C 119.777 309.034 119.166 310.589 118.832 311.2 Z" style="fill-rule: evenodd;"/>
  <path class="cls-1" d="M 128.83 380.241 C 130.774 388.906 132.663 396.905 134.385 405.458 C 134.468 406.492 134.468 407.53 134.385 408.569 C 131.885 408.569 129.497 409.402 126.997 409.513 C 120.332 409.902 113.667 410.457 107.002 410.957 C 106.168 411.007 105.335 411.007 104.502 410.957 C 102.169 411.113 100.175 409.297 100.114 406.958 C 99.859 405.114 99.731 403.259 99.725 401.404 C 99.725 395.849 99.725 390.295 99.725 384.296 C 99.725 383.296 99.725 382.352 99.725 381.352 C 99.725 378.464 100.614 377.464 103.391 377.964 C 106.168 378.464 110.223 379.297 113.611 379.964 C 115.666 380.353 117.722 380.852 119.777 381.075 C 122.11 381.586 124.542 381.33 126.72 380.353 C 127.442 380.075 128.053 380.241 128.83 380.241 Z M 126.109 384.741 C 125.409 384.685 124.703 384.685 123.998 384.741 C 120.26 384.713 116.533 384.263 112.889 383.407 C 110.279 382.852 107.668 382.574 105.058 382.241 C 104.541 382.185 104.019 382.185 103.502 382.241 C 103.275 382.63 103.125 383.063 103.058 383.519 C 103.058 391.017 103.058 398.515 103.058 405.736 C 103.058 406.236 103.558 406.68 103.78 407.125 C 112.856 407.686 121.965 406.825 130.774 404.57 C 130.886 403.642 130.886 402.715 130.774 401.793 C 129.608 396.627 128.331 391.517 127.053 386.407 C 126.847 385.824 126.586 385.268 126.275 384.741 L 126.109 384.741 Z" style="fill-rule: evenodd;"/>
  <path class="cls-1" d="M 73.786 258.6 C 72.842 260.1 72.12 261.488 71.231 262.655 C 67.787 267.209 64.677 271.986 61.622 276.818 L 60.844 277.818 C 59.511 279.429 58.678 279.651 57.012 278.54 C 54.657 277.057 52.429 275.385 50.347 273.541 C 47.947 271.414 45.448 269.414 42.848 267.542 L 37.294 262.821 L 36.183 261.599 C 35.066 260.433 34.928 258.644 35.85 257.322 C 37.072 255.6 38.294 253.934 39.627 252.379 C 42.109 249.38 44.664 246.436 47.292 243.547 C 49.513 241.048 51.791 238.659 54.124 236.271 C 54.957 235.36 56.445 235.593 56.956 236.715 C 59.556 241.326 62.672 245.63 66.232 249.546 C 67.382 250.924 68.604 252.24 69.898 253.49 C 71.47 254.962 72.786 256.689 73.786 258.6 Z M 38.46 259.489 C 44.576 265.087 51.152 270.159 58.123 274.652 C 58.817 274.13 59.45 273.53 60.011 272.875 C 63.477 268.326 66.615 263.538 69.398 258.544 C 68.909 257.544 68.354 256.578 67.732 255.656 L 57.567 243.492 C 56.851 242.314 55.651 241.52 54.29 241.326 C 53.179 242.436 51.791 243.603 50.624 244.936 C 47.625 248.269 44.681 251.601 41.793 254.989 C 40.515 256.323 39.96 257.767 38.46 259.489 Z" style="fill-rule: evenodd;"/>
  <path class="cls-1" d="M 256.582 469.779 L 241.474 456.615 C 239.863 455.115 238.308 453.56 236.642 452.06 C 234.975 450.56 234.031 449.616 232.642 448.45 C 230.943 447.378 230.943 444.906 232.642 443.839 C 236.492 441.201 240.202 438.363 243.751 435.341 C 246.528 433.119 249.306 430.675 251.972 428.343 C 252.727 427.359 254.005 426.937 255.193 427.287 C 255.804 430.064 258.137 431.564 260.414 433.175 L 273.467 442.229 C 277.133 444.784 277.189 445.339 274.356 448.561 L 263.247 461.558 C 262.625 462.308 262.081 463.13 261.636 464.002 C 260.353 466.24 258.637 468.207 256.582 469.779 Z M 253.638 431.786 C 250.472 434.286 247.473 436.508 244.695 438.952 C 241.918 441.395 238.641 443.284 235.975 446.061 C 239.252 449.394 242.307 452.615 245.362 455.781 C 246.362 456.726 247.362 457.725 248.417 458.614 L 255.249 464.169 L 256.804 465.113 L 272.69 445.617 C 266.58 440.84 259.859 437.174 253.86 431.786 L 253.638 431.786 Z" style="fill-rule: evenodd;"/>
  <path class="cls-1" d="M 223.7 60.863 C 224.838 57.425 226.738 54.297 229.254 51.698 C 233.037 46.532 237.097 41.583 241.418 36.868 L 243.585 34.868 C 245.245 35.268 246.728 36.207 247.806 37.534 C 250.789 40.434 253.921 43.178 257.193 45.755 C 260.47 48.754 263.858 51.642 267.191 54.586 C 268.441 55.419 269.14 56.864 269.024 58.363 C 261.914 63.918 253.805 68.806 246.806 75.36 C 241.252 72.472 236.086 69.805 231.087 66.473 C 229.088 65.195 227.088 63.973 225.144 62.64 C 224.6 62.101 224.111 61.507 223.7 60.863 Z M 264.469 57.03 C 264.069 56.258 263.58 55.531 263.025 54.864 L 244.251 39.034 C 238.697 44.588 234.586 50.754 229.865 56.53 C 229.171 57.58 228.577 58.697 228.088 59.863 C 233.77 64.257 239.941 67.984 246.473 70.972 L 255.804 64.251 C 259.015 62.257 261.931 59.824 264.469 57.03 Z" style="fill-rule: evenodd;"/>
  <path class="cls-1" d="M 94.504 103.021 C 95.654 102.021 97.159 101.543 98.67 101.688 C 103.113 101.688 107.557 101.188 112.001 101.132 C 116.444 101.077 119.777 101.132 123.665 101.132 C 124.665 101.132 125.609 101.466 125.942 102.354 C 124.942 111.297 122.276 119.795 121.832 128.571 C 115.972 128.477 110.151 129.571 104.724 131.793 C 102.447 132.737 100.17 133.848 97.892 134.848 C 96.993 135.414 95.804 134.892 95.615 133.848 C 95.315 132.004 95.11 130.154 95.004 128.293 C 95.004 122.128 95.004 116.018 95.004 109.908 C 95.004 108.52 95.004 107.131 94.671 105.742 C 94.338 104.354 94.504 103.743 94.504 103.021 Z M 97.781 105.354 C 97.292 113.469 97.892 121.611 99.559 129.571 L 101.169 129.571 L 113.167 126.127 C 114.389 125.794 115.611 125.516 116.777 125.072 C 117.566 124.794 118.138 124.116 118.277 123.294 C 119.221 118.795 120.221 114.352 121.165 109.908 C 121.643 108.225 121.737 106.459 121.443 104.743 C 113.567 103.815 105.602 104.021 97.781 105.354 Z" style="fill-rule: evenodd;"/>
  <path class="cls-1" d="M 377.39 400.404 C 377.39 398.404 377.39 396.516 377.724 394.85 C 378.39 388.906 379.001 383.019 379.779 377.075 C 380.068 375.476 380.456 373.898 380.945 372.354 C 389.327 369.599 397.881 367.411 406.551 365.8 C 406.89 366.428 407.129 367.1 407.273 367.8 C 407.273 371.688 407.717 375.52 407.773 379.408 C 407.567 385.379 408.034 391.361 409.162 397.238 C 409.495 398.738 408.717 399.682 407.106 399.571 C 399.208 399.604 391.315 400.198 383.5 401.348 C 381.423 401.898 379.207 401.554 377.39 400.404 Z M 382.945 375.798 C 381.534 382.991 380.773 390.295 380.667 397.627 C 381.389 397.843 382.134 397.971 382.889 398.016 C 385.666 398.016 388.444 397.405 391.165 397.182 C 394.598 396.627 398.075 396.349 401.552 396.349 C 402.807 396.338 404.063 396.171 405.273 395.849 C 405.523 393.555 405.523 391.25 405.273 388.962 C 405.273 386.907 404.885 384.796 404.774 382.741 C 404.662 380.686 404.774 378.297 404.774 376.076 C 404.774 373.854 404.44 371.743 404.274 369.577 C 396.853 370.382 389.638 372.487 382.945 375.798 Z" style="fill-rule: evenodd;"/>
  <path class="cls-1" d="M 443.932 261.488 C 439.155 257.6 433.99 254.545 429.713 250.379 C 427.213 247.88 427.102 246.824 429.213 243.936 C 431.324 241.048 433.157 238.382 435.212 235.993 C 437.267 233.605 438.822 231.328 440.766 229.106 C 441.366 228.167 442.138 227.356 443.043 226.718 C 445.043 225.607 446.098 225.607 447.543 226.718 L 464.206 242.159 C 464.728 242.631 465.211 243.153 465.65 243.714 C 466.594 244.669 466.372 246.263 465.206 246.936 L 461.706 249.268 C 458.207 251.546 454.708 253.823 451.32 256.156 C 449.264 257.544 447.265 259.155 445.265 260.599 C 444.843 260.927 444.399 261.222 443.932 261.488 Z M 463.428 244.825 C 462.612 244.364 461.834 243.842 461.095 243.27 C 457.652 239.881 453.597 237.16 450.264 233.549 C 448.798 231.65 446.682 230.367 444.321 229.939 L 431.324 247.435 C 435.095 251.79 439.516 255.534 444.432 258.544 C 447.115 256.017 450.098 253.834 453.319 252.046 C 456.541 249.602 459.54 247.324 463.428 244.547 L 463.428 244.825 Z" style="fill-rule: evenodd;"/>
  <path class="cls-1" d="M 364.337 94.078 C 366.126 93.478 368.02 93.284 369.892 93.523 C 375.868 93.823 381.856 93.823 387.833 93.523 C 391.426 93.262 395.003 92.817 398.553 92.19 C 399.73 93.006 400.297 94.45 399.997 95.856 C 399.402 101.238 399.202 106.659 399.386 112.074 C 399.386 116.796 399.386 121.461 398.997 126.183 C 397.097 126.794 395.081 126.944 393.109 126.627 C 387.555 126.627 382 125.905 376.446 125.849 C 373.763 125.899 371.43 124.033 370.892 121.406 C 369.486 117.185 368.353 112.88 367.503 108.52 C 366.948 104.687 365.893 100.91 365.115 97.078 C 364.56 96.022 364.504 95.189 364.337 94.078 Z M 395.831 123.183 C 395.831 122.461 396.22 122.183 396.164 121.961 C 395.553 118.69 395.553 115.34 396.164 112.074 C 396.164 107.631 396.164 103.187 396.164 98.744 C 396.109 97.789 395.981 96.839 395.775 95.911 C 394.065 95.661 392.321 95.661 390.61 95.911 C 385.366 96.428 380.095 96.555 374.835 96.3 C 372.691 95.95 370.486 96.239 368.503 97.133 C 368.331 99.538 368.653 101.96 369.447 104.243 C 369.803 105.443 370.081 106.664 370.281 107.909 C 370.847 111.852 371.836 115.724 373.224 119.462 C 373.586 121 374.874 122.156 376.446 122.35 C 377.407 122.4 378.373 122.4 379.334 122.35 L 386.833 122.85 C 389.81 123.305 392.832 123.417 395.831 123.183 Z" style="fill-rule: evenodd;"/>
  <path class="cls-1" d="M 389.166 113.408 C 385.972 114.502 382.461 114.196 379.501 112.574 C 379.057 110.686 378.501 108.686 378.112 106.631 C 377.385 104.465 379.112 102.265 381.389 102.465 C 383.889 102.465 386.388 102.188 388.888 102.132 C 390.277 101.865 391.454 103.16 391.054 104.52 C 390.499 107.464 389.888 110.408 389.166 113.408 Z M 388.11 105.687 C 385.844 105.154 383.489 105.154 381.223 105.687 C 380.484 107.464 380.484 109.464 381.223 111.241 C 383.311 111.519 385.433 111.352 387.444 110.741 C 387.444 109.853 387.999 109.075 388.11 108.297 C 388.221 107.52 388.11 106.353 388.11 105.687 Z" style="fill-rule: evenodd;"/>
  <path class="cls-1" d="M 60.956 257.1 C 59.4 259.822 58.123 262.099 56.79 264.321 C 55.957 265.709 54.957 265.987 53.735 264.932 C 51.569 263.21 49.513 261.321 47.514 259.377 C 46.747 258.65 46.747 257.433 47.514 256.711 C 47.964 256.295 48.469 255.939 49.014 255.656 C 50.774 254.556 52.335 253.168 53.624 251.546 C 54.224 250.663 55.468 250.535 56.234 251.268 C 57.845 252.99 59.4 255.101 60.956 257.1 Z M 50.347 257.989 C 51.569 259.827 53.279 261.288 55.29 262.21 C 56.29 260.599 57.123 259.211 58.012 257.878 C 56.79 256.489 56.123 254.823 54.012 254.49 L 50.347 257.989 Z" style="fill-rule: evenodd;"/>
  <path class="cls-1" d="M 252.971 57.364 C 249.639 58.863 248.028 61.863 245.029 63.362 L 237.641 56.864 L 244.584 48.088 C 248.806 49.532 250.305 53.531 252.971 57.364 Z M 245.029 51.809 C 243.362 52.864 242.64 54.531 241.252 56.142 C 242.862 57.53 243.585 59.53 245.751 60.363 C 247.028 59.019 248.078 57.48 248.861 55.808 L 246.417 52.864 C 245.978 52.481 245.512 52.131 245.029 51.809 Z" style="fill-rule: evenodd;"/>
  <path class="cls-1" d="M 114.833 111.241 C 114.833 114.241 114.833 116.796 114.833 119.184 C 114.833 120.295 114.167 120.85 112.945 120.962 L 104.558 121.461 C 104.324 120.884 104.135 120.289 104.002 119.684 C 104.002 117.684 103.613 115.574 103.447 113.574 C 103.28 111.575 104.169 110.464 106.002 110.519 C 108.779 110.297 111.667 110.686 114.833 111.241 Z M 112.112 114.518 C 110.312 113.891 108.357 113.891 106.557 114.518 C 106.474 115.141 106.474 115.779 106.557 116.407 C 106.557 118.129 107.224 118.462 108.946 118.629 C 110.667 118.795 113.167 118.295 112.167 114.241 L 112.112 114.518 Z" style="fill-rule: evenodd;"/>
  <path class="cls-1" d="M 398.108 391.017 L 395.442 391.017 L 388.444 389.906 C 387.738 386.901 387.549 383.802 387.888 380.741 C 391.132 379.658 394.526 379.081 397.942 379.019 C 398.914 382.952 398.969 387.057 398.108 391.017 Z M 391.054 382.074 C 390.626 383.913 390.726 385.835 391.332 387.629 C 392.709 388.49 394.459 388.49 395.831 387.629 C 396.259 385.801 396.259 383.896 395.831 382.074 L 391.054 382.074 Z" style="fill-rule: evenodd;"/>
  <path class="cls-1" d="M 256.582 440.34 C 257.748 442.373 259.342 444.134 261.248 445.506 C 261.847 446.15 262.32 446.905 262.636 447.728 C 260.859 449.727 259.137 451.782 257.359 453.671 C 256.476 454.671 254.91 454.671 254.027 453.671 C 252.361 451.505 250.805 449.172 249.139 446.839 C 250.85 443.917 253.46 441.634 256.582 440.34 Z M 259.359 447.394 C 258.137 446.117 257.748 444.339 255.86 443.617 C 254.516 444.589 253.399 445.839 252.583 447.283 C 253.638 448.561 254.249 450.005 255.749 450.782 C 257.137 450.338 257.97 449.116 259.081 447.394 L 259.359 447.394 Z" style="fill-rule: evenodd;"/>
  <path class="cls-1" d="M 445.099 238.16 C 447.77 239.637 450.07 241.709 451.819 244.214 C 452.125 244.803 452.125 245.508 451.819 246.102 C 450.386 247.419 448.881 248.657 447.32 249.824 C 445.821 250.879 445.043 250.768 443.599 249.824 L 440.766 247.324 C 439.861 246.597 439.627 245.319 440.211 244.325 C 441.033 241.742 442.771 239.548 445.099 238.16 Z M 441.655 243.714 C 443.099 245.603 444.154 246.991 445.987 247.324 C 448.987 244.492 448.876 243.825 444.987 241.77 L 441.655 243.714 Z" style="fill-rule: evenodd;"/>
  <path class="cls-1" d="M 121.387 390.517 C 122.298 393.428 122.471 396.516 121.887 399.515 C 121.887 399.96 120.943 400.682 120.443 400.682 C 118.583 400.665 116.722 400.498 114.889 400.182 C 113.056 400.182 112.556 399.293 112.389 397.46 C 112.223 395.627 112.389 394.961 112.112 393.683 C 111.978 392.539 112.678 391.467 113.778 391.128 C 116.161 390.028 118.86 389.812 121.387 390.517 Z M 114.833 392.239 C 114.328 394.094 114.522 396.072 115.389 397.793 C 119.499 397.793 119.888 397.349 118.721 392.961 L 114.833 392.239 Z" style="fill-rule: evenodd;"/>
</svg>