<?xml version="1.0" encoding="utf-8"?>
<svg version="1.1" style="shape-rendering:geometricPrecision;text-rendering:geometricPrecision;image-rendering:optimizeQuality;" viewBox="-1406.885 5555.38 62920.714 63466.136" x="0px" y="0px" fill-rule="evenodd" clip-rule="evenodd" xmlns="http://www.w3.org/2000/svg">
  <defs>
    <style type="text/css">
   
    .fil0 {fill:black;fill-rule:nonzero}
   
  </style>
  </defs>
  <g transform="matrix(1.01497, 0, 0, 1.01497, 0.000886, 6456.562012)">
    <path class="fil0" d="M16179.69 58401.36c27.61,218.32 -126.99,417.7 -345.31,445.31 -218.32,27.61 -417.7,-126.99 -445.31,-345.31 -137.94,-1073.84 -264.05,-2485.39 -406.15,-4076.1 -452.87,-5069.36 -1069.96,-11976.92 -2748.99,-15432.5 -999.22,-2056.49 -4755.76,-6176.01 -7578.98,-9272.05 -505.76,-554.63 -982.15,-1077.05 -1390.02,-1529.5 -1398.99,-1551.9 -1429.37,-4229.97 -1294.35,-6710 -9.14,-17.28 -17.14,-35.44 -23.84,-54.43 -374.19,-1054.22 -657.97,-2079.57 -837.69,-3036.62 -177.35,-944.43 -253.03,-1823.24 -214.1,-2599.29 35.39,-705.57 272.54,-1431.89 613.19,-2154.66 327.84,-948.47 467.7,-1974.13 603.01,-2966.61 130.79,-959.38 257.54,-1889.07 543.74,-2729.02l23.26 -68.29c302.38,-888.09 561.99,-1650.52 1153.94,-2501.24 201.79,-290.02 430.32,-456.34 658.41,-527.74 141.85,-44.41 281.44,-52 414.35,-28.99 132.69,22.96 255.13,75.18 363.54,150.6 196.45,136.68 348.55,352.44 427.38,604.26 193.79,618.94 280.94,1235.69 274.08,1818.26 -2.99,253.83 -23.85,500.8 -61.49,738.4 364.26,-218.93 741.39,-424.32 1118.55,-624.68 337.82,-179.46 634.95,-221.46 879.18,-171.2 135.77,27.95 254.14,83.54 354.27,160.57 100.33,77.19 179.38,172.73 236.82,280.86 112.5,211.77 144.1,475.92 89.83,739.58 -149.07,724.28 -419.36,1383.97 -771.1,1945.4 -349.13,557.25 -778.18,1018.05 -1249.32,1350.6 530.08,-359.75 1105.96,-677.42 1681.9,-983.39 61.64,-32.75 121.92,-60.9 180.78,-84.77 188.2,-754.79 440.5,-1578.25 704.68,-2321.31 275.81,-775.76 567.73,-1474.06 818.22,-1930.46 167.56,-305.26 374.5,-492.65 591.52,-587.32 137.42,-59.94 275.99,-82.52 410.66,-73.6 134.76,8.91 262.62,48.19 379.09,112.12 210.82,115.7 386.22,315.41 492.26,558.52 710.35,1628.37 463.79,3470.64 231.21,5208.39 -55.82,417.06 -110.8,827.86 -150.83,1228.28 -460.82,4609.55 1634.55,6583.37 3663.95,8495.02 442.95,417.25 882.92,831.78 1296.27,1268.53l1025.19 -2937.42c-1269.9,-2300.03 -1173.88,-2693.16 -667.77,-4757.49 62.54,-255.11 132.19,-539.2 217.96,-910.3 110.85,-479.66 326.68,-790.48 587.03,-992.04 262.58,-203.3 557.3,-284.09 832.61,-311.7 261.79,-26.28 511.56,-8.93 757.48,90.29 245.81,99.18 472.57,274.38 682.09,561.4 755.37,1034.8 1271.94,2904.86 1622.67,4174.6 26.12,94.61 51.34,185.84 75.6,272.99 532.54,1912.37 243.87,3514.91 -73.99,5279.53 -23.72,131.68 -47.9,265.93 -109.55,621.68 -154.88,893.7 -79.5,1932.51 141.3,3013.04 267.9,1311.01 749.08,2680.27 1295.93,3931.29 571.34,1307.03 506.61,2546.41 19.97,3635.56 -174.76,391.13 -404.26,761.45 -678.1,1107.15 237.59,769.71 475.77,1527.99 715.9,2275.75 147.21,-133.86 299.23,-262.92 455.87,-387.18 1034.82,-820.9 2269.74,-1431.31 3647.01,-1835.29 1033.14,-303.03 1897.86,-449.71 2768.99,-441.83 869.77,7.86 1731.69,170.11 2760.63,484.9 1321.19,404.21 2443.35,999.47 3379.08,1789.6 126.14,106.51 248.82,216.55 368.13,330.05 257.08,-770.73 496.51,-1512.7 714.81,-2216.18 -273.79,-345.65 -503.24,-715.91 -677.97,-1106.97 -13.52,-30.25 -26.65,-60.64 -39.51,-91.12l-505.41 822.55 -426 -261.76 722.14 -1175.29c-236.9,-907.31 -182.56,-1897.51 268.74,-2929.94 546.85,-1251.02 1028.04,-2620.27 1295.94,-3931.28 159.27,-779.4 242.85,-1537.1 218.96,-2234.28l-143.06 369.33 -466.24 -180.6 180.6 -466.25 423.82 164.17c-11.85,-229.17 -35.7,-451.47 -72.78,-665.42 -61.81,-356.63 -85.94,-490.62 -109.56,-621.75 -317.86,-1764.59 -606.53,-3367.11 -73.98,-5279.46 24.28,-87.2 49.51,-178.48 75.65,-273.15 350.73,-1269.74 867.28,-3139.68 1622.62,-4174.44 209.5,-287.01 436.28,-462.22 682.08,-561.4 245.93,-99.22 495.71,-116.56 757.49,-90.29 275.33,27.61 570.04,108.4 832.61,311.7 260.34,201.56 476.18,512.36 587.02,992.04 85.75,371.05 155.42,655.19 217.98,910.35 506.1,2064.29 602.13,2457.42 -667.76,4757.44l1025.18 2937.42c413.33,-436.78 853.31,-851.28 1296.26,-1268.53 2029.4,-1911.65 4124.77,-3885.47 3663.95,-8495.02 -40.03,-400.44 -95.02,-811.26 -150.83,-1228.34 -232.58,-1737.74 -479.13,-3579.98 231.21,-5208.33 106.04,-243.1 281.45,-442.82 492.27,-558.54 116.49,-63.92 244.34,-103.2 379.08,-112.11 134.69,-8.91 273.26,13.68 410.65,73.61 217.05,94.67 423.97,282.05 591.52,587.32 250.5,456.4 542.43,1154.67 818.23,1930.43 264.19,743.06 516.48,1566.56 704.69,2321.35 58.86,23.86 119.13,52.01 180.77,84.76 650.47,345.56 1300.87,706.04 1885.28,1125.21 156.12,111.97 307.3,228.04 452.28,348.93 -1.33,-44.59 -1.91,-89.65 -1.48,-135.29 -177.27,-63.25 -342.34,-147.4 -555.72,-288.22l0.48 -0.72c-511.11,-337.52 -975.93,-822.84 -1348.25,-1417.1 -351.75,-561.44 -622.03,-1221.14 -771.1,-1945.42 -54.28,-263.65 -22.68,-527.81 89.82,-739.58 57.45,-108.13 136.49,-203.66 236.82,-280.85 100.12,-77.03 218.47,-132.63 354.26,-160.58 244.22,-50.27 541.37,-8.27 879.2,171.2 377.16,200.37 754.29,405.75 1118.56,624.69 -37.65,-237.61 -58.5,-484.61 -61.49,-738.46 -6.86,-582.55 80.28,-1199.3 274.07,-1818.21 78.85,-251.83 230.94,-467.58 427.38,-604.26 108.41,-75.42 230.85,-127.64 363.54,-150.6 132.9,-23.01 272.49,-15.42 414.34,28.99 228.08,71.42 456.62,237.73 658.4,527.74 591.92,850.68 851.53,1613.07 1153.9,2501.09l23.31 68.44c286.21,839.97 412.97,1769.66 543.76,2729.06 135.29,992.41 275.16,2018.01 602.95,2966.44 340.68,722.8 577.86,1449.17 613.25,2154.79 38.92,776.04 -36.76,1654.83 -214.11,2599.25 -179.72,957.06 -463.5,1982.42 -837.68,3036.66 -6.7,19 -14.7,37.16 -23.85,54.45 135.02,2480.04 104.63,5158.11 -1294.35,6709.98 -407.8,452.39 -884.29,974.9 -1390.03,1529.51 -2823.22,3096.03 -6579.76,7215.55 -7578.98,9272.04 -1718.2,3536.23 -2410.96,10682.33 -2905.16,15780.36 -140.02,1444.52 -264.24,2725.69 -393.01,3728.24 -27.61,218.32 -226.99,372.92 -445.31,345.31 -218.32,-27.61 -372.92,-226.99 -345.31,-445.31 125.85,-979.81 249.96,-2259.92 389.87,-3703.24 500.13,-5159.15 1201.19,-12390.95 2980.16,-16052.24 1051.33,-2163.73 4851.27,-6330.86 7707.12,-9462.66 491.02,-538.47 953.52,-1045.64 1386.89,-1526.39 1397.6,-1550.34 1190.95,-4683.41 1018.67,-7295.24 -26.84,-406.93 -52.86,-801.34 -73.4,-1210.82 -60.88,-1213.6 -879.41,-2600.8 -1722.58,-3897.87 -8.92,-12.13 -17.19,-24.83 -24.79,-38.11 -118.72,-182.29 -237.78,-362.75 -355.15,-540.62 -192.14,-291.19 -380.3,-576.35 -505.36,-771.74 -320.71,-501.04 -779.3,-924.76 -1307.54,-1303.64 -546.03,-391.64 -1169.23,-736.69 -1794.66,-1068.95 -160.36,-85.19 -273.03,-110.97 -344.82,-96.2 -11.55,2.37 -20.21,6.02 -26.13,10.57 -5.72,4.4 -11.84,12.88 -18.06,24.59 -26.52,49.92 -31.69,123.26 -14.83,205.2 129.69,630.13 362.66,1200.59 664.84,1682.91 310.38,495.41 694.22,897.47 1113.39,1174.08 308.7,203.72 499.85,245.39 948.36,343.14l86.24 18.83c215.73,46.6 352.85,259.28 306.25,475.01 -44.44,205.72 -239.9,339.94 -445.01,311.55 -68.14,1187.25 92.18,1628.64 256.54,2081.04l0.46 1.26c101.45,279.22 218.18,556.08 443.67,926.85 232.27,381.92 582.11,867.29 1149.51,1559.79 139.79,170.86 114.61,422.72 -56.25,562.51 -170.86,139.79 -422.72,114.61 -562.51,-56.25 -121.56,-148.36 -233.79,-288.05 -337.62,-420.05 -43.54,658.97 -164.52,1350.38 -285.31,2040.54 -161.72,924.07 -323.05,1845.84 -283.24,2622.13 11.21,220.05 -158.08,407.54 -378.13,418.75 -220.05,11.21 -407.54,-158.08 -418.75,-378.13 -44.74,-872.6 123.73,-1835.22 292.62,-2800.25 186.23,-1064.07 373.01,-2131.3 253.33,-2988.77 -2.87,-20.78 -4.08,-41.4 -3.75,-61.74 -17.56,-28.07 -34.62,-55.71 -51.16,-82.91 -53.76,-88.39 -102.16,-172.16 -146.16,-252.31l-2080.68 3324.29c-116.49,186.39 -362.05,243.05 -548.44,126.56 -186.39,-116.49 -243.05,-362.05 -126.56,-548.44l2321.23 -3708.62c14.58,-23.32 31.18,-44.61 49.43,-63.79 -194.31,-536.4 -375.39,-1086.33 -277.14,-2500.08 -174.19,-62.93 -337.45,-146.64 -547.55,-285.29 -509.79,-336.41 -974.46,-821.97 -1347.77,-1417.82 -351.74,-561.43 -622.03,-1221.13 -771.1,-1945.41 -54.27,-263.68 -22.68,-527.82 89.83,-739.58 57.44,-108.14 136.49,-203.66 236.82,-280.85 64.93,-49.95 137.52,-90.89 217.56,-121.12 -172.4,-655.94 -392.02,-1359.94 -622.69,-2008.74 -262.01,-736.96 -535.3,-1392.97 -765.11,-1811.67 -75.66,-137.86 -147.14,-212.9 -210.28,-240.44 -14.67,-6.4 -28.78,-8.85 -41.89,-7.99 -13.06,0.86 -28.28,6.22 -44.7,15.23 -57.69,31.67 -109.54,95.1 -145.39,177.3 -621.71,1425.18 -390.22,3154.87 -171.85,4786.45 57.08,426.61 113.33,846.83 153.97,1253.34 499.82,4999.64 -1740.79,7110.27 -3910.83,9154.4 -1453.01,1368.71 -2872.28,2705.63 -3287.14,4911.19 -40.55,216.6 -249.03,359.3 -465.63,318.75 -216.6,-40.55 -359.3,-249.03 -318.75,-465.63 263.39,-1400.33 866.62,-2465.15 1622.85,-3391.67l-942.62 -2700.84c-117.48,166.12 -344.23,218.85 -524.46,115.75 -191.57,-109.59 -258.03,-353.75 -148.44,-545.32 122.06,-212.89 234.52,-410.67 338.3,-595.75 -0.26,-136.77 70.4,-266.3 188.23,-339.44 1086.88,-1985.96 997.15,-2352.65 562.1,-4127.13 -70.41,-287.19 -148.8,-606.9 -221.1,-919.73 -63.79,-276.09 -171.34,-442.08 -296.4,-538.9 -122.83,-95.1 -275.64,-134.4 -423.23,-149.2 -142.44,-14.29 -270.79,-7.91 -382.49,37.15 -111.81,45.11 -222.26,134.81 -335.2,289.54 -668.12,915.28 -1162.17,2703.74 -1497.62,3918.18 -26.14,94.67 -51.37,185.95 -75.65,273.15 -484.44,1739.59 -211.23,3256.27 89.6,4926.34 50.51,280.41 101.34,562.56 112.68,627.99 172.45,995.03 92.28,2133.2 -147.54,3306.81 -280.37,1372.05 -779.74,2795.38 -1345.94,4090.66 -472.48,1080.89 -421.5,2100.14 -23.1,2991.8 170.11,380.71 403.19,740.01 685.96,1072.92 7.79,8.36 15.17,17.05 22.19,26.02 490.27,569.59 1126.35,1060.8 1841.49,1448.02 194.16,104.41 266.91,346.46 162.5,540.62 -104.41,194.16 -346.46,266.91 -540.62,162.5 -588.05,-318.41 -1130.23,-702.59 -1597.52,-1141.51 -221.23,701.15 -461.74,1436.67 -718.22,2197.55 492.92,582.07 914.9,1238.79 1268.94,1971.11 95.78,198.48 12.54,437.04 -185.94,532.82 -198.48,95.78 -437.04,12.54 -532.82,-185.94 -248.82,-514.7 -533.81,-988 -856.14,-1420.32 -899.23,2610.26 -1964.62,5467.44 -3077.05,8239.59 -1542.42,3843.68 -3177.99,7529.8 -4589.85,10175.16 -103.55,194.16 -344.9,267.61 -539.06,164.06 -194.16,-103.55 -267.61,-344.9 -164.06,-539.06 1394.72,-2613.24 3017.63,-6272.53 4552.35,-10097.04 851.57,-2122.07 1675.1,-4293.12 2416.77,-6363.1 -124.86,108.44 -254.27,212.61 -388.3,312.52 -775.3,577.94 -1703.14,1012.82 -2793.86,1307.41 -844.84,228.18 -1554.75,345.8 -2274.48,351.55 -717.84,5.73 -1430.46,-100.99 -2281.89,-321.46 -1135.57,-294.04 -2155.14,-739.31 -3011.21,-1338.81 -197.84,-138.55 -386.86,-285.28 -566.52,-440.19 449.7,1309.08 911.82,2587.53 1394.48,3840.82 1127.37,2927.36 2367.17,5719.76 3823.19,8447.84 103.55,194.16 30.1,435.51 -164.06,539.06 -194.16,103.55 -435.51,30.1 -539.06,-164.06 -1473.76,-2761.32 -2726.49,-5582.1 -3863.83,-8535.34 -690.81,-1793.8 -1338.94,-3635.7 -1968.09,-5542.24 -332.19,423.03 -621.62,884.6 -863.53,1384.99 -95.78,198.48 -334.34,281.72 -532.82,185.94 -198.48,-95.78 -281.72,-334.34 -185.94,-532.82 346.35,-716.43 780.17,-1360.29 1290.02,-1932.4 -238.06,-735.4 -473.9,-1480.58 -708.83,-2236.49 -466.99,438.44 -1008.75,822.23 -1596.29,1140.36 -194.16,104.41 -436.21,31.66 -540.62,-162.5 -104.41,-194.16 -31.66,-436.21 162.5,-540.62 715.2,-387.25 1351.32,-878.51 1841.59,-1448.15 6.94,-8.87 14.26,-17.47 21.96,-25.74 282.82,-332.95 515.95,-692.31 686.08,-1073.07 398.4,-891.66 449.38,-1910.91 -23.11,-2991.8 -566.2,-1295.29 -1065.56,-2718.63 -1345.93,-4090.67 -239.82,-1173.61 -319.97,-2311.78 -147.54,-3306.8 11.48,-66.27 62.26,-348.1 112.67,-627.92 300.83,-1670.09 574.04,-3186.8 89.61,-4926.41 -24.26,-87.15 -49.48,-178.38 -75.6,-272.99 -335.45,-1214.44 -829.52,-3003.03 -1497.67,-3918.34 -112.95,-154.72 -223.4,-244.43 -335.21,-289.54 -111.7,-45.06 -240.04,-51.44 -382.48,-37.15 -147.58,14.8 -300.4,54.1 -423.23,149.2 -125.06,96.82 -232.61,262.81 -296.41,538.9 -72.28,312.75 -150.67,632.48 -221.08,919.68 -435.06,1774.53 -524.76,2141.23 562.12,4127.2 117.81,73.13 188.46,202.66 188.21,339.42 103.74,185.03 216.25,382.85 338.31,595.75 109.59,191.57 43.13,435.73 -148.44,545.32 -180.23,103.1 -407,50.36 -524.47,-115.76l-942.62 2700.87c756.24,926.51 1359.45,1991.33 1622.84,3391.66 40.55,216.6 -102.15,425.08 -318.75,465.63 -216.6,40.55 -425.08,-102.15 -465.63,-318.75 -414.86,-2205.56 -1834.13,-3542.49 -3287.14,-4911.2 -2170.04,-2044.13 -4410.65,-4154.76 -3910.83,-9154.4 40.64,-406.51 96.88,-826.7 153.97,-1253.28 218.37,-1631.59 449.87,-3361.31 -171.85,-4786.51 -35.85,-82.19 -87.68,-145.62 -145.38,-177.28 -16.42,-9.01 -31.65,-14.38 -44.71,-15.24 -13.13,-0.87 -27.24,1.59 -41.9,7.98 -63.13,27.54 -134.61,102.59 -210.28,240.44 -229.79,418.69 -503.08,1074.71 -765.1,1811.7 -230.66,648.79 -450.28,1352.78 -622.68,2008.71 80.03,30.23 152.63,71.16 217.55,121.11 100.33,77.19 179.37,172.72 236.83,280.86 112.5,211.77 144.1,475.92 89.83,739.58 -149.07,724.29 -419.35,1383.99 -771.11,1945.43 -372.32,594.27 -837.15,1079.57 -1348.27,1417.08l0.48 0.72c-210.08,138.65 -373.33,222.36 -547.51,285.28 98.23,1413.72 -82.83,1963.68 -277.14,2500.09 18.25,19.18 34.84,40.47 49.42,63.79l2321.23 3708.62c116.49,186.39 59.83,431.95 -126.56,548.44 -186.39,116.49 -431.95,59.83 -548.44,-126.56l-2080.68 -3324.3c-44.01,80.15 -92.41,163.92 -146.17,252.32 -16.54,27.19 -33.58,54.82 -51.14,82.88 0.33,20.35 -0.87,40.98 -3.75,61.77 -119.69,857.49 67.09,1924.73 253.32,2988.82 168.89,965.01 337.35,1927.6 292.62,2800.2 -11.21,220.05 -198.7,389.34 -418.75,378.13 -220.05,-11.21 -389.34,-198.7 -378.13,-418.75 39.8,-776.29 -121.52,-1698.03 -283.24,-2622.08 -120.79,-690.19 -241.77,-1381.61 -285.31,-2040.6 -103.83,132 -216.07,271.7 -337.63,420.06 -139.79,170.86 -391.65,196.04 -562.51,56.25 -170.86,-139.79 -196.04,-391.65 -56.25,-562.51 567.4,-692.5 917.24,-1177.87 1149.51,-1559.79 225.49,-370.77 342.22,-647.63 443.68,-926.85l0.45 -1.23c164.36,-452.41 324.66,-893.81 256.55,-2081.07 -205.12,28.4 -400.59,-105.83 -445.03,-311.55 -46.6,-215.73 90.52,-428.41 306.25,-475.01l86.21 -18.82c448.53,-97.76 639.68,-139.42 948.38,-343.15l1.56 0c417.46,-275.46 800.75,-677.5 1111.85,-1174.06 302.19,-482.33 535.16,-1052.79 664.85,-1682.93 16.86,-81.93 11.69,-155.27 -14.83,-205.2 -6.22,-11.71 -12.35,-20.2 -18.07,-24.6 -5.92,-4.55 -14.58,-8.19 -26.14,-10.57 -71.79,-14.77 -184.44,11.01 -344.81,96.21 -625.43,332.26 -1248.63,677.31 -1794.66,1068.95 -528.24,378.88 -986.82,802.6 -1307.53,1303.64 -124.98,195.27 -313.23,480.56 -505.36,771.74 -117.37,177.88 -236.43,358.33 -355.15,540.62 -7.59,13.28 -15.87,25.98 -24.79,38.11 -843.18,1297.07 -1661.72,2684.27 -1722.59,3897.87 -20.54,409.5 -46.56,803.91 -73.4,1210.86 -172.27,2611.82 -378.91,5744.85 1018.68,7295.2 433.29,480.64 895.87,987.94 1386.88,1526.38 2855.84,3131.81 6655.79,7298.94 7707.12,9462.67 1740.48,3582.05 2365.39,10577.08 2823.99,15710.62 141.05,1578.89 266.22,2979.94 403.01,4044.86zm10266.75 -14743.74c-126.74,-53.39 -186.2,-199.43 -132.81,-326.17 53.39,-126.74 199.43,-186.2 326.17,-132.81 1157.29,490.92 2295.79,743.51 3429.15,748.56 1131.9,5.05 2262.67,-236.96 3406.05,-735.22 126.2,-55.01 273.12,2.71 328.13,128.91 55.01,126.2 -2.71,273.12 -128.91,328.13 -1207.21,526.07 -2404.8,781.58 -3607.23,776.22 -1200.99,-5.36 -2402.97,-271.13 -3620.55,-787.62zm3539.56 -5849.86c253.32,0 484.72,98.42 654.04,257.51 175.58,164.98 284.21,394.12 284.21,648.25 0,254.13 -108.63,483.27 -284.21,648.25 -169.32,159.09 -400.72,257.51 -654.04,257.51 -253.32,0 -484.73,-98.41 -654.04,-257.5 -175.59,-165.01 -284.21,-394.14 -284.21,-648.26 0,-254.12 108.62,-483.25 284.21,-648.26 169.31,-159.09 400.72,-257.5 654.04,-257.5zm107.16 838.77c-25.49,-23.95 -63.24,-38.77 -107.16,-38.77 -43.93,0 -81.68,14.82 -107.16,38.76 -19.2,18.04 -31.09,41.81 -31.09,67 0,25.18 11.89,48.95 31.09,67 25.48,23.94 63.23,38.76 107.16,38.76 43.92,0 81.67,-14.82 107.16,-38.77 19.2,-18.04 31.09,-41.81 31.09,-66.99 0,-25.18 -11.89,-48.95 -31.09,-66.99zm-6509.63 -52.63l5.17 15.81c415.44,746.16 1001.5,1370.6 1722.03,1875.19 775.82,543.3 1708.9,949.19 2754.95,1220.05 784.64,203.17 1433.49,301.58 2075.63,296.46 640.24,-5.12 1288.94,-114.39 2074.48,-326.55 990.27,-267.46 1827.8,-658.67 2522,-1176.15 680.38,-507.17 1225.04,-1136.36 1642.92,-1889.94l24.97 -73.19c-189.45,-199.12 -389.08,-387.35 -599.1,-564.69 -853.87,-721.01 -1881.58,-1265.32 -3094.72,-1636.48 -956.58,-292.65 -1749.18,-443.41 -2535.63,-450.52 -785.1,-7.11 -1578.4,129.19 -2537.73,410.57 -1279.55,375.31 -2422.59,939.05 -3375.13,1694.67 -238.78,189.42 -465.67,391 -679.84,604.77zm6402.47 -2185.38c664.53,0 1268.23,255.02 1707.01,667.33 445.07,418.2 720.37,997.15 720.37,1637.67 0,640.53 -275.3,1219.47 -720.37,1637.67 -438.78,412.31 -1042.48,667.33 -1707.01,667.33 -664.53,0 -1268.23,-255.02 -1707.01,-667.33 -445.07,-418.21 -720.36,-997.15 -720.36,-1637.67 0,-640.52 275.29,-1219.46 720.36,-1637.67 438.78,-412.31 1042.48,-667.33 1707.01,-667.33zm1160.13 1248.59c-294.96,-277.16 -704.99,-448.59 -1160.13,-448.59 -455.14,0 -865.17,171.43 -1160.13,448.59 -288.68,271.26 -467.24,644.84 -467.24,1056.41 0,411.57 178.56,785.15 467.24,1056.41 294.96,277.16 704.99,448.59 1160.13,448.59 455.14,0 865.17,-171.43 1160.13,-448.59 288.69,-271.26 467.25,-644.84 467.25,-1056.41 0,-411.57 -178.56,-785.15 -467.25,-1056.41zm3797.6 -5907.44l466.24 180.6 -903 2331.22 -466.24 -180.6 903 -2331.22zm11004.35 -28414.82l466.28 180.48 -902.45 2331.44 -466.28 -180.48 902.45 -2331.44zm-1443.92 3730.3l466.28 180.48 -180.48 466.28 -466.28 -180.48 180.48 -466.28zm-721.94 1865.14l466.28 180.48 -902.44 2331.43 -466.28 -180.48 902.44 -2331.43zm-6671.29 17224.46l466.24 180.6 -903 2331.22 -466.24 -180.6 903 -2331.22zm-1444.8 3729.95l466.24 180.6 -180.6 466.24 -466.24 -180.6 180.6 -466.24zm-3034.76 1400.72l491.42 92.22 -461.08 2457.11 -491.42 -92.22 461.08 -2457.11zm5533.05 -29485.33l491.42 92.22 -461.1 2457.13 -491.42 -92.22 461.1 -2457.13zm-737.76 3931.4l491.42 92.22 -92.22 491.42 -491.42 -92.22 92.22 -491.42zm-368.88 1965.69l491.42 92.22 -461.1 2457.12 -491.42 -92.22 461.1 -2457.12zm-737.76 3931.39l491.42 92.22 -92.21 491.42 -491.42 -92.22 92.21 -491.42zm-368.86 1965.69l491.42 92.22 -461.09 2457.11 -491.42 -92.22 461.09 -2457.11zm-737.74 3931.38l491.42 92.22 -92.21 491.42 -491.42 -92.22 92.21 -491.42zm-368.86 1965.68l491.42 92.22 -461.09 2457.11 -491.42 -92.22 461.09 -2457.11zm-737.74 3931.37l491.42 92.22 -92.21 491.42 -491.42 -92.22 92.21 -491.42zm-368.86 1965.68l491.42 92.22 -461.08 2457.11 -491.42 -92.22 461.08 -2457.11zm-737.73 3931.37l491.42 92.22 -92.21 491.42 -491.42 -92.22 92.21 -491.42zm-2220.1 1830.39l0.04 0 0 2500 -0.04 0 -499.96 0 -0.04 0 0 -2500 0.04 0 499.96 0zm0 -30000l0.04 0 0 2500 -0.04 0 -499.96 0 -0.04 0 0 -2500 0.04 0 499.96 0zm0 4000l0.04 0 0 500 -0.04 0 -499.96 0 -0.04 0 0 -500 0.04 0 499.96 0zm0 2000l0.04 0 0 2500 -0.04 0 -499.96 0 -0.04 0 0 -2500 0.04 0 499.96 0zm0 4000l0.04 0 0 500 -0.04 0 -499.96 0 -0.04 0 0 -500 0.04 0 499.96 0zm0 2000l0.04 0 0 2500 -0.04 0 -499.96 0 -0.04 0 0 -2500 0.04 0 499.96 0zm0 4000l0.04 0 0 500 -0.04 0 -499.96 0 -0.04 0 0 -500 0.04 0 499.96 0zm0 2000l0.04 0 0 2500 -0.04 0 -499.96 0 -0.04 0 0 -2500 0.04 0 499.96 0zm0 4000l0.04 0 0 500 -0.04 0 -499.96 0 -0.04 0 0 -500 0.04 0 499.96 0zm0 2000l0.04 0 0 2500 -0.04 0 -499.96 0 -0.04 0 0 -2500 0.04 0 499.96 0zm0 4000l0.04 0 0 500 -0.04 0 -499.96 0 -0.04 0 0 -500 0.04 0 499.96 0zm-6924.77 4285.29l1022.69 1664.42 426 -261.76 -1022.69 -1664.42 -426 261.76zm1794.97 -1505.14l466.24 -180.6 903 2331.21 -466.24 180.6 -903 -2331.21zm-11004.4 -28414.95l466.28 -180.48 902.45 2331.44 -466.28 180.48 -902.45 -2331.44zm1443.92 3730.3l466.28 -180.48 180.48 466.28 -466.28 180.48 -180.48 -466.28zm721.94 1865.14l466.28 -180.48 902.44 2331.43 -466.28 180.48 -902.44 -2331.43zm5948.93 15359.6l466.24 -180.6 180.6 466.25 -466.24 180.6 -180.6 -466.25zm722.41 1864.99l466.24 -180.6 903 2331.22 -466.24 180.6 -903 -2331.22zm1444.8 3729.95l466.24 -180.6 180.6 466.24 -466.24 180.6 -180.6 -466.24zm3009.58 1312.33l491.42 -92.22 461.08 2457.11 -491.42 92.22 -461.08 -2457.11zm-5533.06 -29485.33l491.42 -92.22 461.1 2457.13 -491.42 92.22 -461.1 -2457.13zm737.76 3931.4l491.42 -92.22 92.22 491.42 -491.42 92.22 -92.22 -491.42zm368.88 1965.69l491.42 -92.22 461.1 2457.12 -491.42 92.22 -461.1 -2457.12zm737.76 3931.39l491.42 -92.22 92.21 491.42 -491.42 92.22 -92.21 -491.42zm368.86 1965.69l491.42 -92.22 461.09 2457.11 -491.42 92.22 -461.09 -2457.11zm737.74 3931.38l491.42 -92.22 92.21 491.42 -491.42 92.22 -92.21 -491.42zm368.86 1965.68l491.42 -92.22 461.09 2457.11 -491.42 92.22 -461.09 -2457.11zm737.74 3931.37l491.42 -92.22 92.21 491.42 -491.42 92.22 -92.21 -491.42zm368.86 1965.68l491.42 -92.22 461.09 2457.11 -491.42 92.22 -461.09 -2457.11zm737.74 3931.37l491.42 -92.22 92.21 491.42 -491.42 92.22 -92.21 -491.42zm8041.78 17924.36c59.32,-124.04 207.99,-176.51 332.03,-117.19 124.04,59.32 176.51,207.99 117.19,332.03l-1724.49 3583.98c-59.32,124.04 -207.99,176.51 -332.03,117.19 -124.04,-59.32 -176.51,-207.99 -117.19,-332.03l1724.49 -3583.98zm7063.43 -13256.31c55.01,-126.2 201.93,-183.92 328.13,-128.91 126.2,55.01 183.92,201.93 128.91,328.13 -300.06,686.46 -267.68,1333.81 -14.63,1900.13 296.35,663.25 893.4,1224.25 1618.4,1616.8 121.35,65.25 166.82,216.54 101.57,337.89 -65.25,121.35 -216.54,166.82 -337.89,101.57 -816.57,-442.13 -1493.63,-1084.31 -1837.16,-1853.14 -308.2,-689.76 -349.17,-1474.69 12.67,-2302.47zm8619.32 -17866.52c122.54,-182.94 370.19,-231.91 553.13,-109.37 182.94,122.54 231.91,370.19 109.37,553.13l-2586.27 3840.65c-122.54,182.94 -370.19,231.91 -553.13,109.37 -182.94,-122.54 -231.91,-370.19 -109.37,-553.13l2586.27 -3840.65zm6476.8 -2240.28c-6.19,-11.49 -11.86,-23.39 -16.98,-35.65 -414.08,-868.13 -999.21,-1755.04 -1547.41,-2585.87 -192.16,-291.23 -380.28,-576.33 -505.31,-771.66 -320.71,-501.04 -779.31,-924.78 -1307.54,-1303.65 -546.03,-391.64 -1169.23,-736.7 -1794.65,-1068.96 -160.37,-85.19 -273.03,-110.98 -344.82,-96.2 -11.55,2.37 -20.22,6.02 -26.14,10.58 -5.72,4.4 -11.84,12.88 -18.06,24.59 -26.52,49.93 -31.68,123.27 -14.82,205.2 129.69,630.13 362.66,1200.59 664.84,1682.92 311.11,496.56 694.38,898.61 1111.83,1174.08l1.56 0c308.69,203.72 499.83,245.38 948.32,343.12l86.29 18.84c215.73,46.6 352.85,259.28 306.25,475.01 -42.57,197.06 -223.71,328.5 -419.18,314.26 56.29,807.97 483.33,1431.18 793.55,1883.87 151.66,221.31 280.11,408.76 355.46,592.48 896.36,1379.75 1769.7,2869.67 1840.29,4277.1 1.89,37.65 3.88,75.92 5.97,114.78 84.46,-335.97 157.05,-664.79 217.14,-984.81 166.16,-884.79 237.38,-1701.49 201.61,-2414.87 -29.48,-587.66 -236.64,-1216.03 -538.2,-1855.16zm-586.5 -2584.18c-29.63,-205.32 -57.53,-409.9 -85.24,-613.13 -125.12,-917.78 -246.38,-1807.14 -509.4,-2579.06l-23.31 -68.44c-282.18,-828.71 -524.45,-1540.18 -1053.9,-2301.09 -91.9,-132.08 -172.66,-200.53 -239.64,-221.5 -15.96,-4.99 -30.2,-6.11 -42.46,-3.99 -12.48,2.16 -26.65,8.92 -41.66,19.36 -52,36.18 -95.14,102.46 -121.14,185.5 -169.33,540.81 -245.56,1073.48 -239.69,1571.33 6.03,512.4 99.11,989.99 266.98,1402.48 3.93,9.71 7.46,19.49 10.58,29.31 499.91,387.21 937.89,823.93 1267.56,1338.97 194.38,303.68 345.17,532.21 499.05,765.42 103.26,156.49 207.76,314.89 312.27,474.84zm-33243.14 36162.13c-59.32,-124.04 -6.85,-272.71 117.19,-332.03 124.04,-59.32 272.71,-6.85 332.03,117.19l1724.5 3583.98c59.32,124.04 6.85,272.71 -117.19,332.03 -124.04,59.32 -272.71,6.85 -332.03,-117.19l-1724.5 -3583.98zm-7071.24 -13271.93c-55.01,-126.2 2.71,-273.12 128.91,-328.13 126.2,-55.01 273.12,2.71 328.13,128.91 361.85,827.79 320.86,1612.72 12.67,2302.48 -343.53,768.83 -1020.6,1411.01 -1837.16,1853.13 -121.35,65.25 -272.64,19.78 -337.89,-101.57 -65.25,-121.35 -19.78,-272.64 101.57,-337.89 724.99,-392.54 1322.05,-953.54 1618.4,-1616.79 253.04,-566.34 285.43,-1213.68 -14.63,-1900.14zm-8824.78 -17621.98c-122.54,-182.94 -73.57,-430.59 109.37,-553.13 182.94,-122.54 430.59,-73.57 553.13,109.37l2586.26 3840.65c122.54,182.94 73.57,430.59 -109.37,553.13 -182.94,122.54 -430.59,73.57 -553.13,-109.37l-2586.26 -3840.65zm-5227.79 -5268.23c104.51,-159.95 209.02,-318.36 312.28,-474.86 153.89,-233.23 304.59,-461.62 499.03,-765.39 329.66,-515.03 767.64,-951.76 1267.55,-1338.97 3.12,-9.82 6.65,-19.6 10.58,-29.31 167.88,-412.49 260.96,-890.06 267,-1402.43 5.87,-497.87 -70.37,-1030.55 -239.7,-1571.38 -25.99,-83.04 -69.13,-149.32 -121.14,-185.5 -15.01,-10.44 -29.18,-17.2 -41.66,-19.36 -12.27,-2.12 -26.51,-1 -42.47,3.99 -66.99,20.97 -147.75,89.42 -239.65,221.5 -529.48,760.94 -771.75,1472.46 -1053.94,2301.24l-23.26 68.29c-263.01,771.9 -384.26,1661.25 -509.38,2579.02 -27.71,203.24 -55.6,407.82 -85.24,613.16zm-569.66 2548.81c-5.06,12.1 -10.66,23.84 -16.76,35.19 -301.6,639.2 -508.79,1267.64 -538.28,1855.35 -35.78,713.39 35.44,1530.11 201.6,2414.91 60.09,320.01 132.67,648.83 217.13,984.78 2.09,-38.85 4.08,-77.14 5.97,-114.79 70.59,-1407.46 943.95,-2897.38 1840.32,-4277.14 75.36,-183.71 203.8,-371.16 355.45,-592.47 310.21,-452.69 737.24,-1075.9 793.54,-1883.84 -195.45,14.23 -376.6,-117.2 -419.17,-314.26 -46.6,-215.73 90.52,-428.41 306.25,-475.01l86.29 -18.84c448.49,-97.74 639.61,-139.41 948.3,-343.12 419.18,-276.62 803.02,-678.69 1113.4,-1174.1 302.18,-482.31 535.15,-1052.76 664.84,-1682.9 16.86,-81.93 11.69,-155.27 -14.83,-205.2 -6.22,-11.72 -12.35,-20.21 -18.06,-24.6 -5.92,-4.55 -14.58,-8.19 -26.15,-10.57 -71.78,-14.77 -184.44,11.01 -344.8,96.2 -625.43,332.26 -1248.63,677.32 -1794.66,1068.96 -528.24,378.88 -986.82,802.61 -1307.53,1303.65 -124.95,195.21 -313.16,480.44 -505.29,771.63 -548.27,830.92 -1133.47,1717.94 -1547.56,2586.17zm3664.07 -1640.12c144.98,-120.89 296.15,-236.95 452.27,-348.92 39.68,-28.46 79.67,-56.65 119.94,-84.58l-15.02 10c-213.38,140.82 -378.44,224.96 -555.71,288.21 0.43,45.64 -0.14,90.7 -1.48,135.29z"/>
  </g>
  <text x="0.001" y="67369.998" fill="#000000" font-size="5px" font-weight="bold" font-family="'Helvetica Neue', Helvetica, Arial-Unicode, Arial, Sans-serif" style="white-space: pre; font-size: 5.1px;">Created by Olena Panasovska</text>
  <text x="0.001" y="67375.072" fill="#000000" font-size="5px" font-weight="bold" font-family="'Helvetica Neue', Helvetica, Arial-Unicode, Arial, Sans-serif" style="white-space: pre; font-size: 5.1px;">from the Noun Project</text>
</svg>