<?xml version="1.0" encoding="utf-8"?>
<svg viewBox="0 0 500 500" xmlns="http://www.w3.org/2000/svg">
  <defs/>
  <g transform="matrix(0.673488, 0, 0, 0.673488, -101.066208, -175.083359)">
    <path style="" d="m 503.56392,979.60809 c -25.27124,-5.62662 -48.05136,-21.57852 -63.32521,-44.3438 -16.01667,-23.87245 -22.98107,-49.65583 -22.86681,-84.65676 0.074,-22.65937 2.30376,-40.18823 10.17651,-80 7.05004,-35.65141 8.17651,-42.19815 11.48038,-66.72115 2.56495,-19.03834 6.92478,-62.72253 6.32026,-63.32706 -0.18252,-0.18251 -6.17133,0.0798 -13.30849,0.58294 -105.11666,7.41011 -167.77103,4.5994 -226.47664,-10.15987 -24.57339,-6.17804 -36.69998,-13.44995 -46.49812,-27.88336 -6.85616,-10.09966 -9.00188,-17.01017 -9.00188,-28.9915 0,-12.22997 2.71382,-21.16188 9.52282,-31.34218 9.65751,-14.43918 22.70723,-24.7104 58.10622,-45.73446 35.0457,-20.81423 48.7469,-33.15915 65.39699,-58.92336 30.69275,-47.49369 39.1356,-58.53487 62.1064,-81.21998 40.42022,-39.91752 86.04931,-63.53101 140.9647,-72.95061 17.39967,-2.98455 54.02646,-3.25028 71.11378,-0.51593 54.35931,8.69868 100.14604,32.46694 140.46104,72.91446 19.39072,19.45446 31.93564,35.9292 55.794,73.27206 22.94719,35.9167 33.84571,45.69208 81.30527,72.92642 33.82953,19.41284 51.22361,37.60823 56.22321,58.81331 5.81372,24.65803 -6.73787,49.93686 -30.605,61.63835 -19.91562,9.76417 -76.68611,20.85094 -124.04445,24.22478 -26.59265,1.89449 -88.38196,0.62629 -122.34498,-2.51107 -15.4,-1.42259 -28.6203,-2.58771 -29.37844,-2.58916 -1.9784,-0.004 -0.95742,73.49291 1.30577,93.99737 4.90824,44.46856 13.67644,77.95253 25.40067,97 2.53905,4.125 9.57895,12.90099 15.64423,19.50219 6.06527,6.6012 12.66054,14.2512 14.65615,17 15.34353,21.13451 18.24371,48.03524 7.46602,69.25138 -7.45054,14.66654 -18.58445,24.23894 -35.5463,30.56097 -4.96742,1.85146 -7.85067,2.07405 -27.5481,2.12668 l -22,0.0588 -13,4.42264 c -12.59304,4.2842 -13.43826,4.43207 -27,4.72389 -9.57413,0.20602 -16.05487,-0.15626 -20.5,-1.14597 z m 34.8867,-29.00056 c 4.46232,-1.375 11.8258,-3.70919 16.3633,-5.18708 7.90255,-2.57392 9.17652,-2.68973 30.25,-2.75 l 22,-0.0629 5.5,-3.09878 c 6.63967,-3.74089 12.13948,-10.61234 14.64589,-18.29855 4.9216,-15.09264 -0.59521,-29.23564 -19.15729,-49.11198 -4.87473,-5.2199 -11.41729,-12.93411 -14.53901,-17.14271 -18.65929,-25.15583 -30.4482,-69.47885 -35.00689,-131.61605 -2.01743,-27.49861 0.0574,-144.95745 3.48845,-197.48195 l 0.50625,-7.75 h -9.36384 -9.36384 l 1.92124,6.17295 c 7.40956,23.80696 6.8708,66.31971 -1.24498,98.24035 -4.02849,15.84464 -11.52335,25.60545 -21.97302,28.61617 -2.80847,0.80916 -3.63436,0.68267 -4.66296,-0.7142 -2.08486,-2.83128 -1.44435,-4.13541 3,-6.10826 8.45937,-3.75513 14.89162,-13.61969 18.06655,-27.70701 7.18968,-31.901 7.59051,-71.27948 0.94665,-93 l -1.83528,-6 -4.71396,-0.30479 c -2.59268,-0.16764 -4.71396,0.0235 -4.71396,0.42482 0,0.40128 1.09352,3.91344 2.43005,7.80479 4.63869,13.50574 6.03348,22.8648 5.97244,40.07518 -0.0563,15.89107 -1.5285,27.5845 -4.90989,39 l -1.48106,5 0.50692,-4.5 c 1.40091,-12.43625 1.67676,-38.35829 0.52676,-49.5 -1.32656,-12.85228 -4.64595,-27.55382 -7.68146,-34.02103 -1.68737,-3.595 -2.26921,-4.00824 -6.02939,-4.28225 l -4.1618,-0.30328 2.83417,7.30328 c 4.97248,12.81346 6.48063,22.4254 6.48063,41.30328 0,12.55993 -0.47034,19.22003 -1.80083,25.5 -2.0872,9.85165 -5.65292,22.36695 -6.21298,21.80689 -0.21158,-0.21158 0.3624,-4.64219 1.27551,-9.84579 1.20435,-6.86333 1.65811,-15.36444 1.65261,-30.9611 -0.007,-19.75732 -0.22321,-22.41832 -2.66778,-32.82962 -1.4631,-6.23129 -3.77688,-13.76879 -5.14172,-16.75 -2.46745,-5.38962 -2.50707,-5.42038 -6.98063,-5.42038 h -4.49909 l 1.97662,4.46847 c 7.67403,17.34843 9.56317,48.49348 4.32554,71.3126 -2.10629,9.17662 -5.54541,20.42147 -6.08168,19.8852 -0.24199,-0.24199 0.3085,-4.4284 1.22332,-9.30312 2.19928,-11.71923 3.0822,-44.50897 1.49691,-55.59225 -1.38946,-9.71417 -3.38612,-17.91303 -6.18246,-25.3869 -1.96666,-5.25638 -2.10752,-5.384 -5.94256,-5.384 -2.16048,0 -3.92815,0.15586 -3.92815,0.34636 0,0.1905 0.6781,1.70566 1.5069,3.36701 7.56432,15.16304 8.32853,50.19757 1.5487,70.99887 l -1.88642,5.78776 0.66541,-7.5 c 0.36597,-4.125 0.63565,-15.825 0.59929,-26 -0.0711,-19.89502 -1.96318,-32.62614 -6.30885,-42.45024 -3.13704,-7.09182 -4.58657,-5.58125 -4.82766,5.03094 -2.59533,114.23942 -7.69278,170.34904 -22.28061,245.25112 -7.2205,37.07413 -9.73803,54.04471 -10.63174,71.66818 -1.97685,38.98282 10.62857,73.03226 34.44428,93.03995 3.95423,3.32197 8.64778,6.88268 10.43011,7.91268 2.87655,1.66235 2.69967,1.32085 -1.57451,-3.03995 -12.57495,-12.8298 -22.62617,-33.62341 -27.90276,-57.72427 -1.96684,-8.98353 -2.22449,-12.96751 -2.1787,-33.68841 0.0359,-16.21793 0.49268,-25.64645 1.47425,-30.4268 l 1.42231,-6.92681 0.13549,18.92681 c 0.17803,24.86919 2.73098,41.48312 9.50006,61.82402 4.30723,12.94312 19.71805,41.27781 29.385,54.02795 4.47884,5.90732 24.97764,7.50845 39.36615,3.07483 z m -9.16047,-11.92176 c -30.60337,-12.58473 -53.04523,-48.83572 -55.5263,-89.69327 -0.79578,-13.10465 0.0808,-32.46255 2.0093,-44.37116 1.27749,-7.88869 1.29416,-7.72997 1.36517,13 0.124,36.19847 6.0333,59.14599 21.29946,82.71198 6.38798,9.86097 21.46541,25.52701 33.87614,35.19864 3.4375,2.67883 6.25,5.02922 6.25,5.22309 0,0.97179 -4.10707,0.0554 -9.27377,-2.06928 z m 65.65657,-12.10311 c -27.38868,-14.27595 -46.03556,-44.2398 -53.50342,-85.97513 -1.67039,-9.33525 -2.24382,-17.32951 -2.58229,-36 -0.23929,-13.2 -0.007,-26.475 0.51702,-29.5 0.92177,-5.32489 0.95583,-5.18163 1.06982,4.5 0.36165,30.71577 6.21577,63.61452 15.26867,85.80625 8.73372,21.4093 19.63951,37.57336 36.73287,54.44375 5.712,5.6375 10.1322,10.25 9.82266,10.25 -0.30954,0 -3.60594,-1.58619 -7.32533,-3.52487 z m 20.72183,-14.05765 c -8.8384,-2.37678 -15.09063,-6.40811 -24.68654,-15.91748 -22.24617,-22.04555 -33.55374,-53.14424 -34.90584,-96 l -0.47326,-15 1.49993,10.43822 c 8.1954,57.03314 26.38001,90.45699 59.71108,109.75072 5.40131,3.12656 7.75,5.06569 7.75,6.39858 0,2.27142 -1.47264,2.32605 -8.89537,0.32996 z m 69.97113,-296.32183 c -2.98569,-3.76973 -11.16848,-11.25951 -21.57576,-19.74845 -7.89411,-6.43902 -28.18812,-19.5027 -42.38563,-27.28452 -15.88019,-8.7041 -18.23851,-9.60179 -21.14229,-8.04774 -1.84137,0.98547 -2.92136,0.69391 -7.13732,-1.92688 -5.37299,-3.34003 -5.83476,-3.51804 -5.83476,-2.2493 0,0.46131 4.49512,3.63659 9.98915,7.05616 26.47928,16.48111 42.70057,31.8524 52.02515,49.29899 3.5428,6.62869 2.45036,6.34257 25.31973,6.63138 l 13.83403,0.17471 z m 47.3525,3.03014 6.92827,-0.62579 -7.30569,-6.75527 c -7.47681,-6.9135 -26.14916,-19.78236 -40.70934,-28.05662 -13.10413,-7.44681 -40.73794,-20.97698 -55.3415,-27.09653 -7.425,-3.1114 -14.2936,-6.09998 -15.26355,-6.64127 -1.27721,-0.71277 -2.77348,-0.46606 -5.42567,0.8946 l -3.66212,1.87878 2.42567,1.48631 c 1.33412,0.81748 6.92962,3.99363 12.43444,7.05813 27.62615,15.37927 52.7165,36.74808 62.79614,53.48187 l 3.16235,5.25 16.51637,-0.12421 c 9.084,-0.0683 19.63409,-0.40582 23.44463,-0.75 z m -87.61612,-4.74312 c -4.93828,-6.88428 -20.17117,-21.0153 -30.59581,-28.38267 -9.97131,-7.04698 -25.99253,-17 -27.36465,-17 -0.46843,0 -0.82025,2.3625 -0.78183,5.25 l 0.0698,5.25 6.14557,4.5 c 7.95287,5.82337 16.88258,16.53732 21.39784,25.67332 4.26699,8.63367 2.34642,8.04159 29.62903,9.134 l 4.81213,0.19268 -3.31213,-4.61733 z m 133.66073,0.0726 c 5.48509,-0.86221 10.10901,-1.7038 10.2754,-1.87019 0.16639,-0.16638 -1.62141,-1.85751 -3.97287,-3.75805 -29.70937,-24.01223 -89.69098,-51.0369 -146.0791,-65.81584 -8.69203,-2.27812 -16.26188,-3.98931 -16.82188,-3.80264 -0.56001,0.18667 4.30166,2.53471 10.80369,5.21787 46.87913,19.34538 91.61468,47.70161 106.20055,67.31663 l 5.12912,6.89762 12.24611,-1.30886 c 6.73536,-0.71988 16.7339,-2.01432 22.21898,-2.87654 z m -462.32824,-2.20527 c 14.54279,-21.3158 57.13595,-50.54691 100.70247,-69.11072 2.9409,-1.25313 5.13012,-2.49539 4.86492,-2.76059 -0.26519,-0.26519 -5.82138,0.86314 -12.34709,2.50741 -46.12184,11.62121 -111.34421,42.31286 -137.36493,64.63971 -3.025,2.59557 -5.63071,5.05622 -5.79047,5.4681 -0.15975,0.41189 5.46525,1.26236 12.5,1.88995 18.46963,1.64771 20.08647,1.76228 27.49243,1.94804 l 6.70196,0.1681 z m 49.21587,-0.72929 c 8.60932,-16.47681 40.07831,-43.99053 64.65494,-56.52859 l 4.40401,-2.24676 -3.79772,-1.51473 c -3.67345,-1.46517 -4.04841,-1.40702 -11.45972,1.77708 -13.62018,5.85161 -46.36648,22.82244 -57.4047,29.75011 -13.87207,8.7062 -28.43798,19.52759 -37.25731,27.67942 l -7,6.4702 22.5,0.0439 22.5,0.0439 2.8605,-5.47454 z m 27.80131,3.90384 10.66182,-0.60499 2.23993,-5.98953 c 2.58202,-6.90426 8.08385,-15.76384 13.60327,-21.90534 4.97501,-5.53574 16.64189,-14.81026 23.73731,-18.86985 5.49496,-3.14389 5.59586,-3.283 5.59586,-7.71483 v -4.51321 l -10.25,5.42518 c -24.42979,12.93034 -43.60142,26.58352 -60.5,43.0854 -6.1875,6.04225 -11.25,11.39409 -11.25,11.89299 0,0.51239 3.37213,0.66604 7.75,0.35312 4.2625,-0.30468 12.54782,-0.8262 18.41181,-1.15894 z m 220.83819,0.93677 c 0,-0.35128 -2.52523,-3.72527 -5.61162,-7.49776 -6.819,-8.33484 -19.94225,-19.86356 -22.61089,-19.86356 -0.42762,0 -0.77749,2.08296 -0.77749,4.6288 0,3.90463 0.55973,5.24836 3.57774,8.58893 4.11045,4.54978 3.94803,5.62264 -0.50278,3.32104 -3.70505,-1.91596 -4.39408,-1.0119 -3.89159,5.10607 l 0.31663,3.85516 12,1.10615 c 15.60571,1.43852 17.5,1.52026 17.5,0.75517 z m -179.5,-3.19587 12,-0.66545 0.29206,-7.75 c 0.35308,-9.36895 0.37129,-9.36282 -10.93271,-3.67928 l -8.09625,4.07071 2.16748,-3.04394 c 2.91219,-4.0898 9.88891,-9.7063 14.39652,-11.5897 l 3.6729,-1.53463 v -6.56814 -6.56814 l -3.75,2.26729 c -15.91833,9.6244 -30.24182,23.24419 -35.84951,34.08826 l -1.47946,2.86095 7.78949,-0.61124 c 4.28421,-0.33618 13.18948,-0.91069 19.78948,-1.27669 z m -169.52393,-5.33899 c 10.30708,-15.18745 47.89631,-38.95204 89.10418,-56.33327 7.38086,-3.11321 21.96975,-8.54732 32.41975,-12.07581 10.45,-3.52849 18.20281,-6.41588 17.22846,-6.41641 -4.72842,-0.003 -38.33563,7.54131 -55.22846,12.39728 -31.35031,9.01186 -54.4366,17.64063 -79.42482,29.68593 -22.16197,10.68294 -43.74676,24.40107 -42.811,27.20835 0.20119,0.60359 3.26156,2.57915 6.80081,4.39014 5.63906,2.88543 18.19176,5.77179 26.93501,6.19342 0.825,0.0398 3.06423,-2.23255 4.97607,-5.04963 z m 537.52393,2.14842 c 3.01161,-0.62664 7.67954,-2.85592 11.73796,-5.60577 6.31722,-4.28033 6.64966,-4.69147 5.32389,-6.58426 -4.10918,-5.86669 -27.07056,-19.08282 -50.06185,-28.81465 -24.14822,-10.22154 -58.28915,-21.22422 -89.5,-28.84337 -13.27327,-3.24025 -39.22799,-8.23218 -39.80448,-7.65568 -0.1891,0.1891 2.27704,1.06636 5.48033,1.94947 62.38365,17.19838 129.72959,51.97527 145.88434,75.33348 1.07651,1.55652 2.23684,2.10045 3.74939,1.75762 1.20473,-0.27306 4.44042,-0.96464 7.19042,-1.53684 z M 197.03579,595.45859 c -2.90641,-5.4662 -3.38262,-15.23556 -1.01847,-20.89376 2.17786,-5.21236 11.00062,-13.97493 19.24426,-19.11296 23.33497,-14.54405 74.29939,-29.84625 130.80234,-39.27375 52.46479,-8.75374 101.16737,-12.9166 161,-13.76151 137.96185,-1.94818 268.65316,19.49336 320.14455,52.5237 19.14237,12.27932 25.50244,25.71785 18.89169,39.91722 -1.34433,2.8875 -2.22497,5.25 -1.95699,5.25 0.26798,0 2.69412,-1.11831 5.39142,-2.48514 14.53191,-7.36387 20.06466,-22.37398 13.3317,-36.16826 -5.72903,-11.73744 -19.74884,-23.07862 -49.30237,-39.88263 -30.36127,-17.26328 -47.49627,-30.63383 -62.883,-49.06802 -7.70176,-9.22716 -12.54851,-16.25496 -31.30744,-45.39595 -17.83941,-27.71257 -39.92596,-53.10085 -60.80956,-69.90004 -68.52609,-55.12376 -156.84378,-64.26018 -235.3443,-24.34623 -21.39534,10.87856 -39.3556,24.02533 -59.01918,43.20159 -19.6538,19.16672 -32.60565,35.89996 -54.57397,70.50723 -10.12067,15.94336 -18.33691,26.5398 -28.85815,37.21817 -13.87819,14.08547 -25.35917,22.49202 -51.7044,37.8587 -20.93384,12.21033 -31.84095,19.82045 -40.07414,27.96058 -8.19546,8.10282 -11.65525,14.52321 -12.24891,22.73048 -0.72105,9.96836 5.41263,19.4922 16.22199,25.18808 2.69442,1.41979 5.26926,2.58144 5.72186,2.58144 0.45261,0 -0.28941,-2.09202 -1.64893,-4.64894 z m 79.52813,-91.073 c 21.11025,-10.11653 26.78922,-13.24513 34.37103,-18.93537 4.84136,-3.6335 11.26998,-9.58454 14.28582,-13.22453 6.57041,-7.93019 15.39059,-25.3595 18.78383,-37.11816 2.89326,-10.02608 3.23907,-7.33453 0.99735,7.76269 -1.67754,11.29759 -5.58656,23.34413 -9.6783,29.82586 -2.69184,4.26416 -9.77279,11.422 -14.44703,14.60391 -8.44233,5.74698 -32.99906,15.68748 -44.8127,18.14007 -2.90991,0.60411 -2.89489,0.57244 0.5,-1.05447 z m 56,-18.66636 c 0,-0.15118 2.3625,-1.79802 5.25,-3.65965 7.27666,-4.6914 14.57549,-11.68965 16.85801,-16.16377 1.05528,-2.06852 3.06076,-9.5046 4.45662,-16.52462 2.97848,-14.9793 6.94342,-27.33697 12.02385,-37.47516 4.25028,-8.4816 12.82251,-21.7605 17.29336,-26.7885 2.98257,-3.35424 2.94601,-3.20965 -0.87776,3.47202 -8.90447,15.5597 -15.63342,35.91119 -19.4575,58.84854 -4.08037,24.47465 -5.39238,26.10468 -28.79658,35.77655 -3.7125,1.5342 -6.75,2.66577 -6.75,2.51459 z m 398.5,-16.79003 c -3.3,-1.08825 -12.62914,-3.70145 -20.73142,-5.80711 -8.10228,-2.10566 -16.25222,-4.76838 -18.11097,-5.91715 -4.87857,-3.01512 -8.23748,-8.42547 -13.65944,-22.00187 -8.79279,-22.01687 -18.37221,-38.34522 -31.21601,-53.20845 l -7.24307,-8.3819 6.3185,4.9641 c 17.28999,13.58378 33.47959,36.41238 43.10271,60.77818 3.0677,7.76742 8.44154,12.90058 17.41724,16.63717 10.84689,4.51557 30.62246,13.91605 30.62246,14.55663 0,0.3073 -0.1125,0.5138 -0.25,0.45888 -0.1375,-0.0549 -2.95,-0.99024 -6.25,-2.07848 z M 384.66168,458.12778 c -5.85243,-27.28893 10.216,-68.69854 36.48327,-94.02025 5.82824,-5.61845 6.26432,-5.88969 3.2153,-2 -14.46969,18.45931 -26.05224,43.63704 -30.75414,66.85224 -1.07471,5.30627 -2.26489,14.93526 -2.64486,21.39776 -0.37996,6.4625 -1.038,11.75 -1.4623,11.75 -0.4243,0 -1.43927,0.25626 -2.25548,0.56947 -1.12057,0.43001 -1.75288,-0.68416 -2.58179,-4.54922 z m 325.10149,-11.00669 c -1.81541,-0.42995 -3.53181,-1.01278 -3.81422,-1.29519 -0.28241,-0.28242 -2.0616,-5.72634 -3.95376,-12.09761 -1.89216,-6.37127 -4.56264,-14.12195 -5.93439,-17.22374 -3.11887,-7.05232 -1.15347,-5.66044 4.9195,3.48395 5.41491,8.15351 14.88817,28.15661 13.2684,28.01667 -0.65163,-0.0563 -2.67012,-0.45414 -4.48553,-0.88408 z m -60.37438,-12.64218 c -3.17338,-1.31728 -3.76953,-2.09527 -4.36662,-5.69847 -2.3551,-14.21196 -12.82647,-33.63694 -25.37801,-47.07761 l -4.58024,-4.90469 4.83027,3.38186 c 7.66679,5.36782 20.06589,18.97947 25.05967,27.51034 4.71097,8.04776 7.97449,16.6867 9.12959,24.16719 0.72681,4.70683 0.55729,4.80149 -4.69466,2.62138 z M 419.56392,421.92142 c 0,-19.35879 9.6153,-40.52732 26.48769,-58.31389 7.22556,-7.61705 7.35643,-7.24372 0.7671,2.18836 -10.30757,14.75444 -18.11213,36.33436 -18.99052,52.50955 l -0.52665,9.6979 -3.01803,1.0521 c -1.65992,0.57865 -3.40089,1.05209 -3.86881,1.05209 -0.46793,0 -0.85078,-3.68375 -0.85078,-8.18611 z m 194.3953,1.75633 c -2.50916,-1.09224 -3.22724,-2.11775 -3.74348,-5.34618 -0.93747,-5.86257 -8.86055,-20.93132 -14.18284,-26.97404 -6.88655,-7.81873 -3.76173,-6.3479 5.8566,2.75665 6.49728,6.15022 9.3909,9.80204 12.47997,15.75 4.51725,8.69792 6.26979,15.26787 4.05574,15.20421 -0.74871,-0.0215 -2.75841,-0.64731 -4.46599,-1.39064 z M 450.58128,413.35753 c 0.0518,-17.14455 9.50579,-37.79089 23.46752,-51.25 l 4.66805,-4.5 -3.6839,5.5 c -9.59078,14.31885 -15.38633,30.80087 -15.79617,44.92283 l -0.24444,8.42283 -3.46421,1.25109 c -1.90532,0.6881 -3.80171,1.28533 -4.21421,1.32717 -0.4125,0.0418 -0.74219,-2.51142 -0.73264,-5.67392 z M 228.80624,592.82817 c 20.61303,-20.61303 78.43017,-47.03457 133.75768,-61.12519 9.625,-2.45126 16.92323,-4.48803 16.2183,-4.52614 -2.77442,-0.15003 -36.54286,5.18757 -50.7183,8.01676 -51.76417,10.33132 -95.49499,25.83116 -109.82164,38.92491 -6.43391,5.88024 -7.84782,9.82686 -5.29152,14.77019 1.59542,3.0852 7.85217,10.21883 8.96272,10.21883 0.33737,0 3.43912,-2.82571 6.89276,-6.27936 z m 599.21553,-1.0585 c 5.79208,-9.88343 2.11893,-16.38122 -14.95851,-26.46153 -16.99308,-10.03051 -52.69023,-21.7813 -89.99934,-29.62597 -13.10385,-2.75523 -39.7686,-7.13822 -48.5,-7.97212 -5.12877,-0.48983 -4.96003,-0.39358 2.5,1.426 67.73968,16.52246 130.97513,44.17659 144.00258,62.97521 1.52318,2.19795 3.13925,3.99627 3.59127,3.99627 0.45201,0 1.96581,-1.95204 3.364,-4.33786 z" fill="#000000"/>
  </g>
</svg>