<?xml version="1.0" encoding="utf-8"?>
<svg viewBox="0 0 500 500" xmlns="http://www.w3.org/2000/svg">
  <defs/>
  <g transform="matrix(0.709793, 0, 0, 0.684281, -137.492249, -183.873566)">
    <path style="" d="m 568.57701,999.12387 c -0.3117,-0.32013 -6.14941,-0.82416 -12.97268,-1.12008 -14.78481,-0.64119 -16.6711,-1.10264 -33.4606,-8.18544 l -13,-5.48417 -6.5,2.07382 c -20.36365,6.49701 -41.62103,1.83808 -54.35121,-11.91204 -7.99021,-8.63037 -12.72051,-19.04926 -18.15474,-39.98736 -2.49806,-9.625 -5.71432,-20.58677 -7.14725,-24.35948 -3.05188,-8.03522 -10.47511,-19.47155 -16.31686,-25.138 -3.98883,-3.86913 -4.38856,-4.01524 -12.44909,-4.55047 -11.22658,-0.74546 -19.21048,-4.62445 -27.13448,-13.18332 -10.55326,-11.39879 -13.02009,-21.6731 -8.05495,-33.54886 1.31528,-3.14593 2.91052,-8.25118 3.54497,-11.34501 3.00023,-14.6301 16.07787,-24.1909 28.37588,-20.74502 2.30325,0.64537 8.46273,1.23001 13.68773,1.2992 11.04881,0.14631 17.03952,2.29521 23.33473,8.37031 5.57243,5.37758 8.01296,10.6307 8.13623,17.51282 l 0.1041,5.81217 5.20738,2.84768 c 7.24999,3.96468 16.89565,11.82898 22.14353,18.05405 5.10898,6.06031 12.68697,18.93517 13.60489,23.11445 1.2133,5.5241 2.16956,2.75467 2.78938,-8.0783 1.59872,-27.94192 8.78994,-64.94711 28.18995,-145.06222 16.41542,-67.78986 18.44263,-79.01156 18.47149,-102.25 l 0.0183,-14.75 h -3.39052 c -1.86479,0 -7.82729,-1.16554 -13.25,-2.59009 -17.9634,-4.71899 -26.1117,-2.31165 -42.85948,12.66241 -16.5886,14.83174 -26.4342,19.18502 -43.5,19.23376 -8.05903,0.023 -12.99685,-0.58523 -21.24035,-2.61643 -17.56801,-4.32875 -26.75452,-5.05864 -46.11584,-3.66399 -33.77132,2.43263 -46.31461,-1.26041 -63.29873,-18.6366 -5.03521,-5.15145 -10.43521,-9.85775 -12,-10.45846 -1.5648,-0.6007 -7.59202,-1.44762 -13.39383,-1.88203 -8.48951,-0.63565 -11.66708,-1.33743 -16.27756,-3.59496 -7.05463,-3.45431 -13.95628,-10.6635 -17.45765,-18.23554 -2.39569,-5.18091 -2.6995,-7.22113 -3.23399,-21.71807 -0.53981,-14.64135 -0.81733,-16.47203 -3.26816,-21.55883 -1.49546,-3.10389 -6.48435,-9.72834 -11.29655,-15 -4.74006,-5.19264 -9.86254,-11.24117 -11.38329,-13.44117 -16.47134,-23.82833 -14.33471,-52.04834 6.00597,-79.32538 12.4235,-16.66001 34.7837,-36.61951 49.97631,-44.6106 11.29997,-5.94362 19.24428,-7.62992 39.98367,-8.48715 15.53403,-0.64207 19.42074,-1.12144 24.24302,-2.99001 14.19096,-5.4988 29.50018,-21.71373 39.75351,-42.10539 8.17343,-16.25519 19.08172,-30.46766 30.27254,-39.44227 18.52395,-14.8555 42.48021,-22.36256 67.73093,-21.22452 15.11393,0.68117 23.51505,2.51387 47.16833,10.28975 10.81759,3.55622 22.74259,7.11723 26.5,7.91335 10.64332,2.2551 23.15599,1.8856 35.23379,-1.04048 23.10907,-5.59862 38.66571,-7.1854 54.09788,-5.51801 27.86371,3.01058 48.55628,12.52953 65.6095,30.18157 8.38583,8.68029 13.40565,16.21816 23.88032,35.85914 11.83776,22.19692 20.05404,32.69775 31.54824,40.3203 12.23186,8.11174 24.13634,9.98998 45.29759,7.14689 11.49276,-1.54409 14.86535,-1.6402 22.9015,-0.65261 22.18647,2.72655 48.21334,15.61938 64.87681,32.13776 12.74597,12.63499 18.38043,26.75076 18.38043,46.04766 0,14.13446 -1.98486,21.16177 -9.95681,35.25159 -8.29116,14.65402 -9.65154,19.51275 -10.70899,38.24841 -0.49668,8.8 -1.57803,18.91257 -2.403,22.47237 -5.40585,23.32655 -26.30647,46.08285 -50.818,55.3299 -7.38709,2.7868 -9.17399,3.05974 -20.10759,3.07133 -6.6,0.007 -14.99278,-0.35722 -18.65062,-0.80937 -7.30316,-0.90276 -5.06785,-1.71549 -23.22975,8.44609 -8.45625,4.73126 -19.01914,6.98968 -32.69162,6.98968 -24.05612,0 -44.76312,-6.73372 -66.64131,-21.67113 -5.29536,-3.61542 -11.1117,-7.19346 -12.9252,-7.95118 -3.50917,-1.46623 -15.0534,-1.86073 -17.06337,-0.5831 -0.91397,0.58095 -0.62553,3.60267 1.20412,12.61435 3.68489,18.14939 4.84154,33.55799 4.17295,55.59106 -0.84932,27.98896 -3.71865,49.63651 -14.20504,107.16934 -5.46046,29.95841 -8.38904,48.83301 -7.5755,48.82383 0.33294,-0.004 1.73034,-1.66031 3.10534,-3.68122 3.43881,-5.0542 16.51047,-18.11798 22.26142,-22.248 2.60622,-1.87164 4.73858,-3.80907 4.73858,-4.3054 0,-0.49633 -1.19564,-2.94261 -2.65697,-5.43619 -3.845,-6.56099 -4.43822,-17.01425 -1.33965,-23.60617 2.84786,-6.05856 9.62744,-12.03488 16.84953,-14.85317 4.79922,-1.87281 7.82415,-2.2279 20.14709,-2.36503 12.88106,-0.14334 15.05826,-0.42124 19.5,-2.48896 7.07206,-3.29218 14.34392,-3.19966 21.87084,0.27826 4.00231,1.84933 7.52512,2.71271 11.0685,2.71271 12.24855,0 19.91444,5.01235 25.23513,16.5 2.37924,5.1369 2.78234,7.29464 2.80226,15 0.0217,8.40113 -0.22493,9.50133 -3.70673,16.53413 -2.24031,4.52512 -4.36731,10.89372 -5.32574,15.9461 -1.90398,10.03702 -2.997,12.33722 -8.4569,17.79712 -6.43286,6.43285 -17.85939,11.13672 -27.20241,11.1982 -4.56418,0.03 -11.87428,-2.37558 -16.94399,-5.57595 -2.09067,-1.31978 -4.27021,-2.3996 -4.84343,-2.3996 -2.87455,0 -20.34256,19.45395 -36.24722,40.36818 l -7.50447,9.86818 4.31809,8.13182 c 8.05467,15.16856 10.92118,33.31734 7.52319,47.63182 -4.03947,17.01677 -16.95054,32.95822 -33.08712,40.85306 -13.54903,6.62887 -21.66329,8.34485 -42,8.88201 -9.625,0.25423 -17.75502,0.20032 -18.06672,-0.1198 z m 17.66905,-25.86527 c 2.21584,-14.72541 0.15975,-30.30437 -8.28166,-62.75 -10.94109,-42.05345 -10.26725,-53.48872 6.24623,-106 11.96067,-38.03378 15.00373,-48.35926 19.00907,-64.5 13.67561,-55.11008 13.60455,-101.22342 -0.23241,-150.82623 -14.15115,-50.72915 -2.21301,-69.83632 64.15644,-102.68332 27.80747,-13.76223 59.69857,-27.47156 80.48613,-34.59933 0.81737,-0.28026 -1.48844,-1.5106 -5.12402,-2.73409 -3.63557,-1.22348 -8.45718,-3.44683 -10.71468,-4.94077 -2.2575,-1.49394 -4.39226,-2.71626 -4.74391,-2.71626 -1.65733,0 -20.57508,9.08739 -35.801,17.19748 -32.41693,17.26688 -52.18495,30.26123 -75.85683,49.86388 -7.26514,6.01625 -13.52972,10.93864 -13.92129,10.93864 -0.86968,0 2.51023,-7.87176 6.01121,-14 10.25849,-17.95685 65.16117,-84.70561 75.14442,-91.35796 l 2.48002,-1.65257 -4.16835,-4.16836 c -3.72614,-3.72614 -4.35059,-4.01733 -5.88603,-2.74474 -3.97919,3.298 -50.08612,60.6243 -67.75666,84.24413 -1.56804,2.09597 -3.06234,3.5995 -3.32067,3.34117 -0.73205,-0.73205 12.7601,-40.42138 19.60174,-57.66167 8.18796,-20.6329 21.29856,-47.1258 29.55489,-59.72231 6.17024,-9.41379 6.64858,-10.52773 6.04779,-14.0838 -0.75558,-4.47223 -3.8534,-9.99597 -6.08653,-10.8529 -2.20936,-0.84781 -3.6151,1.30119 -11.87852,18.15901 -12.25065,24.99198 -23.40134,53.87709 -40.07678,103.8162 -5.6595,16.94891 -10.56021,31.08641 -10.89047,31.41667 -0.9735,0.9735 -0.69921,-3.86929 0.93065,-16.43165 5.09866,-39.29843 20.35031,-91.57217 38.86494,-133.2063 2.54491,-5.7228 4.40721,-10.62499 4.13844,-10.89376 -0.26877,-0.26877 -4.14047,-0.53648 -8.60378,-0.59492 l -8.11511,-0.10624 -3.96602,11 c -13.36541,37.06988 -27.97914,96.7202 -34.91107,142.5 -1.20757,7.975 -2.52594,14.86571 -2.92972,15.31268 -1.0539,1.16663 -3.65826,-9.96128 -5.70691,-24.38453 -3.17048,-22.32124 -2.19212,-121.20163 1.31764,-133.17189 0.46943,-1.60099 -0.25128,-1.69191 -8.80412,-1.11066 -5.12347,0.3482 -9.5404,0.83284 -9.8154,1.07698 -0.275,0.24414 -0.48347,17.61894 -0.46326,38.61066 0.0472,49.06443 2.32865,73.51569 9.94526,106.58858 1.3849,6.01354 2.49587,11.75371 2.46882,12.75594 -0.0933,3.4577 -6.98169,-11.69782 -12.00676,-26.41683 -11.55767,-33.85373 -39.84218,-130.7591 -42.66465,-146.17308 -0.80522,-4.39743 -0.83104,-4.41994 -7.73845,-6.75 -9.55343,-3.22262 -9.92794,-3.15937 -9.17495,1.54959 1.44296,9.02379 22.06939,72.62352 39.60309,122.11256 13.33654,37.64251 17.21478,49.14945 16.72883,49.6354 -0.27804,0.27805 -4.4438,-5.26367 -9.25724,-12.31493 -14.79072,-21.6671 -33.97377,-48.34217 -41.94079,-58.32096 -12.08547,-15.13719 -35.28486,-40.6075 -58.22561,-63.92511 l -21.22571,-21.5744 -1.94736,2.47374 c -1.07105,1.36056 -3.14833,4.98646 -4.61618,8.05756 l -2.66882,5.58381 7.84189,7.38241 c 22.58489,21.26158 58.20817,58.14896 75.74134,78.42904 29.94601,34.63764 56.15135,67.29459 54.9779,68.51315 -0.23289,0.24184 -8.17557,-7.21 -17.65039,-16.55965 -15.35869,-15.15578 -37.74095,-36.50982 -89.22696,-85.12798 -8.8,-8.30982 -21.4,-19.61966 -28,-25.13297 l -12,-10.02419 -2,2.70113 c -1.1,1.48562 -4.5797,5.70572 -7.73266,9.378 l -5.73266,6.67687 11.58707,6.08593 c 13.26502,6.96723 30.56097,18.15752 42.01075,27.18048 10.32097,8.13341 22.56363,19.01987 22.01089,19.57261 -0.24069,0.2407 -3.46664,-1.63612 -7.16878,-4.1707 -16.18043,-11.07756 -39.56786,-19.76733 -68.97461,-25.62801 -11,-2.19228 -22.33405,-4.6633 -25.18678,-5.49117 -4.85991,-1.41036 -5.42897,-1.38166 -9.03009,0.4555 -2.11383,1.07839 -6.52978,2.77212 -9.81323,3.76385 -4.52888,1.36789 -5.36645,1.88387 -3.4699,2.13762 22.92771,3.06766 56.66945,13.55731 92.94635,28.89518 65.06302,27.50866 105.47683,56.46658 121.94834,87.38029 2.41091,4.52479 3.92434,8.05602 3.36317,7.84719 -0.56116,-0.20883 -4.56125,-4.39896 -8.88908,-9.3114 -15.89554,-18.04274 -37.90332,-33.93748 -65.86878,-47.57261 -18.72115,-9.12787 -75.26269,-31.58905 -94.22117,-37.42944 -29.76508,-9.1695 -53.7764,-14.31802 -79.26206,-16.99541 -14.7308,-1.54755 -19.14206,-1.24768 -27.984,1.90228 -5.2996,1.88799 -13.03277,6.28182 -13.03277,7.40494 0,0.43656 2.8125,0.87497 6.25,0.97424 25.793,0.74484 72.3807,7.28471 108.48267,15.22852 10.02797,2.20654 19.92797,4.67331 22,5.48171 l 3.76733,1.46983 -4,-0.47543 c -50.88915,-6.04867 -71.43635,-7.53957 -103,-7.4737 -36.36525,0.0759 -49.31381,0.94167 -51.12482,3.41837 -3.0964,4.23458 -0.7375,15.19545 3.18643,14.80605 1.06611,-0.10579 8.23875,-1.11211 15.93919,-2.23625 47.47425,-6.93049 108.63277,-3.59577 156.9992,8.56052 64.77701,16.28088 107.58934,42.26221 120.53704,73.1498 5.14999,12.28564 6.2655,21.78011 5.6652,48.21829 -0.78265,34.46906 -1.66656,39.43034 -19.06867,107.02976 -15.46005,60.05542 -22.14914,113.37815 -19.69118,156.97024 1.6829,29.8465 5.33129,51.77717 11.97714,71.99532 l 3.78167,11.50468 -0.1006,-27.5 c -0.0553,-15.125 0.29596,-31.1 0.78064,-35.5 l 0.88124,-8 2.3002,13.5 c 4.32999,25.41303 8.93876,43.33366 15.58872,60.61477 2.14074,5.56312 4.66994,10.78975 5.62043,11.61471 1.98941,1.72669 9.22817,3.09185 9.22817,1.74034 0,-0.49744 -1.12178,-7.78164 -2.49284,-16.18713 -2.72259,-16.69118 -5.54051,-41.58197 -5.44994,-48.1395 0.0477,-3.45485 1.01935,-1.31886 5.84839,12.85681 8.63638,25.35212 21.88332,56.5 24.02899,56.5 0.48275,0 1.23323,-2.3625 1.66773,-5.25 z m 42.65234,-8.401 c 9.15062,-8.98526 13.18681,-22.0753 10.8458,-35.17477 -2.09959,-11.74863 -10.40178,-26.53412 -19.99607,-35.61132 -3.8708,-3.66219 -3.8773,-3.03698 -0.0473,4.55028 6.99652,13.86004 11.79487,34.70236 10.43018,45.305 -1.32564,10.29925 -6.0168,22.04465 -10.37923,25.9868 -1.15945,1.04774 -2.10809,2.27863 -2.10809,2.7353 0,1.43491 6.30087,-2.92701 11.25467,-7.79129 z m -134.80467,4.66201 c 2.80504,-0.0158 0.86745,-1.38381 -4.95,-3.4948 -11.97821,-4.34657 -21.39049,-13.42966 -27.99532,-27.01621 -1.87161,-3.85 -5.86107,-15.55 -8.86548,-26 -5.89196,-20.49352 -7.88632,-26.08055 -12.76077,-35.74822 -3.31108,-6.567 -10.21801,-17.22558 -11.79336,-18.1992 -0.50854,-0.3143 -2.25907,1.89233 -3.89005,4.90361 l -2.96543,5.47507 5.3992,6.77546 c 9.99271,12.53985 14.55926,23.26693 21.90136,51.44747 2.38648,9.1598 5.53086,19.00611 6.98752,21.88069 6.43833,12.70541 21.46209,21.86367 33.48233,20.41031 1.925,-0.23275 4.3775,-0.42813 5.45,-0.43418 z M 608.57305,959.2586 c 4.05306,-9.03447 5.47271,-15.98395 5.46453,-26.75 -0.009,-12.18591 -1.62599,-17.58245 -10.93495,-36.5 -4.05967,-8.25 -8.16728,-17.925 -9.12802,-21.5 -2.78164,-10.35073 -2.27493,-29.058 1.51153,-55.80353 1.73668,-12.26694 3.12284,-23.06694 3.08037,-24 -0.14324,-3.14692 -11.94509,33.21697 -13.94281,42.96061 -2.38801,11.64725 -2.62799,29.36013 -0.542,40.00495 1.72348,8.79495 4.75245,17.71541 10.82106,31.86852 8.95776,20.89118 12.25662,36.04608 10.82273,49.71945 -0.36048,3.4375 -0.49812,6.25 -0.30587,6.25 0.19225,0 1.61129,-2.8125 3.15343,-6.25 z m -129.94905,-25 c -1.60306,-3.4375 -4.52711,-12.1 -6.49789,-19.25 -9.27255,-33.64078 -12.36142,-40.2707 -24.48238,-52.5487 -5.91586,-5.9925 -15.36111,-12.9513 -17.57895,-12.9513 -0.17987,0 -0.77563,1.62466 -1.32391,3.61036 l -0.99687,3.61036 8.3679,7.92091 c 15.19443,14.38279 24.09888,28.11948 31.02292,47.85837 4.88491,13.92577 11.978,28 14.11136,28 0.16086,0 -1.01912,-2.8125 -2.62218,-6.25 z m 167.98927,-67 c 3.50363,-5.0875 10.07343,-14.25511 14.59957,-20.37247 l 8.22934,-11.12248 -4.35573,-3.64094 c -2.49619,-2.08655 -5.33238,-5.76981 -6.64338,-8.62753 -1.2582,-2.74262 -2.60394,-4.98658 -2.99053,-4.98658 -1.69316,0 -17.75045,14.4648 -22.15703,19.95959 -7.1585,8.92632 -14.41535,24.29202 -10.80271,22.87374 0.46698,-0.18333 4.23961,-4.42085 8.38362,-9.41671 4.14401,-4.99586 11.52442,-12.45117 16.40093,-16.56735 10.99839,-9.28357 12.51065,-10.24665 9.90903,-6.31059 -10.88794,16.47265 -21.86367,41.57641 -20.1408,46.06613 1.13229,2.9507 3.41921,1.0732 9.56769,-7.85481 z m -242.46954,-4.51531 c 0.55,-0.40408 1.61549,-1.51965 2.36776,-2.47904 1.61897,-2.06474 1.72762,-1.95763 -13.61949,-13.42526 -5.63845,-4.21315 -10.06956,-7.84244 -9.8469,-8.06509 0.22265,-0.22265 2.29187,0.55788 4.59827,1.73452 2.3064,1.17664 8.31251,3.70915 13.34691,5.62781 5.0344,1.91867 9.58095,3.91235 10.10345,4.43042 1.76135,1.74642 3.34815,0.95973 4.45217,-2.20727 0.60381,-1.73208 1.09783,-3.33238 1.09783,-3.55623 0,-1.13322 -10.31227,-4.7195 -18.24306,-6.34435 -4.93892,-1.01188 -9.16927,-2.0292 -9.40078,-2.26071 -1.19653,-1.19653 17.08821,-3.92764 23.07704,-3.44692 6.3285,0.508 6.5668,0.44413 6.5668,-1.7599 0,-5.15996 -13.99408,-6.04683 -29.5,-1.86955 -1.35786,0.3658 -1.05959,-0.10764 0.92899,-1.47457 4.50188,-3.09455 14.59645,-5.46703 21.00147,-4.93587 4.15851,0.34485 5.56954,0.13018 5.56954,-0.84735 0,-1.95371 -4.39997,-4.46516 -8.87416,-5.06528 -5.38787,-0.72266 -17.50205,2.14311 -23.87584,5.64816 -2.8875,1.58788 -5.25,2.60432 -5.25,2.25877 0,-0.34556 2.1375,-2.82887 4.75,-5.51849 l 4.75,-4.8902 -4.12421,2.062 c -8.52369,4.26165 -13.74419,13.60531 -13.7907,24.68266 -0.0245,5.83158 0.42024,7.79601 2.60347,11.5 2.97855,5.05328 9.67458,11.86316 8.3255,8.46705 -3.14873,-7.92643 -5.34891,-14.58487 -5.94785,-18 l -0.70152,-4 2.89971,4.5 c 3.89817,6.04951 9.93002,11.31216 17.13317,14.94829 3.2762,1.65383 6.24107,3.46702 6.5886,4.02933 0.74095,1.19889 1.62882,1.27462 3.01383,0.25707 z m 318.82665,-33.59781 c 7.62101,-3.18427 13.00154,-12.51506 15.60999,-27.07054 2.25716,-12.59518 0.62078,-18.07755 -5.68913,-19.06033 -10.99886,-1.7131 -16.57717,-2.99362 -30.96,-7.10698 -19.78939,-5.65959 -30.55543,-6.70115 -37.50238,-3.62818 -2.53775,1.12256 -5.09335,2.93654 -5.67911,4.03105 -1.04152,1.9461 -0.96063,1.9575 3.66447,0.5164 5.54957,-1.72915 14.68979,-1.28301 24.30378,1.18628 7.32869,1.88232 10.83742,4.13739 4.42573,2.84442 -10.86751,-2.19151 -30.28753,0.14316 -32.69387,3.93044 -2.17163,3.41789 -1.00255,3.88607 7.95412,3.1854 5.77928,-0.4521 13.86101,-0.13553 23.75,0.93031 27.93594,3.01097 27.56239,2.90583 13.34456,3.75622 -14.29249,0.85486 -22.97763,2.60143 -31.35139,6.3047 -5.60925,2.48067 -5.7375,2.62578 -5.12124,5.79416 1.08725,5.58988 6.59445,15.63016 9.99671,18.22519 4.32895,3.30185 10.77735,5.50305 18.17345,6.2036 5.76646,0.5462 6.13652,0.44479 7.83471,-2.14698 1.72237,-2.62867 6.80138,-5.32686 16.98087,-9.02097 2.67735,-0.9716 7.33478,-3.77584 10.34984,-6.23164 l 5.48193,-4.46509 -0.69893,3.34283 c -1.20791,5.77712 -3.86736,9.17901 -11.40807,14.59283 -7.10571,5.10151 -7.41375,6.66447 -0.76604,3.88688 z m -34.25251,-3.51414 c -1.33422,-0.37285 -2.6085,-1.22583 -2.83173,-1.89552 -0.66901,-2.00703 4.91723,-6.74973 10.25759,-8.70864 16.46826,-6.04078 20.92496,-7.98991 26.64444,-11.65287 l 6.35556,-4.07034 -4,4.20558 c -2.2,2.31307 -8.01872,6.92533 -12.93048,10.24947 -4.91177,3.32413 -10.43927,7.55266 -12.28334,9.39673 -3.39774,3.39774 -5.91958,3.95456 -11.21204,2.47559 z m -12.5522,-12.0803 c -1.43604,-2.77701 -1.39749,-3.08048 0.63152,-4.97079 2.66566,-2.48343 11.13772,-5.25245 24.61012,-8.0436 5.64498,-1.16949 12.11405,-2.77924 14.37573,-3.5772 11.28537,-3.98171 4.16845,0.75438 -9.9545,6.62441 -5.32664,2.21396 -13.39303,6.02773 -17.92531,8.47506 -4.53227,2.44732 -8.68322,4.44968 -9.22432,4.44968 -0.5411,0 -1.67206,-1.3309 -2.51324,-2.95756 z M 435.91352,618.24262 c 3.15162,-1.44285 5.73021,-2.82274 5.73021,-3.06642 0,-0.24368 -1.33766,-3.30608 -2.97258,-6.80533 -5.67734,-12.1513 -5.74804,-26.45127 -0.18952,-38.32955 2.5789,-5.511 2.76984,-6.39316 1.20219,-5.55418 -3.00169,1.60646 -8.49058,8.55803 -11.25094,14.2491 -3.58878,7.39903 -4.78915,14.15237 -4.78915,26.94403 0,12.48913 -0.89591,13.11964 -5.0398,3.54684 -2.72083,-6.28538 -2.96469,-16.8946 -0.54232,-23.59424 0.87017,-2.40665 1.58212,-4.57427 1.58212,-4.81695 0,-1.34789 -9.84124,7.93785 -13.62722,12.85801 -5.19893,6.75641 -12.05497,20.6023 -10.76245,21.73497 0.74522,0.65306 10.32,3.58735 17.88967,5.48248 5.24776,1.31382 17.13479,-0.069 22.76979,-2.64876 z m 297.73021,-0.0741 c 0,-4.50867 -4.01662,-17.98465 -7.55014,-25.33115 -3.82745,-7.95758 -14.40364,-20.21931 -19.88462,-23.05363 l -3.05636,-1.58051 3.55392,4.40267 c 8.0787,10.00804 11.94978,19.95638 11.91524,30.62111 -0.0207,6.39406 -3.09165,16.50128 -4.56579,15.02714 -0.30371,-0.30372 -1.42086,-4.0283 -2.48256,-8.27686 -2.759,-11.0406 -7.48131,-19.9589 -14.20952,-26.83529 -3.1789,-3.24891 -6.01933,-5.66761 -6.31206,-5.37488 -0.29273,0.29273 0.17069,3.93534 1.02982,8.09468 1.92023,9.29642 1.93161,16.87734 0.0332,22.14676 -0.79257,2.2 -1.44782,4.35349 -1.4561,4.78554 -0.0231,1.20507 8.78277,4.74735 15.48494,6.22902 3.3,0.72954 10.8375,1.36222 16.75,1.40594 10.62669,0.0786 10.75,0.0527 10.75,-2.26054 z m 13,-1.3925 c 8.65212,-2.88455 12,-5.08485 12,-7.88665 0,-4.27672 -2.96954,-9.19396 -8.55623,-14.16819 -5.51274,-4.90839 -15.89242,-11.09731 -16.90817,-10.08155 -0.32223,0.32222 0.26683,2.57512 1.30902,5.00644 4.11491,9.59971 5.2073,20.40912 2.67501,26.46975 l -1.48037,3.54303 3.23037,-0.69128 c 1.7767,-0.38021 5.25537,-1.3664 7.73037,-2.19155 z M 388.55472,606.16041 c 1.40074,-8.68312 5.20397,-17.14602 10.9662,-24.40181 2.29312,-2.8875 3.76381,-5.25 3.26819,-5.25 -4.40642,0 -19.89577,9.88757 -26.42607,16.869 -4.45582,4.76362 -12.23949,15.95882 -11.55307,16.6167 0.18357,0.17593 4.59211,0.83448 9.79677,1.46343 5.20465,0.62896 9.66715,1.3477 9.91667,1.59721 1.73904,1.73905 2.9813,-0.38551 4.03131,-6.89453 z m -26.87976,-1.40181 c 1.93271,-9.47386 7.47928,-18.76382 16.74,-28.03788 8.71313,-8.72568 7.7504,-9.02582 -3.77123,-1.1757 -10.02427,6.8299 -18.03751,15.60004 -24.0123,26.28041 -1.78973,3.19925 -3.62532,5.44555 -4.0791,4.99177 -1.44575,-1.44575 0.79548,-12.79112 3.63301,-18.39071 4.67925,-9.23405 17.26604,-20.54546 31.95839,-28.72013 l 6,-3.33834 -4.35746,0.59929 c -2.39661,0.32961 -7.86161,1.95063 -12.14444,3.60227 -18.781,7.24272 -34.82923,22.13241 -41.47299,38.47901 -2.30768,5.67792 -2.73545,5.7726 -3.80785,0.84282 -0.75763,-3.4828 1.00997,-12.10724 3.67403,-17.92633 1.37394,-3.00107 2.22499,-5.45648 1.89124,-5.45648 -1.24064,0 -9.9265,5.40045 -14.11149,8.77385 -2.38092,1.9192 -5.07734,5.05883 -5.99204,6.97696 l -1.66308,3.48752 4.77168,4.32007 c 7.89065,7.14387 18.2588,10.00274 37.3915,10.31017 l 8.1791,0.13143 z m 326.44992,1 c -1.0168,-7.53007 -3.27196,-15.91962 -5.40117,-20.09323 -1.94654,-3.81553 -8.26156,-10.15677 -10.11478,-10.15677 -0.53086,0 -1.01006,3.2625 -1.06488,7.25 -0.0548,3.9875 -0.42109,8.375 -0.81392,9.75 -0.63507,2.22288 -0.79257,2.02284 -1.42087,-1.80462 -1.68071,-10.23844 -8.70116,-19.19538 -15.04534,-19.19538 -3.46911,0 -5.19001,1.38999 -8.0474,6.5 l -1.67753,3 0.55271,-4.17823 c 0.61727,-4.66629 -0.79828,-6.86962 -5.10849,-7.95141 -5.25058,-1.31781 -15.51936,3.80142 -14.80121,7.37876 0.19332,0.96298 0.61498,3.40264 0.93702,5.42146 l 0.58554,3.67059 7.21958,-0.54429 c 12.94222,-0.97571 23.47119,2.96932 34.44259,12.90507 6.2056,5.61982 16.85866,12.79805 18.99331,12.79805 1.10097,0 1.267,-1.03113 0.76484,-4.75 z m -232.44699,-3.79731 c 3.00621,-3.05102 7.71584,-6.96136 10.46584,-8.68964 2.75,-1.72827 5.13139,-3.22587 5.29197,-3.32799 0.16059,-0.10212 -1.4971,-3.05428 -3.68375,-6.56037 -2.18665,-3.50608 -4.56511,-8.28719 -5.28545,-10.62469 -0.72035,-2.3375 -1.5978,-4.25 -1.94989,-4.25 -1.76363,0 -7.88415,8.4142 -9.75208,13.40668 -1.63983,4.38285 -2.1208,7.92769 -2.1208,15.63083 0,5.47937 0.35287,9.96249 0.78416,9.96249 0.43129,0 3.24379,-2.49629 6.25,-5.54731 z m 357.43088,-0.9856 c 6.33377,-1.64974 13.32386,-5.11014 18.07356,-8.94722 l 2.9614,-2.39238 -3.5,-3.04609 c -14.92505,-12.98941 -49.43668,-30.71403 -65.5,-33.63973 -3.28505,-0.59832 -2.23241,0.19384 5.88934,4.43201 11.43035,5.9647 17.74812,10.36088 26.01145,18.09992 6.89543,6.45794 13.59921,16.25226 13.59921,19.86865 0,2.23278 -1.00326,1.51528 -8.48533,-6.06849 -7.93397,-8.04181 -15.40615,-13.66668 -26.76467,-20.14776 -2.6125,-1.49067 -4.75,-2.56797 -4.75,-2.39399 0,0.17397 3.76664,4.14273 8.37031,8.81946 7.08765,7.20013 15.1667,18.94853 13.03037,18.94853 -0.34815,0 -3.61823,-2.63131 -7.26684,-5.84736 -9.60834,-8.46923 -17.76917,-14.22395 -26.7428,-18.85807 -14.23308,-7.35019 -34.13598,-13.34275 -43.89104,-13.21516 l -5,0.0654 7.5,1.86989 c 22.14693,5.52164 44.01818,19.59406 58.25938,37.4853 l 3.97993,5 7.63035,0.56662 c 14.43193,1.0717 20.72363,0.92987 26.59538,-0.59953 z M 310.04413,573.97906 c 18.21126,-18.07105 41.3899,-30.00592 68.76779,-35.40909 8.81256,-1.73921 9.04521,-1.8478 4.18118,-1.95153 -7.05331,-0.15042 -26.14819,3.2415 -35.84937,6.3681 -12.87521,4.14956 -35.19169,15.68662 -51.16738,26.45225 -8.15794,5.49744 -15.902,10.84444 -17.20903,11.88223 l -2.3764,1.88688 5.96141,0.54056 c 3.27877,0.29731 7.94816,1.43339 10.3764,2.52463 l 4.415,1.98408 1.9004,-2.62429 c 1.04523,-1.44335 5.99523,-6.68757 11,-11.65382 z m 216.62342,13.01482 c 0.5369,-0.33182 0.97618,-2.21604 0.97618,-4.18715 0,-6.98717 -12.4379,-16.23111 -20.32746,-15.10753 -3.03553,0.4323 -3.23022,3.61471 -0.72559,11.86065 1.82019,5.99257 2.46913,7.00383 4.82794,7.52342 1.49881,0.33015 3.17511,0.77593 3.72511,0.99062 1.33595,0.52149 10.29041,-0.31772 11.52382,-1.08001 z m -38.98897,-1.53312 c 3.11319,-0.52115 8.47292,-0.57283 12.25,-0.11811 3.69333,0.44463 6.71515,0.65493 6.71515,0.46732 0,-0.55895 -4.7591,-7.63226 -6.70011,-9.95819 -2.66528,-3.19381 -9.27478,-7.34372 -11.68944,-7.33944 -5.75827,0.0102 -10.82147,6.21006 -12.22146,14.96511 l -0.69435,4.34222 3.40268,-0.71619 c 1.87147,-0.3939 5.89336,-1.13313 8.93753,-1.64272 z M 278.8959,577.52099 c 7.85741,-8.16595 21.86531,-18.5109 37.3261,-27.56564 14.17312,-8.3006 13.44328,-8.45815 -6.57827,-1.42001 -16.38474,5.75969 -20.08062,7.22682 -36.42049,14.45757 -7.02637,3.10932 -13.0511,5.37743 -13.38829,5.04025 -0.79738,-0.79739 3.39374,-4.24864 13.3171,-10.96619 9.99495,-6.76601 30.88126,-16.99225 43.78274,-21.43667 5.38509,-1.8551 9.62461,-3.53936 9.42117,-3.74281 -0.51591,-0.51591 -13.44416,2.93888 -24.4214,6.52607 -10.38642,3.39412 -28.23363,11.56645 -35.64339,16.32128 -6.09658,3.91216 -10.64744,10.72289 -10.64744,15.93474 0,6.53255 6.93403,12.41822 15,12.73214 1.81413,0.0706 4.07809,-1.54275 8.25217,-5.88073 z M 843.56765,566.831 c 0.068,-2.83955 -0.55981,-3.56388 -5.90133,-6.80868 -7.97402,-4.84396 -26.29269,-13.42077 -38.02259,-17.8022 -12.68377,-4.73772 -25.48663,-8.26607 -42.45823,-11.70111 -22.7281,-4.60015 -32.87191,-5.51479 -60.54177,-5.45889 -21.58273,0.0436 -27.42023,0.38725 -38,2.23704 -6.875,1.20204 -13.85,2.63685 -15.5,3.18847 l -3,1.00295 3.5,-0.45825 c 1.925,-0.25204 11.375,-0.76074 21,-1.13045 39.83464,-1.53011 84.27691,6.08232 124.5,21.32538 13.37429,5.06836 39.31468,17.24667 47,22.06523 l 5,3.13491 1.17392,-3.2084 c 0.64566,-1.76462 1.20816,-4.63832 1.25,-6.386 z m -3.51996,-24.0724 c -0.4131,-3.87172 -1.24599,-6.30319 -2.54973,-7.44349 -7.01855,-6.13867 -42.08693,-12.88195 -66.35423,-12.75922 l -8,0.0405 15.5,4.49226 c 22.16335,6.42346 44.37641,13.99281 52.5,17.88997 9.63954,4.62441 9.63438,4.62569 8.90396,-2.21998 z m -568.38953,-0.25725 c 35.99345,-18.09716 83.45072,-28.99034 137.98557,-31.67273 18.42422,-0.90623 14.85662,-1.68411 -13,-2.83452 -37.33189,-1.54172 -80.80352,4.66878 -123.5,17.64362 l -10,3.03886 v 8.91689 c 0,4.90429 0.12249,8.9165 0.2722,8.91601 0.14971,-4.8e-4 3.85871,-1.80414 8.24223,-4.00813 z m 419.98557,-49.28812 c 36.30193,-15.06049 76.94923,-25.86372 120.7344,-32.08873 l 15.7656,-2.24142 -6.5,-2.11615 c -15.4639,-5.03443 -22.14579,-5.30994 -41.68343,-1.71867 -46.58915,8.56368 -90.5875,26.60866 -128.31657,52.62629 -18.86217,13.00718 -17.86381,13.61738 4,2.4448 11.275,-5.76162 27.475,-13.36937 36,-16.90612 z m 149.22765,19.86227 c 0.98665,-4.74875 1.10219,-4.65743 -10.72765,-8.47811 -16.50459,-5.33047 -45.62435,-9.05827 -70.91667,-9.07847 -7.10416,-0.006 -12.72916,-0.19571 -12.5,-0.42231 0.89608,-0.886 24.16035,-4.62014 37.91667,-6.08598 7.975,-0.8498 23.275,-1.81272 34,-2.13982 21.23359,-0.64761 24,-1.33356 24,-5.951 0,-1.39848 -0.49702,-3.47138 -1.10449,-4.60645 -1.05376,-1.96897 -1.63937,-2.03157 -12.75,-1.36292 -14.89241,0.89624 -38.64708,3.83111 -57.14551,7.06028 -17.32111,3.02365 -54.28055,12.05463 -69.19079,16.90665 -12.61571,4.10535 -40.00349,14.73029 -39.43513,15.29864 0.21752,0.21753 6.40984,-0.73734 13.76071,-2.12193 21.59097,-4.06682 40.11949,-5.67065 65.86521,-5.70131 31.95096,-0.038 54.27188,2.17013 81.5,8.06267 7.15,1.54735 13.65535,2.75245 14.45634,2.67798 0.84488,-0.0786 1.79851,-1.78228 2.27131,-4.05792 z m -576.54757,-0.95809 c 24.47829,-8.3256 66.11151,-15.7484 96.81992,-17.26204 30.83023,-1.51965 10.65347,-3.90635 -25.8247,-3.0548 -29.13819,0.68021 -47.73668,3.52805 -69.91021,10.70479 -12.42111,4.02024 -12.26341,3.89039 -10.13772,8.34801 0.95868,2.01038 1.80589,3.65523 1.88269,3.65523 0.0768,0 3.30331,-1.07604 7.17002,-2.39119 z M 668.54085,454.7586 c 9.34185,-7.0125 21.03388,-15.27046 25.98229,-18.35101 l 8.99712,-5.60102 -4.53081,-3.19361 -4.53082,-3.19361 -4.65745,3.7434 c -9.20436,7.39797 -40.7169,39.34585 -38.80968,39.34585 0.3103,0 8.20751,-5.7375 17.54935,-12.75 z m -447.35351,-9.25 c 5.96444,-7.81401 18.72886,-19.71159 27.13642,-25.29357 17.59375,-11.6809 35.70904,-17.81336 57.92045,-19.60746 15.77385,-1.27411 21.53496,-2.9149 29.63626,-8.44057 6.4736,-4.41546 15.45324,-15.46171 17.61869,-21.67354 0.99206,-2.84582 0.46467,-2.54264 -6.01861,3.45988 -13.78912,12.76661 -27.36555,17.16283 -49.40065,15.99655 -14.35292,-0.75968 -19.86872,0.21555 -29.89346,5.28534 -13.03826,6.59381 -30.18042,21.0175 -41.02465,34.51879 -6.5046,8.09836 -13.77377,21.32387 -14.98,27.25458 -0.5415,2.66237 -0.30531,2.49356 2.09861,-1.5 1.48983,-2.475 4.59795,-6.975 6.90694,-10 z m 275.15968,-34.19841 c -17.60521,-35.51078 -42.41807,-80.80159 -44.26766,-80.80159 -0.89126,0 -13.98308,5.3397 -14.75447,6.01784 -0.45037,0.39591 2.74074,5.39137 7.09134,11.101 7.37625,9.68043 13.99396,19.13963 51.18624,73.16452 7.86933,11.43085 14.52467,20.56657 14.78964,20.30159 0.26498,-0.26498 -6.05531,-13.66749 -14.04509,-29.78336 z m 356.26255,17.62866 c -6.81066,-6.94013 -18.04305,-14.56714 -25.63825,-17.40887 -10.32877,-3.86449 -19.74104,-4.66056 -32.04554,-2.71035 -13.22427,2.09598 -27.66893,2.15752 -36.16801,0.15408 -10.65316,-2.51121 -21.51802,-8.86909 -30.49241,-17.84348 -7.02971,-7.02971 -7.65741,-7.4576 -5.61868,-3.83016 5.82603,10.36601 18.34726,21.04028 30.77876,26.23869 10.32893,4.31919 20.30225,5.96984 36.07018,5.96984 26.83523,0 43.96357,3.1637 59.14811,10.92499 4.125,2.10842 7.93463,3.88783 8.46584,3.95425 0.53121,0.0664 -1.49379,-2.38563 -4.5,-5.44899 z M 541.59663,404.45615 C 540.5047,393.76 539.0561,377.24417 538.37752,367.75431 l -1.23379,-17.2543 -6.25,-2.95324 -6.25,-2.95324 0.004,3.20753 c 0.0109,8.55976 16.91403,78.12274 18.57854,76.45822 0.19557,-0.19557 -0.53782,-9.10698 -1.62975,-19.80313 z m 109.83543,7.30245 c 4.43901,-5.3625 10.10689,-11.91809 12.59528,-14.56797 l 4.52435,-4.81797 -2.15325,-4.43203 c -1.18428,-2.43762 -2.40107,-4.41367 -2.70398,-4.39122 -1.86559,0.13824 -22.46971,37.95919 -20.67943,37.95919 0.19035,0 3.97801,-4.3875 8.41703,-9.75 z m -54.45779,-54.24123 c 1.93619,-6.32017 3.42986,-11.5817 3.31928,-11.69228 -0.11058,-0.11058 -2.66452,0.34296 -5.67543,1.00787 l -5.47439,1.20892 -2.18673,12.98336 c -2.58363,15.33982 -6.32617,47.23746 -6.28274,53.54766 0.0218,3.16788 1.85252,-2.70985 6.4051,-20.5643 3.50602,-13.75 7.95873,-30.17105 9.89491,-36.49123 z m -189.3216,-46.18343 c 8.97767,-6.38949 20.93655,-12.22435 31.54217,-15.38975 7.15521,-2.13558 11.65478,-2.76298 22.44889,-3.13018 12.10068,-0.41164 14.51717,-0.19645 23.31318,2.0761 5.39724,1.39444 13.49724,4.16103 18,6.14799 36.57991,16.14182 47.6823,17.91904 81.35383,13.02277 30.6164,-4.45202 46.36414,-4.33265 64.12448,0.48606 8.19606,2.22374 19.36279,7.53772 23.94899,11.39675 1.67653,1.41071 3.34873,2.56492 3.71601,2.56492 1.43892,0 -6.277,-9.52981 -12.03676,-14.86643 -7.78078,-7.20915 -15.25211,-11.62468 -25.85143,-15.27811 -18.18417,-6.26782 -31.0124,-6.15119 -52.0683,0.47337 -14.06106,4.42387 -24.80591,6.05017 -34.44997,5.21425 -17.13431,-1.48517 -25.91732,-3.98433 -47.26923,-13.45021 -19.64654,-8.70984 -26.70287,-10.52252 -40.7808,-10.47607 -13.56048,0.0447 -21.70471,1.84388 -33.85923,7.47977 -14.97774,6.94499 -26.14229,16.61568 -35.59137,30.82912 -6.70589,10.0871 -6.57089,11.05876 0.54746,3.94041 3.53156,-3.53155 9.34199,-8.4999 12.91208,-11.04076 z" fill="#000000"/>
  </g>
</svg>