<?xml version="1.0" encoding="utf-8"?>
<svg viewBox="0 0 500 500" xmlns="http://www.w3.org/2000/svg">
  <defs/>
  <g transform="matrix(0.725627, 0, 0, 0.725627, -130.424622, -216.152451)">
    <path style="" d="m 469.61507,967.97352 c -3.91018,-1.17011 -8.31762,-5.56284 -9.65876,-9.62652 -0.92801,-2.81191 -1.57978,-3.33505 -4.15508,-3.33505 -3.85445,0 -9.10156,-3.19257 -10.57997,-6.43732 -0.62309,-1.36754 -1.40119,-6.66609 -1.72911,-11.77456 -1.1261,-17.5428 -3.68275,-46.29146 -4.47218,-50.28812 -0.7365,-3.72871 -0.79972,-3.55915 -0.93212,2.5 -0.28653,13.11285 -2.74445,33.47811 -4.43338,36.73307 -2.14448,4.1329 -6.30771,6.26693 -12.22603,6.26693 -6.05209,0 -10.75342,-2.87598 -12.70021,-7.7692 -1.34538,-3.38159 -1.22202,-6.84791 1.31793,-37.0325 3.56416,-42.35621 5.40709,-79.58276 4.64535,-93.83454 -0.73687,-13.78649 -3.05625,-20.06319 -19.16477,-51.86376 -12.3404,-24.36175 -21.26305,-39.6025 -38.05406,-65 -14.2568,-21.56434 -70.10681,-102.39473 -72.43621,-104.8352 -1.69473,-1.77553 -2.25195,-1.67338 -17.1387,3.14209 -25.97914,8.40357 -35.85008,10.57356 -48.38702,10.63724 -13.30716,0.0676 -18.91662,-1.97487 -25.88551,-9.42519 -9.49705,-10.15311 -13.9159,-23.68502 -13.8846,-42.51894 0.0437,-26.2998 9.62581,-48.72695 28.93541,-67.72411 15.71651,-15.46221 33.34791,-24.85079 55.74867,-29.68572 l 7.91397,-1.70813 1.65804,-5.94102 c 7.59324,-27.20773 29.3295,-53.35983 55.34253,-66.58568 8.5742,-4.35939 24.98523,-9.54949 34.5185,-10.9167 11.78026,-1.68947 31.51676,-0.75197 42.15299,2.0023 4.675,1.21061 12.69344,4.18025 17.81875,6.59922 l 9.31876,4.39813 3.89516,-2.45891 c 2.14234,-1.35241 6.9489,-3.66641 10.68125,-5.14223 4.7411,-1.8747 8.68008,-4.43883 13.07116,-8.50882 12.60418,-11.68255 28.40293,-21.22007 43.6028,-26.32249 14.74629,-4.95017 21.0216,-5.88662 39.11212,-5.83657 18.74237,0.0518 27.66058,1.72445 43.93015,8.23911 19.11678,7.65473 39.89878,23.88323 51.39905,40.13712 3.17242,4.48374 3.33873,4.56867 12.24172,6.25172 4.96408,0.93842 13.30511,3.30908 18.53562,5.26814 8.89017,3.32976 10.01137,3.51915 17.20174,2.90574 9.21188,-0.78586 25.25879,0.85436 35.36079,3.61439 22.36752,6.11115 45.21032,22.32984 58.02267,41.19685 4.20059,6.18565 12.19356,22.2828 13.3032,26.7915 0.52996,2.15332 1.80748,2.9498 7.81926,4.87493 25.43868,8.14616 47.65864,27.77057 59.08653,52.18453 5.84788,12.49311 7.66193,20.01814 8.28475,34.3667 0.82627,19.03576 -3.29726,32.23109 -13.15504,42.09621 -12.68283,12.69226 -31.15975,12.9402 -73.11087,0.98107 -6.55577,-1.86887 -11.99075,-3.3258 -12.07775,-3.23761 -0.8849,0.89696 -62.41846,95.08635 -70.00742,107.16033 -24.61665,39.16489 -41.02886,72.23104 -54.80327,110.41372 -9.19414,25.48615 -8.88057,23.42219 -8.2582,54.35652 0.30131,14.97637 1.29592,36.81414 2.21026,48.52838 1.61004,20.62749 1.60339,21.41237 -0.21087,24.90838 -4.4268,8.53023 -18.28056,9.83013 -23.61392,2.21568 -1.44331,-2.06061 -1.47098,-2.05058 -2.05411,0.74429 -0.32509,1.55817 -1.52392,8.68303 -2.66405,15.83303 -2.3119,14.49845 -3.91027,18.19387 -8.97426,20.74845 -9.70756,4.89706 -21.96598,-1.43743 -21.96598,-11.35084 0,-1.8116 0.54703,-7.07725 1.21562,-11.70146 1.1317,-7.82725 1.08765,-8.50123 -0.63814,-9.76315 -1.28638,-0.94063 -2.4035,-1.0613 -3.64988,-0.39425 -2.62405,1.40434 -7.013,1.16514 -10.32638,-0.5628 -1.59433,-0.83144 -2.97375,-1.39117 -3.06537,-1.24384 -0.0916,0.14734 -1.37318,6.72134 -2.84792,14.60889 -2.91672,15.59996 -4.44394,18.86627 -10.06937,21.53571 -10.32991,4.90187 -23.49627,-0.93105 -25.97972,-11.50945 -0.50772,-2.16266 1.57662,-16.66857 4.00422,-27.86726 0.48858,-2.25384 0.34117,-2.18628 -1.49705,0.68618 -2.45401,3.8347 -4.98153,5.31382 -9.08027,5.31382 -3.54444,0 -3.62892,0.21085 -1.42938,3.56777 0.9,1.37358 1.63637,4.20492 1.63637,6.29189 0,7.52054 -5.83261,12.14034 -15.32747,12.14034 -4.88072,0 -5.52472,-0.29489 -9.09887,-4.16639 l -3.84639,-4.16639 -0.002,4.91639 c -0.002,6.90831 -2.54659,11.4364 -7.96034,14.16639 -4.68327,2.36164 -7.63081,2.64885 -12.43379,1.21157 z m 8.26387,-10.71157 c 2.06839,-1.73211 2.09764,-2.4553 2.86146,-70.75 0.8726,-78.02167 0.32467,-104.78378 -2.63091,-128.5 -5.49131,-44.06348 -14.84413,-81.29248 -37.55798,-149.5 -16.22992,-48.73689 -43.28251,-123.29857 -48.15176,-132.71466 -1.95653,-3.7835 -5.13688,-5.2119 -8.63942,-3.88023 -4.53881,1.72565 -4.34054,4.58428 1.29481,18.66804 16.3274,40.80508 41.41944,111.59856 54.91227,154.92685 12.22647,39.26173 18.79735,65.70971 23.56777,94.86098 5.85564,35.78291 5.87386,36.17303 6.05299,129.55854 0.15786,82.30145 0.25247,86.48292 1.9853,87.75 2.42014,1.76965 3.80099,1.67778 6.30547,-0.41952 z m 67.26462,0.75 c 1.93851,0 3.90683,-7.28855 8.28015,-30.66073 8.82148,-47.14439 11.95976,-67.59048 15.78484,-102.83927 0.86099,-7.93418 1.28997,-25.89154 1.26611,-53 -0.0392,-44.55499 -0.24182,-48.00775 -8.97733,-153 -4.72547,-56.79546 -7.68276,-94.94792 -9.84779,-127.04796 -0.74369,-11.02638 -1.87964,-21.03356 -2.52434,-22.23819 -2.54004,-4.7461 -10.75255,-3.53478 -12.10967,1.78615 -0.79159,3.10359 -0.26579,10.4976 6.57775,92.5 13.51341,161.92376 14.77882,181.55734 14.11493,219 -0.79264,44.70309 -4.68811,75.02495 -19.77901,153.95705 -2.3475,12.27844 -2.80689,16.49238 -1.99275,18.27922 1.13431,2.48955 4.72932,4.41623 6.90609,3.7012 0.73248,-0.24061 1.76794,-0.43747 2.30102,-0.43747 z m 53.13119,-1.40686 c 0.77377,-0.77377 1.95904,-5.38627 2.63392,-10.25 0.67488,-4.86373 3.23384,-19.86814 5.68658,-33.34314 13.83141,-75.98777 28.54203,-123.31358 54.36543,-174.89998 15.3487,-30.6615 25.53121,-47.30904 71.62455,-117.10002 14.71148,-22.275 27.83384,-42.4032 29.16078,-44.72934 2.66386,-4.66974 2.38305,-7.60179 -0.89613,-9.35675 -4.66625,-2.4973 -5.83424,-1.10519 -30.89724,36.82617 -49.69581,75.21165 -61.69165,94.88737 -78.80683,129.25992 -27.63089,55.49132 -42.37685,103.97218 -55.60525,182.81553 -5.33473,31.79584 -6.12064,38.76764 -4.57947,40.62463 1.61131,1.94151 5.44495,2.0217 7.31366,0.15298 z m -90.78269,-10.95582 c 1.8117,-1.32474 1.80634,-1.47089 -0.19262,-5.25 -1.1309,-2.13803 -4.29243,-8.22625 -7.02561,-13.52939 l -4.96942,-9.64207 -2.14683,4.41882 c -2.77977,5.7216 -2.71564,6.7862 0.73963,12.27777 1.58755,2.52315 4.0682,6.50005 5.51254,8.83755 2.75404,4.45707 4.89136,5.2206 8.08231,2.88732 z m -48.48131,-29.39345 c 0,-38.45665 -2.36393,-58.61398 -10.99462,-93.75155 -11.39134,-46.37682 -29.46141,-88.35358 -58.32646,-135.49232 -21.33305,-34.83844 -89.3686,-133.44585 -93.31271,-135.24291 -1.75865,-0.8013 -2.86898,-0.65769 -4.82525,0.62411 -3.7528,2.45893 -3.29332,6.21618 1.6146,13.20302 16.66456,23.72334 59.70516,86.2056 69.78005,101.30003 38.59339,57.82153 61.29062,105.382 74.50296,156.11575 6.95841,26.71943 13.20021,68.54738 15.57997,104.40546 0.58057,8.748 1.29046,16.2855 1.57754,16.75 0.28707,0.46449 1.3954,0.84454 2.46294,0.84454 1.87631,0 1.94098,-0.95812 1.94098,-28.75613 z m 60.21345,8.00613 c 1.05523,-1.21218 1.7066,-4.97691 2.11947,-12.25 0.32783,-5.775 1.29272,-14.05681 2.14421,-18.40403 1.81009,-9.24138 1.31332,-11.14611 -0.90071,-3.45346 -2.33301,8.1061 -3.65552,19.33313 -2.96723,25.18942 0.68917,5.86372 -0.71844,8.0786 -4.76315,7.49483 -3.04139,-0.43895 -3.73646,-3.48905 -3.15091,-13.82676 0.58093,-10.25619 3.31406,-19.36617 8.31513,-27.71573 2.04765,-3.41864 5.39844,-11.06864 7.44622,-17 2.04777,-5.93135 7.01812,-17.98427 11.04522,-26.78427 l 7.322,-16 0.69564,-11.5 0.69563,-11.5 -12.44716,24.5 c -10.86501,21.38581 -13.45133,27.48708 -20.34716,48 l -7.9,23.5 0.12237,11.7465 c 0.0985,9.45664 0.47174,12.28327 1.91454,14.5 3.51267,5.3969 7.78486,6.80154 10.65589,3.5035 z m 52.89905,-2.5375 c -0.81667,-0.81667 -1.1125,-0.70476 -1.1125,0.42083 0,0.84334 0.32812,1.86146 0.72917,2.2625 0.40104,0.40104 0.90166,0.21167 1.1125,-0.42083 0.21083,-0.6325 -0.1173,-1.65062 -0.72917,-2.2625 z m 58.52066,0.8011 c 0.50416,-1.31384 -1.62438,-33.92757 -3.45995,-53.0136 l -0.67321,-7 -3.27083,16.5 c -3.18099,16.04678 -3.24171,16.82961 -2.21053,28.5 1.30449,14.76352 1.93502,16.5 5.99131,16.5 1.77871,0 3.29087,-0.62035 3.62321,-1.4864 z m -205.16659,-1.45951 c 0.78642,-1.27246 5.62383,-64.2976 5.68258,-74.03661 0.0464,-7.69519 -0.52764,-11.59855 -2.99824,-20.38652 -1.68061,-5.97797 -3.30209,-11.11547 -3.60328,-11.41667 -0.3012,-0.30119 -0.55153,3.46488 -0.5563,8.36904 -0.01,10.06122 -2.10652,41.25265 -4.95696,73.74069 -1.05313,12.00321 -1.67838,22.44009 -1.38944,23.19307 0.83798,2.18374 6.56106,2.57665 7.82164,0.537 z m 160.98743,-10.1234 1.62816,-9.56931 -4.89651,-10.93069 c -2.69308,-6.01188 -5.70153,-13.07822 -6.68545,-15.70298 -0.98392,-2.62477 -1.92013,-4.64111 -2.08047,-4.48078 -0.16034,0.16034 -0.99458,4.66064 -1.85388,10.00067 l -1.56235,9.70914 2.91522,7.27163 c 1.60338,3.9994 4.12669,9.97163 5.60737,13.27163 1.48068,3.3 3.10563,7.07491 3.611,8.38869 0.50538,1.31378 1.09209,2.21378 1.30381,2 0.21172,-0.21378 1.11762,-4.69488 2.0131,-9.958 z m -50.42906,-26.15226 c 1.82296,-9.46671 2.75607,-16.80277 2.34536,-18.43915 -0.5939,-2.36632 -0.97914,-1.71855 -2.9804,5.01158 -2.3669,7.95976 -3.95251,20.05065 -4.8062,36.64914 l -0.4886,9.5 1.4512,-8.5 c 0.79816,-4.675 2.81355,-15.57471 4.47864,-24.22157 z m -31.02046,-14.28009 c 9.89163,-26.32134 13.87722,-40.22427 19.49327,-67.99834 10.68083,-52.8219 13.74212,-84.68259 13.64387,-142 -0.0578,-33.70635 -0.37137,-40.47168 -3.52282,-76 -1.90267,-21.45 -4.00832,-45.42445 -4.67921,-53.27655 -0.6709,-7.85211 -1.30704,-14.15211 -1.41365,-14 -0.1066,0.1521 0.16863,30.42655 0.61164,67.27655 1.33754,111.25766 -1.04511,155.20194 -11.25064,207.5 -6.25103,32.03338 -17.87264,72.33977 -24.57851,85.24395 -2.47418,4.76108 -2.7617,6.43318 -3.05324,17.75605 l -0.32184,12.5 3.58933,-8 c 1.97413,-4.4 7.14094,-17.45074 11.4818,-29.00166 z m 89.55976,-3.62725 2.77876,-13.6289 -8.9215,-13.85291 -8.9215,-13.85292 -0.89611,7.29601 c -0.70413,5.733 -0.55708,8.51405 0.68645,12.98181 1.97146,7.0831 11.86115,35.37626 12.22648,34.97842 0.14777,-0.16093 1.51911,-6.42561 3.04742,-13.92151 z m -97.13881,-31.06171 c 5.6909,-19.83467 10.781,-42.8132 14.46705,-65.30938 3.28468,-20.04665 5.57142,-38.36944 4.87546,-39.06539 -0.25074,-0.25074 -1.00761,4.1614 -1.68194,9.80475 -3.11162,26.04057 -13.61701,72.58608 -20.57677,91.16805 -2.69125,7.1854 -3.50214,10.85219 -3.47882,15.73096 0.0404,8.44665 0.9216,6.74773 6.39502,-12.32899 z m 104.1218,-18.80938 c -2.40017,-10.66668 -5.85588,-30.60494 -7.1928,-41.5 -0.40494,-3.3 -0.92749,-5.1 -1.16123,-4 -0.23373,1.1 -1.7564,5.35874 -3.3837,9.46387 l -2.95873,7.46386 1.6731,10.03614 c 2.17855,13.0681 7.07161,32.46406 9.67974,38.37024 l 2.06042,4.66589 1.82294,-7 c 1.81612,-6.97384 1.8141,-7.03924 -0.53974,-17.5 z m -142.83607,-15.75 c -1.3213,-50.43753 -11.05067,-98.74608 -34.3378,-170.49513 -6.74471,-20.78085 -24.85109,-72.73421 -33.57649,-96.34235 l -6.31541,-17.08748 -3.49073,6.01027 c -2.37654,4.09188 -5.36116,7.39145 -9.35074,10.33748 -3.223,2.37996 -6.2605,4.32721 -6.75,4.32721 -1.90022,0 -0.6415,2.71555 5.98715,12.91657 42.05992,64.72724 68.87145,142.38122 72.70798,210.58343 0.58823,10.45699 1.28487,13.92876 5.41775,27 2.6085,8.25 5.81246,19.61093 7.11993,25.2465 1.30746,5.63558 2.55881,10.24808 2.78077,10.25 0.22196,0.002 0.13538,-10.234 -0.19241,-22.7465 z m 37.66136,-10.75 c 3.7383,-15.47062 8.49383,-42.09144 10.80769,-60.5 0.83632,-6.65365 1.30579,-21.30642 1.28156,-40 -0.0448,-34.54058 -1.22993,-45.43752 -10.11489,-93 -11.06384,-59.22635 -14.1878,-76.69789 -15.44262,-86.36669 -1.61637,-12.45472 -3.75452,-15.0044 -9.01229,-10.74692 l -2.3296,1.8864 3.21695,19.3636 c 2.92481,17.60518 4.72352,26.16799 12.68006,60.36361 8.27379,35.55915 10.99045,60.8315 11.01826,102.5 0.0239,35.80927 -0.82833,46.1159 -6.03405,72.97436 -2.23712,11.54222 -2.36933,13.92125 -1.76931,31.83731 0.35667,10.64963 0.96915,18.76117 1.36108,18.02564 0.39192,-0.73552 2.34364,-8.08731 4.33716,-16.33731 z m 115.38653,11.267 c 0.55278,-2.34685 1.05429,-10.72789 1.11447,-18.62453 0.53219,-69.82767 25.83509,-150.0421 68.54173,-217.28871 6.55734,-10.32531 6.56895,-10.35651 4.22567,-11.35376 -1.29236,-0.55 -3.07658,-1.60625 -3.96494,-2.34723 -1.86698,-1.55722 -0.65326,-3.9951 -17.8469,35.84723 -18.96649,43.9505 -33.27169,79.8896 -51.90521,130.40198 -7.26023,19.6813 -9.92387,28.14413 -9.92387,31.52986 0,9.98964 6.74103,57.34625 8.04803,56.53848 0.38829,-0.23998 1.15825,-2.35647 1.71102,-4.70332 z m -64.29055,-45.09646 c -0.38818,-10.3562 -0.99625,-23.1812 -1.35126,-28.5 l -0.64547,-9.67054 -1.22058,15.08201 c -1.83749,22.70485 -5.27452,46.41421 -9.77326,67.41799 -0.29451,1.375 2.66669,-3.8 6.58044,-11.5 l 7.11592,-14 z m 42.09253,-6.17054 c 22.46873,-64.63852 51.31657,-136.6727 86.85647,-216.88403 5.82038,-13.13622 10.5825,-25.02579 10.5825,-26.42126 0,-5.03212 -5.38868,-7.91731 -9.23526,-4.94471 -1.63526,1.26371 -13.81362,28.46155 -35.26186,78.75 -20.74937,48.64987 -35.33383,85.72029 -53.30917,135.5 l -7.58306,21 -0.0553,17.77155 c -0.0304,9.77435 0.27239,16.97435 0.67293,16 0.40054,-0.97435 3.70028,-10.32155 7.33277,-20.77155 z m 44.53265,-7.5 c 0.4703,-1.925 1.82474,-9.125 3.00987,-16 8.68696,-50.39382 29.80745,-103.38917 61.13967,-153.41118 3.75893,-6.00115 6.47945,-11.20318 6.0456,-11.56007 -0.43385,-0.35689 -1.98312,-1.15502 -3.44282,-1.77364 -3.26259,-1.38267 -3.37558,-1.26799 -12.06515,12.24489 -36.30253,56.45297 -60.06779,125.47476 -65.24776,189.5 l -0.60679,7.5 5.15614,-11.5 c 2.83588,-6.325 5.54093,-13.075 6.01124,-15 z m -203.73304,-10.5 c -6.55716,-45.19472 -20.59018,-88.34498 -43.4159,-133.5 -10.53472,-20.84033 -30.88477,-55 -32.76532,-55 -1.52722,0 -7.17942,2.50967 -7.17942,3.18778 0,0.43231 3.30924,6.07941 7.35387,12.54911 10.65968,17.05103 24.01917,41.60284 31.70295,58.26311 13.63228,29.558 21.36098,51.47832 28.9104,81.99634 4.01385,16.22574 5.7931,21.47994 10.58654,31.26254 3.169,6.46738 5.8734,11.64238 6.00978,11.5 0.13639,-0.14238 -0.40492,-4.75888 -1.2029,-10.25888 z m 57.59643,-29.89366 c 4.85666,-60.56626 -9.62107,-139.2474 -38.81825,-210.96294 -8.3364,-20.47626 -9.63728,-22.16601 -15.7796,-20.4965 l -3.14077,0.85368 6.26886,14.74971 c 20.40634,48.0131 34.23137,96.98628 40.01566,141.74971 2.28535,17.68582 3.5588,43.32212 2.838,57.13263 -0.55492,10.63234 -0.27755,14.21843 2.24307,29 l 2.87629,16.86737 1.2269,-7.94376 c 0.6748,-4.36907 1.69623,-13.79653 2.26984,-20.9499 z m 91.70558,0.84958 c -1.54787,-12.30836 -1.42396,-74.09508 0.17139,-85.45592 5.12067,-36.46563 14.61012,-71.16862 28.16508,-103 3.39604,-7.975 6.37419,-14.97264 6.61811,-15.55031 0.55407,-1.3122 -6.64457,-4.85209 -7.63265,-3.75331 -1.25882,1.39985 -11.57946,26.31027 -16.28388,39.30362 -8.46276,23.37366 -17.28136,59.36575 -18.37613,75 -0.28885,4.125 0.42608,19.2 1.58873,33.5 2.03682,25.05189 4.93347,64.79515 5.17476,71 l 0.11666,3 0.72923,-3.04408 c 0.40107,-1.67425 0.27899,-6.62425 -0.2713,-11 z m 77.6517,-3.95592 c 11.747,-20.64352 33.60271,-54.93498 64.80767,-101.6828 8.79892,-13.18156 16.24417,-24.60789 16.545,-25.39184 0.32316,-0.84214 -0.0648,-1.42536 -0.94816,-1.42536 -0.82232,0 -5.48297,-1.17624 -10.35699,-2.61386 -4.87403,-1.43763 -9.56539,-2.81815 -10.42525,-3.06783 -1.81394,-0.52672 -5.27461,4.40072 -17.68577,25.18169 -15.6711,26.23934 -32.99246,64.53766 -41.17675,91.04366 -4.30024,13.92692 -9.09272,32.26666 -7.95877,30.45634 0.51677,-0.825 3.75633,-6.45 7.19902,-12.5 z m -56.80286,-42.822 c 9.27905,-24.32088 25.96674,-65.22677 33.89345,-83.08172 1.44153,-3.24704 2.45195,-6.07272 2.24539,-6.27929 -0.60437,-0.60436 -19.44214,32.84405 -27.69933,49.18301 -4.16928,8.25 -10.47638,21.75 -14.01576,30 l -6.43524,15 -0.22708,13.5 c -0.14939,8.88089 0.0896,12.81569 0.69833,11.5 0.50899,-1.1 5.70209,-14.5199 11.54024,-29.822 z m -205.83563,9.12274 c -8.97461,-26.5795 -19.89741,-50.68364 -36.04662,-79.54676 -12.62262,-22.56011 -21.42024,-35.5638 -23.47292,-34.69511 -0.91098,0.38553 -5.59096,2.10499 -10.39996,3.82104 -4.80901,1.71605 -8.74651,3.45057 -8.75,3.85449 -0.003,0.40392 9.29295,14.12892 20.65878,30.5 24.34842,35.07092 51.04381,74.58827 57.79515,85.55451 2.63737,4.2839 5.00615,7.57798 5.26395,7.32019 0.2578,-0.2578 -2.01397,-7.82156 -5.04838,-16.80836 z m 124.3539,-85.26661 c -0.62049,-43.98123 -1.21853,-80.03209 -1.32896,-80.11303 -0.11044,-0.0809 -5.8258,1.2537 -12.7008,2.96587 -12.05074,3.00114 -12.4894,3.20288 -12.20515,5.61303 0.86005,7.29213 5.13478,31.47957 11.31094,64 7.67872,40.43212 12.26862,70.57241 13.85027,90.94989 0.57417,7.39745 1.13733,13.92245 1.25148,14.5 0.8476,4.28863 0.78608,-29.59672 -0.17778,-97.91576 z m -50.42611,70.71587 c -2.44892,-38.10312 -13.17257,-86.6015 -28.25788,-127.79809 l -4.47561,-12.22249 -8.68508,0.51738 c -4.77679,0.28455 -8.83329,0.64364 -9.01443,0.79796 -0.18114,0.15433 2.22035,7.18239 5.33665,15.61792 15.62233,42.28827 33.25213,94.07476 41.05182,120.58732 2.1439,7.2875 4.08642,13.25 4.31672,13.25 0.2303,0 0.10781,-4.8375 -0.27219,-10.75 z m 137.67908,-50.97831 c 10.31381,-19.03811 23.41985,-41.34003 32.39613,-55.12694 l 7.39309,-11.35525 0.30405,-8.14475 c 0.16723,-4.47961 0.65528,-9.04475 1.08456,-10.14475 0.92608,-2.37305 -8.39152,11.66581 -20.24289,30.5 -15.66899,24.90117 -34.35176,59.24264 -36.99399,68 -0.5808,1.925 -1.3382,8 -1.6831,13.5 l -0.6271,10 5.35734,-11.54943 c 2.94654,-6.35218 8.8019,-17.90768 13.01191,-25.67888 z m -28.24345,-57.78172 c 5.29271,-16.2799 9.76953,-28.10126 15.64853,-41.3211 l 4.59437,-10.33114 -2.01871,-2.01871 c -1.97957,-1.97957 -2.27579,-1.98932 -15.28018,-0.50283 -8.54551,0.97681 -13.56217,1.99025 -14.10707,2.84984 -0.46508,0.73369 -0.89758,2.90897 -0.96112,4.83397 -0.0635,1.925 -0.44056,8 -0.83781,13.5 -0.48098,6.65904 -0.12169,18.35239 1.07541,35 0.98874,13.75 1.8397,26.8 1.89103,29 0.0745,3.19262 0.66649,1.77767 2.93288,-7.01003 1.56175,-6.05551 4.73995,-16.85551 7.06267,-24 z m 276.61371,24.90421 c 3.44777,-7.45413 4.652,-15.5023 4.02411,-26.89418 -1.66636,-30.23315 -20.16457,-56.94898 -49.1771,-71.0235 -14.03119,-6.80679 -12.98306,-7.19012 -13.09917,4.79062 -0.16168,16.68169 -4.49227,27.95999 -14.11174,36.75164 -7.96127,7.27616 -14.01846,9.2078 -28.78909,9.18088 -12.13239,-0.0221 -27.91751,-1.74023 -46.5434,-5.06596 l -10.18934,-1.81935 -2.72639,6.09283 -2.72639,6.09284 7.09276,0.61897 c 10.19126,0.88937 17.49166,2.99385 37.43281,10.79072 25.45435,9.9525 45.80083,15.77907 70.30538,20.13318 20.072,3.56651 35.80451,10.37252 40.48343,17.51345 l 1.7584,2.68366 1.95206,-2.36999 c 1.07364,-1.30349 3.01479,-4.66761 4.31367,-7.47581 z m -26.27469,-19.8311 c -3.39068,-1.4757 -6.3783,-5.04991 -6.3783,-7.6306 0,-2.53687 3.3407,-4.93248 6.8784,-4.93248 8.58835,0 14.62113,8.43543 8.89909,12.4433 -2.6939,1.88688 -5.26372,1.91963 -9.39919,0.11978 z m -51.8783,-16.08746 c -1.65,-0.76198 -3.98218,-1.40571 -5.18261,-1.43052 -2.99188,-0.0618 -4.01152,-3.62062 -1.75254,-6.11676 4.32015,-4.77371 13.98686,-0.61232 13.26162,5.70896 -0.37838,3.29807 -2.0891,3.79516 -6.32647,1.83832 z m 29.25,-3.55572 c -2.6994,-1.57226 -2.26182,-6.53844 0.75,-8.51186 2.31587,-1.51741 2.68413,-1.51741 5,0 6.13665,4.02089 0.60317,12.21224 -5.75,8.51186 z m 26.67666,-14.3351 c -4.06441,-4.24185 -6.27247,-9.40724 -4.94174,-11.5604 1.50467,-2.4346 5.43775,-0.91915 9.45287,3.64227 4.60651,5.23327 5.88011,8.64289 4.05143,10.84632 -2.02481,2.43974 -4.09874,1.73051 -8.56256,-2.92819 z m -17.32307,-7.1196 c -4.0195,-4.57795 -4.26323,-9.13605 -0.53851,-10.07089 4.35849,-1.09391 11.17142,6.53509 10.0009,11.19883 -0.95839,3.81853 -5.60572,3.26456 -9.46239,-1.12794 z M 605.097,563.76195 c 5.84692,-9.90924 29.82404,-48.56506 35.56654,-57.34022 1.32736,-2.02836 1.12379,-2.13831 -6.87777,-3.7147 -4.53509,-0.89346 -8.59571,-1.27439 -9.0236,-0.8465 -1.34497,1.34497 -11.33448,25.10962 -16.037,38.15142 -4.50144,12.48409 -11.80796,36 -11.1854,36 0.18104,0 3.58179,-5.5125 7.55723,-12.25 z m -393.88435,-5.83312 c 8.39207,-6.18035 19.66091,-10.76097 35.2981,-14.34814 26.782,-6.14379 48.59816,-13.44497 76.78738,-25.6983 8.68306,-3.77437 19.23031,-7.76428 23.43834,-8.86647 9.14017,-2.39403 20.85978,-2.62183 25.92852,-0.50397 1.97451,0.825 3.82255,1.5 4.10677,1.5 0.76364,0 -0.4842,-10.94895 -1.70953,-15 -2.03722,-6.73522 -1.19844,-6.64313 -19.68751,-2.16141 -26.03106,6.30988 -33.30871,7.41664 -45.83034,6.96969 -9.71458,-0.34676 -11.72587,-0.73926 -16.82411,-3.28315 -13.94209,-6.95674 -21.64755,-22.28302 -21.69216,-43.14602 l -0.0174,-8.1209 -4.75,0.88024 c -30.20616,5.59761 -58.94294,28.44163 -70.23957,55.83627 -4.86649,11.80134 -6.30574,20.51088 -5.75828,34.8457 0.54003,14.14021 2.35388,20.83971 7.77582,28.72023 l 3.14733,4.57449 2.86425,-4.51645 c 1.57534,-2.48406 4.7984,-5.94087 7.16235,-7.68181 z m -5.45743,-17.64674 c -2.38228,-2.63239 -2.19302,-4.58362 0.78826,-8.12666 3.55564,-4.22564 8.76285,-5.83506 12.00529,-3.71053 3.27203,2.14392 3.16399,5.74988 -0.28802,9.61302 -3.57222,3.99766 -9.88453,5.12034 -12.50553,2.22417 z m 68.82696,-24.84157 c -1.90366,-1.90366 -1.89776,-1.71178 -0.179,-5.82536 2.58783,-6.19354 11.74847,-6.87432 13.2271,-0.98299 0.71513,2.84929 -1.38975,5.34689 -4.56066,5.41158 -0.85738,0.0175 -2.43238,0.6925 -3.5,1.5 -2.44638,1.85035 -3.04628,1.83793 -4.98744,-0.10323 z m -33.19023,-2.96953 c -1.35,-2.06037 -1.44757,-3.01795 -0.51587,-5.06283 1.60413,-3.52067 6.92207,-3.06016 9.07031,0.78545 1.36704,2.44717 1.33435,2.86252 -0.37379,4.75 -2.5723,2.84236 -6.14378,2.63602 -8.18065,-0.47262 z m -36.34908,-5.92034 c -1.79716,-2.16545 0.28355,-7.51865 4.94527,-12.72308 3.26503,-3.64513 4.14968,-4.14439 5.6941,-3.21349 2.63555,1.58857 2.74898,4.65336 0.34651,9.36259 -3.78158,7.41251 -8.13027,10.01478 -10.98588,6.57398 z m 17.16788,-6.7387 c -1.80762,-1.80762 -1.44676,-5.66467 0.8826,-9.43364 4.66861,-7.55397 12.82915,-3.88842 8.79244,3.94938 -2.96876,5.76422 -7.0702,8.0891 -9.67504,5.48426 z m 31.05,-26.46228 c -0.6875,-0.27741 -1.25,-2.0765 -1.25,-3.99798 0,-7.05976 9.83953,-12.35735 14.42857,-7.76831 3.05855,3.05855 1.48568,6.42857 -3.00038,6.42857 -2.46444,0 -3.67307,0.59863 -4.54271,2.25 -1.77178,3.36446 -3.11956,4.10291 -5.63548,3.08772 z m 407.05276,41.91228 c 2.06734,-4.89415 2.32693,-6.25 1.19659,-6.25 -0.90552,0 -2.03843,2.14291 -3.03988,5.75 -0.87802,3.1625 -1.81725,6.425 -2.08718,7.25 -1.18076,3.60881 1.49816,-0.99183 3.93047,-6.75 z m 122.07373,-21.15414 c 10.83621,-24.14628 -0.32077,-59.62807 -25.87649,-82.29329 -5.42918,-4.81511 -16.6612,-11.84179 -24.25781,-15.17552 -21.76365,-9.55087 -48.41985,-10.55719 -70.84725,-2.67459 -3.12153,1.09713 -5.79097,2.11915 -5.93209,2.27116 -0.14112,0.15201 0.60764,3.65138 1.66392,7.77638 7.0361,27.47764 0.15515,51.52596 -18.07255,63.16195 -3.32933,2.12534 -3.92138,2.83805 -2.35758,2.83805 1.14851,0 7.64911,1.32024 14.44578,2.93386 25.56815,6.07023 46.98778,9.37036 74.97539,11.55149 11.14811,0.8688 22.94051,2.37866 27.31396,3.4972 9.02186,2.3074 18.80492,7.2533 21.88863,11.06598 2.70462,3.34394 3.62166,2.70027 7.05609,-4.95267 z m -27.04775,-21.55362 c -6.13131,-2.66708 -6.91271,-9.22928 -1.37226,-11.52421 3.53785,-1.46543 8.13119,-0.22375 11.7505,3.17642 6.3976,6.01023 -1.3766,12.26344 -10.37824,8.34779 z m -64.82874,-9.54224 c -1.1,-0.47269 -3.47662,-0.89106 -5.28138,-0.92971 -3.77169,-0.0808 -5.0026,-2.05422 -3.43175,-5.50187 2.07501,-4.55416 11.84205,-3.43001 13.59356,1.56457 1.6959,4.83597 -0.30624,6.83261 -4.88043,4.86701 z m 31.73764,-3.5461 c -3.82528,-2.67934 -7.49724,-9.99548 -6.74216,-13.43334 1.43034,-6.51226 8.60327,-7.90484 15.39075,-2.98802 4.50695,3.26482 6.73839,6.89735 5.77661,9.40369 -0.98399,2.56424 -4.05225,1.78896 -7.66284,-1.93623 -3.3417,-3.44776 -6,-4.52445 -6,-2.43018 0,0.58841 1.38679,3.08547 3.08176,5.54902 2.48305,3.60898 2.84782,4.76109 1.87756,5.93018 -1.54048,1.85616 -2.96975,1.8324 -5.72168,-0.0951 z m -49.57097,-20.12057 c -1.41778,-1.41777 -0.53962,-3.8692 2.51498,-7.02074 3.42465,-3.53335 3.1273,-5.61937 -0.47713,-3.34716 -7.21921,4.55097 -7.52381,4.64385 -9.32453,2.84313 -1.58481,-1.58481 -1.58173,-1.85171 0.05,-4.34212 2.1655,-3.30496 9.88384,-6.85546 13.13116,-6.04044 3.47757,0.87282 6.43881,4.51407 6.43881,7.9174 0,5.02256 -9.55843,12.76484 -12.33333,9.98993 z m 80.97507,-3.30812 c -5.55867,-6.15278 -6.19375,-12.02521 -1.30048,-12.02521 1.55612,0 3.81967,1.5358 6.41779,4.35442 4.6473,5.04173 5.91798,8.12489 4.20112,10.19357 -2.13744,2.57546 -5.54623,1.65259 -9.31843,-2.52278 z m -16.44991,-4.4595 c -3.70983,-4.22527 -4.73911,-7.20135 -3.152,-9.1137 1.96169,-2.3637 5.50993,-1.66979 8.83095,1.72702 3.78165,3.86797 4.58338,6.10384 3.14944,8.7832 -1.67074,3.12179 -5.37586,2.53569 -8.82839,-1.39652 z m -35.4239,-20.56571 c -1.32384,-2.1198 -4.23439,-2.6723 -5.26793,-1 -0.91246,1.4764 -4.07716,1.21441 -5.46017,-0.45201 -3.0727,-3.70238 3.3707,-9.25636 9.42172,-8.12118 3.18554,0.59761 6.82478,3.67391 7.77604,6.57319 1.39363,4.24753 -4.09975,6.79483 -6.46966,3 z m -239.28197,71.44142 c 2.05162,-0.85722 3.56907,-1.69956 3.37213,-1.87187 -0.19695,-0.17231 -2.49872,-0.62399 -5.11504,-1.00373 l -4.75696,-0.69045 1.16747,2.56231 c 0.64211,1.40928 1.26528,2.56232 1.38483,2.56232 0.11955,0 1.89596,-0.70136 3.94757,-1.55858 z M 296.24236,475.8195 c 4.40689,-4.36064 17.80077,-11.15517 26.26839,-13.32559 3.3,-0.84585 12.075,-2.43786 19.5,-3.53779 22.16179,-3.28303 48.38378,-9.66442 69,-16.79187 12.79274,-4.42271 12,-3.85884 12,-8.53552 0,-6.16667 1.88486,-20.26768 3.62465,-27.11678 0.83826,-3.3 3.37997,-10.68117 5.64823,-16.4026 l 4.12412,-10.4026 -3.4485,-2.91814 c -5.36615,-4.54088 -20.52715,-11.48373 -30.4485,-13.94364 -13.34273,-3.3082 -34.23813,-3.11827 -47.6196,0.43283 -43.74735,11.60943 -75.95354,52.1766 -73.59193,92.69695 0.58994,10.12204 2.14212,15.68349 6.40953,22.96527 2.41784,4.12573 2.7222,4.33308 3.71771,2.53277 0.59636,-1.07846 2.76351,-3.62244 4.8159,-5.65329 z m 0.10633,-17.80618 c -7.11887,-2.87071 -0.39549,-14.00137 8.45741,-14.00137 2.90421,0 6.20465,2.59497 6.20465,4.8784 0,3.09973 -3.18773,6.97956 -6.98182,8.49765 -4.55866,1.82401 -4.68265,1.83411 -7.68024,0.62532 z m 41.86206,-26.20137 c -1.77454,-1.77454 -1.54053,-2.56816 2.3,-7.8 3.41624,-4.65384 4.47587,-8 2.53338,-8 -0.53164,0 -3.24666,2.025 -6.03338,4.5 -5.65293,5.02061 -7.4042,5.48177 -9.06098,2.38605 -0.952,-1.77882 -0.66144,-2.76264 1.83277,-6.20581 6.57678,-9.07897 17.08634,-11.24094 21.27217,-4.37598 1.07171,1.75766 1.95025,4.02773 1.9523,5.04461 0.006,2.96173 -2.88029,8.22491 -6.62486,12.08058 -3.59525,3.70191 -6.11039,4.43156 -8.1714,2.37055 z m 36.46667,0.53333 c -0.36667,-0.36666 -0.66667,-2.134 -0.66667,-3.92742 0,-6.02479 7.60949,-9.46902 12.83459,-5.80922 3.94728,2.76479 2.57175,6.27514 -3.33459,8.50987 -5.25945,1.98998 -7.72739,2.33272 -8.83333,1.22677 z m -74.62684,-15.78534 c -1.56821,-1.88958 -0.63106,-4.75264 3.70666,-11.32413 3.67427,-5.56638 6.47805,-7.73541 8.83165,-6.83225 2.2721,0.87189 1.66076,4.49449 -1.6872,9.99779 -5.53953,9.10576 -8.32618,11.20094 -10.85111,8.15859 z m 15.96262,-6.54341 c -1.66112,-3.10384 3.68939,-12.50458 7.11709,-12.50458 3.38638,0 3.42884,2.99345 0.12746,8.98751 -3.04259,5.5242 -5.52531,6.7295 -7.24455,3.51707 z m 91.91868,-13.08901 c -4.27791,-4.57951 -8.06584,-11.3749 -7.36244,-13.2079 0.72522,-1.88991 2.93591,-2.83884 4.87764,-2.09373 2.44273,0.93737 9.74959,13.04743 9.39124,15.56463 -0.4986,3.50241 -3.49563,3.38828 -6.90644,-0.263 z m 13.7587,-5.00425 c -6.71686,-4.44907 -9.94338,-8.55035 -8.64105,-10.98378 1.65696,-3.09607 4.24468,-2.2627 11.71122,3.7716 4.4134,3.56682 5.50643,7.01322 2.90815,9.16961 -1.0245,0.85026 -2.43839,0.38732 -5.97832,-1.95743 z m -58.60725,-11.54618 c -2.48525,-3.15948 -2.53777,-3.75709 -0.50857,-5.78629 1.40021,-1.40021 1.86839,-1.40661 4.47035,-0.0611 3.79088,1.96034 5.53166,5.09529 3.91259,7.04615 -1.87871,2.26371 -5.59591,1.69781 -7.87437,-1.19878 z m 87.06088,67.56749 c 12.07942,-6.09767 15.3064,-6.43763 57.86654,-6.09624 38.52542,0.30903 55.68204,-0.42244 81,-3.45345 23.89606,-2.86078 43.10564,-0.71628 52.31321,5.84009 2.39394,1.70463 3.04845,1.8201 3.79045,0.66869 2.33549,-3.62411 3.34616,-10.25079 3.26259,-21.39172 -0.10636,-14.17756 -2.64223,-24.12304 -9.75965,-38.27663 -26.38895,-52.47662 -90.60182,-74.14771 -142.82902,-48.20312 -11.17027,5.54899 -18.23835,10.48597 -27.0969,18.92689 -13.63358,12.99083 -23.30582,28.07948 -29.01636,45.26537 -6.27129,18.87347 -6.88579,39.55399 -1.58925,53.48494 l 0.93102,2.44876 2.63043,-3.12609 c 1.44674,-1.71935 5.27036,-4.45872 8.49694,-6.08749 z m 1.18191,-14.89429 c -7.25179,-3.07226 -3.02715,-12.87618 6.30274,-14.62648 9.42198,-1.76757 14.06444,7.11768 6.52423,12.48679 -3.35383,2.38813 -9.72998,3.45175 -12.82697,2.13969 z m 84.59968,-14.19706 c -1.19672,-2.2361 0.39386,-6.40105 2.97134,-7.78048 6.58463,-3.52399 17.12998,2.30306 14.17162,7.83081 -0.8662,1.61851 -2.1107,1.87489 -8.61999,1.7758 -6.0764,-0.0925 -7.79186,-0.46005 -8.52297,-1.82613 z m 71.41043,-1.30041 c -6.48217,-2.81961 -7.842,-8.84588 -2.74906,-12.1829 3.18619,-2.08767 11.68417,-2.07247 14.88782,0.0266 10.47467,6.86327 -0.058,17.41112 -12.13876,12.15626 z m -104.65881,-8.20754 c -1.47677,-1.47676 -0.47116,-4.10658 3.32859,-8.70481 3.62052,-4.38132 4.31707,-6.62852 2.05461,-6.62852 -0.45766,0 -3.0186,1.81445 -5.69099,4.03212 -5.46544,4.53547 -9.62981,5.07503 -10.16543,1.31708 -0.61345,-4.304 10.10347,-13.3492 15.81637,-13.3492 5.03178,0 9.99018,4.88946 9.99018,9.85127 0,2.40155 -5.26484,10.52039 -8.11818,12.51895 -2.38193,1.66837 -6.02377,2.1545 -7.21515,0.96311 z m 73.61101,-7.58333 c -1.86233,-2.40684 -2.26082,-4.9133 -1.12439,-7.07244 2.29997,-4.36981 6.31604,-4.93578 9.6724,-1.36311 2.57796,2.74412 2.72007,4.46135 0.61761,7.46304 -1.74854,2.49639 -7.51321,3.10804 -9.16562,0.97251 z m -114.81971,-16.1738 c -1.41594,-2.16101 -1.42738,-2.73023 -0.10547,-5.25 1.67167,-3.18649 8.07269,-9.54054 11.24289,-11.16041 2.71304,-1.38627 6.41639,1.01859 6.37679,4.14091 -0.0557,4.39351 -9.97005,14.6933 -14.14341,14.6933 -0.98046,0 -2.49733,-1.09071 -3.3708,-2.4238 z m 21.54203,-3.5762 c -1.48819,-1.48819 -1.8992,-2.74462 -1.40702,-4.30115 2.45031,-7.74915 11.37933,-13.32654 15.20702,-9.49885 3.66684,3.66684 -2.07534,12.85968 -9.49885,15.20702 -1.55653,0.49218 -2.81296,0.0812 -4.30115,-1.40702 z m 123.28145,-5.91108 c -7.49473,-5.42915 -10.25085,-11.83762 -6.18623,-14.38405 2.48542,-1.55707 6.14766,-0.12345 11.32388,4.43283 5.4206,4.77141 7.08522,8.05144 5.54586,10.92777 -1.51497,2.83075 -5.99271,2.42145 -10.68351,-0.97655 z m -20.82407,-1.95184 c -3.91738,-2.3889 -8.45738,-7.78856 -8.45738,-10.05882 0,-0.97256 0.88187,-2.56636 1.95971,-3.54179 2.63528,-2.3849 6.05291,-1.4233 11.07863,3.11713 4.81449,4.3496 5.90259,7.6492 3.42519,10.38669 -2.21088,2.443 -4.12089,2.46609 -8.00615,0.0968 z m -54.70738,-18.21718 c -2.89858,-1.68827 -2.22377,-6.67491 1.35576,-10.01869 2.56895,-2.39976 3.96896,-2.90121 8.1,-2.90121 4.367,0 5.43044,0.4362 8.46732,3.47308 3.89221,3.89221 4.12439,6.94074 0.70083,9.20202 -1.91129,1.26242 -2.43104,1.14771 -5.14436,-1.1354 -3.77033,-3.17253 -4.939,-3.17879 -7.40821,-0.0397 -2.1299,2.70774 -3.36453,2.99648 -6.07134,1.4199 z m 129.76629,27.26687 c -0.52486,-0.53134 -10.90456,-3.13184 -11.2243,-2.8121 -0.16555,0.16556 0.17686,1.67183 0.76093,3.34728 l 1.06193,3.04626 4.85542,-1.6341 c 2.67048,-0.89876 4.71619,-1.77506 4.54602,-1.94734 z" fill="#000000"/>
  </g>
</svg>