<?xml version="1.0" encoding="utf-8"?>
<svg viewBox="0 0 500 500" xmlns="http://www.w3.org/2000/svg">
  <defs/>
  <path class="cls-1" d="M 248.165 162.63 C 244.377 161.408 242.595 159.853 242.316 156.521 C 241.815 149.967 240.868 143.413 240.311 136.859 C 239.754 128.888 240.032 120.885 241.146 112.976 C 241.219 111.254 242.461 109.804 244.154 109.477 C 245.837 109.193 247.53 109.91 248.499 111.309 C 250.655 113.57 251.513 116.769 250.783 119.807 C 249.558 127.689 249.39 135.703 250.282 143.635 C 250.382 148.845 250.181 154.054 249.669 159.242 C 249.34 160.436 248.833 161.58 248.165 162.63 Z" style="fill-rule: evenodd;"/>
  <path class="cls-1" d="M 309.383 377.799 C 309.383 381.187 307.266 382.576 305.428 381.41 C 304.019 380.604 302.804 379.505 301.863 378.188 C 300.576 376.066 299.529 373.811 298.744 371.468 C 295.29 361.692 291.948 351.806 288.661 341.919 C 288.177 340.37 287.915 338.759 287.881 337.143 C 287.881 333.866 290.611 332.422 293.452 334.032 C 296.092 335.582 297.941 338.192 298.521 341.197 C 300.136 346.751 301.696 352.306 303.367 357.86 C 305.038 363.414 306.486 367.191 307.879 371.912 C 308.714 373.967 309.104 376.411 309.383 377.799 Z" style="fill-rule: evenodd;"/>
  <path class="cls-1" d="M 215.69 170.739 C 213.69 171.806 211.2 171.061 210.12 169.073 C 204.549 159.131 198.478 149.189 193.074 138.969 C 191.453 135.209 190.35 131.243 189.788 127.194 C 189.303 124.628 191.782 122.501 194.25 123.362 C 194.383 123.412 194.511 123.462 194.634 123.529 C 196.383 124.262 197.898 125.45 199.035 126.972 C 200.494 128.927 201.641 131.105 202.432 133.415 C 205.897 142.868 209.858 152.138 214.297 161.186 C 215.099 162.963 215.695 164.824 216.08 166.74 C 216.186 168.084 216.058 169.44 215.69 170.739 Z" style="fill-rule: evenodd;"/>
  <path class="cls-1" d="M 170.737 217.672 C 169.623 218.616 168.788 219.727 167.729 220.06 C 166.637 220.188 165.535 219.994 164.554 219.505 C 158.26 216.839 152.021 213.951 145.671 211.563 C 142.418 210.102 138.964 209.124 135.421 208.674 C 130.313 207.691 125.523 205.497 121.44 202.287 C 120.587 201.598 119.93 200.699 119.546 199.677 C 119.039 198.316 119.852 196.822 121.273 196.511 C 123.434 196.411 125.595 196.655 127.679 197.233 C 138.819 201.121 149.96 205.231 160.766 209.396 C 163.529 210.568 166.147 212.057 168.565 213.84 C 169.512 214.562 169.902 216.117 170.737 217.672 Z" style="fill-rule: evenodd;"/>
  <path class="cls-1" d="M 232.568 163.685 C 229.671 165.074 227.666 164.407 226.663 162.019 C 225.867 159.703 225.271 157.326 224.881 154.91 C 223.767 149.356 222.876 144.135 221.706 138.803 C 220.068 132.138 219.506 125.256 220.035 118.419 C 220.213 117.402 220.453 116.403 220.759 115.42 C 225.327 115.42 227.053 116.308 228.056 119.196 C 228.329 120.207 228.479 121.251 228.502 122.307 C 229.894 134.304 231.287 146.301 232.568 158.298 C 232.685 160.092 232.685 161.891 232.568 163.685 Z" style="fill-rule: evenodd;"/>
  <path class="cls-1" d="M 158.148 354.416 C 155.92 354.416 153.971 352.694 154.472 351.25 C 154.851 349.667 155.575 348.19 156.589 346.918 C 165.891 336.365 173.857 324.701 183.939 314.87 C 184.496 314.315 184.997 313.593 185.61 313.093 C 186.886 311.943 188.763 311.766 190.233 312.649 C 191.838 313.86 192.289 316.07 191.292 317.814 C 190.891 318.536 190.406 319.208 189.844 319.814 C 189.197 320.691 188.49 321.53 187.727 322.313 C 179.26 331.033 171.461 340.309 163.886 349.751 C 162.866 351.05 161.708 352.245 160.432 353.305 C 159.741 353.8 158.967 354.177 158.148 354.416 Z" style="fill-rule: evenodd;"/>
  <path class="cls-1" d="M 258.08 367.413 C 258.08 372.356 258.08 377.299 258.08 382.243 C 258.063 384.97 257.874 387.697 257.523 390.407 C 257.122 391.374 256.27 392.079 255.239 392.296 C 254.175 392.435 253.111 392.04 252.398 391.241 C 251.44 389.524 250.839 387.636 250.616 385.686 C 249.223 372.301 249.335 358.86 249.279 345.474 C 249.218 344.38 249.429 343.297 249.892 342.308 C 250.543 340.714 252.198 339.775 253.902 340.031 C 255.234 340.242 256.442 340.936 257.3 341.975 C 258.509 344.135 258.921 346.646 258.47 349.084 C 258.024 355.083 257.802 361.137 257.523 367.135 L 258.08 367.413 Z" style="fill-rule: evenodd;"/>
  <path class="cls-1" d="M 293.73 113.753 C 299.301 113.753 301.027 115.475 299.301 119.641 C 294.51 132.027 292.393 145.134 288.16 157.576 C 287.458 159.653 286.528 161.647 285.375 163.519 C 284.734 164.852 283.08 165.341 281.81 164.574 C 280.724 163.83 279.933 162.73 279.582 161.464 C 279.576 160.109 279.843 158.77 280.361 157.52 C 283.091 147.134 285.932 136.803 288.438 126.417 C 289.129 121.824 290.945 117.475 293.73 113.753 Z" style="fill-rule: evenodd;"/>
  <path class="cls-1" d="M 261.478 157.576 C 263.762 143.357 265.879 129.805 268.162 115.808 C 268.552 113.364 270.056 111.976 271.783 111.976 C 274.357 112.048 276.462 114.031 276.685 116.586 C 276.774 117.936 276.602 119.291 276.184 120.585 C 273.638 129.238 271.778 138.075 270.613 147.023 C 269.834 151.077 268.775 155.021 267.884 159.02 C 267.494 160.686 266.993 162.297 264.987 162.519 C 262.982 162.741 261.2 160.297 261.255 157.909 L 261.478 157.576 Z" style="fill-rule: evenodd;"/>
  <path class="cls-1" d="M 367.76 250.331 L 351.049 250.331 C 349.395 250.353 347.746 250.147 346.147 249.72 C 344.432 249.437 343.223 247.887 343.362 246.165 C 343.362 244.332 345.089 243.444 346.648 242.944 C 347.74 242.799 348.843 242.799 349.935 242.944 C 361.41 242.555 372.94 242.055 384.471 241.888 C 387.173 242.016 389.83 242.622 392.325 243.666 C 393.222 244.254 393.768 245.254 393.774 246.332 C 393.623 247.376 392.955 248.276 391.991 248.72 C 389.54 249.425 387.017 249.875 384.471 250.053 C 378.901 250.053 373.33 250.053 368.039 250.053 L 367.76 250.331 Z" style="fill-rule: evenodd;"/>
  <path class="cls-1" d="M 368.094 170.739 L 356.619 179.515 C 354.001 181.57 351.55 183.736 348.932 185.791 C 342.861 190.512 336.845 195.289 330.717 200.01 C 330.11 200.549 329.353 200.898 328.545 201.01 C 327.241 200.904 325.988 200.443 324.924 199.677 C 323.816 198.682 323.816 196.944 324.924 195.955 C 326.551 194.095 328.428 192.467 330.495 191.123 C 336.878 186.796 342.928 182.009 348.598 176.793 C 352.776 173.627 356.675 170.128 360.797 166.907 C 364.919 163.685 366.535 164.13 368.094 170.739 Z" style="fill-rule: evenodd;"/>
  <path class="cls-1" d="M 146.673 256.885 C 139.036 257.696 131.322 257.373 123.779 255.94 C 121.557 255.713 119.329 255.602 117.095 255.607 C 115.457 255.646 113.831 255.363 112.304 254.774 C 111.162 254.124 110.371 253.002 110.132 251.719 C 110.132 250.164 111.357 249.331 112.861 249.331 C 119.936 248.303 127.122 248.303 134.196 249.331 C 137.466 249.77 140.786 249.77 144.055 249.331 C 147.62 249.331 151.241 248.998 154.806 248.998 C 157.619 248.998 160.243 250.42 161.769 252.775 C 162.922 254.463 161.992 256.779 159.986 257.218 C 158.895 257.296 157.797 257.296 156.7 257.218 L 146.673 256.885 Z" style="fill-rule: evenodd;"/>
  <path class="cls-1" d="M 350.325 147.523 C 350.303 148.245 350.152 148.956 349.879 149.633 C 348.949 151.633 347.746 153.505 346.314 155.188 C 337.903 163.463 329.993 172.239 321.972 180.903 C 320.629 182.281 319.131 183.514 317.516 184.569 C 316.084 185.524 314.151 185.236 313.059 183.903 C 311.979 182.575 311.979 180.67 313.059 179.348 C 318.63 173.239 324.2 167.129 329.77 161.075 C 334.227 156.187 338.739 151.355 343.251 146.579 C 343.986 145.779 344.877 145.134 345.869 144.69 C 347.913 144.046 350.041 145.401 350.325 147.523 Z" style="fill-rule: evenodd;"/>
  <path class="cls-1" d="M 319.02 312.871 C 320.362 313.582 321.649 314.398 322.863 315.315 C 328.823 320.869 334.672 325.979 340.633 331.2 C 344.532 334.643 348.654 337.809 352.553 341.308 C 353.946 342.614 355.099 344.152 355.951 345.863 C 356.731 347.396 356.257 349.268 354.837 350.251 C 353.65 351.523 351.628 351.523 350.436 350.251 L 332.778 333.921 C 328.768 330.256 324.701 326.534 320.579 322.813 C 318.418 321.052 317.215 318.37 317.349 315.592 C 317.627 314.815 318.351 313.982 319.02 312.871 Z" style="fill-rule: evenodd;"/>
  <path class="cls-1" d="M 333.28 367.191 C 332.5 368.191 331.943 369.524 330.94 370.135 C 329.425 371.034 327.464 370.473 326.651 368.913 C 324.757 366.224 323.203 363.314 322.028 360.248 C 318.864 352.411 314.831 344.963 309.996 338.031 C 308.325 335.199 306.709 332.477 305.317 329.367 C 304.938 328.412 305.038 327.34 305.595 326.479 C 306.665 325.69 308.024 325.384 309.327 325.646 C 311.004 326.534 312.419 327.834 313.449 329.422 C 316.791 334.477 319.967 339.587 322.863 344.807 C 325.76 350.028 328.768 355.916 331.553 361.47 C 332.294 363.32 332.873 365.236 333.28 367.191 Z" style="fill-rule: evenodd;"/>
  <path class="cls-1" d="M 347.261 265.105 C 357.956 265.827 366.757 266.216 375.503 267.104 C 380.706 267.599 385.697 269.371 390.041 272.27 C 391.139 273.058 392.019 274.108 392.604 275.325 C 393.133 276.691 392.18 278.174 390.71 278.268 C 388.036 277.88 385.14 277.324 382.633 276.713 C 380.817 276.036 378.956 275.497 377.063 275.102 C 368.094 274.047 359.015 273.27 349.991 272.325 C 348.102 272.203 346.236 271.864 344.42 271.326 C 343.462 270.926 342.766 270.065 342.582 269.048 C 342.655 268.132 343.095 267.288 343.808 266.716 C 344.883 266.027 346.047 265.488 347.261 265.105 Z" style="fill-rule: evenodd;"/>
  <path class="cls-1" d="M 275.46 388.908 C 273.677 376.522 272.006 364.858 270.391 353.194 C 269.939 351.039 269.733 348.84 269.778 346.64 C 270.012 345.363 270.842 344.269 272.006 343.697 C 273.321 343.508 274.652 343.869 275.682 344.696 C 276.691 345.63 277.42 346.818 277.799 348.14 C 278.323 349.69 278.679 351.289 278.857 352.917 C 280.027 362.192 281.141 371.468 282.144 380.688 C 282.378 382.532 282.378 384.398 282.144 386.242 C 281.698 389.741 279.247 390.518 275.46 388.908 Z" style="fill-rule: evenodd;"/>
  <path class="cls-1" d="M 292.95 169.351 C 293.964 167.123 295.101 164.952 296.348 162.852 C 303.01 152.777 309.093 142.341 314.563 131.582 C 315.527 129.91 316.602 128.316 317.794 126.806 C 318.669 125.323 320.524 124.745 322.083 125.473 C 323.777 126.478 324.662 128.427 324.311 130.36 C 324.139 130.888 323.894 131.393 323.587 131.86 C 316.234 143.746 308.937 155.687 301.306 167.573 C 300.81 168.545 300.131 169.412 299.301 170.128 C 298.476 170.778 297.457 171.15 296.404 171.184 C 295.624 171.128 294.733 170.35 292.95 169.351 Z" style="fill-rule: evenodd;"/>
  <path class="cls-1" d="M 204.828 331.477 C 204.649 332.627 204.371 333.76 203.992 334.865 C 202.767 337.631 201.33 340.303 199.703 342.864 C 194.133 351.25 188.562 359.526 182.435 367.857 C 181.499 369.207 180.235 370.296 178.759 371.023 C 177.216 371.829 175.31 371.29 174.414 369.801 C 173.834 368.624 173.834 367.252 174.414 366.08 C 175.416 364.192 177.255 362.748 178.424 360.97 C 184.719 351.639 190.846 342.253 197.029 332.866 C 197.698 331.683 198.505 330.583 199.424 329.589 C 200.193 328.845 201.268 328.517 202.321 328.7 C 203.212 329.2 203.936 330.478 204.828 331.477 Z" style="fill-rule: evenodd;"/>
  <path class="cls-1" d="M 174.247 299.208 C 175.645 300.491 176.881 301.946 177.923 303.54 C 178.686 305.089 178.218 306.967 176.809 307.983 L 145.838 332.533 C 144.796 333.438 143.61 334.171 142.329 334.699 C 139.989 335.532 138.039 335.032 136.758 331.7 C 142.886 326.645 149.291 321.591 155.419 316.203 C 161.546 310.816 167.228 305.595 174.247 299.208 Z" style="fill-rule: evenodd;"/>
  <path class="cls-1" d="M 340.298 235.39 C 339.574 234.668 338.349 233.835 337.959 232.724 C 337.569 231.613 338.627 230.724 339.351 230.225 C 340.516 229.475 341.797 228.93 343.139 228.614 L 373.832 219.561 C 376.45 218.783 378.956 217.728 381.519 216.783 C 384.081 215.839 385.084 215.395 387.089 214.839 C 388.799 214.645 390.387 215.734 390.821 217.394 C 390.827 218.672 390.415 219.916 389.651 220.949 C 388.844 221.682 387.836 222.165 386.755 222.338 L 343.195 235.057 C 342.242 235.251 341.273 235.362 340.298 235.39 Z" style="fill-rule: evenodd;"/>
  <path class="cls-1" d="M 177.644 205.286 C 172.854 202.731 168.175 199.732 163.217 197.733 C 155.419 194.289 147.398 191.29 139.543 187.957 C 136.535 186.624 133.583 185.069 130.742 183.458 C 129.572 182.736 128.458 181.348 129.572 180.015 C 130.369 178.959 131.594 178.326 132.915 178.293 C 135.41 178.426 137.844 179.109 140.045 180.292 C 147.23 184.203 154.672 187.618 162.326 190.512 C 166.281 192.456 170.236 194.456 174.079 196.622 C 175.739 197.594 177.255 198.788 178.591 200.176 C 179.984 201.287 179.65 202.231 177.644 205.286 Z" style="fill-rule: evenodd;"/>
  <path class="cls-1" d="M 337.625 282.601 L 379.959 296.653 C 380.733 296.914 381.48 297.253 382.187 297.652 C 383.569 298.647 384.154 300.418 383.636 302.04 C 383.034 303.657 381.307 304.567 379.625 304.151 C 375.347 303.118 371.125 301.857 366.98 300.374 C 357.733 296.875 348.542 293.209 339.129 289.266 C 338.17 288.744 337.324 288.044 336.622 287.211 C 336.304 286.777 336.165 286.239 336.232 285.711 C 336.633 284.645 337.095 283.606 337.625 282.601 Z" style="fill-rule: evenodd;"/>
  <path class="cls-1" d="M 128.96 225.837 C 138.68 225.937 148.361 227.125 157.814 229.391 C 159.78 229.725 161.674 230.419 163.384 231.447 C 164.242 232.08 164.9 232.946 165.278 233.946 C 166.131 235.862 164.71 238.017 162.605 238 C 159.062 237.828 155.547 237.251 152.132 236.279 C 144.796 234.101 137.176 233.018 129.517 233.057 C 126.787 233.057 123.946 233.057 121.384 232.446 C 120.309 232.291 119.301 231.83 118.487 231.113 C 117.663 230.441 117.156 229.453 117.095 228.392 C 117.29 227.348 117.975 226.459 118.933 226.003 C 120.198 225.531 121.546 225.342 122.888 225.448 C 125.005 225.448 127.177 225.726 128.96 225.837 Z" style="fill-rule: evenodd;"/>
  <path class="cls-1" d="M 224.212 384.298 C 225.327 377.966 226.329 372.245 227.276 366.58 C 228.223 360.915 229.226 354.083 230.34 347.862 C 230.791 345.457 231.498 343.113 232.457 340.864 C 233.03 339.942 234.044 339.392 235.13 339.42 C 236.361 339.803 237.381 340.664 237.971 341.808 C 238.339 343.13 238.339 344.535 237.971 345.863 C 235.632 358.86 233.181 371.801 230.785 384.742 C 230.696 385.575 230.451 386.386 230.061 387.13 C 229.671 387.797 228.836 388.63 228.279 388.63 C 227.215 388.586 226.201 388.152 225.438 387.408 C 224.881 386.431 224.469 385.386 224.212 384.298 Z" style="fill-rule: evenodd;"/>
  <path class="cls-1" d="M 167.228 285.544 C 167.635 286.361 167.974 287.216 168.231 288.099 C 168.314 288.949 168.314 289.804 168.231 290.654 C 167.662 291.21 167.027 291.698 166.337 292.098 C 156.477 297.041 146.673 301.985 136.758 306.761 C 132.998 308.461 129.149 309.966 125.228 311.26 C 123.595 311.743 121.835 311.11 120.883 309.705 C 119.897 308.394 120.198 306.522 121.551 305.595 L 122.331 305.595 C 133.973 303.484 143.275 296.097 153.748 291.432 C 157.034 289.932 160.042 288.044 163.329 286.544 C 164.576 286.028 165.891 285.689 167.228 285.544 Z" style="fill-rule: evenodd;"/>
  <path class="cls-1" d="M 189.509 189.29 C 188.228 189.735 186.668 190.79 185.944 190.401 C 182.212 188.124 178.591 185.624 175.138 183.07 C 173.734 181.748 172.392 180.359 171.127 178.904 C 166.17 174.516 161.156 170.295 156.254 165.907 C 154.21 164.069 152.344 162.041 150.684 159.853 C 150.211 158.948 150.211 157.865 150.684 156.965 C 151.486 156.248 152.595 155.976 153.636 156.243 C 155.92 157.137 158.026 158.414 159.875 160.02 C 166.61 166.501 173.84 172.461 181.488 177.849 C 184.93 179.665 187.604 182.664 189.008 186.291 C 189.236 187.28 189.403 188.279 189.509 189.29 Z" style="fill-rule: evenodd;"/>
  <path class="cls-1" d="M 368.874 328.423 C 363.204 323.002 356.335 318.986 348.821 316.703 C 342.304 313.815 336.121 310.149 329.882 306.761 C 328.673 306.089 327.615 305.178 326.762 304.095 C 326.317 303.595 325.983 302.318 326.261 301.929 C 326.54 301.54 327.988 300.041 328.768 300.041 C 330.706 300.363 332.583 300.979 334.338 301.874 C 339.017 304.151 343.641 306.595 348.375 308.816 C 350.793 310.11 353.333 311.171 355.951 311.982 C 361.165 313.765 365.972 316.559 370.1 320.202 C 372.996 322.757 372.829 324.09 368.874 328.423 Z" style="fill-rule: evenodd;"/>
  <path class="cls-1" d="M 223.266 337.976 C 223.02 339.492 222.686 340.992 222.263 342.475 C 221.037 346.141 219.756 349.751 218.308 353.583 C 215.356 360.692 212.348 367.802 209.228 374.8 C 208.237 377.044 206.983 379.171 205.496 381.132 C 204.588 382.248 202.945 382.42 201.82 381.521 C 200.494 380.932 199.826 379.449 200.26 378.077 C 202.822 371.967 205.83 365.969 208.059 359.915 C 210.287 353.861 212.96 347.696 215.411 341.586 C 215.762 340.253 216.269 338.964 216.915 337.754 C 217.639 336.754 219.088 335.421 219.868 335.588 C 220.647 335.754 222.151 337.087 223.266 337.976 Z" style="fill-rule: evenodd;"/>
  <path class="cls-1" d="M 115.702 286.1 C 119.156 285.211 122.052 284.378 124.949 283.711 C 134.374 281.523 143.498 278.224 152.132 273.881 C 154.06 272.814 156.121 272.014 158.26 271.492 C 159.574 271.281 160.917 271.598 161.992 272.381 C 162.827 273.103 163.05 274.658 163.663 276.158 C 153.631 281.034 143.214 285.106 132.525 288.321 C 128.57 289.488 124.559 290.432 120.493 291.21 C 119.156 291.276 117.847 290.793 116.872 289.877 C 116.092 288.932 116.148 287.599 115.702 286.1 Z" style="fill-rule: evenodd;"/>
  <path class="cls-1" d="M 171.016 136.97 C 173.756 137.114 176.218 138.703 177.477 141.135 C 183.048 151.966 193.13 159.353 199.759 169.351 C 199.759 169.795 200.539 170.128 200.873 170.573 C 202.989 173.183 203.212 174.96 201.653 176.127 C 200.093 177.293 198.088 176.793 196.082 174.627 C 194.801 173.205 193.592 171.722 192.462 170.184 C 188.384 165.113 184.056 160.258 179.483 155.632 C 176.012 151.772 172.899 147.606 170.18 143.19 C 168.554 141.28 168.938 138.381 171.016 136.97 Z" style="fill-rule: evenodd;"/>
  <path class="cls-1" d="M 334.784 211.174 C 337.29 209.841 339.407 208.619 341.579 207.564 C 349.824 203.787 358.291 200.065 366.256 196.455 C 368.261 195.511 370.155 194.456 371.826 193.345 C 373.498 192.234 375.002 191.179 376.673 190.179 C 377.586 189.579 378.606 189.162 379.681 188.957 C 381.346 188.64 383.017 189.485 383.747 191.012 C 384.571 192.551 383.869 194.467 382.243 195.122 C 378.366 197.21 374.366 199.066 370.267 200.676 C 361.215 203.903 352.408 207.78 343.919 212.285 C 342.259 213.223 340.504 213.984 338.683 214.562 C 337.068 214.617 335.675 213.84 334.784 211.174 Z" style="fill-rule: evenodd;"/>
  <path class="cls-1" d="M 103.615 256.718 C 103.225 259.44 102.946 262.994 102.278 266.493 C 101.944 267.482 101.125 268.237 100.105 268.493 C 99.058 268.565 98.044 268.132 97.376 267.327 C 96.457 265.966 95.9 264.4 95.761 262.772 C 95.761 257.829 95.761 252.886 96.318 247.998 C 96.318 246.271 97.565 244.793 99.27 244.499 C 101.559 244.432 103.47 246.215 103.559 248.498 C 103.726 250.942 103.615 253.441 103.615 256.718 Z" style="fill-rule: evenodd;"/>
  <path class="cls-1" d="M 183.939 115.753 C 184.942 114.087 185.332 112.587 186.278 111.976 C 191.42 108.766 197.074 106.455 202.989 105.144 C 203.519 104.978 204.081 104.978 204.605 105.144 C 205.496 105.533 206.722 106.033 207.112 106.811 C 207.407 107.827 207.307 108.916 206.833 109.865 C 206.465 110.598 205.858 111.187 205.106 111.532 C 200.104 114.386 194.606 116.275 188.897 117.086 C 187.727 117.419 186.167 116.364 183.939 115.753 Z" style="fill-rule: evenodd;"/>
  <path class="cls-1" d="M 107.514 303.762 C 104.506 303.762 103.782 301.818 103.169 300.096 C 100.941 294.603 99.988 288.677 100.384 282.767 C 105.23 282.212 107.013 282.767 108.071 286.711 C 109.887 292.282 109.692 298.313 107.514 303.762 Z" style="fill-rule: evenodd;"/>
  <path class="cls-1" d="M 360.073 136.637 C 366.579 139.375 371.793 144.479 374.667 150.911 C 375.469 152.455 374.846 154.36 373.275 155.132 C 371.821 156.076 369.877 155.71 368.874 154.299 C 366.312 151.077 364.084 147.689 361.8 144.301 C 360.853 142.963 360.051 141.53 359.405 140.025 C 359.126 139.247 359.739 138.136 360.073 136.637 Z" style="fill-rule: evenodd;"/>
  <path class="cls-1" d="M 409.872 256.107 C 409.332 258.284 408.685 260.434 407.922 262.55 C 407.309 264.05 404.636 263.827 403.856 262.55 C 403.416 261.867 403.093 261.117 402.909 260.328 C 402.408 256.551 401.906 252.775 401.628 249.22 C 401.561 247.848 401.806 246.476 402.352 245.221 C 402.686 244.388 403.8 243.166 404.524 243.221 C 405.828 243.26 407.053 243.866 407.867 244.888 C 408.68 246.637 409.187 248.515 409.37 250.442 C 409.649 251.497 409.649 253.163 409.872 256.107 Z" style="fill-rule: evenodd;"/>
  <path class="cls-1" d="M 206.722 400.016 C 201.887 399.566 197.202 398.105 192.963 395.739 C 191.03 394.39 191.03 391.529 192.963 390.185 C 194.472 388.819 196.584 388.336 198.533 388.908 C 202.327 389.841 205.803 391.757 208.616 394.462 C 209.841 395.684 211.011 397.128 209.897 398.739 C 208.783 400.349 207.446 399.405 206.722 400.016 Z" style="fill-rule: evenodd;"/>
  <path class="cls-1" d="M 215.746 106.255 C 214.632 104.311 214.687 102.7 216.47 101.756 C 221.912 99.035 228.023 97.935 234.072 98.59 C 235.075 98.907 235.871 99.662 236.244 100.645 C 236.267 101.684 235.977 102.712 235.409 103.589 C 235.125 104.061 234.668 104.4 234.128 104.533 C 228.335 107.022 221.901 107.627 215.746 106.255 Z" style="fill-rule: evenodd;"/>
  <path class="cls-1" d="M 107.737 220.616 C 107.458 223.282 107.235 226.17 106.901 228.725 C 106.873 229.819 106.606 230.902 106.121 231.891 C 105.564 232.668 104.339 233.779 103.726 233.613 C 103.113 233.446 101.665 232.28 100.718 231.447 C 100.607 231.197 100.607 230.913 100.718 230.669 C 100.206 225.226 100.852 219.738 102.612 214.562 C 102.924 213.112 104.467 212.29 105.843 212.84 C 107.001 213.418 107.859 214.473 108.182 215.728 C 108.31 217.361 108.216 219.005 107.904 220.616 L 107.737 220.616 Z" style="fill-rule: evenodd;"/>
  <path class="cls-1" d="M 336.288 122.307 C 337.179 121.918 338.07 121.251 338.627 121.474 C 345.005 123.112 350.33 127.483 353.166 133.415 C 353.511 134.093 353.511 134.898 353.166 135.581 C 352.33 136.137 350.826 136.803 350.269 136.47 C 344.365 133.026 338.237 129.805 336.288 122.307 Z" style="fill-rule: evenodd;"/>
  <path class="cls-1" d="M 133.305 157.02 C 134.24 150.117 138.362 144.051 144.445 140.636 C 145.431 140.308 146.512 140.43 147.398 140.969 C 147.955 141.302 148.122 142.357 148.289 143.135 C 148.517 143.646 148.517 144.229 148.289 144.746 C 144.891 148.967 142.384 154.132 137.148 156.576 C 135.889 156.859 134.597 157.009 133.305 157.02 Z" style="fill-rule: evenodd;"/>
  <path class="cls-1" d="M 395.612 298.652 C 396.503 300.318 397.617 301.429 397.617 302.54 C 397.467 307.728 395.495 312.699 392.047 316.592 C 391.211 317.781 389.523 317.992 388.426 317.037 C 387.479 316.203 386.198 314.482 386.476 313.815 C 388.872 308.872 389.206 302.596 395.612 298.652 Z" style="fill-rule: evenodd;"/>
  <path class="cls-1" d="M 298.966 103.422 C 296.844 105.977 293.296 106.861 290.221 105.589 C 286.712 104.145 283.147 102.812 279.693 101.312 C 278.356 100.701 277.911 99.423 277.799 97.591 C 283.369 95.591 288.661 98.59 293.897 99.146 C 296.248 99.529 298.198 101.173 298.966 103.422 Z" style="fill-rule: evenodd;"/>
  <path class="cls-1" d="M 160.209 370.801 C 158.455 371.029 156.672 371.029 154.917 370.801 C 150.756 369.279 147.136 366.574 144.501 363.025 C 143.86 361.87 143.738 360.493 144.167 359.248 C 144.167 358.582 146.005 358.36 147.008 358.082 C 147.537 357.915 148.099 357.915 148.623 358.082 C 154.093 360.52 158.293 365.136 160.209 370.801 Z" style="fill-rule: evenodd;"/>
  <path class="cls-1" d="M 174.414 118.197 L 178.201 123.029 L 163.05 133.415 C 161.97 134.376 160.298 134.248 159.374 133.137 C 158.226 131.827 158.46 129.816 159.875 128.805 C 164.387 125.417 169.066 122.307 174.414 118.197 Z" style="fill-rule: evenodd;"/>
  <path class="cls-1" d="M 169.01 374.745 C 169.696 374.628 170.392 374.628 171.071 374.745 C 174.525 376.966 177.979 379.188 181.321 381.576 C 181.934 381.965 182.156 382.965 182.491 383.742 C 182.92 385.114 181.978 386.536 180.541 386.686 C 175.032 386.053 169.902 383.565 166.002 379.632 C 165.089 378.488 165.317 376.816 166.504 375.966 C 167.317 375.511 168.153 375.1 169.01 374.745 Z" style="fill-rule: evenodd;"/>
  <path class="cls-1" d="M 139.376 350.028 C 139.176 351.695 137.655 352.889 135.978 352.694 C 135.182 352.489 134.441 352.106 133.806 351.584 C 131.299 349.14 128.848 346.585 126.397 344.03 C 125.84 343.436 125.4 342.736 125.116 341.975 C 124.336 340.475 124.682 338.642 125.952 337.532 C 127.255 336.382 129.216 336.382 130.519 337.532 C 134.185 340.758 137.193 344.663 139.376 349.029 C 139.46 349.356 139.46 349.701 139.376 350.028 Z" style="fill-rule: evenodd;"/>
  <path class="cls-1" d="M 352.887 366.358 C 355.951 362.692 358.458 359.248 361.521 355.971 C 362.262 355.149 363.231 354.572 364.306 354.305 C 365.343 354.139 366.401 354.377 367.259 354.972 C 367.821 355.538 368.055 356.355 367.871 357.138 C 366.056 362.381 362.145 366.641 357.065 368.913 C 355.227 369.746 353.89 368.746 352.887 366.358 Z" style="fill-rule: evenodd;"/>
  <path class="cls-1" d="M 309.216 107.144 C 310.441 106.588 311.667 105.589 312.725 105.7 C 317.928 106.355 322.774 108.671 326.54 112.309 C 327.709 113.62 327.152 115.697 325.481 116.253 C 324.701 116.253 323.754 116.919 323.086 116.697 C 320.022 115.586 316.959 114.364 314.006 113.031 C 311.567 111.931 309.79 109.749 309.216 107.144 Z" style="fill-rule: evenodd;"/>
  <path class="cls-1" d="M 106.623 206.286 C 105.509 204.509 103.949 203.231 104.005 202.009 C 104.322 196.777 106.829 191.917 110.912 188.624 C 111.859 188.146 112.973 188.146 113.92 188.624 C 114.672 189.335 115.028 190.373 114.867 191.401 C 113.418 195.511 111.803 199.565 110.021 203.509 C 109.575 204.509 108.127 205.064 106.623 206.286 Z" style="fill-rule: evenodd;"/>
  <path class="cls-1" d="M 113.474 311.149 C 114.254 311.593 116.092 312.093 116.761 313.26 C 118.933 316.981 120.771 320.924 122.331 324.868 C 123.612 327.59 123.334 329.367 121.83 329.756 C 120.181 330.172 118.476 329.289 117.875 327.701 C 115.424 323.479 112.973 319.203 110.578 314.926 C 109.965 313.26 111.023 311.149 113.474 311.149 Z" style="fill-rule: evenodd;"/>
  <path class="cls-1" d="M 239.642 403.349 C 238.422 404.276 237.097 405.059 235.687 405.681 C 231.359 406.348 226.931 405.565 223.098 403.46 C 220.87 402.565 220.441 399.605 222.33 398.122 C 222.436 398.044 222.541 397.972 222.653 397.906 C 223.6 397.183 225.271 396.295 226.218 396.628 C 231.17 397.761 235.777 400.066 239.642 403.349 Z" style="fill-rule: evenodd;"/>
  <path class="cls-1" d="M 120.27 181.348 C 119.769 180.792 118.822 180.181 118.487 179.348 C 118.098 178.304 118.098 177.165 118.487 176.127 C 120.549 172.628 122.777 169.129 125.172 165.852 C 125.963 165.152 127.077 164.941 128.068 165.296 C 129.015 165.963 130.241 167.684 130.018 168.462 C 128.876 173.233 126.314 177.549 122.665 180.848 C 121.902 181.148 121.094 181.314 120.27 181.348 Z" style="fill-rule: evenodd;"/>
  <path class="cls-1" d="M 256.688 100.423 C 253.68 100.423 250.672 100.423 247.664 100.423 C 246.728 100.034 246.054 99.196 245.881 98.202 C 245.881 97.368 246.939 96.48 247.664 95.758 C 248.126 95.452 248.677 95.319 249.223 95.369 L 264.04 95.369 C 264.575 95.363 265.093 95.558 265.489 95.924 C 266.157 96.702 267.104 97.757 266.993 98.535 C 266.692 99.523 265.884 100.284 264.876 100.534 C 262.146 100.534 259.306 100.534 256.688 100.534 L 256.688 100.423 Z" style="fill-rule: evenodd;"/>
  <path class="cls-1" d="M 382.521 327.812 C 383.413 329.7 384.75 331.2 384.471 332.311 C 383.931 334.432 382.945 336.421 381.575 338.142 C 380.071 340.153 378.372 342.014 376.506 343.697 C 375.419 344.63 373.804 344.63 372.718 343.697 C 371.542 342.802 371.342 341.114 372.272 339.975 C 374.277 336.754 376.45 333.532 378.734 330.478 C 379.876 329.422 381.146 328.528 382.521 327.812 Z" style="fill-rule: evenodd;"/>
  <path class="cls-1" d="M 329.993 383.354 C 334.227 380.632 338.46 377.799 342.805 375.078 C 344.069 374.322 345.713 374.878 346.259 376.244 C 346.565 377.216 346.565 378.266 346.259 379.243 C 346.108 379.766 345.774 380.221 345.312 380.521 C 341.969 382.743 338.627 385.02 335.118 387.019 C 333.001 388.241 331.776 387.297 329.993 383.354 Z" style="fill-rule: evenodd;"/>
  <path class="cls-1" d="M 397.561 204.842 C 395.445 199.288 393.161 194.122 390.988 188.735 C 393.495 186.402 394.386 186.18 395.5 187.624 C 398.737 191.984 400.703 197.155 401.182 202.565 C 401.572 204.453 399.957 205.286 397.561 204.842 Z" style="fill-rule: evenodd;"/>
  <path class="cls-1" d="M 253.234 407.514 C 251.424 407.059 249.669 406.409 247.998 405.57 C 247.173 404.909 246.722 403.899 246.772 402.849 C 246.772 402.016 247.942 400.738 248.722 400.683 C 252.788 400.349 256.966 400.238 261.088 400.238 C 262.481 400.238 264.04 401.071 263.762 402.682 C 263.511 403.965 262.692 405.065 261.534 405.681 C 258.81 406.459 256.036 407.076 253.234 407.514 Z" style="fill-rule: evenodd;"/>
  <path class="cls-1" d="M 390.71 176.127 C 389.819 176.904 389.317 177.571 388.649 177.793 C 387.902 178.099 387.061 178.099 386.309 177.793 C 382.271 174.511 379.625 169.828 378.901 164.685 C 378.901 163.074 380.962 161.853 382.466 162.63 C 385.524 164.524 387.808 167.434 388.927 170.85 C 389.54 172.294 390.041 174.349 390.71 176.127 Z" style="fill-rule: evenodd;"/>
  <path class="cls-1" d="M 406.752 227.281 C 406.752 227.559 406.752 228.281 406.752 228.614 C 406.752 228.947 405.36 230.502 404.524 230.613 C 403.689 230.724 402.018 229.947 401.851 229.336 C 400.736 225.17 399.845 221.005 399.121 216.783 C 399.232 215.761 399.895 214.889 400.848 214.506 C 401.884 214.412 402.903 214.828 403.577 215.617 C 406 219 407.126 223.137 406.752 227.281 Z" style="fill-rule: evenodd;"/>
  <path class="cls-1" d="M 406.418 286.322 C 402.575 287.71 401.349 287.488 400.402 285.267 C 399.494 282.667 399.634 279.818 400.792 277.324 C 401.388 274.936 403.176 273.02 405.527 272.27 C 408.145 276.602 408.145 276.602 406.418 286.322 Z" style="fill-rule: evenodd;"/>
  <path class="cls-1" d="M 274.847 396.406 C 276.858 396.623 278.846 396.972 280.807 397.461 C 281.643 397.461 282.812 398.905 282.757 399.627 C 282.679 400.905 282.099 402.099 281.141 402.96 C 278.295 404.687 274.819 405.054 271.672 403.96 C 270.045 403.46 269.009 401.866 269.221 400.183 C 269.187 398.167 270.769 396.495 272.786 396.406 L 274.847 396.406 Z" style="fill-rule: evenodd;"/>
  <path class="cls-1" d="M 321.972 387.075 C 324.089 388.297 324.701 389.852 323.03 391.185 C 319.109 394.256 314.402 396.178 309.439 396.739 C 308.77 396.739 307.322 395.684 307.155 394.906 C 307.149 393.857 307.673 392.873 308.547 392.296 C 312.837 390.407 317.237 388.908 321.972 387.075 Z" style="fill-rule: evenodd;"/>
  <path class="cls-1" d="M 298.465 397.017 C 298.521 397.289 298.521 397.572 298.465 397.85 C 296.839 401.155 292.973 402.715 289.497 401.46 C 288.244 400.749 287.759 399.194 288.383 397.906 C 290.238 394.629 294.505 393.629 297.63 395.739 C 297.964 396.017 298.187 396.628 298.465 397.017 Z" style="fill-rule: evenodd;"/>
  <path class="cls-1" d="M 210.788 193.289 C 209.596 195.411 207.162 196.511 204.772 196.011 C 203.201 195.589 201.792 194.717 200.706 193.511 C 200.071 192.373 199.926 191.029 200.316 189.79 C 200.828 188.874 201.775 188.29 202.822 188.235 C 204.766 188.252 206.671 188.729 208.393 189.623 C 209.395 190.346 209.952 192.123 210.788 193.289 Z" style="fill-rule: evenodd;"/>
  <path class="cls-1" d="M 305.539 207.508 C 305.539 204.398 307.823 203.009 309.996 204.398 C 311.338 205.253 312.491 206.364 313.394 207.675 C 314.368 209.785 313.416 212.29 311.277 213.229 C 309.233 214.179 306.809 213.173 306.041 211.063 C 305.796 209.885 305.629 208.702 305.539 207.508 Z" style="fill-rule: evenodd;"/>
  <path class="cls-1" d="M 298.521 311.816 C 299.189 312.593 300.582 313.593 300.916 314.87 C 301.083 317.348 299.395 319.569 296.961 320.091 C 294.761 320.064 292.956 318.336 292.839 316.148 C 293.429 313.521 295.825 311.693 298.521 311.816 Z" style="fill-rule: evenodd;"/>
  <path class="cls-1" d="M 187.615 209.563 C 190.144 209.252 192.512 210.835 193.186 213.284 C 193.069 215.217 191.459 216.728 189.509 216.728 C 187.003 216.728 185.053 214.895 185.61 212.673 C 185.666 211.174 187.003 210.341 187.615 209.563 Z" style="fill-rule: evenodd;"/>
  <path class="cls-1" d="M 236.579 180.126 C 236.579 182.07 234.406 183.514 231.677 183.514 C 229.961 183.575 228.546 182.17 228.613 180.459 C 228.44 178.104 230.513 176.205 232.847 176.571 C 234.835 176.593 236.462 178.149 236.579 180.126 Z" style="fill-rule: evenodd;"/>
  <path class="cls-1" d="M 178.369 265.771 C 180.636 265.71 182.608 267.315 182.992 269.548 C 182.992 271.103 180.764 272.881 178.201 273.158 C 176.508 273.214 175.021 272.037 174.692 270.381 C 174.397 268.082 176.062 265.999 178.369 265.771 Z" style="fill-rule: evenodd;"/>
  <path class="cls-1" d="M 272.006 325.534 C 271.56 328.134 269.02 329.833 266.436 329.256 C 264.848 328.728 263.818 327.195 263.929 325.534 C 263.801 323.546 265.333 321.846 267.327 321.758 C 270.001 321.813 272.229 323.702 272.006 325.534 Z" style="fill-rule: evenodd;"/>
  <path class="cls-1" d="M 218.085 315.815 C 217.216 316.903 216.225 317.892 215.133 318.758 C 213.462 319.88 211.178 319.314 210.231 317.536 C 209.763 316.359 209.763 315.043 210.231 313.871 C 211.172 312.077 213.484 311.527 215.133 312.704 C 216.241 313.615 217.233 314.659 218.085 315.815 Z" style="fill-rule: evenodd;"/>
  <path class="cls-1" d="M 238.138 323.646 C 241.592 323.646 243.709 324.979 243.709 326.979 C 243.491 328.884 242.043 330.422 240.144 330.755 C 237.838 330.828 235.988 328.878 236.189 326.59 C 236.133 325.368 237.581 324.368 238.138 323.646 Z" style="fill-rule: evenodd;"/>
  <path class="cls-1" d="M 191.18 290.21 C 192.612 291.065 193.91 292.132 195.024 293.376 C 195.748 294.653 194.69 295.986 193.353 296.653 C 191.843 297.475 189.955 297.047 188.952 295.653 C 188.34 294.875 187.615 293.431 187.95 292.82 C 188.284 292.209 189.899 291.21 191.18 290.21 Z" style="fill-rule: evenodd;"/>
  <path class="cls-1" d="M 327.319 233.946 C 326.484 234.946 326.094 235.834 325.481 236.112 C 324.479 236.356 323.426 236.356 322.418 236.112 C 319.799 235.612 318.63 234.113 319.298 232.391 C 320.084 230.558 322.25 229.769 324.033 230.669 C 325.314 231.447 326.205 232.835 327.319 233.946 Z" style="fill-rule: evenodd;"/>
  <path class="cls-1" d="M 332.054 262.272 C 331.865 264.183 330.439 265.744 328.545 266.105 C 326.93 266.105 325.147 263.55 324.98 261.217 C 325.236 259.567 326.779 258.429 328.433 258.662 C 330.411 258.718 331.999 260.301 332.054 262.272 Z" style="fill-rule: evenodd;"/>
  <path class="cls-1" d="M 177.477 237.667 C 179.165 237.812 180.402 239.317 180.207 241 C 180.062 242.677 178.669 243.971 176.976 243.999 C 175.004 244.121 173.327 242.577 173.3 240.611 C 173.717 238.695 175.533 237.417 177.477 237.667 Z" style="fill-rule: evenodd;"/>
  <path class="cls-1" d="M 261.2 183.014 C 259.055 183.014 257.718 180.698 258.788 178.848 C 259.283 177.987 260.208 177.46 261.2 177.46 C 262.815 177.46 264.486 178.015 264.987 179.904 C 265.489 181.792 263.595 183.014 261.2 183.014 Z" style="fill-rule: evenodd;"/>
  <path class="cls-1" d="M 294.454 188.957 C 292.783 190.234 291.948 191.401 290.889 191.734 C 289.185 191.928 287.642 190.712 287.436 189.013 C 287.436 187.624 288.606 185.958 289.831 186.347 C 291.452 187.069 293.001 187.941 294.454 188.957 Z" style="fill-rule: evenodd;"/>
  <path class="cls-1" d="M 322.083 292.32 C 320.914 293.709 320.245 294.986 319.242 295.542 C 317.616 296.031 315.917 295.031 315.566 293.376 C 315.31 291.682 316.697 290.193 318.407 290.321 C 319.727 290.793 320.969 291.465 322.083 292.32 Z" style="fill-rule: evenodd;"/>
  <path class="cls-1" d="M 121.551 124.473 C 120.047 125.528 118.766 127.305 117.708 127.139 C 114.683 126.828 111.864 125.473 109.742 123.306 C 98.824 112.198 87.851 101.09 76.821 89.981 C 73.702 86.871 70.527 83.872 67.24 80.928 C 65.569 79.439 64.957 77.096 65.681 74.985 C 66.215 73.013 68.471 72.075 70.248 73.097 C 71.368 73.885 72.382 74.818 73.256 75.874 C 81.818 85.821 91.132 95.102 101.108 103.645 C 106.678 108.699 112.249 114.198 117.819 119.585 C 119.223 121.085 120.471 122.723 121.551 124.473 Z" style="fill-rule: evenodd;"/>
  <path class="cls-1" d="M 0.118 254.274 L 28.805 254.274 C 29.624 254.324 30.443 254.324 31.256 254.274 L 57.381 251.275 C 59.821 250.947 62.277 250.764 64.734 250.72 C 66.5 250.62 67.992 252.008 68.02 253.774 C 68.048 255.102 67.502 256.374 66.516 257.273 C 65.202 258.195 63.664 258.773 62.06 258.94 C 59.052 259.384 56.044 259.44 53.036 259.662 C 51.382 259.662 49.738 259.867 48.134 260.273 C 39.779 263.105 31.423 261.384 22.845 261.495 C 17.887 261.495 12.93 261.495 8.028 261.495 C 6.635 261.495 5.243 261.495 3.906 261.495 C 0.396 261.161 -0.328 259.717 0.118 254.274 Z" style="fill-rule: evenodd;"/>
  <path class="cls-1" d="M 239.642 31.662 C 239.642 24.831 239.03 17.944 238.807 11.056 C 238.601 8.313 238.679 5.558 239.03 2.836 C 239.542 1.598 240.522 0.62 241.759 0.115 C 243.096 -0.441 244.934 1.114 245.268 2.836 C 245.324 3.908 245.324 4.98 245.268 6.058 C 245.77 13.5 246.327 20.887 246.717 28.274 C 246.717 32.94 247.107 37.605 246.717 42.271 C 246.271 50.23 246.661 58.217 247.886 66.098 C 248.349 67.77 247.346 69.492 245.658 69.931 C 243.419 70.497 241.13 69.198 240.478 66.987 C 240.394 66.154 240.394 65.315 240.478 64.488 C 239.809 53.379 239.197 42.549 238.528 31.551 L 239.642 31.662 Z" style="fill-rule: evenodd;"/>
  <path class="cls-1" d="M 381.742 376.411 C 387.045 378.399 391.796 381.615 395.612 385.797 L 418.951 406.737 L 431.708 418.456 C 432.265 419.011 433.044 419.733 433.156 420.4 C 433.334 421.428 433.156 422.483 432.655 423.399 C 432.655 423.844 431.095 424.066 430.482 423.844 C 429.229 423.338 428.065 422.644 427.028 421.789 C 415.275 412.68 404.357 402.571 393.217 392.74 C 389.317 389.297 385.195 386.075 381.296 382.632 C 380.433 381.987 379.915 380.982 379.903 379.91 C 380.31 378.644 380.928 377.461 381.742 376.411 Z" style="fill-rule: evenodd;"/>
  <path class="cls-1" d="M 437.724 248.22 C 434.994 248.22 433.546 247.276 433.49 245.332 C 433.195 243.31 434.682 241.472 436.721 241.333 C 437.54 241.272 438.359 241.272 439.172 241.333 L 475.49 238.334 C 480.988 237.889 486.559 237.556 492.201 237.334 C 494.067 237.201 495.945 237.328 497.772 237.723 C 498.808 237.962 499.649 238.717 500 239.722 C 499.966 240.755 499.398 241.7 498.496 242.222 C 495.343 243.183 492.123 243.91 488.859 244.388 C 485.016 244.832 481.116 244.777 477.273 245.11 C 464.071 245.943 450.925 247.109 437.724 248.22 Z" style="fill-rule: evenodd;"/>
  <path class="cls-1" d="M 258.971 499.492 C 256.743 500.491 255.184 499.992 254.515 498.214 C 253.797 496.437 253.345 494.565 253.178 492.66 C 252.788 488.55 252.51 484.44 252.398 480.33 C 252.02 466.355 250.716 452.42 248.499 438.618 C 248.221 437.557 248.221 436.452 248.499 435.396 C 248.917 434.402 249.752 433.652 250.783 433.341 C 251.841 433.286 252.877 433.647 253.68 434.341 C 254.198 434.969 254.51 435.746 254.571 436.563 C 255.128 440.062 255.796 443.617 256.186 447.116 C 257.857 462.667 259.25 478.275 259.361 493.937 C 259.333 495.793 259.205 497.648 258.971 499.492 Z" style="fill-rule: evenodd;"/>
  <path class="cls-1" d="M 421.402 67.765 C 421.609 69.236 421.609 70.731 421.402 72.208 C 421.402 73.152 420.01 73.819 419.286 74.652 C 409.12 85.721 399.806 97.552 391.434 110.032 C 388.844 113.587 386.014 116.964 382.967 120.141 C 382.037 121.596 380.121 122.057 378.622 121.196 C 377.174 120.307 377.118 118.252 378.622 116.142 C 379.402 114.975 380.293 113.92 381.129 112.809 C 383.747 109.31 386.365 105.811 389.094 102.367 C 395.311 93.664 402.084 85.371 409.37 77.54 C 412.1 74.818 414.941 71.986 417.615 69.431 C 418.801 68.709 420.071 68.148 421.402 67.765 Z" style="fill-rule: evenodd;"/>
  <path class="cls-1" d="M 90.97 73.208 C 96.206 76.601 101.03 80.589 105.341 85.094 C 113.307 91.814 120.883 99.035 128.625 106.033 C 129.689 106.883 130.547 107.966 131.132 109.199 C 131.639 110.426 131.639 111.798 131.132 113.031 C 130.219 114.525 128.308 115.081 126.732 114.309 C 124.559 113.165 122.548 111.72 120.771 110.032 C 116.649 106.033 112.75 101.701 108.628 97.702 C 103.058 92.536 97.487 87.649 92.363 82.483 C 90.792 80.878 89.544 78.995 88.686 76.929 C 87.906 75.485 88.686 73.93 90.97 73.208 Z" style="fill-rule: evenodd;"/>
  <path class="cls-1" d="M 82.615 432.564 C 80.498 428.287 80.442 427.565 82.169 425.954 C 84.787 423.51 87.739 421.344 90.079 418.789 C 99.565 409.664 108.271 399.761 116.092 389.185 C 117.875 386.753 119.886 384.503 122.108 382.465 C 122.988 381.965 124.069 381.965 124.949 382.465 C 125.629 383.242 125.974 384.264 125.896 385.298 C 125.824 386.114 125.489 386.892 124.949 387.519 C 119.713 394.184 114.7 401.016 109.074 407.403 C 103.448 413.791 97.097 420.178 90.859 426.343 C 88.241 428.576 85.489 430.653 82.615 432.564 Z" style="fill-rule: evenodd;"/>
  <path class="cls-1" d="M 70.026 269.437 C 68.215 272.747 64.606 274.669 60.834 274.325 C 49.694 274.714 38.553 275.158 27.078 275.436 C 25.207 275.475 23.341 275.308 21.508 274.936 C 20.06 274.741 19.085 273.358 19.391 271.937 C 19.909 270.77 20.739 269.77 21.786 269.048 C 22.254 268.754 22.806 268.637 23.346 268.715 L 45.627 267.16 C 51.198 266.771 57.158 266.493 62.84 265.938 C 65.731 265.51 68.583 266.899 70.026 269.437 Z" style="fill-rule: evenodd;"/>
  <path class="cls-1" d="M 70.081 237.667 C 68.182 241.161 64.489 243.305 60.5 243.221 C 46.185 243.721 31.869 243.943 17.553 244.221 C 15.993 244.221 14.155 244.221 13.431 242.333 C 12.707 240.444 14.434 239.333 17.163 238.945 C 20.745 238.417 24.354 238.123 27.969 238.056 C 38.976 238.084 49.961 237.078 60.779 235.057 C 64.115 234.468 67.541 235.429 70.081 237.667 Z" style="fill-rule: evenodd;"/>
  <path class="cls-1" d="M 265.879 63.821 C 265.879 65.265 265.879 66.209 265.879 66.876 C 265.338 68.059 264.441 69.048 263.316 69.709 C 261.684 70.358 259.829 69.597 259.138 67.987 C 258.559 66.748 258.258 65.404 258.247 64.043 C 257.54 50.38 256.838 36.678 256.131 22.942 C 255.924 21.309 256.002 19.654 256.353 18.055 C 256.805 17.121 257.673 16.461 258.693 16.277 C 259.735 16.349 260.67 16.933 261.2 17.832 C 261.818 19.349 262.158 20.965 262.202 22.609 C 262.871 31.607 263.316 40.66 264.096 49.713 C 264.597 54.601 265.377 59.544 265.879 63.821 Z" style="fill-rule: evenodd;"/>
  <path class="cls-1" d="M 224.881 21.554 C 227.46 23.064 228.658 26.141 227.777 28.996 C 226.998 37.716 226.998 46.486 227.777 55.212 C 227.777 58.767 228.669 62.266 229.003 65.821 C 229.237 67.137 229.12 68.498 228.669 69.764 C 227.906 70.825 226.736 71.525 225.438 71.708 C 224.391 71.658 223.438 71.069 222.931 70.153 C 222.124 68.109 221.633 65.954 221.483 63.766 C 220.982 55.045 220.369 46.27 220.425 37.55 C 220.692 33.195 221.461 28.891 222.708 24.72 C 222.931 23.553 224.045 22.665 224.881 21.554 Z" style="fill-rule: evenodd;"/>
  <path class="cls-1" d="M 71.418 101.978 C 72.56 102.395 73.657 102.917 74.705 103.534 C 79.996 107.866 85.344 112.254 90.58 116.697 C 95.816 121.14 102.556 127.194 108.517 132.471 C 109.686 133.471 110.41 134.748 109.575 136.026 C 108.856 137.148 107.709 137.931 106.4 138.192 C 104.796 138.164 103.241 137.592 101.999 136.581 C 92.268 127.694 82.598 118.713 72.978 109.643 C 71.652 108.282 70.644 106.655 70.026 104.867 C 69.803 104.256 70.805 103.145 71.418 101.978 Z" style="fill-rule: evenodd;"/>
  <path class="cls-1" d="M 242.929 474.72 C 242.929 476.997 242.929 479.441 242.539 481.885 C 242.539 482.44 241.481 483.384 240.923 483.329 C 240.366 483.273 238.417 482.718 238.305 482.107 C 237.325 478.458 236.618 474.748 236.189 470.999 C 235.615 460.907 234.256 450.881 232.122 441.006 C 231.788 438.573 231.788 436.102 232.122 433.675 C 232.122 432.23 233.298 431.064 234.74 431.064 C 236.166 430.831 237.498 431.847 237.637 433.286 C 238.807 439.173 240.199 445.061 240.979 451.004 C 241.759 458.668 242.205 466.666 242.929 474.72 Z" style="fill-rule: evenodd;"/>
  <path class="cls-1" d="M 266.881 471.61 C 266.324 465.333 265.823 459.113 265.266 452.836 C 264.709 446.56 264.096 441.728 263.706 436.507 C 263.667 434.88 263.929 433.258 264.486 431.731 C 264.893 431.064 265.606 430.653 266.38 430.62 C 267.176 430.631 267.934 430.947 268.497 431.508 C 269.048 432.114 269.41 432.864 269.555 433.675 C 269.75 434.752 269.867 435.852 269.889 436.951 C 270.781 448.949 271.727 460.946 272.452 472.943 C 272.463 476.214 272.218 479.48 271.727 482.718 C 271.783 484.195 270.463 485.351 268.998 485.106 C 267.566 484.984 266.486 483.757 266.547 482.329 C 266.547 478.775 266.547 475.22 266.547 471.665 L 266.881 471.61 Z" style="fill-rule: evenodd;"/>
  <path class="cls-1" d="M 373.776 387.464 C 375.481 388.125 377.135 388.902 378.734 389.796 C 380.271 390.968 381.703 392.268 383.023 393.684 C 390.097 400.572 397.116 407.514 404.19 414.513 C 404.998 415.229 405.711 416.051 406.307 416.956 C 407.087 418.123 407.588 419.733 406.307 420.622 C 405.109 421.183 403.744 421.3 402.463 420.955 C 401.449 420.578 400.547 419.945 399.845 419.123 C 390.71 410.752 381.63 402.349 372.606 393.907 C 371.938 393.429 371.448 392.746 371.214 391.963 C 370.907 390.963 370.907 389.902 371.214 388.908 C 371.659 388.352 372.718 388.075 373.776 387.464 Z" style="fill-rule: evenodd;"/>
  <path class="cls-1" d="M 396.893 365.136 C 398.169 365.497 399.355 366.102 400.402 366.913 C 403.8 370.135 406.864 373.634 410.206 376.966 L 430.315 396.573 C 431.279 397.528 432.153 398.572 432.933 399.683 C 433.618 400.988 432.738 402.565 431.262 402.682 C 429.674 402.643 428.131 402.16 426.806 401.294 C 423.575 398.739 420.623 395.739 417.615 392.962 L 396.614 373.078 C 395.617 372.145 394.687 371.14 393.829 370.079 C 392.325 368.024 393.551 365.414 396.893 365.136 Z" style="fill-rule: evenodd;"/>
  <path class="cls-1" d="M 458.946 222.282 L 477.05 222.282 C 478.42 222.182 479.791 222.31 481.116 222.671 C 482.024 223.149 482.704 223.965 483.01 224.948 C 483.021 225.737 482.648 226.481 482.008 226.948 C 480.843 227.664 479.529 228.103 478.164 228.225 C 465.575 229.058 452.986 229.725 440.397 230.391 C 438.23 230.908 435.947 230.391 434.214 229.003 C 433.512 228.225 433.067 227.259 432.933 226.226 C 433.072 225.398 433.646 224.72 434.437 224.448 C 436.253 223.915 438.119 223.598 440.007 223.504 C 446.302 223.504 452.596 223.504 458.891 223.06 L 458.946 222.282 Z" style="fill-rule: evenodd;"/>
  <path class="cls-1" d="M 80.219 414.457 C 79.829 412.069 79.217 410.847 79.607 410.069 C 80.487 408.047 81.673 406.176 83.116 404.515 C 84.898 402.46 87.238 400.849 89.02 398.961 C 95.983 390.796 102.835 382.298 109.742 374.356 C 110.132 373.911 110.41 373.467 110.8 373.078 C 111.97 371.856 113.196 370.69 115.09 371.579 C 116.983 372.467 116.594 373.856 115.424 375.855 C 114.304 378.016 113.001 380.077 111.525 382.021 C 102.612 391.74 93.588 401.405 84.564 411.069 C 83.673 412.013 82.336 412.735 80.219 414.457 Z" style="fill-rule: evenodd;"/>
  <path class="cls-1" d="M 433.044 264.105 C 432.877 261.778 434.565 259.728 436.888 259.44 C 439.289 258.806 441.723 258.345 444.185 258.051 C 454.045 257.107 463.96 256.274 473.819 255.385 L 475.49 255.385 C 477.106 255.385 478.888 255.385 479.445 257.551 C 480.002 259.717 478.554 260.717 475.825 261.106 C 469.586 261.995 463.236 262.661 456.997 263.494 L 439.785 265.938 C 437.373 266.693 434.738 265.977 433.044 264.105 Z" style="fill-rule: evenodd;"/>
  <path class="cls-1" d="M 398.731 69.153 C 400.881 69.909 401.622 72.558 400.179 74.319 C 399.004 76.151 397.6 77.829 396.002 79.317 C 387.234 87.993 379.447 97.607 372.773 107.977 C 372.116 108.843 371.409 109.682 370.657 110.476 C 370.406 110.637 370.122 110.748 369.821 110.81 C 367.37 110.81 365.978 109.31 365.532 106.255 L 391.323 74.985 C 393.306 72.491 395.84 70.497 398.731 69.153 Z" style="fill-rule: evenodd;"/>
  <path class="cls-1" d="M 391.601 131.138 C 389.429 131.471 387.312 129.138 387.869 127.472 C 388.148 126.711 388.543 126 389.039 125.362 C 391.768 121.973 394.609 118.752 397.394 115.253 C 403.265 108.044 409.649 101.267 416.501 94.98 C 417.615 93.925 419.063 92.758 420.79 94.147 C 422.032 95.347 422.032 97.33 420.79 98.535 C 410.997 108.466 401.856 119.019 393.439 130.138 C 392.91 130.599 392.281 130.943 391.601 131.138 Z" style="fill-rule: evenodd;"/>
  <path class="cls-1" d="M 138.206 394.129 C 130.742 407.653 121.523 420.145 110.8 431.286 L 107.458 427.232 C 107.458 426.51 107.458 426.176 107.792 426.01 C 116.343 416.068 124.164 405.52 131.188 394.462 C 131.461 393.984 131.778 393.54 132.135 393.129 C 134.084 390.463 134.92 390.574 138.206 394.129 Z" style="fill-rule: evenodd;"/>
  <path class="cls-1" d="M 114.922 79.928 C 117.596 75.152 118.877 74.707 121.607 77.318 C 122.999 78.651 124.225 80.15 125.562 81.539 L 141.214 97.257 C 142.395 98.385 143.476 99.607 144.445 100.923 C 145.387 102.773 144.078 104.967 141.994 105.033 C 140.641 105.028 139.315 104.667 138.151 103.978 C 136.547 102.867 135.087 101.562 133.806 100.09 L 114.922 79.928 Z" style="fill-rule: evenodd;"/>
  <path class="cls-1" d="M 287.492 458.113 C 287.285 460.246 286.912 462.362 286.377 464.445 C 285.832 465.35 284.873 465.928 283.815 466 C 282.779 465.811 281.893 465.156 281.42 464.223 C 280.946 462.934 280.662 461.59 280.584 460.224 C 279.693 452.559 278.746 444.894 277.911 437.285 C 277.76 435.435 277.76 433.575 277.911 431.731 C 277.911 430.12 279.303 429.453 280.807 429.398 C 282.311 429.342 283.704 429.398 284.094 431.175 C 284.545 432.997 284.862 434.852 285.041 436.729 C 285.765 443.728 286.6 450.837 287.492 458.113 Z" style="fill-rule: evenodd;"/>
  <path class="cls-1" d="M 49.025 226.503 L 40.781 226.503 C 39.144 226.498 37.506 226.387 35.879 226.17 C 34.153 226.17 32.649 225.17 32.481 223.226 C 32.314 221.282 34.153 219.949 36.436 219.838 C 45.182 219.394 53.983 218.95 62.728 218.672 C 64.349 218.766 65.92 219.261 67.296 220.116 C 68.12 220.794 68.577 221.827 68.522 222.893 C 68.522 223.782 67.63 225.226 66.906 225.392 C 63.725 226.148 60.484 226.631 57.214 226.837 C 54.473 226.825 51.738 226.62 49.025 226.226 L 49.025 226.503 Z" style="fill-rule: evenodd;"/>
  <path class="cls-1" d="M 37.996 288.932 C 36.938 283.934 37.216 282.823 39.779 282.212 C 41.934 281.784 44.107 281.468 46.296 281.268 L 63.397 278.824 C 64.711 278.485 66.093 278.485 67.407 278.824 C 68.605 279.429 69.508 280.49 69.914 281.767 C 69.897 283.062 69.329 284.295 68.354 285.156 C 67.291 286.005 65.987 286.505 64.622 286.6 C 55.821 287.488 47.131 288.155 37.996 288.932 Z" style="fill-rule: evenodd;"/>
  <path class="cls-1" d="M 274.29 50.38 C 274.29 45.714 274.29 41.049 274.29 36.383 C 274.29 35.606 275.46 34.495 276.295 34.273 C 277.649 33.745 279.175 34.417 279.693 35.772 C 280.011 36.533 280.217 37.339 280.306 38.161 C 280.306 39.494 280.306 40.882 280.306 42.271 L 281.476 64.488 C 281.587 65.576 281.587 66.67 281.476 67.765 C 281.476 69.209 280.529 70.431 278.913 70.542 C 277.231 70.869 275.543 69.992 274.847 68.431 C 274.301 66.876 274 65.243 273.956 63.599 C 273.956 59.211 273.956 54.823 273.956 50.436 L 274.29 50.38 Z" style="fill-rule: evenodd;"/>
  <path class="cls-1" d="M 360.184 103.089 C 355.561 100.59 355.115 99.923 356.397 97.535 C 357.249 95.813 358.252 94.18 359.405 92.647 C 363.471 87.093 367.593 81.539 371.771 75.985 C 372.957 74.468 374.322 73.108 375.837 71.93 C 376.951 71.097 378.678 70.708 379.513 71.93 C 379.803 73.169 379.803 74.463 379.513 75.707 C 379.513 75.707 379.235 76.151 379.068 76.429 L 362.19 100.701 L 360.184 103.089 Z" style="fill-rule: evenodd;"/>
  <path class="cls-1" d="M 404.246 355.249 C 405.081 355.388 405.883 355.649 406.641 356.027 C 414.066 361.392 421.308 366.819 428.365 372.301 C 429.062 372.751 429.619 373.384 429.981 374.134 C 430.315 375.078 430.705 376.577 429.981 377.077 C 429.056 377.999 427.831 378.571 426.527 378.688 C 425.636 378.688 424.522 377.966 423.686 377.299 C 417.28 372.19 410.874 367.08 404.469 361.859 C 403.421 361.026 402.519 360.032 401.795 358.915 C 401.444 358.193 401.444 357.354 401.795 356.638 C 402.742 356.027 403.633 355.583 404.246 355.249 Z" style="fill-rule: evenodd;"/>
  <path class="cls-1" d="M 399.01 143.079 C 398.007 141.469 396.726 140.302 396.559 138.969 C 396.57 137.603 397.132 136.303 398.118 135.359 C 404.469 129.305 410.93 123.306 417.392 117.419 C 418.406 116.347 420.116 116.347 421.124 117.419 C 422.288 118.669 422.288 120.607 421.124 121.862 C 420.066 123.084 418.784 124.195 417.615 125.362 C 412.768 130.194 407.978 135.081 403.076 139.858 C 401.784 141.008 400.43 142.085 399.01 143.079 Z" style="fill-rule: evenodd;"/>
  <path class="cls-1" d="M 76.71 127.028 C 77.406 127.122 78.086 127.328 78.715 127.639 C 85.288 131.582 91.861 135.637 98.379 139.691 L 99.103 140.08 C 100.44 141.08 101.888 142.024 101.609 143.968 C 101.331 145.912 98.323 146.912 96.039 146.245 C 94.997 145.918 94.006 145.451 93.087 144.857 C 88.018 141.58 82.949 138.303 77.935 134.915 C 76.582 133.993 75.379 132.871 74.37 131.582 C 73.401 129.66 74.582 127.361 76.71 127.028 Z" style="fill-rule: evenodd;"/>
  <path class="cls-1" d="M 217.361 69.542 C 212.069 71.153 210.008 70.597 208.95 67.043 C 206.911 60.5 205.986 53.668 206.22 46.825 C 206.181 46.053 206.276 45.281 206.499 44.548 C 206.889 43.882 207.613 43.048 208.226 43.048 C 209.262 43.026 210.287 43.293 211.178 43.826 C 211.813 44.376 212.214 45.153 212.292 45.992 C 212.949 52.796 214.526 59.483 216.971 65.876 C 217.172 67.087 217.305 68.309 217.361 69.542 Z" style="fill-rule: evenodd;"/>
  <path class="cls-1" d="M 435.662 217.728 L 433.379 217.339 C 431.997 216.939 431.234 215.467 431.708 214.117 C 432.103 212.185 433.746 210.752 435.718 210.618 L 446.302 209.452 L 456.885 208.063 C 458.228 207.813 459.609 207.813 460.952 208.063 C 462.066 208.452 463.514 209.563 463.626 210.507 C 463.737 211.451 462.512 212.673 461.676 213.618 C 460.84 214.562 460.673 214.006 460.172 214.062 L 437.501 217.561 L 435.662 217.728 Z" style="fill-rule: evenodd;"/>
  <path class="cls-1" d="M 103.169 361.137 C 106.177 364.192 107.013 366.691 104.617 369.135 C 98.546 375.467 92.251 381.632 86.012 387.852 C 85.661 388.258 85.194 388.547 84.676 388.686 C 83.896 388.686 82.67 389.019 82.392 388.686 C 82.113 388.352 81.222 386.464 81.556 385.797 C 82.514 384.137 83.673 382.609 85.01 381.243 C 88.798 377.244 92.697 373.356 96.15 369.357 C 98.657 366.691 100.384 364.192 103.169 361.137 Z" style="fill-rule: evenodd;"/>
  <path class="cls-1" d="M 218.085 445.227 C 217.807 442.228 217.528 439.173 217.305 436.174 C 217.077 435.391 217.077 434.563 217.305 433.786 C 217.801 432.869 218.642 432.186 219.645 431.897 C 220.692 431.875 221.695 432.325 222.374 433.119 C 222.976 434.041 223.288 435.124 223.266 436.229 C 223.711 443.617 224.101 451.004 224.491 458.446 C 224.524 458.702 224.524 458.963 224.491 459.224 C 224.491 461.573 221.94 463.045 219.895 461.868 C 218.949 461.323 218.364 460.312 218.364 459.224 C 218.364 454.558 218.364 449.893 218.364 445.227 L 218.085 445.227 Z" style="fill-rule: evenodd;"/>
  <path class="cls-1" d="M 435.607 281.045 C 435.217 280.712 433.657 280.046 433.434 279.046 C 433.373 277.763 433.886 276.524 434.827 275.658 C 436.136 274.641 437.696 274.008 439.339 273.825 C 445.578 273.214 451.872 272.881 458.167 272.548 C 459.247 272.57 460.306 272.875 461.23 273.436 C 461.893 273.858 462.339 274.547 462.456 275.325 C 462.456 275.991 461.899 276.713 461.397 277.324 C 461.047 277.73 460.545 277.991 460.005 278.046 L 435.607 281.045 Z" style="fill-rule: evenodd;"/>
  <path class="cls-1" d="M 382.187 417.678 C 381.24 418.123 380.126 419.178 379.625 418.956 C 377.391 417.945 375.319 416.595 373.498 414.957 C 370.813 411.541 367.482 408.692 363.694 406.57 C 363.437 406.431 363.209 406.242 363.025 406.015 C 361.41 404.237 359.349 402.571 360.129 399.794 C 360.63 398.072 364.975 398.017 367.593 399.794 C 369.158 400.91 370.584 402.216 371.826 403.682 C 374.985 407.381 378.104 411.086 381.185 414.79 C 381.68 415.684 382.02 416.662 382.187 417.678 Z" style="fill-rule: evenodd;"/>
  <path class="cls-1" d="M 146.116 399.016 C 146.941 399.977 147.565 401.088 147.955 402.293 C 147.888 403.376 147.498 404.421 146.84 405.293 C 143.164 410.847 139.488 416.845 135.7 422.622 C 135.416 423.083 135.082 423.51 134.697 423.899 C 133.137 425.676 130.909 426.121 129.628 424.843 C 128.347 423.566 128.904 421.9 129.628 420.4 L 140.769 403.126 C 141.499 401.971 142.334 400.894 143.275 399.905 C 144.156 399.416 145.119 399.116 146.116 399.016 Z" style="fill-rule: evenodd;"/>
  <path class="cls-1" d="M 55.821 301.596 C 54.679 301.757 53.515 301.757 52.368 301.596 C 51.387 301.235 50.613 300.463 50.251 299.485 C 50.312 298.43 50.791 297.452 51.588 296.764 C 52.434 296.058 53.493 295.647 54.596 295.597 C 60.628 295.192 66.6 294.17 72.421 292.543 C 73.24 292.487 74.058 292.487 74.872 292.543 C 76.298 292.22 77.724 293.076 78.103 294.487 C 78.153 295.792 77.646 297.064 76.71 297.986 C 75.423 299.002 73.886 299.652 72.254 299.874 C 66.962 300.596 61.837 301.04 55.821 301.596 Z" style="fill-rule: evenodd;"/>
  <path class="cls-1" d="M 347.707 94.536 C 346.877 93.486 346.13 92.37 345.479 91.203 C 345.328 90.387 345.512 89.548 345.98 88.871 C 349.322 83.316 352.72 78.373 356.174 73.152 C 356.67 72.497 357.271 71.936 357.956 71.486 C 359.187 70.303 361.131 70.303 362.357 71.486 C 363.315 72.541 363.315 74.146 362.357 75.207 C 359.126 80.761 355.951 85.871 352.609 91.203 C 351.812 92.281 350.876 93.253 349.824 94.091 C 349.434 94.536 348.821 94.536 347.707 94.536 Z" style="fill-rule: evenodd;"/>
  <path class="cls-1" d="M 75.373 148.134 L 79.161 144.968 C 83.896 147.412 88.519 149.744 93.087 152.244 C 94.056 152.755 94.864 153.521 95.426 154.465 C 96.841 156.01 96.05 158.509 93.995 158.953 C 93.772 159.003 93.544 159.025 93.31 159.02 C 91.95 158.964 90.608 158.664 89.355 158.131 C 83.873 156.115 79.044 152.66 75.373 148.134 Z" style="fill-rule: evenodd;"/>
  <path class="cls-1" d="M 159.151 94.536 C 158.371 95.202 157.87 95.98 157.146 96.202 C 155.252 97.124 152.968 96.669 151.575 95.091 C 147.955 90.981 144.501 86.704 141.103 82.428 C 140.719 81.717 140.719 80.856 141.103 80.15 C 141.944 79.512 142.913 79.078 143.944 78.873 C 144.484 78.795 145.036 78.956 145.448 79.317 C 149.57 83.372 153.692 87.371 157.703 91.537 C 158.761 92.092 158.817 93.369 159.151 94.536 Z" style="fill-rule: evenodd;"/>
  <path class="cls-1" d="M 202.934 74.929 C 202.488 75.652 202.265 76.707 201.708 76.929 C 200.516 77.429 199.196 77.562 197.92 77.318 C 196.74 76.674 195.826 75.629 195.358 74.374 C 194.021 70.208 192.907 66.043 191.905 61.766 C 191.537 59.794 192.874 57.906 194.857 57.6 C 196.539 57.245 198.21 58.272 198.645 59.933 C 200.204 64.876 201.486 69.875 202.934 74.929 Z" style="fill-rule: evenodd;"/>
  <path class="cls-1" d="M 298.075 63.044 C 298.354 64.882 298.504 66.737 298.521 68.598 C 298.515 69.953 298.042 71.264 297.184 72.319 C 296.209 73.185 294.922 73.63 293.619 73.541 C 292.6 73.197 291.825 72.358 291.558 71.319 C 291.185 68.314 291.04 65.287 291.112 62.266 C 291.246 59.8 291.658 57.356 292.338 54.99 C 292.789 54.057 293.658 53.396 294.677 53.213 C 295.752 53.324 296.71 53.918 297.295 54.823 C 297.797 55.779 298.042 56.851 298.019 57.934 C 298.131 59.711 298.075 61.211 298.075 63.044 Z" style="fill-rule: evenodd;"/>
  <path class="cls-1" d="M 429.034 357.082 C 428.477 357.777 427.842 358.41 427.14 358.971 C 426.377 359.293 425.513 359.293 424.745 358.971 C 419.158 356.205 414.055 352.544 409.649 348.14 C 409.315 347.807 410.039 346.363 410.485 345.53 C 410.891 345.146 411.437 344.969 411.989 345.03 C 418.489 346.324 424.371 349.745 428.7 354.749 C 429.034 355.583 429.034 356.027 429.034 357.082 Z" style="fill-rule: evenodd;"/>
  <path class="cls-1" d="M 97.487 350.028 C 99.092 351.645 99.214 354.211 97.766 355.971 C 94.145 360.47 90.357 364.803 86.625 369.135 C 86.051 369.724 85.277 370.085 84.453 370.135 C 83.639 370.123 82.865 369.807 82.28 369.246 C 81.857 368.585 81.679 367.796 81.779 367.024 C 81.879 366.485 82.152 365.997 82.559 365.636 C 86.737 360.859 90.914 356.082 95.148 351.361 C 95.855 350.795 96.646 350.345 97.487 350.028 Z" style="fill-rule: evenodd;"/>
  <path class="cls-1" d="M 160.655 410.069 C 160.711 410.713 160.711 411.363 160.655 412.013 C 159.279 417.301 156.21 422.005 151.91 425.399 C 150.394 426.587 148.155 425.693 147.882 423.788 C 147.832 423.433 147.854 423.072 147.955 422.733 C 150.071 418.345 152.355 414.068 154.695 409.791 C 155.112 409.075 155.792 408.558 156.589 408.347 C 157.586 408.042 158.655 408.042 159.652 408.347 C 160.209 408.57 160.432 409.68 160.655 410.069 Z" style="fill-rule: evenodd;"/>
  <path class="cls-1" d="M 61.392 204.342 C 64.288 204.342 66.182 204.342 68.076 204.342 C 70.081 204.398 71.697 206.003 71.752 208.008 C 71.669 209.719 70.293 211.085 68.577 211.174 C 65.58 211.263 62.584 211.135 59.609 210.785 C 57.698 210.507 55.827 210.007 54.039 209.285 C 53.426 209.285 52.646 208.063 52.757 207.564 C 52.869 207.064 53.537 205.064 54.206 204.953 C 56.59 204.62 58.985 204.414 61.392 204.342 Z" style="fill-rule: evenodd;"/>
  <path class="cls-1" d="M 301.919 446.227 C 300.749 447.393 299.858 448.782 298.855 448.893 C 297.852 449.004 295.847 448.115 295.624 447.282 C 294.438 442.856 293.513 438.368 292.839 433.841 C 292.839 433.175 293.842 431.842 294.677 431.619 C 295.697 431.525 296.722 431.775 297.574 432.342 C 298.053 432.591 298.393 433.036 298.521 433.563 C 299.691 437.729 300.916 441.895 301.919 446.227 Z" style="fill-rule: evenodd;"/>
  <path class="cls-1" d="M 339.574 72.319 C 341.969 73.319 342.805 75.096 341.691 77.04 C 339.686 80.323 337.474 83.477 335.062 86.482 C 334.188 87.643 332.517 87.849 331.386 86.927 C 329.993 85.871 328.712 84.205 329.826 82.761 C 332.611 78.929 334.338 73.874 339.574 72.319 Z" style="fill-rule: evenodd;"/>
  <path class="cls-1" d="M 443.628 195.289 C 444.33 195.189 445.043 195.189 445.745 195.289 C 446.469 195.678 447.304 196.122 447.527 196.733 C 447.75 197.344 447.137 198.121 446.859 198.843 C 446.714 199.082 446.469 199.243 446.19 199.288 C 441.511 200.676 436.832 202.065 432.097 203.287 C 431.284 203.315 430.477 203.12 429.758 202.731 C 428.471 202.093 428.031 200.482 428.811 199.288 C 429.535 198.51 430.371 197.51 431.262 197.344 C 435.551 196.677 439.84 195.955 443.628 195.289 Z" style="fill-rule: evenodd;"/>
  <path class="cls-1" d="M 420.4 141.746 C 419.954 142.913 419.898 143.913 419.397 144.357 C 415.999 147.189 412.657 149.911 409.092 152.577 C 408.535 153.021 406.808 152.577 406.307 152.022 C 405.716 151.155 405.588 150.05 405.973 149.078 C 408.875 144.951 413.069 141.907 417.893 140.413 C 418.339 140.191 419.397 141.246 420.4 141.746 Z" style="fill-rule: evenodd;"/>
  <path class="cls-1" d="M 208.56 444.894 C 206.276 445.449 204.939 444.894 204.772 442.783 C 204.293 438.357 204.783 433.886 206.22 429.675 C 207.167 429.675 208.504 429.065 209.173 429.675 C 210.237 430.375 210.961 431.475 211.178 432.73 C 211.228 436.929 210.337 441.084 208.56 444.894 Z" style="fill-rule: evenodd;"/>
  <path class="cls-1" d="M 66.962 315.87 C 66.182 315.037 64.957 314.315 64.511 313.26 C 64.511 312.227 65.04 311.266 65.903 310.705 C 69.162 309.35 72.51 308.239 75.93 307.372 C 76.877 307.372 78.492 308.205 79.217 309.15 C 79.941 310.094 79.217 311.816 78.214 312.649 C 74.788 314.632 70.922 315.737 66.962 315.87 Z" style="fill-rule: evenodd;"/>
  <path class="cls-1" d="M 431.485 292.987 C 430.816 289.932 432.153 288.155 434.493 287.71 C 438.008 286.872 441.706 287.327 444.909 288.988 C 445.388 289.243 445.7 289.727 445.745 290.265 C 445.555 291.004 445.255 291.715 444.854 292.376 C 444.854 292.376 444.464 292.876 444.241 292.876 C 440.069 293.992 435.679 294.031 431.485 292.987 Z" style="fill-rule: evenodd;"/>
  <path class="cls-1" d="M 349.489 404.959 C 350.771 404.959 352.33 404.237 353.054 404.959 C 356.374 407.72 358.809 411.386 360.073 415.512 C 360.073 416.179 359.46 417.456 358.792 418.067 C 358.123 418.678 357.288 418.067 356.508 418.067 C 356.012 417.856 355.572 417.534 355.227 417.123 C 352.508 413.496 350.553 409.358 349.489 404.959 Z" style="fill-rule: evenodd;"/>
  <path class="cls-1" d="M 414.941 330.478 C 419.386 329.428 424.02 331.189 426.639 334.921 C 427.53 335.976 428.198 337.532 426.639 338.531 C 425.563 339.264 424.238 339.525 422.962 339.253 C 419.163 337.593 416.25 334.399 414.941 330.478 Z" style="fill-rule: evenodd;"/>
  <path class="cls-1" d="M 86.012 319.591 C 86.569 320.091 87.906 320.758 88.352 321.813 C 88.742 323.113 88.742 324.507 88.352 325.812 C 87.839 328.034 85.79 329.561 83.506 329.422 C 81.668 329.422 80.609 326.701 81.166 323.868 C 81.723 321.036 83.172 319.703 86.012 319.591 Z" style="fill-rule: evenodd;"/>
  <path class="cls-1" d="M 337.457 413.568 C 342.415 412.291 343.473 412.735 345.312 415.957 C 347.15 419.178 346.648 419.4 343.641 422.177 C 340.582 420.167 338.377 417.101 337.457 413.568 Z" style="fill-rule: evenodd;"/>
  <path class="cls-1" d="M 68.187 190.679 C 70.076 191.051 71.936 191.551 73.758 192.178 C 74.632 192.745 75.189 193.689 75.262 194.733 C 75.395 196.2 74.231 197.46 72.755 197.455 C 69.814 197.56 66.951 196.5 64.789 194.511 C 64.572 194.011 64.572 193.45 64.789 192.956 C 65.135 192.278 65.653 191.701 66.293 191.29 C 66.405 190.79 66.962 190.845 68.187 190.679 Z" style="fill-rule: evenodd;"/>
  <path class="cls-1" d="M 199.424 430.453 C 199.062 431.825 198.578 433.164 197.976 434.452 C 197.514 435.074 196.751 435.413 195.971 435.341 C 195.358 435.341 194.355 434.508 194.3 434.008 C 194.272 432.147 194.383 430.292 194.634 428.454 C 194.634 427.176 194.634 425.732 196.305 425.121 C 197.976 424.51 198.867 426.287 199.146 428.342 C 199.28 429.037 199.369 429.742 199.424 430.453 Z" style="fill-rule: evenodd;"/>
  <path class="cls-1" d="M 80.832 177.238 C 81.333 177.393 81.807 177.638 82.225 177.96 C 83.667 179.332 83.99 181.503 83.004 183.236 C 82.28 184.791 81.166 186.235 79.272 185.902 C 78.381 185.902 76.988 184.958 76.877 184.236 C 76.37 181.809 77.328 179.315 79.328 177.849 C 79.785 177.549 80.297 177.343 80.832 177.238 Z" style="fill-rule: evenodd;"/>
  <path class="cls-1" d="M 91.249 339.975 C 93.755 344.641 92.808 345.807 85.678 349.029 C 84.269 348.512 83.951 346.668 85.104 345.707 C 85.11 345.702 85.116 345.696 85.121 345.696 C 86.681 343.808 88.798 342.141 91.249 339.975 Z" style="fill-rule: evenodd;"/>
  <path class="cls-1" d="M 87.516 167.74 C 87.182 168.129 86.959 168.851 86.514 168.962 C 85.216 169.245 83.885 169.34 82.559 169.24 C 80.871 169.19 79.417 168.034 78.994 166.407 C 78.849 165.629 79.077 164.83 79.607 164.241 C 81.172 162.769 83.612 162.769 85.177 164.241 C 86.102 164.807 86.915 165.541 87.572 166.407 C 87.572 166.74 87.461 167.24 87.516 167.74 Z" style="fill-rule: evenodd;"/>
  <path class="cls-1" d="M 421.514 158.131 L 415.275 163.13 C 412.49 160.408 412.211 159.409 413.771 157.576 C 414.696 156.62 415.743 155.798 416.89 155.132 C 419.007 154.188 420.455 155.021 421.514 158.131 Z" style="fill-rule: evenodd;"/>
  <path class="cls-1" d="M 306.876 424.232 C 309.773 426.732 311.667 429.009 311.165 432.23 C 310.748 433.397 309.856 434.341 308.714 434.841 C 308.213 434.841 306.542 434.008 306.319 433.23 C 304.693 430.386 304.91 426.848 306.876 424.232 Z" style="fill-rule: evenodd;"/>
  <path class="cls-1" d="M 427.307 303.318 C 427.307 300.652 428.421 299.596 430.315 299.485 C 431.412 299.369 432.515 299.58 433.49 300.096 C 434.615 300.713 435.54 301.64 436.164 302.762 C 436.665 303.762 434.493 305.04 432.32 304.706 C 430.621 304.34 428.95 303.879 427.307 303.318 Z" style="fill-rule: evenodd;"/>
  <path class="cls-1" d="M 170.793 412.624 C 172.503 415.846 172.241 419.756 170.125 422.733 C 169.79 423.288 168.565 423.899 168.119 423.677 C 167.674 423.455 166.114 422.233 166.17 421.511 C 166.008 417.934 167.768 414.546 170.793 412.624 Z" style="fill-rule: evenodd;"/>
  <path class="cls-1" d="M 309.104 75.596 C 307.567 75.435 306.063 75.041 304.648 74.43 C 303.957 73.646 303.579 72.636 303.59 71.597 C 303.462 70.514 303.696 69.42 304.258 68.487 C 304.899 67.387 305.935 66.57 307.155 66.209 C 308.714 66.209 309.383 67.431 309.383 68.875 C 309.383 70.32 309.272 72.319 309.104 75.596 Z" style="fill-rule: evenodd;"/>
  <path class="cls-1" d="M 186.947 79.428 C 186.613 80.761 186.557 81.261 186.39 81.817 C 186.223 82.372 184.385 83.538 183.772 82.816 C 182.312 81.339 181.059 79.678 180.04 77.873 C 179.655 76.457 180.597 75.029 182.045 74.818 C 182.936 74.818 184.496 74.818 184.886 75.207 C 185.71 76.54 186.395 77.957 186.947 79.428 Z" style="fill-rule: evenodd;"/>
  <path class="cls-1" d="M 173.857 86.204 C 172.186 87.315 171.35 88.204 170.403 88.26 C 169.361 88.354 168.336 87.96 167.618 87.204 C 166.537 85.699 165.674 84.055 165.055 82.317 C 164.994 81.539 165.328 80.784 165.947 80.317 C 166.621 79.928 167.445 79.928 168.119 80.317 C 169.902 81.928 171.461 83.705 173.857 86.204 Z" style="fill-rule: evenodd;"/>
  <path class="cls-1" d="M 423.463 188.513 C 424.511 185.769 427.001 183.842 429.925 183.514 C 431.373 183.514 432.877 184.014 432.877 185.569 C 432.844 186.841 432.253 188.035 431.262 188.846 C 428.761 189.979 425.864 189.851 423.463 188.513 Z" style="fill-rule: evenodd;"/>
  <path class="cls-1" d="M 319.744 76.873 C 318.596 77.623 317.337 78.184 316.012 78.54 C 314.29 78.706 312.814 77.318 312.892 75.596 C 313.065 73.908 314.48 72.613 316.179 72.597 C 318.301 72.88 319.85 74.741 319.744 76.873 Z" style="fill-rule: evenodd;"/>
  <path class="cls-1" d="M 326.651 421.344 C 325.593 421.344 324.813 420.9 324.033 420.622 C 322.479 419.856 322.267 417.728 323.643 416.679 C 325.609 415.046 328.578 415.673 329.715 417.956 C 329.876 418.65 329.715 419.389 329.269 419.956 C 328.456 420.522 327.581 420.989 326.651 421.344 Z" style="fill-rule: evenodd;"/>
  <path class="cls-1" d="M 422.516 173.794 C 422.071 174.238 421.458 175.238 420.567 175.516 C 419.676 175.794 417.225 174.072 417.615 172.517 C 417.882 171.489 418.573 170.623 419.509 170.128 C 420.79 169.573 422.572 171.517 422.516 173.794 Z" style="fill-rule: evenodd;"/>
  <path class="cls-1" d="M 187.114 417.401 C 188.139 418.473 189.002 419.689 189.676 421.011 C 190.066 422.511 188.284 423.733 186.278 423.621 C 184.273 423.51 183.215 422.233 183.939 421.122 C 184.819 419.739 185.889 418.484 187.114 417.401 Z" style="fill-rule: evenodd;"/>
  <path class="cls-1" d="M 427.753 314.537 C 426.705 315.398 425.519 316.076 424.243 316.537 C 423.742 316.537 422.516 315.204 422.516 314.482 C 422.411 313.038 423.72 311.904 425.135 312.204 C 425.914 312.371 426.527 313.426 427.753 314.537 Z" style="fill-rule: evenodd;"/>
</svg>