<?xml version="1.0" encoding="utf-8"?>
<svg xmlns="http://www.w3.org/2000/svg" viewBox="0 0 500 500">
  <path d="M 59.036 250 C 59.036 144.52 144.52 59.025 250 59.025 C 355.48 59.025 440.964 144.52 440.964 250 C 440.964 355.48 355.48 440.975 250 440.975 C 144.52 440.975 59.036 355.48 59.036 250 Z M 250 11.264 C 118.164 11.264 11.252 118.153 11.252 250 C 11.252 381.847 118.164 488.736 250 488.736 C 381.836 488.736 488.748 381.847 488.748 250 C 488.748 118.153 381.836 11.264 250 11.264 Z M 166.579 236.192 C 157.297 226.882 142.171 226.882 132.832 236.192 C 123.493 245.525 123.493 260.628 132.832 269.962 L 198.664 335.782 C 208.003 345.115 223.071 345.115 232.41 335.782 L 366.824 201.408 C 376.163 192.098 376.163 176.972 366.824 167.661 C 357.485 158.328 342.359 158.328 333.078 167.661 L 215.566 285.162 L 166.579 236.192 Z" fill-rule="evenodd" style=""/>
</svg>