<svg viewBox="0 0 500 500" xmlns="http://www.w3.org/2000/svg">
  <g transform="matrix(5.819467, 0, 0, 5.819467, -40.973354, -5583.213379)" style="">
    <path style="text-indent:0;text-transform:none;direction:ltr;block-progression:tb;baseline-shift:baseline;color:#000000;enable-background:accumulate;" d="m 16,974.36215 c -4.3973,0 -8,3.6027 -8,8 l 0,40.00005 c 0,4.3973 3.6027,8 8,8 l 68,0 c 4.3973,0 8,-3.6027 8,-8 l 0,-40.00005 c 0,-4.3973 -3.6027,-8 -8,-8 l -68,0 z m 0,4 68,0 c 0.5626,0 1.082,0.1133 1.5625,0.3125 L 52.625,1007.3621 c -1.5688,1.365 -3.616,1.3651 -5.1875,0 l -33,-28.68745 c 0.4805,-0.1992 0.9999,-0.3125 1.5625,-0.3125 z m -3.9375,3.5625 23.6563,20.53125 -23.2813,21.7501 C 12.1658,1023.6619 12,1023.0252 12,1022.3622 l 0,-40.00005 c 0,-0.152 0.047,-0.2905 0.062,-0.4375 z m 75.875,0 c 0.016,0.147 0.062,0.2855 0.062,0.4375 l 0,40.00005 c 0,0.663 -0.1658,1.2997 -0.4375,1.8438 L 64.3745,1002.4246 87.937,981.92465 z m -49.1875,23.15625 6.0625,5.2812 c 2.9901,2.5975 7.4479,2.6013 10.4375,0 l 6.0625,-5.2812 22.6875,21.2813 -68,0 22.75,-21.2813 z" fill="#000000" fill-opacity="1" stroke="none" marker="none" visibility="visible" display="inline" overflow="visible"/>
  </g>
</svg>