<?xml version="1.0" encoding="utf-8"?>
<svg xmlns="http://www.w3.org/2000/svg" viewBox="0 0 500 500">
  <path d="M 250.157 7.776 C 63.737 7.776 -52.811 209.623 40.445 371.113 C 133.609 532.593 366.704 532.593 459.96 371.113 C 481.202 334.286 492.381 292.521 492.381 250.001 C 492.381 116.218 383.939 7.776 250.157 7.776 Z M 250.157 454.96 C 92.43 454.96 -6.229 284.155 72.68 147.522 C 151.589 10.878 348.816 10.878 427.725 147.522 C 445.706 178.675 455.116 214.021 455.116 250.001 C 455.116 363.194 363.35 454.96 250.157 454.96 Z M 343.319 319.873 C 343.319 332.73 332.886 343.165 320.029 343.165 L 180.284 343.165 C 167.428 343.165 156.993 332.73 156.993 319.873 L 156.993 180.128 C 156.993 167.263 167.428 156.838 180.284 156.838 L 320.029 156.838 C 332.886 156.838 343.319 167.263 343.319 180.128 L 343.319 319.873 Z" style=""/>
</svg>