<?xml version="1.0" encoding="utf-8"?>
<svg viewBox="0 0 500 500" xmlns="http://www.w3.org/2000/svg">
  <defs/>
  <title>Ethereum icon</title>
  <path d="M 383.333 0 L 116.667 0 C 85.728 0.043 56.085 12.331 34.208 34.208 C 12.336 56.085 0.043 85.728 0 116.667 L 0 383.333 C 0.043 414.272 12.336 443.915 34.208 465.792 C 56.085 487.669 85.728 499.957 116.667 500 L 383.333 500 C 414.272 499.957 443.915 487.669 465.792 465.792 C 487.669 443.915 499.957 414.272 500 383.333 L 500 116.667 C 499.957 85.728 487.669 56.085 465.792 34.208 C 443.92 12.331 414.272 0.043 383.333 0 Z M 466.667 383.333 C 466.645 405.413 457.856 426.603 442.229 442.229 C 426.603 457.856 405.419 466.645 383.333 466.667 L 116.667 466.667 C 94.587 466.645 73.397 457.856 57.771 442.229 C 42.144 426.603 33.355 405.419 33.333 383.333 L 33.333 116.667 C 33.355 94.581 42.144 73.397 57.771 57.771 C 73.397 42.144 94.581 33.355 116.667 33.333 L 383.333 33.333 C 405.419 33.355 426.603 42.144 442.229 57.771 C 457.856 73.397 466.645 94.581 466.667 116.667 L 466.667 383.333 Z M 250 133.333 C 219.061 133.333 189.376 145.627 167.499 167.499 C 145.621 189.376 133.333 219.061 133.333 250 C 133.333 280.939 145.627 310.624 167.499 332.501 C 189.376 354.379 219.061 366.667 250 366.667 C 280.939 366.667 310.624 354.379 332.501 332.501 C 354.379 310.629 366.667 280.939 366.667 250 C 366.624 219.061 354.336 189.419 332.459 167.541 C 310.587 145.664 280.939 133.376 250 133.333 Z M 250 333.333 C 227.899 333.333 206.709 324.56 191.083 308.917 C 175.44 293.291 166.667 272.101 166.667 250 C 166.667 227.893 175.44 206.709 191.083 191.083 C 206.709 175.435 227.893 166.667 250 166.667 C 272.107 166.667 293.291 175.435 308.917 191.083 C 324.565 206.704 333.333 227.893 333.333 250 C 333.312 272.08 324.523 293.269 308.896 308.896 C 293.275 324.517 272.085 333.312 250 333.333 Z M 420.832 108.331 C 420.832 120.123 413.728 130.768 402.832 135.269 C 391.936 139.787 379.376 137.291 371.04 128.955 C 362.709 120.624 360.208 108.059 364.731 97.163 C 369.227 86.267 379.872 79.163 391.664 79.163 C 407.771 79.163 420.832 92.224 420.832 108.331 Z"/>
</svg>