<?xml version="1.0" encoding="utf-8"?>
<svg viewBox="0 0 500 500" xmlns="http://www.w3.org/2000/svg">
  <g transform="matrix(15.455914, 0, 0, 15.455914, -8133.673828, -3998.818115)" style="">
    <g style="" transform="matrix(1.259062, 0, 0, 1.259062, -140.52182, -71.215981)">
      <path d="M 554.085 262.955 C 553.476 262.527 552.699 262.437 551.999 262.696 L 544.226 265.611 C 543.345 265.935 542.749 266.79 542.749 267.736 L 542.749 279.5 C 542.088 279.072 541.324 278.826 540.482 278.826 C 538.162 278.826 536.271 280.717 536.271 283.037 C 536.271 285.356 538.162 287.247 540.482 287.247 C 542.801 287.247 544.692 285.356 544.692 283.037 C 544.692 282.894 544.666 282.752 544.653 282.609 C 544.666 282.531 544.692 282.467 544.692 282.389 L 544.692 273.993 L 553.58 270.664 C 554.461 270.34 555.057 269.485 555.057 268.539 L 555.057 264.833 C 555.057 264.095 554.694 263.395 554.085 262.968 L 554.085 262.955 Z M 540.482 285.304 C 539.238 285.304 538.214 284.28 538.214 283.037 C 538.214 281.793 539.238 280.769 540.482 280.769 C 541.725 280.769 542.749 281.793 542.749 283.037 C 542.749 284.28 541.725 285.304 540.482 285.304 Z M 553.114 268.539 C 553.114 268.668 553.036 268.798 552.906 268.837 L 544.692 271.92 L 544.692 267.749 C 544.692 267.619 544.77 267.489 544.9 267.451 L 552.673 264.535 C 552.673 264.535 552.751 264.51 552.79 264.51 C 552.868 264.51 552.932 264.548 552.971 264.574 C 553.023 264.613 553.114 264.691 553.114 264.846 L 553.114 268.552 L 553.114 268.539 Z" fill="black" style=""/>
      <path d="M 530.765 269.109 L 538.538 269.109 C 539.069 269.109 539.51 268.668 539.51 268.137 C 539.51 267.606 539.069 267.165 538.538 267.165 L 530.765 267.165 C 530.233 267.165 529.793 267.606 529.793 268.137 C 529.793 268.668 530.233 269.109 530.765 269.109 Z" fill="black" style=""/>
      <path d="M 534.651 272.348 L 530.765 272.348 C 530.233 272.348 529.793 272.788 529.793 273.32 C 529.793 273.851 530.233 274.291 530.765 274.291 L 534.651 274.291 C 535.183 274.291 535.623 273.851 535.623 273.32 C 535.623 272.788 535.183 272.348 534.651 272.348 Z" fill="black" style=""/>
    </g>
  </g>
</svg>