<?xml version="1.0" encoding="utf-8"?>
<svg viewBox="0 0 500 500" xmlns="http://www.w3.org/2000/svg">
  <defs/>
  <title>Ethereum icon</title>
  <g transform="matrix(0.641026, 0, 0, 0.641026, -78.173172, -78.205139)">
    <g>
      <g>
        <rect x="421.5" y="478.9" transform="matrix(0.7071 -0.7071 0.7071 0.7071 -201.6502 501.0533)" width="165" height="30"/>
      </g>
      <g>
        <rect x="502.4" y="521.8" transform="matrix(0.7071 -0.7071 0.7071 0.7071 -219.4076 543.9233)" width="89" height="30"/>
      </g>
    </g>
    <g>
      <path d="M666.4,902H357.6c-38.9,0-70.6-31.7-70.6-70.6V192.6c0-38.9,31.7-70.6,70.6-70.6h308.7c38.9,0,70.6,31.7,70.6,70.6v638.7    C737,870.3,705.3,902,666.4,902z M357.6,152c-22.4,0-40.6,18.2-40.6,40.6v638.7c0,22.4,18.2,40.6,40.6,40.6h308.7    c22.4,0,40.6-18.2,40.6-40.6V192.6c0-22.4-18.2-40.6-40.6-40.6H357.6z"/>
    </g>
    <g>
      <path d="M576.5,198h-129c-22.1,0-40-17.9-40-40v-21c0-8.3,6.7-15,15-15h179c8.3,0,15,6.7,15,15v21    C616.5,180.1,598.6,198,576.5,198z M437.5,152v6c0,5.5,4.5,10,10,10h129c5.5,0,10-4.5,10-10v-6H437.5z"/>
    </g>
    <g>
      <rect x="435.9" y="805.9" width="152.3" height="30"/>
    </g>
  </g>
</svg>