<?xml version="1.0" encoding="utf-8"?>
<svg viewBox="0 0 500 500" xmlns="http://www.w3.org/2000/svg">
  <defs/>
  <title>Ethereum icon</title>
  <path d="M 169.061 322.442 L 290.955 214.377 L 139.284 297.416 L 152.525 382.478 L 165.393 328.781 C 165.893 326.414 167.11 324.181 169.061 322.447 L 169.061 322.442 Z M 240.165 361.336 L 195.431 330.059 L 383.129 163.675 C 387.252 160.203 388.535 154.191 385.84 149.268 C 382.784 143.645 375.728 141.561 370.105 144.623 L 127.405 277.497 L 36.681 212.082 L 469.902 65.445 L 345.168 434.746 L 241.443 362.208 C 241.054 361.88 240.62 361.597 240.187 361.336 L 240.165 361.336 Z M 169.605 410.609 L 184.04 350.379 L 215.139 372.126 L 169.605 410.587 L 169.605 410.609 Z M 157.581 451.148 C 152.675 455.299 145.363 454.688 141.212 449.781 C 139.629 447.898 138.74 445.659 138.523 443.358 L 115.842 297.722 L 4.827 217.677 C -0.379 213.943 -1.552 206.698 2.182 201.486 C 3.654 199.447 5.655 198.036 7.866 197.274 L 7.866 197.252 C 7.866 197.274 484.648 35.902 484.648 35.902 C 490.727 33.841 497.322 37.097 499.384 43.175 C 500.295 45.887 500.167 48.687 499.189 51.16 L 362.193 456.793 C 360.154 462.872 353.575 466.15 347.502 464.111 C 346.218 463.678 345.09 463.067 344.068 462.289 L 234.831 385.911 L 157.581 451.148 Z" fill-rule="evenodd"/>
</svg>