<?xml version="1.0" encoding="utf-8"?>
<svg viewBox="0 0 500 500" xmlns="http://www.w3.org/2000/svg">
  <g transform="matrix(61.28405, 0, 0, 61.28405, -9.433716, -9.433777)" style="">
    <path class="fil0" d="M1.999 6.7059c-0.0488,0.1059 -0.1744,0.1521 -0.2803,0.1033 -0.1059,-0.0488 -0.1521,-0.1744 -0.1033,-0.2803 0.2365,-0.5092 0.6104,-0.9272 1.0656,-1.2177 0.4556,-0.2908 0.9917,-0.454 1.5524,-0.454 0.5606,0 1.0968,0.1632 1.5524,0.454 0.4552,0.2906 0.8291,0.7084 1.0655,1.2177 0.0488,0.1059 0.0026,0.2315 -0.1033,0.2803 -0.1059,0.0488 -0.2315,0.0026 -0.2803,-0.1033 -0.2019,-0.435 -0.5207,-0.7916 -0.9085,-1.0391 -0.3875,-0.2473 -0.8455,-0.3862 -1.3258,-0.3862 -0.4804,0 -0.9383,0.1389 -1.3258,0.3862 -0.3878,0.2475 -0.7066,0.6042 -0.9086,1.0391zm1.1336 -6.4943l2.2015 0c0.8034,0 1.5338,0.3286 2.063,0.8579 0.5293,0.5292 0.8579,1.2596 0.8579,2.063l0 2.2015c0,0.8034 -0.3287,1.5338 -0.8579,2.0631 -0.5292,0.5292 -1.2596,0.8579 -2.063,0.8579l-2.2015 0c-0.8034,0 -1.5338,-0.3287 -2.0631,-0.8579 -0.5292,-0.5293 -0.8579,-1.2597 -0.8579,-2.0631l0 -2.2015c0,-0.8034 0.3287,-1.5338 0.8579,-2.063 0.5293,-0.5292 1.2597,-0.8579 2.0631,-0.8579zm2.2015 0.4234l-2.2015 0c-0.6867,0 -1.3112,0.2811 -1.7639,0.7337 -0.4526,0.4526 -0.7337,1.0771 -0.7337,1.7638l0 2.2015c0,0.6867 0.2811,1.3112 0.7337,1.7639 0.4527,0.4526 1.0772,0.7337 1.7639,0.7337l2.2015 0c0.6867,0 1.3112,-0.2811 1.7638,-0.7337 0.4526,-0.4527 0.7337,-1.0772 0.7337,-1.7639l0 -2.2015c0,-0.6867 -0.281,-1.3112 -0.7337,-1.7638 -0.4526,-0.4527 -1.0771,-0.7337 -1.7638,-0.7337zm-1.1007 1.0023c0.3863,0 0.7364,0.157 0.99,0.4105l0.0008 0.0008c0.2535,0.2536 0.4105,0.6037 0.4105,0.99 0,0.3863 -0.157,0.7364 -0.4105,0.99 -0.2536,0.2544 -0.604,0.4114 -0.9908,0.4114 -0.3868,0 -0.7372,-0.157 -0.9908,-0.4106l-0.0114 -0.0124c-0.2468,-0.2526 -0.3991,-0.5979 -0.3991,-0.9784 0,-0.3863 0.157,-0.7364 0.4105,-0.99l0.0008 -0.0008c0.2536,-0.2535 0.6037,-0.4105 0.99,-0.4105zm0.692 0.7093c-0.1768,-0.1766 -0.4216,-0.2859 -0.692,-0.2859 -0.2704,0 -0.5152,0.1093 -0.692,0.2859 -0.1766,0.1768 -0.2859,0.4216 -0.2859,0.692 0,0.2655 0.1054,0.5063 0.2763,0.6823l0.01 0.0093c0.1769,0.1769 0.4215,0.2864 0.6916,0.2864 0.2701,0 0.5147,-0.1095 0.6916,-0.2864 0.177,-0.1764 0.2863,-0.4212 0.2863,-0.6916 0,-0.2704 -0.1093,-0.5152 -0.2859,-0.692z"/>
  </g>
</svg>