<?xml version="1.0" encoding="utf-8"?>
<svg viewBox="0 0 500 114.198" xmlns="http://www.w3.org/2000/svg">
  <defs />
  <title>Audius Logo</title>
  <path fill-rule="evenodd"
    d="M 73.443 55.6 L 60.162 32.474 L 45.222 6.422 C 44.719 5.552 43.789 5.018 42.781 5.015 C 41.776 5.015 40.849 5.552 40.344 6.422 L 11.912 55.602 L 0.412 75.712 C -0.711 77.563 0.591 79.935 2.758 79.983 C 2.766 79.983 2.774 79.983 2.781 79.983 L 24.677 79.983 C 25.718 80 26.68 79.44 27.177 78.526 L 38.578 58.844 L 40.344 55.831 C 40.448 55.727 40.552 55.622 40.552 55.521 C 41.432 54.373 43.042 54.081 44.268 54.845 C 44.661 55.091 44.987 55.43 45.219 55.833 L 57.05 76.357 L 59.229 80.108 L 59.386 80.42 L 59.539 80.733 C 59.912 82.044 59.31 83.438 58.099 84.066 C 57.709 84.266 57.281 84.372 56.844 84.381 L 30.904 84.381 C 29.864 84.362 28.901 84.924 28.404 85.838 L 17.508 104.917 C 16.729 106.289 17.205 108.035 18.576 108.819 C 19.013 109.066 19.508 109.19 20.008 109.182 L 99.175 109.182 C 100.188 109.174 101.12 108.635 101.628 107.76 C 102.141 106.888 102.159 105.808 101.675 104.917 L 73.446 55.602 L 73.443 55.6 Z M 148.25 31.535 L 126.985 82.169 L 141.615 82.169 L 145.146 73.208 L 164.547 73.208 L 168.177 82.169 L 183.123 82.169 L 161.847 31.535 L 148.253 31.535 L 148.25 31.535 Z M 149.188 62.358 L 154.792 48.083 L 160.39 62.358 L 149.185 62.358 L 149.188 62.358 Z M 225.253 70.5 C 230.856 70.5 234.487 67.168 234.487 60.182 L 234.487 31.844 L 248.584 31.844 L 248.584 59.765 C 248.584 76.019 239.355 83.109 225.137 83.109 C 210.922 83.109 201.998 75.812 201.89 60.083 L 201.89 31.844 L 215.987 31.844 L 215.987 59.765 C 215.987 67.062 219.649 70.5 225.253 70.5 Z M 294.343 31.844 L 274.941 31.844 L 274.941 82.169 L 293.941 82.169 C 311.99 82.169 322.472 71.436 322.472 56.849 L 322.472 56.641 C 322.672 42.273 312.295 31.844 294.343 31.844 Z M 308.456 57.06 C 308.456 65.186 302.955 69.769 294.656 69.769 L 289.05 69.769 L 289.05 44.242 L 294.656 44.242 C 302.955 44.242 308.456 48.93 308.456 56.954 L 308.456 57.057 L 308.456 57.06 Z M 347.363 31.844 L 361.266 31.844 L 361.266 82.169 L 347.363 82.169 L 347.363 31.844 Z M 420.496 60.182 C 420.496 67.168 416.864 70.5 411.261 70.5 C 405.654 70.5 402.024 67.062 402.024 59.765 L 402.024 31.844 L 387.932 31.844 L 387.932 60.083 C 387.932 75.812 396.86 83.109 411.174 83.109 C 425.391 83.109 434.626 76.019 434.626 59.765 L 434.626 31.844 L 420.496 31.844 L 420.496 60.182 Z M 472.806 45.909 C 472.806 48.203 474.57 49.242 481.522 50.81 C 493.042 53.414 500.201 57.06 499.996 66.771 L 499.996 66.872 C 499.996 77.083 491.907 83.229 479.766 83.229 C 470.946 83.229 462.539 80.418 456.316 74.896 L 464.095 65.621 C 469.075 69.562 474.576 71.646 480.385 71.646 C 484.12 71.646 486.092 70.397 486.092 68.208 L 486.092 68 C 486.092 65.917 484.337 64.768 477.592 63.207 C 466.906 60.81 458.706 57.685 458.706 47.371 L 458.706 47.159 C 458.706 37.784 466.076 31.013 478.11 31.013 C 486.615 31.013 493.363 33.305 498.756 37.68 L 491.806 47.575 C 487.251 44.329 482.271 42.555 477.805 42.555 C 474.467 42.555 472.806 44.015 472.806 45.789 L 472.806 45.909 Z"
    clip-rule="evenodd" style="" />
</svg>